<svg width="2173" height="432" viewBox="0 0 2173 432" fill="none" xmlns="http://www.w3.org/2000/svg">
<path d="M695.354 134.091H694.607V123.91C694.607 78.298 657.541 41.2254 612.006 41.2254C566.472 41.2254 529.406 78.3264 529.406 123.91C529.406 134.504 537.993 143.095 548.59 143.095C559.187 143.095 567.757 134.504 567.757 123.91C567.757 99.4873 587.632 79.6118 612.006 79.6118C636.404 79.6118 656.262 99.4873 656.262 123.91V153.281C656.262 163.882 664.849 172.472 675.446 172.472H695.388C719.786 172.472 739.643 192.353 739.643 216.77C739.643 241.175 719.786 261.057 695.388 261.057H675.446C664.849 261.057 656.262 269.647 656.262 280.247V309.619C656.262 334.041 636.404 353.922 612.006 353.922C587.632 353.922 567.757 334.041 567.757 309.619V259.466C567.757 224.114 539.052 195.382 503.729 195.382C489.589 195.382 478.075 183.848 478.075 169.68V121.673C478.075 76.0727 441.003 39 395.469 39C349.94 39 312.868 76.101 312.868 121.673V131.894C268.098 132.828 232 169.561 232 214.573C232 259.567 268.098 296.3 312.868 297.252V307.456C312.868 353.056 349.94 390.134 395.469 390.134C441.003 390.134 478.075 353.039 478.075 307.456C478.075 296.855 469.488 288.265 458.891 288.265C448.294 288.265 439.707 296.855 439.707 307.456C439.707 331.872 419.849 351.754 395.469 351.754C371.077 351.754 351.219 331.872 351.219 307.456V278.078C351.219 267.484 342.632 258.894 332.035 258.894H314.601C290.209 258.894 270.351 239.007 270.351 214.59C270.351 190.19 290.209 170.303 314.601 170.303H332.035C342.632 170.303 351.219 161.713 351.219 151.118V121.741C351.219 97.3242 371.077 77.443 395.469 77.443C419.849 77.443 439.707 97.3242 439.707 121.741V169.731C439.707 205.065 468.429 233.814 503.729 233.814C517.892 233.814 529.406 245.349 529.406 259.516V309.687C529.406 355.287 566.472 392.371 612.006 392.371C657.541 392.371 694.607 355.253 694.607 309.687V299.505H695.354C740.923 299.505 777.955 262.387 777.955 216.827C777.955 171.237 740.889 134.142 695.354 134.142V134.091Z" fill="#8045FF"/>
<path d="M951.088 101.151L991.324 186.259H910.886L951.105 101.151H951.088ZM893.678 222.641H1008.5L1028.19 264.277H1078.19L981.197 66.5808H920.962L823.972 264.277H873.973L893.678 222.641Z" fill="black"/>
<path d="M1236.67 152.796C1230.49 157.903 1221.97 160.434 1211.12 160.434H1147.54V103.509H1211.12C1221.97 103.509 1230.49 106.017 1236.67 111.006C1242.85 116.029 1245.93 123.022 1245.93 131.98C1245.93 140.933 1242.85 147.722 1236.67 152.796ZM1256.17 74.7657C1244.2 69.3184 1230 66.5777 1213.59 66.5777H1100.55V264.28H1147.54V197.303H1213.59C1229.97 197.303 1244.16 194.551 1256.17 189.008C1268.13 183.487 1277.3 175.831 1283.66 166.08C1290.01 156.329 1293.2 144.953 1293.2 131.946C1293.2 118.939 1290.01 107.541 1283.66 97.6877C1277.3 87.8519 1268.13 80.2075 1256.17 74.7657Z" fill="black"/>
<path d="M1460.91 118.92C1450.4 113.206 1437.7 110.364 1422.79 110.364C1409.89 110.364 1398.08 113.274 1387.44 119.056C1377.64 124.356 1369.45 131.859 1362.83 141.434V61.3034H1316.68V264.243H1362.83V191.746C1362.83 182.431 1364.63 174.447 1368.22 167.759C1371.82 161.089 1376.98 155.879 1383.69 152.085C1390.41 148.308 1398.29 146.406 1407.31 146.406C1420.19 146.406 1430.06 149.888 1436.9 156.813C1443.7 163.739 1447.13 173.977 1447.13 187.538V264.226H1493.28V180.919C1493.28 166.338 1490.52 153.767 1484.99 143.218C1479.46 132.651 1471.46 124.531 1460.95 118.835L1460.91 118.92Z" fill="black"/>
<path d="M1679.06 224.6C1673.62 229.085 1665.92 231.338 1655.98 231.338H1570.24L1578.76 178.898H1650.19C1662.37 178.898 1671.56 181.321 1677.83 186.134C1684.1 190.982 1687.23 197.51 1687.23 205.789C1687.23 214.051 1684.53 220.166 1679.09 224.634L1679.06 224.6ZM1666.49 105.738C1671.11 109.877 1673.38 115.007 1673.38 121.174C1673.38 129.243 1670.65 135.545 1665.24 140.013C1659.79 144.498 1652.93 146.751 1644.64 146.751H1578.59L1570.44 99.5767H1646.58C1655.24 99.5767 1661.88 101.638 1666.47 105.755L1666.49 105.738ZM1727.29 183.224C1722.31 175.585 1714.58 169.509 1704.08 165.024C1699.54 163.082 1694.47 161.576 1688.91 160.415C1691.31 159.413 1693.58 158.32 1695.66 157.125C1704.61 151.95 1711.05 145.574 1715.02 138.025C1718.98 130.455 1720.94 122.646 1720.94 114.554C1720.94 99.6107 1715.64 87.8836 1705.05 79.3558C1694.45 70.828 1679.58 66.5811 1660.43 66.5811H1520.31L1536.36 162.771L1520.31 264.244H1665.66C1680.96 264.244 1693.67 261.888 1703.78 257.126C1713.91 252.38 1721.6 245.886 1726.86 237.607C1732.1 229.345 1734.74 219.957 1734.74 209.413C1734.74 199.572 1732.26 190.812 1727.28 183.173L1727.29 183.224Z" fill="black"/>
<path d="M863.951 353.522C870.217 350.317 875.255 347.356 879.048 344.57C882.84 341.795 885.608 339.06 887.34 336.325C889.09 333.59 889.939 330.612 889.939 327.424C889.939 323.267 888.693 319.609 886.18 316.478C883.672 313.324 880.157 310.917 875.691 309.168C871.225 307.435 865.977 306.551 859.988 306.551C853.716 306.551 848.106 307.525 843.176 309.462C838.257 311.404 834.294 314.156 831.3 317.724C828.305 321.291 826.624 325.532 826.279 330.453H841.529C841.755 328.165 842.519 326.087 843.799 324.202C845.095 322.316 847.02 320.804 849.595 319.7C852.159 318.573 855.465 318.035 859.45 318.035C862.858 318.035 865.683 318.471 867.93 319.315C870.183 320.181 871.881 321.376 873.008 322.922C874.145 324.462 874.717 326.229 874.717 328.222C874.717 330.108 874.145 331.874 873.008 333.517C871.881 335.181 869.957 336.982 867.29 338.89C864.607 340.793 860.854 343.081 856.054 345.68L827.281 361.767V372.039H891.875V360.312H851.107L863.985 353.539L863.951 353.522Z" fill="black"/>
<path d="M952.248 355.86C948.523 359.62 943.282 361.506 936.528 361.506C929.775 361.506 924.494 359.62 920.741 355.86C916.982 352.083 915.092 346.783 915.092 339.943C915.092 333.103 916.982 327.785 920.741 324.026C924.494 320.271 929.775 318.38 936.528 318.38C943.282 318.38 948.523 320.271 952.248 324.026C955.99 327.785 957.858 333.103 957.858 339.943C957.858 346.783 955.99 352.083 952.248 355.86ZM955.933 310.707C950.465 307.938 943.955 306.551 936.404 306.551C928.858 306.551 922.467 307.938 916.982 310.707C911.508 313.482 907.268 317.378 904.291 322.4C901.313 327.423 899.825 333.278 899.825 339.943C899.825 346.613 901.313 352.553 904.291 357.542C907.285 362.531 911.508 366.41 916.982 369.179C922.45 371.948 928.909 373.335 936.404 373.335C943.904 373.335 950.465 371.965 955.933 369.179C961.39 366.41 965.613 362.531 968.608 357.491C971.602 352.468 973.074 346.613 973.074 339.943C973.074 333.278 971.602 327.372 968.608 322.349C965.613 317.361 961.39 313.482 955.933 310.707Z" fill="black"/>
<path d="M1018.33 353.522C1024.6 350.317 1029.64 347.356 1033.43 344.57C1037.22 341.795 1039.97 339.06 1041.72 336.325C1043.45 333.59 1044.32 330.612 1044.32 327.424C1044.32 323.267 1043.06 319.609 1040.54 316.478C1038.05 313.324 1034.54 310.917 1030.07 309.168C1025.59 307.435 1020.36 306.551 1014.37 306.551C1008.1 306.551 1002.49 307.525 997.558 309.462C992.622 311.404 988.659 314.156 985.682 317.724C982.682 321.291 981.006 325.532 980.661 330.453H995.894C996.137 328.165 996.901 326.087 998.18 324.202C999.46 322.316 1001.4 320.804 1003.96 319.7C1006.52 318.573 1009.83 318.035 1013.83 318.035C1017.24 318.035 1020.06 318.471 1022.31 319.315C1024.56 320.181 1026.25 321.376 1027.39 322.922C1028.53 324.462 1029.1 326.229 1029.1 328.222C1029.1 330.108 1028.53 331.874 1027.39 333.517C1026.25 335.181 1024.34 336.982 1021.66 338.89C1018.99 340.793 1015.21 343.081 1010.44 345.68L981.663 361.767V372.039H1046.26V360.312H1005.47L1018.35 353.539L1018.33 353.522Z" fill="black"/>
<path d="M1070.4 307H1121.67V318.556H1075.09L1081.32 315.444L1077.53 341.489H1073.47C1074.85 339.356 1076.69 337.37 1078.97 335.533C1081.32 333.696 1084.18 332.215 1087.55 331.089C1090.92 329.963 1094.8 329.4 1099.19 329.4C1105.03 329.4 1110.03 330.378 1114.18 332.333C1118.33 334.23 1121.49 336.867 1123.66 340.244C1125.89 343.563 1127 347.356 1127 351.622C1127 356.185 1125.71 360.215 1123.12 363.711C1120.53 367.207 1116.86 369.963 1112.1 371.978C1107.35 373.993 1101.69 375 1095.13 375C1088.63 375 1082.97 374.081 1078.16 372.244C1073.34 370.348 1069.55 367.77 1066.78 364.511C1064.08 361.252 1062.48 357.637 1062 353.667H1077.26C1077.98 356.57 1079.88 358.881 1082.94 360.6C1086.01 362.259 1090.08 363.089 1095.13 363.089C1098.5 363.089 1101.42 362.644 1103.89 361.756C1106.36 360.807 1108.25 359.474 1109.58 357.756C1110.96 356.037 1111.65 353.993 1111.65 351.622C1111.65 349.311 1111.05 347.296 1109.85 345.578C1108.7 343.8 1106.96 342.437 1104.61 341.489C1102.32 340.541 1099.41 340.067 1095.85 340.067C1092.97 340.067 1090.35 340.393 1088 341.044C1085.71 341.696 1083.73 342.556 1082.04 343.622C1080.42 344.63 1079.03 345.696 1077.89 346.822H1064.8L1070.4 307Z" fill="black"/>
</svg>
