<svg width="2173" height="432" viewBox="0 0 2173 432" fill="none" xmlns="http://www.w3.org/2000/svg">
<path d="M1082.66 302.345C1088.28 302.345 1093.24 303.195 1097.51 304.894C1101.85 306.594 1105.37 308.908 1108.06 311.838C1110.76 314.71 1112.4 317.991 1112.98 321.683H1097.51C1096.64 319.691 1095.08 318.05 1092.86 316.761C1090.63 315.413 1087.38 314.739 1083.1 314.739C1078.53 314.739 1074.75 315.589 1071.76 317.288C1068.83 318.987 1066.66 321.419 1065.26 324.584C1063.85 327.689 1063.15 331.528 1063.15 336.098C1063.15 340.962 1063.91 345.093 1065.43 348.492C1067.01 351.832 1069.33 354.352 1072.38 356.051C1075.42 357.751 1079.14 358.6 1083.54 358.6C1086.64 358.6 1089.25 358.19 1091.36 357.37C1093.53 356.491 1095.14 355.29 1096.2 353.766C1097.31 352.242 1097.87 350.543 1097.87 348.668C1097.87 346.793 1097.34 345.152 1096.28 343.745C1095.29 342.339 1093.79 341.255 1091.8 340.493C1089.81 339.673 1087.26 339.263 1084.15 339.263C1080.05 339.263 1076.18 340.2 1072.55 342.075C1068.92 343.892 1065.7 346.47 1062.88 349.81L1056.99 345.767C1058.87 342.134 1061.27 338.911 1064.2 336.098C1067.13 333.227 1070.59 330.971 1074.57 329.33C1078.56 327.631 1083.07 326.781 1088.11 326.781C1093.5 326.781 1098.16 327.689 1102.09 329.506C1106.07 331.264 1109.12 333.754 1111.23 336.977C1113.39 340.2 1114.48 343.921 1114.48 348.14C1114.48 352.594 1113.25 356.549 1110.79 360.007C1108.33 363.464 1104.78 366.189 1100.15 368.181C1095.52 370.115 1089.93 371.082 1083.36 371.082C1075.39 371.082 1068.74 369.617 1063.41 366.687C1058.14 363.757 1054.15 359.714 1051.46 354.557C1048.82 349.342 1047.5 343.394 1047.5 336.714C1047.5 330.033 1048.82 324.115 1051.46 318.958C1054.09 313.801 1058.02 309.758 1063.23 306.828C1068.51 303.839 1074.98 302.345 1082.66 302.345Z" fill="black"/>
<path d="M974.328 327.221C974.68 322.122 976.35 317.727 979.338 314.036C982.327 310.285 986.282 307.414 991.205 305.422C996.186 303.371 1001.81 302.345 1008.08 302.345C1014.06 302.345 1019.27 303.254 1023.73 305.07C1028.18 306.887 1031.67 309.436 1034.19 312.717C1036.71 315.999 1037.97 319.778 1037.97 324.056C1037.97 327.396 1037.09 330.502 1035.33 333.373C1033.57 336.186 1030.79 338.999 1026.98 341.812C1023.17 344.624 1018.16 347.613 1011.95 350.777L992.875 360.798L991.996 356.491H1039.81V369.676H975.471V358.073L1003.77 341.812C1008.29 339.233 1011.8 337.036 1014.32 335.219C1016.9 333.344 1018.72 331.615 1019.77 330.033C1020.83 328.451 1021.35 326.752 1021.35 324.935C1021.35 323.06 1020.83 321.39 1019.77 319.925C1018.78 318.46 1017.25 317.317 1015.2 316.497C1013.15 315.677 1010.57 315.266 1007.47 315.266C1003.77 315.266 1000.73 315.823 998.324 316.936C995.922 317.991 994.135 319.427 992.963 321.243C991.791 323.06 991.087 325.052 990.853 327.221H974.328Z" fill="black"/>
<path d="M930.915 371.082C923.473 371.082 917.027 369.646 911.578 366.775C906.128 363.904 901.909 359.919 898.92 354.821C895.932 349.664 894.438 343.628 894.438 336.714C894.438 329.857 895.932 323.851 898.92 318.694C901.909 313.538 906.128 309.524 911.578 306.652C917.027 303.781 923.473 302.345 930.915 302.345C938.299 302.345 944.716 303.781 950.165 306.652C955.615 309.524 959.834 313.538 962.823 318.694C965.811 323.792 967.305 329.799 967.305 336.714C967.305 343.57 965.811 349.576 962.823 354.733C959.834 359.89 955.615 363.904 950.165 366.775C944.716 369.646 938.299 371.082 930.915 371.082ZM930.915 357.546C937.186 357.546 942.049 355.729 945.507 352.096C949.023 348.463 950.781 343.335 950.781 336.714C950.781 330.092 949.023 324.964 945.507 321.331C942.049 317.698 937.186 315.882 930.915 315.882C924.645 315.882 919.752 317.698 916.236 321.331C912.72 324.964 910.962 330.092 910.962 336.714C910.962 343.335 912.72 348.463 916.236 352.096C919.752 355.729 924.645 357.546 930.915 357.546Z" fill="black"/>
<path d="M821.406 327.221C821.758 322.122 823.428 317.727 826.416 314.036C829.405 310.285 833.36 307.414 838.283 305.422C843.264 303.371 848.889 302.345 855.159 302.345C861.136 302.345 866.352 303.254 870.805 305.07C875.259 306.887 878.745 309.436 881.265 312.717C883.785 315.999 885.045 319.778 885.045 324.056C885.045 327.396 884.166 330.502 882.408 333.373C880.65 336.186 877.866 338.999 874.058 341.812C870.249 344.624 865.238 347.613 859.027 350.777L839.953 360.798L839.074 356.491H886.891V369.676H822.549V358.073L850.852 341.812C855.364 339.233 858.88 337.036 861.4 335.219C863.979 333.344 865.795 331.615 866.85 330.033C867.905 328.451 868.432 326.752 868.432 324.935C868.432 323.06 867.905 321.39 866.85 319.925C865.854 318.46 864.33 317.317 862.279 316.497C860.228 315.677 857.65 315.266 854.544 315.266C850.852 315.266 847.805 315.823 845.403 316.936C843 317.991 841.213 319.427 840.041 321.243C838.869 323.06 838.166 325.052 837.931 327.221H821.406Z" fill="black"/>
<path d="M695.391 134.012H694.684V123.875C694.684 78.2545 657.552 41.2397 612.049 41.2397C566.547 41.2397 529.415 78.3724 529.415 123.875C529.415 134.484 538.02 143.089 548.629 143.089C559.239 143.089 567.844 134.484 567.844 123.875C567.844 99.4731 587.766 79.5512 612.167 79.5512C636.569 79.5512 656.491 99.4731 656.491 123.875V153.227C656.491 163.836 665.096 172.442 675.705 172.442H695.627C720.029 172.442 739.951 192.364 739.951 216.765C739.951 241.166 720.029 261.088 695.627 261.088H675.705C665.096 261.088 656.491 269.694 656.491 280.303V309.655C656.491 334.057 636.569 353.979 612.167 353.979C587.766 353.979 567.844 334.057 567.844 309.655V259.438C567.844 224.074 539.081 195.311 503.834 195.311C489.689 195.311 478.136 183.758 478.136 169.612V121.635C478.136 76.0147 441.004 39 395.501 39C349.999 39 312.867 76.1326 312.867 121.635V131.773C268.072 132.716 232 169.377 232 214.407C232 259.438 268.072 296.099 312.867 297.042V307.18C312.867 352.8 349.999 389.815 395.501 389.815C441.004 389.815 478.136 352.682 478.136 307.18C478.136 296.571 469.531 287.965 458.922 287.965C448.312 287.965 439.707 296.571 439.707 307.18C439.707 331.581 419.785 351.503 395.501 351.503C371.218 351.503 351.178 331.581 351.178 307.18V277.828C351.178 267.218 342.573 258.613 331.963 258.613H314.517C290.115 258.613 270.194 238.691 270.194 214.29C270.194 189.888 290.115 169.966 314.517 169.966H331.963C342.573 169.966 351.178 161.361 351.178 150.751V121.399C351.178 96.9976 371.1 77.0757 395.501 77.0757C419.903 77.0757 439.707 96.9976 439.707 121.399V169.377C439.707 204.741 468.47 233.504 503.716 233.504C517.862 233.504 529.415 245.057 529.415 259.202V309.42C529.415 355.04 566.547 392.055 612.049 392.055C657.552 392.055 694.684 354.922 694.684 309.42V299.282H695.391C741.012 299.282 778.026 262.149 778.026 216.647C778.026 171.145 740.894 134.012 695.391 134.012Z" fill="#8045FF"/>
<path d="M893.652 222.542H1008.47L1028.15 264.154H1078.14L981.238 66.4673H921.001L823.984 264.154H873.966L893.652 222.542ZM951.06 101.124L991.258 186.235H910.745L950.943 101.124H951.06Z" fill="black"/>
<path d="M1256.29 74.719C1244.38 69.2964 1230.12 66.4673 1213.73 66.4673H1100.68V264.154H1147.72V197.198H1213.85C1230.24 197.198 1244.38 194.369 1256.4 188.828C1268.31 183.288 1277.51 175.625 1283.87 165.841C1290.24 156.057 1293.42 144.74 1293.42 131.656C1293.42 118.571 1290.24 107.254 1283.87 97.3522C1277.51 87.568 1268.31 80.0236 1256.4 74.4832L1256.29 74.719ZM1236.72 152.756C1230.59 157.825 1221.98 160.419 1211.14 160.419H1147.6V103.482H1211.14C1221.98 103.482 1230.47 105.958 1236.72 110.909C1242.85 115.977 1246.03 122.932 1246.03 131.891C1246.03 140.85 1242.97 147.688 1236.72 152.756Z" fill="black"/>
<path d="M1461.04 118.807C1450.55 113.031 1437.82 110.202 1422.97 110.202C1410 110.202 1398.33 113.031 1387.6 118.925C1377.82 124.23 1369.57 131.774 1362.97 141.323V61.2812H1316.88V264.155H1362.97V191.658C1362.97 182.345 1364.73 174.329 1368.39 167.61C1372.04 160.891 1377.11 155.704 1383.83 151.932C1390.55 148.16 1398.45 146.274 1407.41 146.274C1420.37 146.274 1430.16 149.692 1437 156.647C1443.83 163.602 1447.25 173.858 1447.25 187.414V264.037H1493.34V180.695C1493.34 166.078 1490.51 153.464 1484.97 142.973C1479.43 132.364 1471.42 124.23 1460.93 118.572L1461.04 118.807Z" fill="black"/>
<path d="M1727.55 183.049C1722.6 175.386 1714.82 169.374 1704.33 164.895C1699.85 163.009 1694.66 161.476 1689.12 160.298C1691.59 159.237 1693.83 158.176 1695.84 156.997C1704.8 151.81 1711.28 145.445 1715.17 137.9C1719.18 130.356 1721.06 122.458 1721.06 114.442C1721.06 99.4708 1715.76 87.8006 1705.15 79.1953C1694.54 70.5899 1679.69 66.3462 1660.47 66.3462H1520.31L1536.34 162.537L1520.31 264.033H1665.66C1680.98 264.033 1693.72 261.676 1703.74 256.842C1713.87 252.127 1721.54 245.526 1726.84 237.274C1732.15 229.022 1734.74 219.592 1734.74 209.1C1734.74 199.198 1732.15 190.475 1727.31 182.931L1727.55 183.049ZM1666.72 105.601C1671.32 109.727 1673.68 114.913 1673.68 121.043C1673.68 129.177 1670.96 135.425 1665.54 139.904C1660.12 144.384 1653.28 146.623 1644.91 146.623H1578.78L1570.65 99.4708H1646.8C1655.52 99.4708 1662.12 101.475 1666.72 105.601ZM1679.33 224.425C1673.91 228.905 1666.25 231.144 1656.23 231.144H1570.41L1578.9 178.687H1650.34C1662.48 178.687 1671.67 181.163 1677.92 185.878C1684.17 190.711 1687.35 197.312 1687.35 205.564C1687.35 213.816 1684.76 219.946 1679.22 224.307L1679.33 224.425Z" fill="black"/>
</svg>
