<svg width="734" height="605" viewBox="0 0 734 605" fill="none" xmlns="http://www.w3.org/2000/svg">
<g clip-path="url(#clip0_786_1889)">
<path d="M70.0363 454.384L102.46 385.866L134.884 454.384H70.0363ZM78.1656 358.038L0 517.187H40.2986L56.1682 483.656H148.707L164.573 517.187H204.875L126.71 358.012H78.1656V358.038Z" fill="white"/>
<path d="M332.59 427.433C327.607 431.534 320.742 433.581 311.992 433.581H260.762V387.757H311.992C320.742 387.757 327.607 389.774 332.59 393.793C337.573 397.827 340.053 403.46 340.053 410.66C340.053 417.879 337.573 423.346 332.59 427.433ZM348.295 364.603C338.654 360.221 327.218 358.009 313.989 358.009H222.898V517.184H260.762V463.269H313.989C327.195 463.269 338.628 461.046 348.295 456.596C357.943 452.132 365.335 445.983 370.457 438.128C375.575 430.269 378.148 421.119 378.148 410.648C378.148 400.178 375.575 390.983 370.457 383.072C365.335 375.145 357.943 368.997 348.295 364.603Z" fill="white"/>
<path d="M513.305 400.148C504.831 395.56 494.588 393.266 482.583 393.266C472.179 393.266 462.673 395.601 454.084 400.261C446.186 404.542 439.595 410.578 434.267 418.295V353.796H397.066V517.185H434.267V458.82C434.267 451.309 435.715 444.887 438.607 439.502C441.503 434.136 445.659 429.937 451.076 426.876C456.497 423.845 462.834 422.303 470.114 422.303C480.492 422.303 488.438 425.109 493.948 430.685C499.437 436.265 502.19 444.509 502.19 455.415V517.159H539.391V450.085C539.391 438.365 537.165 428.227 532.71 419.743C528.254 411.244 521.801 404.695 513.327 400.107L513.305 400.148Z" fill="white"/>
<path d="M689.155 485.243C684.77 488.843 678.568 490.665 670.554 490.665H601.461L608.326 448.433H665.893C675.698 448.433 683.117 450.394 688.167 454.271C693.218 458.167 695.743 463.436 695.743 470.083C695.743 476.744 693.562 481.669 689.177 485.269L689.155 485.243ZM662.979 384.56C669.959 384.56 675.309 386.214 679.005 389.537C682.724 392.875 684.561 397.007 684.561 401.969C684.561 408.466 682.357 413.54 677.995 417.14C673.607 420.744 668.074 422.567 661.392 422.567H608.165L601.599 384.586H662.952L662.979 384.56ZM728.006 451.921C723.988 445.776 717.766 440.882 709.293 437.278C705.642 435.721 701.553 434.497 697.075 433.565C699.005 432.761 700.842 431.885 702.518 430.923C709.727 426.739 714.919 421.62 718.111 415.528C721.302 409.45 722.888 403.152 722.888 396.644C722.888 384.601 718.616 375.171 710.075 368.303C701.53 361.433 689.544 358.012 674.116 358.012H561.207L574.136 435.47L561.207 517.157H678.339C690.67 517.157 700.913 515.252 709.061 511.416C717.213 507.603 723.415 502.375 727.665 495.714C731.889 489.052 733.999 481.5 733.999 473.005C733.999 465.079 732.001 458.04 727.983 451.88L728.006 451.921Z" fill="white"/>
<path d="M520.429 76.6905H519.835V68.4843C519.835 31.7079 489.958 1.79568 453.26 1.79568C416.567 1.79568 386.69 31.7229 386.69 68.4843C386.69 77.0392 393.604 83.9633 402.145 83.9633C410.69 83.9633 417.599 77.0392 417.599 68.4843C417.599 48.7877 433.604 32.7651 453.26 32.7651C472.917 32.7651 488.925 48.7877 488.925 68.4843V92.1696C488.925 100.736 495.835 107.66 504.376 107.66H520.452C540.108 107.66 556.117 123.679 556.117 143.379C556.117 163.064 540.108 179.098 520.452 179.098H504.376C495.835 179.098 488.925 186.022 488.925 194.574V218.27C488.925 237.955 472.917 253.989 453.26 253.989C433.604 253.989 417.599 237.955 417.599 218.27V177.801C417.599 149.314 394.453 126.119 366.001 126.119C354.591 126.119 345.309 116.826 345.309 105.403V66.6886C345.309 29.9084 315.435 0 278.738 0C242.045 0 212.171 29.9234 212.171 66.6886V74.9211C176.095 75.6746 147 105.306 147 141.61C147 177.899 176.095 207.53 212.171 208.283V216.516C212.171 253.292 242.045 283.204 278.738 283.204C315.435 283.204 345.309 253.281 345.309 216.516C345.309 207.961 338.399 201.04 329.858 201.04C321.316 201.04 314.403 207.961 314.403 216.516C314.403 236.216 298.398 252.235 278.738 252.235C259.082 252.235 243.077 236.216 243.077 216.516V192.834C243.077 184.264 236.167 177.344 227.622 177.344H213.571C193.914 177.344 177.906 161.321 177.906 141.625C177.906 121.939 193.914 105.905 213.571 105.905H227.622C236.167 105.905 243.077 98.9813 243.077 90.4264V66.7298C243.077 47.0445 259.082 31.0106 278.738 31.0106C298.398 31.0106 314.403 47.0445 314.403 66.7298V105.444C314.403 133.947 337.549 157.13 366.001 157.13C377.415 157.13 386.69 166.42 386.69 177.857V218.311C386.69 255.092 416.567 285 453.26 285C489.958 285 519.835 255.062 519.835 218.311V210.109H520.429C557.149 210.109 587 180.17 587 143.42C587 106.67 557.127 76.7318 520.429 76.7318V76.6905Z" fill="white"/>
<path d="M459.51 549C464.043 549 468.033 549.685 471.48 551.054C474.974 552.423 477.807 554.288 479.979 556.649C482.151 558.963 483.473 561.607 483.945 564.582H471.48C470.771 562.976 469.52 561.654 467.726 560.615C465.932 559.529 463.311 558.986 459.864 558.986C456.181 558.986 453.136 559.671 450.728 561.04C448.367 562.41 446.62 564.369 445.487 566.919C444.353 569.422 443.787 572.514 443.787 576.197C443.787 580.116 444.401 583.445 445.628 586.184C446.903 588.875 448.768 590.905 451.223 592.275C453.679 593.644 456.677 594.329 460.218 594.329C462.721 594.329 464.822 593.998 466.522 593.337C468.269 592.629 469.567 591.661 470.417 590.433C471.314 589.206 471.763 587.836 471.763 586.325C471.763 584.814 471.338 583.492 470.488 582.359C469.685 581.226 468.481 580.352 466.876 579.739C465.271 579.077 463.217 578.747 460.714 578.747C457.409 578.747 454.293 579.502 451.365 581.013C448.438 582.477 445.841 584.555 443.574 587.246L438.829 583.988C440.34 581.061 442.276 578.464 444.637 576.197C446.997 573.884 449.783 572.066 452.994 570.744C456.205 569.374 459.841 568.69 463.901 568.69C468.245 568.69 471.999 569.422 475.163 570.885C478.373 572.302 480.829 574.309 482.528 576.905C484.275 579.502 485.149 582.501 485.149 585.9C485.149 589.489 484.157 592.676 482.174 595.462C480.191 598.248 477.335 600.443 473.604 602.049C469.874 603.607 465.365 604.386 460.077 604.386C453.655 604.386 448.296 603.206 443.999 600.845C439.75 598.484 436.539 595.226 434.367 591.071C432.242 586.868 431.18 582.076 431.18 576.693C431.18 571.31 432.242 566.541 434.367 562.386C436.492 558.231 439.655 554.973 443.858 552.612C448.107 550.204 453.325 549 459.51 549Z" fill="white"/>
<path d="M372.219 569.044C372.502 564.936 373.848 561.395 376.256 558.42C378.664 555.398 381.851 553.084 385.817 551.479C389.831 549.826 394.364 549 399.416 549C404.232 549 408.434 549.732 412.023 551.196C415.611 552.659 418.421 554.713 420.451 557.357C422.482 560.002 423.497 563.047 423.497 566.494C423.497 569.185 422.788 571.688 421.372 574.002C419.955 576.268 417.713 578.534 414.643 580.801C411.574 583.067 407.537 585.475 402.532 588.025L387.163 596.099L386.455 592.629H424.984V603.253H373.139V593.904L395.945 580.801C399.581 578.723 402.414 576.953 404.445 575.489C406.522 573.978 407.986 572.585 408.836 571.31C409.686 570.035 410.111 568.666 410.111 567.202C410.111 565.691 409.686 564.346 408.836 563.165C408.033 561.985 406.805 561.064 405.153 560.403C403.5 559.742 401.423 559.411 398.92 559.411C395.945 559.411 393.49 559.86 391.554 560.757C389.618 561.607 388.178 562.764 387.234 564.228C386.289 565.691 385.723 567.297 385.534 569.044H372.219Z" fill="white"/>
<path d="M337.24 604.386C331.244 604.386 326.05 603.229 321.659 600.915C317.267 598.602 313.868 595.391 311.46 591.283C309.052 587.128 307.848 582.265 307.848 576.693C307.848 571.169 309.052 566.329 311.46 562.174C313.868 558.019 317.267 554.784 321.659 552.47C326.05 550.157 331.244 549 337.24 549C343.19 549 348.36 550.157 352.751 552.47C357.142 554.784 360.542 558.019 362.95 562.174C365.358 566.282 366.562 571.121 366.562 576.693C366.562 582.217 365.358 587.057 362.95 591.212C360.542 595.367 357.142 598.602 352.751 600.915C348.36 603.229 343.19 604.386 337.24 604.386ZM337.24 593.479C342.293 593.479 346.212 592.015 348.997 589.088C351.831 586.16 353.247 582.029 353.247 576.693C353.247 571.357 351.831 567.226 348.997 564.298C346.212 561.371 342.293 559.907 337.24 559.907C332.188 559.907 328.246 561.371 325.412 564.298C322.579 567.226 321.163 571.357 321.163 576.693C321.163 582.029 322.579 586.16 325.412 589.088C328.246 592.015 332.188 593.479 337.24 593.479Z" fill="white"/>
<path d="M249 569.044C249.283 564.936 250.629 561.395 253.037 558.42C255.445 555.398 258.632 553.084 262.599 551.479C266.612 549.826 271.145 549 276.197 549C281.013 549 285.216 549.732 288.804 551.196C292.393 552.659 295.202 554.713 297.232 557.357C299.263 560.002 300.278 563.047 300.278 566.494C300.278 569.185 299.57 571.688 298.153 574.002C296.737 576.268 294.494 578.534 291.425 580.801C288.356 583.067 284.319 585.475 279.313 588.025L263.944 596.099L263.236 592.629H301.765V603.253H249.921V593.904L272.727 580.801C276.362 578.723 279.195 576.953 281.226 575.489C283.303 573.978 284.767 572.585 285.617 571.31C286.467 570.035 286.892 568.666 286.892 567.202C286.892 565.691 286.467 564.346 285.617 563.165C284.814 561.985 283.587 561.064 281.934 560.403C280.281 559.742 278.204 559.411 275.701 559.411C272.727 559.411 270.271 559.86 268.335 560.757C266.4 561.607 264.959 562.764 264.015 564.228C263.071 565.691 262.504 567.297 262.315 569.044H249Z" fill="white"/>
</g>
<defs>
<clipPath id="clip0_786_1889">
<rect width="734" height="605" fill="white"/>
</clipPath>
</defs>
</svg>
