<svg width="734" height="605" viewBox="0 0 734 605" fill="none" xmlns="http://www.w3.org/2000/svg">
<path d="M70.0363 454.384L102.46 385.866L134.884 454.384H70.0363ZM78.1656 358.038L0 517.187H40.2986L56.1682 483.656H148.707L164.573 517.187H204.875L126.71 358.012H78.1656V358.038Z" fill="white"/>
<path d="M332.591 427.433C327.608 431.534 320.743 433.581 311.993 433.581H260.763V387.757H311.993C320.743 387.757 327.608 389.774 332.591 393.793C337.574 397.827 340.054 403.46 340.054 410.66C340.054 417.879 337.574 423.346 332.591 427.433ZM348.296 364.603C338.655 360.221 327.219 358.009 313.99 358.009H222.899V517.184H260.763V463.269H313.99C327.196 463.269 338.629 461.046 348.296 456.596C357.944 452.132 365.336 445.983 370.458 438.128C375.576 430.269 378.149 421.119 378.149 410.648C378.149 400.178 375.576 390.983 370.458 383.072C365.336 375.145 357.944 368.997 348.296 364.603Z" fill="white"/>
<path d="M513.307 400.148C504.833 395.56 494.59 393.266 482.585 393.266C472.181 393.266 462.675 395.601 454.086 400.261C446.188 404.542 439.597 410.578 434.269 418.295V353.796H397.068V517.185H434.269V458.82C434.269 451.309 435.717 444.887 438.609 439.502C441.505 434.136 445.661 429.937 451.078 426.876C456.499 423.845 462.836 422.303 470.116 422.303C480.494 422.303 488.44 425.109 493.95 430.685C499.439 436.265 502.192 444.509 502.192 455.415V517.159H539.393V450.085C539.393 438.365 537.167 428.227 532.712 419.743C528.256 411.244 521.803 404.695 513.329 400.107L513.307 400.148Z" fill="white"/>
<path d="M689.156 485.243C684.771 488.843 678.569 490.665 670.555 490.665H601.462L608.327 448.433H665.894C675.699 448.433 683.118 450.394 688.168 454.271C693.219 458.167 695.744 463.436 695.744 470.083C695.744 476.744 693.563 481.669 689.178 485.269L689.156 485.243ZM662.98 384.56C669.96 384.56 675.31 386.214 679.006 389.537C682.725 392.875 684.562 397.007 684.562 401.969C684.562 408.466 682.358 413.54 677.996 417.14C673.608 420.744 668.075 422.567 661.393 422.567H608.166L601.6 384.586H662.953L662.98 384.56ZM728.007 451.921C723.989 445.776 717.767 440.882 709.294 437.278C705.643 435.721 701.554 434.497 697.076 433.565C699.006 432.761 700.843 431.885 702.519 430.923C709.728 426.739 714.92 421.62 718.112 415.528C721.303 409.45 722.889 403.152 722.889 396.644C722.889 384.601 718.617 375.171 710.076 368.303C701.531 361.433 689.545 358.012 674.117 358.012H561.208L574.137 435.47L561.208 517.157H678.34C690.671 517.157 700.914 515.252 709.062 511.416C717.214 507.603 723.416 502.375 727.666 495.714C731.89 489.052 734 481.5 734 473.005C734 465.079 732.002 458.04 727.984 451.88L728.007 451.921Z" fill="white"/>
<path d="M279.204 589.055C284.254 586.484 288.321 584.089 291.373 581.836C294.426 579.614 296.656 577.417 298.055 575.205C299.458 573.008 300.146 570.617 300.146 568.042C300.146 564.689 299.136 561.755 297.116 559.226C295.092 556.696 292.267 554.746 288.665 553.343C285.058 551.954 280.835 551.228 276.012 551.228C270.958 551.228 266.435 552.022 262.462 553.578C258.489 555.139 255.298 557.362 252.889 560.24C250.476 563.106 249.122 566.527 248.849 570.475H261.131C261.318 568.641 261.935 566.957 262.967 565.442C264 563.926 265.564 562.717 267.629 561.826C269.698 560.921 272.361 560.49 275.575 560.49C278.332 560.49 280.603 560.838 282.417 561.52C284.232 562.216 285.586 563.174 286.506 564.412C287.423 565.651 287.883 567.084 287.883 568.682C287.883 570.198 287.423 571.631 286.506 572.952C285.586 574.288 284.048 575.733 281.89 577.275C279.731 578.805 276.701 580.643 272.844 582.742L249.649 595.69V603.95H301.706V594.519H268.848L279.226 589.07L279.204 589.055Z" fill="white"/>
<path d="M350.387 590.919C347.379 593.935 343.156 595.451 337.713 595.451C332.269 595.451 328.023 593.935 324.993 590.919C321.959 587.887 320.444 583.602 320.444 578.098C320.444 572.589 321.959 568.319 324.993 565.288C328.023 562.256 332.269 560.741 337.713 560.741C343.156 560.741 347.379 562.256 350.387 565.288C353.395 568.319 354.91 572.589 354.91 578.098C354.91 583.602 353.395 587.887 350.387 590.919ZM353.35 554.566C348.943 552.343 343.706 551.217 337.623 551.217C331.536 551.217 326.392 552.343 321.959 554.566C317.552 556.793 314.129 559.936 311.742 563.982C309.329 568.016 308.136 572.727 308.136 578.098C308.136 583.479 309.329 588.247 311.742 592.266C314.151 596.285 317.552 599.402 321.959 601.64C326.37 603.867 331.581 604.993 337.623 604.993C343.661 604.993 348.943 603.878 353.35 601.64C357.757 599.402 361.158 596.285 363.567 592.225C365.98 588.179 367.173 583.479 367.173 578.098C367.173 572.727 365.98 567.975 363.567 563.925C361.158 559.921 357.757 556.793 353.35 554.566Z" fill="white"/>
<path d="M403.615 589.055C408.665 586.484 412.732 584.089 415.784 581.836C418.837 579.614 421.067 577.417 422.466 575.205C423.869 573.008 424.557 570.617 424.557 568.042C424.557 564.689 423.547 561.755 421.527 559.226C419.503 556.696 416.678 554.746 413.076 553.343C409.469 551.954 405.246 551.228 400.424 551.228C395.369 551.228 390.846 552.022 386.877 553.578C382.9 555.139 379.709 557.362 377.3 560.24C374.887 563.106 373.533 566.527 373.26 570.475H385.542C385.729 568.641 386.346 566.957 387.379 565.442C388.411 563.926 389.975 562.717 392.04 561.826C394.109 560.921 396.772 560.49 399.986 560.49C402.743 560.49 405.018 560.838 406.828 561.52C408.643 562.216 409.997 563.174 410.917 564.412C411.834 565.651 412.294 567.084 412.294 568.682C412.294 570.198 411.834 571.631 410.917 572.952C409.997 574.288 408.459 575.733 406.301 577.275C404.142 578.805 401.112 580.643 397.255 582.742L374.06 595.69V603.95H426.117V594.519H393.259L403.637 589.07L403.615 589.055Z" fill="white"/>
<path d="M520.429 76.6905H519.835V68.4843C519.835 31.7079 489.958 1.79568 453.26 1.79568C416.567 1.79568 386.69 31.7229 386.69 68.4843C386.69 77.0392 393.604 83.9633 402.145 83.9633C410.69 83.9633 417.599 77.0392 417.599 68.4843C417.599 48.7877 433.604 32.7651 453.26 32.7651C472.917 32.7651 488.925 48.7877 488.925 68.4843V92.1696C488.925 100.736 495.835 107.66 504.376 107.66H520.452C540.108 107.66 556.117 123.679 556.117 143.379C556.117 163.064 540.108 179.098 520.452 179.098H504.376C495.835 179.098 488.925 186.022 488.925 194.574V218.27C488.925 237.955 472.917 253.989 453.26 253.989C433.604 253.989 417.599 237.955 417.599 218.27V177.801C417.599 149.314 394.453 126.119 366.001 126.119C354.591 126.119 345.309 116.826 345.309 105.403V66.6886C345.309 29.9084 315.435 0 278.738 0C242.045 0 212.171 29.9234 212.171 66.6886V74.9211C176.095 75.6746 147 105.306 147 141.61C147 177.899 176.095 207.53 212.171 208.283V216.516C212.171 253.292 242.045 283.204 278.738 283.204C315.435 283.204 345.309 253.281 345.309 216.516C345.309 207.961 338.399 201.04 329.858 201.04C321.316 201.04 314.403 207.961 314.403 216.516C314.403 236.216 298.398 252.235 278.738 252.235C259.082 252.235 243.077 236.216 243.077 216.516V192.834C243.077 184.264 236.167 177.344 227.622 177.344H213.571C193.914 177.344 177.906 161.321 177.906 141.625C177.906 121.939 193.914 105.905 213.571 105.905H227.622C236.167 105.905 243.077 98.9813 243.077 90.4264V66.7298C243.077 47.0445 259.082 31.0106 278.738 31.0106C298.398 31.0106 314.403 47.0445 314.403 66.7298V105.444C314.403 133.947 337.549 157.13 366.001 157.13C377.415 157.13 386.69 166.42 386.69 177.857V218.311C386.69 255.092 416.567 285 453.26 285C489.958 285 519.835 255.062 519.835 218.311V210.109H520.429C557.149 210.109 587 180.17 587 143.42C587 106.67 557.127 76.7318 520.429 76.7318V76.6905Z" fill="white"/>
<path d="M448.717 551H489.739V560.176H452.472L457.456 557.706L454.422 578.388H451.172C452.28 576.694 453.748 575.118 455.578 573.659C457.456 572.2 459.743 571.024 462.439 570.129C465.135 569.235 468.241 568.788 471.756 568.788C476.426 568.788 480.422 569.565 483.744 571.118C487.067 572.624 489.594 574.718 491.328 577.4C493.109 580.035 494 583.047 494 586.435C494 590.059 492.965 593.259 490.894 596.035C488.824 598.812 485.887 601 482.083 602.6C478.28 604.2 473.754 605 468.506 605C463.306 605 458.78 604.271 454.928 602.812C451.076 601.306 448.043 599.259 445.828 596.671C443.661 594.082 442.385 591.212 442 588.059H454.206C454.783 590.365 456.3 592.2 458.756 593.565C461.211 594.882 464.461 595.541 468.506 595.541C471.202 595.541 473.537 595.188 475.511 594.482C477.485 593.729 479.002 592.671 480.061 591.306C481.169 589.941 481.722 588.318 481.722 586.435C481.722 584.6 481.241 583 480.278 581.635C479.363 580.224 477.967 579.141 476.089 578.388C474.259 577.635 471.924 577.259 469.083 577.259C466.772 577.259 464.678 577.518 462.8 578.035C460.97 578.553 459.381 579.235 458.033 580.082C456.733 580.882 455.626 581.729 454.711 582.624H444.239L448.717 551Z" fill="white"/>
</svg>
