<svg width="486" height="245" viewBox="0 0 486 245" fill="none" xmlns="http://www.w3.org/2000/svg">
<path d="M0.400391 159.3C0.400391 158.8 0.600354 158.5 0.800354 158.1C2.00035 155.6 3.20035 153.1 4.30035 150.6C4.60035 149.9 4.90038 149.2 5.20038 148.5C5.90038 147.2 6.60035 146 7.30035 144.7C8.10035 143.4 8.80038 142.1 9.20038 140.7C9.70038 138.9 10.5004 137.2 11.2004 135.5C11.6004 134.5 12.1004 133.6 12.9004 132.9C13.3004 132.5 13.6004 132 13.9004 131.5C14.5004 130.4 15.1004 129.3 15.7004 128.1C15.9004 127.8 16.0003 127.5 16.1003 127.1C16.3003 125.3 17.0003 123.6 17.6003 122C18.1003 120.9 18.6003 119.8 19.1003 118.7C21.9003 113.6 24.2004 108.3 26.5004 103C28.4004 98.5998 30.4003 94.1998 32.6003 89.9998C33.8003 87.7998 34.8004 85.5998 35.8004 83.2998C37.1004 80.2998 38.6004 77.2998 40.3004 74.4998C41.8004 71.9998 43.0003 69.3998 44.1003 66.6998C46.7003 60.0998 49.5004 53.5998 52.9004 47.4998C54.1004 45.3998 55.3004 43.3998 56.0004 41.0998C56.1004 40.7998 56.3004 40.4998 56.5004 40.1998C56.7004 40.0998 56.9004 39.8998 56.9004 39.6998C57.1004 38.5998 57.8004 37.7999 58.2004 36.8999C58.5004 36.1999 58.9003 35.4998 59.1003 34.7998C61.1003 29.7998 63.5004 24.9998 65.8004 20.0998C66.0004 19.6998 66.2004 19.2998 66.5004 19.0998C67.4004 18.5998 67.8003 17.7999 68.1003 16.8999C68.3003 16.0999 68.7003 15.3998 69.1003 14.6998C69.9003 13.1998 70.5004 11.6998 71.2004 10.0998C71.7004 8.99981 72.2004 7.89982 72.7004 6.79982C72.8004 6.59982 72.9004 6.39983 73.2004 6.49983C73.8004 6.79983 74.0004 6.39986 74.2004 5.89986C74.3004 5.69986 74.3004 5.39984 74.3004 5.19984C74.3004 4.99984 74.3004 4.69983 74.3004 4.49983C74.4004 3.69983 74.6004 2.99983 75.2004 2.49983C76.2004 1.69983 76.8004 0.299844 78.3004 0.199844C79.1004 0.0998441 79.8004 0.299807 80.5004 0.599808C81.5004 0.999807 82.5004 1.49984 83.4004 2.19984C83.9004 2.59984 84.4004 2.89986 84.9004 2.89986C85.9004 3.09986 86.8004 3.49982 87.7004 3.79982C92.0004 5.39982 96.2004 7.29986 100.2 9.39986C101.4 9.99986 102.7 10.4998 104 11.0998C105.6 11.6998 107.2 12.3998 108.6 13.5998C108.9 13.8998 109.4 14.1998 109.8 14.1998C110.7 14.2998 111.4 14.7998 112.2 15.1998C113.9 15.9998 115.6 16.6999 117.3 17.3999C118.3 17.7999 119.2 18.2998 120.1 18.7998C121 19.2998 121.9 19.7998 122.9 20.0998C124.1 20.4998 125.3 20.9998 126.4 21.5998C128.4 22.6998 130.6 23.4999 132.8 24.3999C134.5 25.0999 136.2 25.7998 137.9 26.4998C139 26.9998 140 27.3998 141 28.0998C143 29.3998 145.2 30.2998 147.5 30.9998C148.2 31.1998 148.9 31.4998 149.5 31.9998C149.8 32.1998 150.2 32.3998 150.6 32.4998C151.6 32.6998 152.6 33.1998 153.5 33.5998C164.2 38.3998 174.9 43.0998 185.7 47.5998C188.3 48.6998 190.7 50.0998 193.1 51.4998C193.3 51.5998 193.6 51.8999 193.9 51.8999C194.9 51.9999 195.7 52.4998 196.5 52.7998C198.8 53.7998 201.1 54.8999 203.5 55.8999C204.6 56.3999 205.7 56.8998 206.7 57.5998C207.5 58.0998 208.3 58.4998 209.2 58.6998C210.2 58.9998 211.2 59.3998 212.1 59.7998C217.5 62.1998 223 64.5998 228.4 67.0998C230.7 68.0998 232.9 69.2999 235.1 70.3999C236.7 71.2999 238.4 72.0998 240.1 72.7998C240.4 72.8998 240.6 72.9998 240.9 73.0998C241.1 73.1998 241.5 73.2998 241.4 73.6998C241.4 73.9998 241.1 73.9998 240.9 74.0998C240.7 74.1998 240.5 74.2998 240.2 74.2998C216.2 82.4998 192.3 90.9999 168.4 99.3999C146.1 107.2 123.9 115.1 101.6 123C99.4003 123.8 97.1004 124.6 94.9004 125.3C91.7004 126.3 88.7004 127.5 85.7004 129C84.0004 129.8 82.3004 130.5 80.4004 130.7C78.5004 130.9 76.8004 131.6 75.2004 132.5C74.6004 132.8 74.0004 133.1 73.3004 133.5C71.8004 134.3 70.3003 134.9 68.6003 135.4C66.7003 135.9 64.9004 136.6 62.9004 136.9C62.7004 136.9 62.5004 137 62.3004 137.2C60.7004 138.2 58.8004 138.8 57.0004 139.3C56.6004 139.4 56.1004 139.6 55.7004 139.8C54.6004 140.3 53.6004 140.7 52.4004 140.7C51.7004 140.7 51.2003 140.9 50.6003 141.2C49.5003 141.8 48.4003 142.5 47.1003 142.6C46.6003 142.6 46.1004 143 45.7004 143.2C44.5004 143.8 43.3003 144.3 42.1003 144.9C40.5003 145.6 38.9004 146.2 37.2004 146.7C35.4004 147.2 33.6004 147.9 31.8004 148.5C30.5004 148.9 29.2004 149.4 27.8004 149.8C26.8004 150.1 25.8004 150.4 24.9004 151C24.4004 151.4 23.8004 151.5 23.3004 151.3C23.0004 151.2 22.7004 151.2 22.4004 151.1C21.9004 151 21.5004 151.2 21.3004 151.6C21.0004 152.3 20.5004 152.5 19.8004 152.5C18.5004 152.6 17.2004 153.1 16.0004 153.6C11.1004 155.5 6.20034 157.4 1.10034 158.8C1.10034 159.3 0.800391 159.4 0.400391 159.3ZM60.9004 64.3999C61.8004 64.1999 62.7003 64.0999 63.6003 63.8999C65.0003 63.5999 66.3004 63.3998 67.7004 63.0998C68.5004 62.9998 68.5004 62.9998 68.9004 63.6998C69.1004 63.8998 69.2004 64.1998 69.3004 64.4998C70.2004 65.9998 71.0004 67.4998 71.9004 68.9998C72.0004 69.1998 72.1003 69.5999 72.6003 69.3999C72.8003 67.6999 73.0004 65.8998 73.2004 64.0998C73.3004 63.3998 73.1004 62.4998 73.7004 62.0998C74.2004 61.6998 75.0004 61.6998 75.7004 61.5998C77.5004 61.1998 79.3004 60.8998 81.4004 60.4998C80.9004 60.1998 80.6004 59.9999 80.3004 59.8999C78.7004 59.1999 77.0004 58.3998 75.4004 57.6998C74.2004 57.0998 74.1004 57.2998 74.3004 55.7998C74.6004 53.6998 74.8003 51.6998 75.1003 49.5998C74.6003 49.5998 74.4004 49.8998 74.2004 50.0998C72.8004 51.4998 71.4004 52.8998 70.0004 54.2998C69.5004 54.7998 69.1004 54.8998 68.5004 54.5998C66.7004 53.6998 64.8004 52.8998 63.0004 52.0998C62.8004 51.9998 62.5004 51.7998 62.2004 52.0998C62.4004 52.4998 62.6004 52.8998 62.9004 53.2998C63.8004 54.8998 64.7003 56.3998 65.6003 57.9998C66.0003 58.5998 66.0004 58.6998 65.5004 59.1998C64.2004 60.5998 62.8004 62.0998 61.5004 63.4998C61.2004 63.6998 60.9004 63.8999 60.9004 64.3999ZM179.1 77.0998L179.2 77.3999C179.8 77.2999 180.4 77.1998 181.1 77.0998C182.7 76.7998 184.4 76.4998 186 76.1998C186.5 76.0998 186.9 76.1998 187.2 76.6998C187.7 77.6998 188.3 78.5998 188.8 79.5998C189.3 80.5998 189.9 81.4998 190.5 82.4998C190.5 82.5998 190.7 82.5998 190.8 82.5998C190.9 82.5998 190.9 82.5998 190.9 82.4998C191 82.2998 191 82.1998 191 81.9998C191.3 80.0998 191.5 78.1998 191.7 76.2998C191.9 75.1998 191.9 75.1999 192.9 74.8999C194.1 74.6999 195.3 74.4998 196.5 74.1998C197.5 73.9998 198.6 73.8999 199.5 73.3999C199.2 72.9999 198.7 72.8998 198.3 72.6998C196.8 71.9998 195.2 71.2998 193.7 70.6998C192.5 70.1998 192.5 70.1999 192.7 68.8999C192.8 67.7999 193 66.6998 193.1 65.5998C193.2 64.6998 193.3 63.7998 193.4 62.7998C193.4 62.6998 193.4 62.6998 193.4 62.5998C193.4 62.5998 193.3 62.5998 193.1 62.4998C192.7 62.7998 192.3 63.1998 191.9 63.5998C190.6 64.8998 189.4 66.0999 188.1 67.3999C187.8 67.6999 187.5 67.7998 187 67.5998C185.2 66.6998 183.3 65.8998 181.5 65.0998C181.2 64.9998 180.9 64.5999 180.6 64.8999C180.5 65.2999 180.8 65.4998 181 65.7998C181.7 66.9998 182.4 68.1999 183.1 69.3999C184.5 71.9999 184.7 70.9998 182.7 73.2998C181.5 74.5998 180.3 75.8998 179.1 77.0998ZM156.8 67.1998C157 66.7998 157 66.3999 157 65.8999C157.2 64.0999 157.4 62.1999 157.7 60.3999C157.8 59.6999 157.8 59.6998 158.5 59.4998C160.4 59.0998 162.2 58.7999 164.1 58.3999C164.5 58.2999 165 58.2999 165.4 57.8999C165 57.6999 164.6 57.5999 164.3 57.3999C162.6 56.6999 160.9 55.8998 159.2 55.1998C158.3 54.7998 158.3 54.7998 158.4 53.7998C158.4 53.2998 158.5 52.8999 158.6 52.3999C158.8 50.8999 159 49.3999 159.1 47.8999C159.1 47.6999 159.3 47.2998 158.7 47.1998C158.4 47.5998 158 47.9999 157.6 48.3999C156.5 49.5999 155.4 50.7999 154.3 51.8999C153.7 52.5999 153.6 52.5998 152.8 52.1998C151.1 51.3998 149.3 50.5999 147.6 49.8999C147.3 49.6999 146.9 49.3998 146.4 49.5998C147 50.6998 147.6 51.7999 148.3 52.8999C148.9 53.9999 149.6 55.0998 150.2 56.2998L144.9 61.9998C145.7 62.0998 146.2 61.9999 146.8 61.8999C148.4 61.5999 150 61.2998 151.6 60.9998C152.7 60.7998 152.8 60.6998 153.4 61.7998C154.4 63.4998 155.3 65.0998 156.3 66.6998C156.2 66.8998 156.3 67.1998 156.8 67.1998ZM115.6 75.2998C115.2 75.0998 114.9 74.9998 114.5 74.7998C112.8 73.9998 111 73.1999 109.3 72.3999C108.8 72.1999 108.6 71.8998 108.7 71.2998C108.8 70.8998 108.8 70.4998 108.9 70.0998C109.1 68.4998 109.3 66.8998 109.4 65.2998C109.4 65.0998 109.6 64.6998 109.1 64.5998C108.9 64.7998 108.6 65.0998 108.4 65.2998C107.1 66.5998 105.8 67.8998 104.5 69.2998C104 69.7998 103.6 69.7998 103 69.4998C101.3 68.6998 99.6004 67.8998 97.9004 67.1998C97.6004 66.9998 97.2004 66.6999 96.7004 66.8999C96.9004 67.2999 97.2004 67.7998 97.4004 68.1998C98.2004 69.6998 99.1004 71.0998 99.9004 72.5998C100.4 73.4998 100.4 73.4998 99.7004 74.1998C98.4004 75.5998 97.2004 76.8998 95.9004 78.2998C95.7004 78.4998 95.3004 78.6998 95.3004 79.1998C95.7004 79.3998 96.2003 79.1998 96.6003 79.0998C98.4003 78.7998 100.2 78.3998 102.1 78.0998C102.9 77.8998 102.9 77.9998 103.3 78.6998C104.2 80.2998 105.2 81.8998 106.1 83.4998C106.3 83.7998 106.4 84.2999 106.8 84.3999C107.2 84.0999 107.1 83.5998 107.2 83.0998C107.4 81.2998 107.6 79.4998 107.9 77.7998C108 76.9998 108 76.9999 108.9 76.8999C110.7 76.4999 112.5 76.1999 114.4 75.8999C114.8 75.7999 115.3 75.7998 115.6 75.2998ZM29.8004 130.4C30.3004 130.6 30.7004 130.4 31.2004 130.3C32.9004 130 34.6004 129.7 36.3004 129.3C37.5004 129 37.5004 129.3 38.0004 130.1C38.9004 131.7 39.9004 133.3 40.8004 134.9C41.0004 135.2 41.1004 135.6 41.5004 135.6C41.5004 135.4 41.6003 135.3 41.6003 135.1C41.8003 133 42.1004 131 42.3004 128.9C42.4004 128.2 42.5003 128.1 43.1003 128C43.7003 127.9 44.2004 127.8 44.8004 127.6L50.0004 126.5C49.8004 126.1 49.4003 126 49.1003 125.8C47.4003 125 45.6004 124.3 43.9004 123.5C43.1004 123.1 43.0003 123.1 43.1003 122.2C43.3003 120.3 43.5004 118.4 43.8004 116.5C43.8004 116.2 44.0003 115.9 43.6003 115.5C41.7003 117.2 40.1004 119.2 38.2004 120.9C37.8004 120.7 37.4003 120.6 37.1003 120.4C35.4003 119.6 33.6004 118.8 31.9004 118.1C31.7004 118 31.4003 117.7 31.1003 118.2C31.4003 118.7 31.7004 119.2 31.9004 119.7C32.7004 121.1 33.5004 122.5 34.3004 123.9C34.7004 124.7 34.7003 124.7 34.1003 125.4C32.8003 126.8 31.5004 128.2 30.2004 129.6C30.1004 129.8 29.7004 130 29.8004 130.4ZM149.8 90.6998C149.4 90.1998 148.7 90.0998 148.2 89.7998C146.6 89.0998 145 88.3998 143.4 87.6998C143 87.4998 142.8 87.1998 142.8 86.7998C142.9 85.6998 143.1 84.4999 143.2 83.3999C143.3 82.2999 143.4 81.1998 143.6 80.0998L143.5 79.9998C143.1 79.9998 142.9 80.2998 142.7 80.5998C141.4 81.8998 140.2 83.1998 139 84.4998C138.2 85.3998 138.1 85.3999 137.1 84.8999C135.3 84.0999 133.5 83.2998 131.7 82.4998C131.5 82.3998 131.2 82.0998 130.9 82.4998C131.2 83.0998 131.6 83.6998 131.9 84.2998C132.7 85.6998 133.5 86.9999 134.2 88.3999C134.6 88.9999 134.5 89.0998 134.1 89.5998C132.8 90.9998 131.5 92.2998 130.3 93.5998C130 93.8998 129.6 94.1998 129.5 94.6998C130 94.7998 130.5 94.6998 131 94.5998C132.5 94.2998 133.9 93.9998 135.4 93.6998C137.1 93.3998 137.1 93.3998 138 94.7998C138.9 96.2998 139.7 97.7998 140.6 99.2998C140.7 99.4998 140.8 99.7999 141.2 99.8999C141.3 99.7999 141.3 99.6998 141.3 99.5998C141.5 97.5998 141.8 95.5998 142 93.5998C142.1 92.6998 142.1 92.3998 143.3 92.1998C145.2 91.8998 147.1 91.4998 148.9 91.1998C149.3 91.0998 149.6 90.9998 149.8 90.6998ZM78.2004 18.7998L78.0004 18.9998C78.3004 19.3998 78.5004 19.8998 78.8004 20.2998C79.6004 21.6998 80.5004 23.1998 81.3004 24.5998C81.8004 25.3998 81.8003 25.3998 81.1003 26.0998C79.7003 27.5998 78.3004 28.9998 76.9004 30.4998C76.7004 30.6998 76.4004 30.7998 76.7004 31.1998C78.8004 30.7998 80.9004 30.4998 83.0004 29.9998C84.5004 29.6998 84.4004 29.9998 85.0004 30.9998C85.8004 32.4998 86.7004 33.8999 87.5004 35.3999C87.6004 35.6999 87.8004 35.8998 87.9004 36.0998C88.0004 36.1998 88.1004 36.1998 88.2004 36.1998C88.3004 36.1998 88.4004 36.0998 88.4004 35.9998C88.6004 33.9998 88.9003 32.0998 89.1003 30.0998C89.3003 28.5998 89.2003 28.8998 90.6003 28.4998C90.8003 28.3998 91.1004 28.3999 91.3004 28.3999C93.2004 27.9999 95.0004 27.6998 96.9004 27.2998C96.7004 26.8998 96.4003 26.7998 96.1003 26.5998C94.3003 25.7998 92.5004 24.9998 90.7004 24.1998C89.8004 23.7998 89.8004 23.6998 89.9004 22.6998C90.1004 21.3998 90.3004 20.0998 90.4004 18.6998C90.5004 17.8998 90.5003 16.9998 90.6003 16.0998C89.9003 16.3998 89.6004 16.8998 89.2004 17.2998C88.0004 18.4998 86.8003 19.7998 85.6003 21.0998C85.3003 21.3998 84.9004 21.4998 84.5004 21.2998C84.1004 21.0998 83.7004 20.8998 83.2004 20.6998L78.2004 18.7998ZM65.9004 93.4998C65.3004 93.1998 64.9004 92.9999 64.5004 92.8999C62.8004 92.0999 61.1004 91.3998 59.4004 90.5998C58.5004 90.1998 58.5003 90.1998 58.6003 89.2998C58.9003 87.2998 59.2004 85.2998 59.4004 83.2998C59.4004 83.0998 59.6004 82.8998 59.3004 82.6998C58.9004 82.6998 58.7004 83.0998 58.5004 83.2998C57.2004 84.5998 55.9003 85.9998 54.6003 87.2998C53.9003 88.0998 53.8004 88.0998 52.8004 87.5998C51.0004 86.7998 49.2004 85.9998 47.4004 85.1998C47.1004 85.0998 46.9003 84.8998 46.6003 85.0998C46.6003 85.4998 46.9003 85.7998 47.1003 86.1998C48.0003 87.7998 48.9004 89.2999 49.8004 90.8999C50.3004 91.7999 50.3003 91.7998 49.6003 92.6998C48.3003 94.0998 47.0004 95.4999 45.7004 96.8999C45.5004 97.0999 45.2004 97.2998 45.3004 97.6998C45.6004 97.6998 46.0004 97.5998 46.3004 97.5998C48.2004 97.1998 50.2003 96.8998 52.1003 96.4998C52.9003 96.2998 52.9004 96.2998 53.3004 97.0998C54.3004 98.8998 55.4004 100.7 56.4004 102.5C56.5004 102.7 56.6004 102.9 56.9004 102.9C56.9004 102.8 57.0004 102.6 57.0004 102.5C57.2004 100.5 57.5004 98.4998 57.7004 96.4998C57.8004 95.5998 57.8004 95.5998 58.8004 95.2998C59.9004 95.0998 61.0004 94.8998 62.0004 94.6998C63.4004 93.9998 64.5004 93.9998 65.9004 93.4998ZM125 31.8999C124.4 31.7999 124.2 32.1998 124 32.4998C122.6 33.8998 121.2 35.2998 119.9 36.6998C119.5 37.0998 119.2 37.1999 118.7 36.8999C117 36.0999 115.2 35.2998 113.5 34.5998C113.2 34.3998 112.8 34.0998 112.4 34.2998C112.2 34.6998 112.6 34.9998 112.7 35.1998C113.6 36.7998 114.6 38.3998 115.5 39.9998C116 40.7998 116 40.7998 115.3 41.4998C114 42.8998 112.6 44.3998 111.3 45.7998C111.1 45.9998 110.8 46.1998 111 46.4998C111.4 46.5998 111.8 46.4999 112.2 46.3999C114 45.9999 115.8 45.5998 117.6 45.2998C118.4 45.0998 118.4 45.1999 118.9 45.8999C119.8 47.4999 120.8 49.0998 121.7 50.6998C121.9 51.0998 122 51.5998 122.6 51.7998C122.7 51.5998 122.7 51.4998 122.7 51.2998C122.9 49.2998 123.2 47.2998 123.4 45.2998C123.5 44.3998 123.5 44.3998 124.4 44.1998C125.4 43.9998 126.4 43.7998 127.5 43.5998C128.7 43.2998 130 43.2998 131.4 42.6998C130.7 42.3998 130.1 42.0998 129.6 41.7998C128.1 41.0998 126.5 40.3998 125 39.6998C124.5 39.4998 124.3 39.1998 124.4 38.5998C124.5 37.7998 124.6 36.9998 124.7 36.1998C124.7 34.7998 124.8 33.2999 125 31.8999ZM93.8004 97.9998C93.3004 97.7998 93.2004 98.0998 93.0004 98.1998C91.6004 99.5998 90.2004 101 88.9004 102.4C88.4004 102.9 87.9004 103.1 87.2004 102.7C85.4004 101.9 83.6004 101.1 81.8004 100.3C81.5004 100.2 81.3004 99.9998 81.0004 100.2C81.1004 100.4 81.2004 100.7 81.4004 100.9C82.4004 102.6 83.3004 104.2 84.3004 105.9C84.7004 106.7 84.7003 106.7 84.1003 107.4C82.8003 108.8 81.5004 110.2 80.2004 111.6C80.0004 111.8 79.6004 112 79.7004 112.5C80.0004 112.5 80.3004 112.5 80.5004 112.4C82.4004 112 84.3004 111.6 86.3004 111.2C87.3004 111 87.3004 111 87.8004 111.9C88.8004 113.6 89.8004 115.4 90.9004 117.1C91.0004 117.3 91.1004 117.6 91.5004 117.4C91.5004 117 91.6004 116.6 91.7004 116.1C91.9004 114.3 92.1004 112.5 92.3004 110.8C92.4004 110.3 92.6004 110.1 93.0004 110C93.3004 109.9 93.7004 109.9 94.0004 109.8L99.9004 108.7C99.8004 108.3 99.5004 108.2 99.3004 108.1C97.7004 107.4 96.0004 106.6 94.4004 105.9C92.9004 105.2 92.9003 105.5 93.1003 103.6C93.4003 101.8 93.6004 99.8998 93.8004 97.9998Z" fill="#283692"/>
<path d="M175.7 214.2C175 214.3 174.5 213.9 173.9 213.7C172.4 213.1 170.9 212.4 169.4 211.8C169.1 211.7 168.7 211.5 168.4 211.5C167.2 211.5 166.1 211.1 165 210.8C164.1 210.6 163.1 210.2 162.1 210.5C162.3 211 162.8 211.1 163.2 211.3C167.3 213.1 171.3 214.9 175.4 216.7C176 217 176.7 217.3 177.3 217.6C178.1 218.1 178.3 218.7 178 219.5C177.9 219.9 177.7 220.4 177.5 220.8C174.6 226.4 172.1 232.2 169.5 237.9C169.2 238.6 168.8 239.4 168.5 240.1C167.8 241.4 166.8 242.1 165.3 242C163.4 241.8 161.5 241.6 159.7 241.1C159.1 240.9 158.5 240.6 158 240.3C155.5 238.2 152.5 236.8 149.6 235.5C142.8 232.5 136 229.2 129.4 225.7C127.9 224.9 126.3 224 124.7 223.5C124.6 223.5 124.5 223.4 124.4 223.4C121.9 222.3 119.4 221.1 116.7 220.2C115.5 219.8 114.5 219.2 113.5 218.5C112.8 218 112 217.7 111.1 217.5C110.5 217.4 109.8 217.3 109.3 216.9C108.9 216.7 108.6 216.4 108.9 215.9C108.9 215.9 109 215.8 109 215.7C108.7 214 106.8 212.6 105 213C104.1 213.6 103.5 213.1 102.8 212.6C102.4 212.3 102 211.9 101.7 211.5C101.4 211.2 101 210.9 100.5 210.8C99.6996 210.7 99.0997 210.4 98.3997 210C98.2997 209.9 98.0997 209.8 97.8997 209.8C94.7997 208.8 91.9997 206.9 88.8997 205.8C87.8997 205.5 86.9996 204.9 86.1996 204.3C85.3996 203.8 84.6997 203.3 83.8997 202.8C82.4997 201.9 81.0997 201.3 79.3997 201C77.5997 200.7 75.7996 200 74.1996 199.2C72.0996 198.2 69.9996 197.2 67.7996 196.4C66.5996 195.9 65.3996 195.2 64.0996 194.9C63.6996 194.8 63.3996 194.5 63.1996 194.1C62.8996 193.2 62.1996 192.8 61.2996 192.5C60.8996 192.4 60.3996 192.2 59.9996 192.2C57.8996 191.9 55.8996 191.2 54.0996 190.3C51.1996 188.8 48.1996 187.6 45.0996 186.6C42.9996 185.9 40.8996 184.9 39.2996 183.2C38.5996 182.5 37.7997 182.3 36.8997 182.3C35.7997 182.2 34.6996 181.8 33.7996 181.2C33.1996 180.8 32.4996 180.5 31.7996 180.2C26.1996 177.8 20.7996 175 15.1996 172.8C14.0996 172.4 12.9996 172 12.4996 170.8C12.2996 170.5 11.9996 170.4 11.5996 170.4C10.9996 170.4 10.2996 170.4 9.79962 170.8C9.49962 171 9.19962 171.1 8.79962 171.1C8.29962 171.2 7.69966 171 7.39966 170.6C6.79966 169.9 6.39961 169 6.09961 168.2C6.09961 168.1 6.09965 167.8 6.19965 167.7C6.89965 167.3 7.09966 166.6 7.39966 165.9C7.59966 165.2 8.09962 165 8.79962 165.3C9.99962 165.9 11.0996 165.7 12.2996 165.2C20.4996 162.2 28.5996 159.3 36.6996 156.1C38.3996 155.4 40.0996 155.5 41.7996 156.1C42.8996 156.5 43.9996 157.1 45.0996 157.6C49.8996 159.8 54.7996 162.1 59.5996 164.4C67.2996 168 75.0996 171.1 82.7996 174.5C92.3996 178.7 102 182.9 111.6 187.1C112.8 187.6 114 188.3 115.1 188.9C115.4 189 115.6 189.2 115.9 189.3C120.8 191.3 125.5 193.5 130.4 195.6C132.6 196.6 134.9 197.4 137.2 198.3C139.1 199.1 141.1 199.9 143 200.7C145 201.6 146.9 202.5 148.8 203.4C150.5 204.2 152.3 204.5 154.2 204.6C154.8 204.6 155.5 204.6 156.1 204.6C157.2 204.6 158.1 204.9 159 205.6C160.1 206.5 161.4 207 162.6 207.6C165.1 208.7 167.6 209.8 170.1 210.9C171.8 211.7 173.5 212.6 175.2 213.5C175.3 213.7 175.6 213.8 175.7 214.2Z" fill="#CB1435"/>
<path d="M72.0996 144.4C72.7996 143.9 73.3996 143.6 73.6996 143C73.9996 142.4 74.1996 141.9 74.4996 141.3C76.3996 142.5 75.9996 142.5 78.1996 141.7C83.0996 139.9 88.0996 138 92.9996 136.2C95.2996 135.4 97.4996 134.4 99.6996 133.4C101.4 132.6 103.1 131.9 104.9 131.5C105.8 131.3 106.7 131.4 107.6 131.7C113.6 134.3 119.6 136.8 125.6 139.5C143.2 147.2 160.9 154.6 178.7 161.9C180.1 162.5 181.5 162.9 183.1 162.8C184.5 162.8 185.7 163.1 186.9 163.8C187.5 164.1 188 164.4 188.6 164.7C190.5 166 192.6 166.9 194.8 167.8C195.1 167.9 195.3 168.1 195.5 168.2C195.6 168.2 195.6 168.4 195.5 168.5C195.5 168.6 195.3 168.7 195.3 168.7C195 168.7 194.7 168.6 194.5 168.5C193.2 168 191.9 167.9 190.6 167.7C190.1 167.6 189.6 167.6 189 167.6C188.8 167.6 188.7 167.7 188.7 167.9C188.7 168 188.7 168.1 188.8 168.2C188.9 168.3 189.1 168.4 189.3 168.5C192.2 169.8 195.1 171.1 198 172.3C198.4 172.5 198.7 172.6 199.1 172.9C199.7 173.4 199.8 173.8 199.5 174.5C198 177.7 196.4 180.9 194.9 184C193 188 191.1 191.9 189.4 196C188.9 197.1 188.2 197.6 187.1 197.8C185.5 198.1 184 197.9 182.6 196.9C179.9 194.9 176.9 193.5 173.9 192.2C170.8 190.9 167.8 189.4 164.8 187.9C164.3 187.6 163.8 187.3 163.3 187C163.1 186.9 162.8 186.7 162.8 186.6C162.7 185.6 161.9 185.6 161.2 185.3C160.1 184.8 159 184.3 157.9 183.8C156.4 183 154.8 182.1 153 182.1C152.8 182.1 152.6 182 152.4 181.9C150.3 181 148.2 180 146.2 178.8C145.6 178.4 145 178.1 145.2 177.2C145.2 177.1 145 176.9 144.9 176.8C144.7 176.6 144.6 176.9 144.6 177C144.4 177.3 144.1 177.2 143.8 177.2C142.8 177.1 141.9 176.7 141.3 175.8C140.7 175 140 174.6 139.1 174.3C138 174 136.9 173.5 135.9 173C133 171.5 130.2 170 127.3 168.5C125.9 167.7 124.4 167.2 122.7 167.1C121.8 167.1 121 166.7 120.3 166.3C119.2 165.7 118.1 165.1 116.9 164.7C116.3 164.5 115.8 164.1 115.4 163.5C115 162.9 114.2 163.5 113.6 163C111.1 161 108.1 159.9 105.1 158.8C103.6 158.3 102 157.8 100.5 157.1C96.5996 155.4 92.6996 153.6 88.7996 151.7C87.7996 151.2 86.7996 150.8 85.9996 150C85.6996 149.8 85.3996 149.6 85.0996 149.5C82.8996 149.1 80.9996 147.9 78.9996 147.1C78.8996 147.1 78.8996 147.1 78.7996 147C77.8996 146.5 77.0996 146.5 76.1996 146.9C76.0996 147 75.9997 147 75.8997 147.1C74.5997 147.5 74.2996 147.4 73.7996 146.1C73.1996 145.7 72.6996 145 72.0996 144.4Z" fill="#CB1435"/>
<path d="M214 124.2C215 125.1 216 125.4 216.9 125.9C217.7 126.3 218.6 126.8 219.4 127C220.2 127.3 219.9 128.1 220.5 128.5C220.8 128.7 220.5 129.4 220.4 129.8C219.7 131.3 219 132.7 218.3 134.2C217.4 136 216.7 137.9 215.5 139.6C215.3 139.9 215.2 140.2 215.1 140.5C214.3 142.9 213.2 145.1 211.9 147.2C211.5 147.9 211.2 148.7 211 149.5C210.8 150.1 210.6 150.7 210.3 151.3C209.7 152.2 208.9 152.8 207.7 152.8C207.3 152.8 206.9 152.8 206.5 152.8C206 152.8 205.6 152.6 205.3 152.2C204.1 150.9 202.6 150.1 200.9 149.4C198.4 148.4 196.1 147.2 193.7 145.9C191.9 144.9 190 144 188.1 143.1C186.9 142.5 185.6 142 184.2 141.7C183.4 141.5 182.9 141.2 183 140.3C183.1 139.5 182.7 139.1 182 138.9C179.4 138.3 177 137.1 174.9 135.4C173.8 134.5 172.5 134 171.2 133.6C169.8 133.2 168.4 132.7 167.1 132.3C165.8 131.9 164.5 131.3 163.4 130.5C162.7 130 162.1 129.6 161.4 129.2C160.7 128.8 159.9 128.5 159.1 128.4C157.7 128.2 156.3 127.6 155 127C153.5 126.2 152 125.5 150.4 124.9C149.6 124.6 149 124.2 148.3 123.7C146.8 122.8 145.2 122.3 143.5 122.4C142.9 122.4 142.2 122.3 141.7 121.9C140.8 121.3 140.5 120.6 140.7 119.5C140.8 119.2 140.8 118.9 140.9 118.7C141.4 117.3 141.8 117 143.2 117.3C144 117.4 144.8 117.4 145.6 117C153.3 113.6 161.2 110.8 169.1 108.1C170.5 107.6 171.8 107.2 173.2 106.7C174.1 106.4 174.9 106.4 175.7 106.8C182 109.8 188.7 112 195.1 114.9C197.3 115.9 199.6 116.7 201.9 117.6C203.9 118.4 205.9 119.2 207.8 120.2C208.5 120.6 209.3 120.9 210.1 120.8C211.2 120.7 212.2 121 213.1 121.5C213.7 121.8 214.4 122 215 122.3C215.4 122.5 215.8 122.8 216 123.2C216.2 123.6 216 123.9 215.6 124C215.2 124 214.8 124.1 214 124.2Z" fill="#CB1435"/>
<path d="M209.701 92.5995C211.201 93.2995 212.501 92.9995 213.801 92.1995C215.301 91.1995 216.901 90.6995 218.501 90.0995C222.501 88.4995 226.501 87.0995 230.401 85.3995C232.201 84.5995 233.901 83.6995 235.701 82.8995C236.501 82.4995 237.001 81.9995 237.301 81.1995C237.701 79.9995 238.601 79.7995 239.701 80.2995C240.101 80.4995 240.201 80.8995 240.101 81.2995C239.901 81.8995 239.301 82.2995 239.301 82.9995C239.901 83.2995 240.401 82.7995 241.001 82.7995C241.301 82.7995 241.601 82.5995 241.801 82.8995C242.001 83.1995 242.001 83.5995 241.901 83.8995C241.601 84.5995 241.201 85.1995 240.901 85.8995C238.401 91.3995 235.801 96.8995 233.301 102.5C232.801 103.6 232.301 104.599 231.801 105.599C231.401 106.399 231.001 107.1 230.301 107.7C229.901 108.1 229.501 108.099 229.001 107.799C226.601 105.999 223.901 104.7 221.401 103C220.001 102.1 218.801 101.099 217.701 99.7995C217.201 99.1995 216.701 98.8995 215.901 99.0995C215.301 99.2995 214.801 98.9995 214.301 98.5995C214.101 98.4995 213.901 98.2995 213.801 98.0995C213.201 97.2995 212.301 97.0995 211.501 97.4995C210.301 97.9995 209.501 97.3995 208.901 96.3995C208.701 96.1995 208.601 95.8995 208.401 95.6995C208.101 95.1995 208.101 94.6995 208.501 94.2995C208.901 93.7995 209.201 93.2995 209.701 92.5995Z" fill="#CB1435"/>
<path d="M293.8 113.3L289.6 102.5H272.8L268.6 113.3H263.4L278.4 76.5H284.1L298.9 113.3H293.8ZM283.3 86.5C283 85.8 282.8 85.1 282.5 84.4C282.2 83.7 282 83 281.8 82.5C281.6 81.9 281.4 81.4 281.3 81C281.2 80.6 281.1 80.4 281.1 80.3C281.1 80.4 281 80.6 280.9 81C280.8 81.4 280.6 81.9 280.4 82.5C280.2 83.1 280 83.7 279.7 84.5C279.4 85.2 279.2 85.9 278.9 86.6L274.2 98.7H288L283.3 86.5Z" fill="#CB1430"/>
<path d="M319.001 113.299V95.3994C319.001 93.9994 318.901 92.8994 318.701 91.9994C318.501 91.0994 318.201 90.2994 317.801 89.7994C317.401 89.1994 316.801 88.7994 316.201 88.5994C315.501 88.3994 314.701 88.1994 313.801 88.1994C312.901 88.1994 311.901 88.3994 311.101 88.7994C310.301 89.1994 309.601 89.7994 309.001 90.4994C308.401 91.1994 308.001 92.1994 307.701 93.1994C307.401 94.2994 307.201 95.4994 307.201 96.8994V113.299H302.501V91.0994C302.501 90.4994 302.501 89.8994 302.501 89.1994C302.501 88.4994 302.501 87.8994 302.501 87.2994C302.501 86.6994 302.501 86.1994 302.401 85.7994C302.401 85.3994 302.401 85.0994 302.301 84.9994H306.701C306.701 85.0994 306.701 85.2994 306.801 85.6994C306.901 86.0994 306.801 86.4994 306.901 86.9994C307.001 87.4994 306.901 87.9994 307.001 88.4994C307.001 88.9994 307.001 89.3994 307.001 89.7994H307.101C307.501 88.9994 307.901 88.2994 308.501 87.5994C309.001 86.8994 309.601 86.3994 310.201 85.8994C310.901 85.3994 311.601 85.0994 312.401 84.7994C313.201 84.4994 314.201 84.3994 315.301 84.3994C317.401 84.3994 319.101 84.7994 320.401 85.6994C321.601 86.5994 322.501 87.8994 323.001 89.7994H323.101C323.501 88.9994 324.001 88.2994 324.501 87.5994C325.001 86.8994 325.601 86.3994 326.301 85.8994C327.001 85.3994 327.801 85.0994 328.701 84.7994C329.701 84.4994 330.701 84.3994 331.701 84.3994C333.101 84.3994 334.401 84.5994 335.401 84.9994C336.401 85.3994 337.301 85.9994 337.901 86.7994C338.601 87.5994 339.001 88.5994 339.401 89.8994C339.701 91.1994 339.901 92.6994 339.901 94.3994V113.199H335.201V95.2994C335.201 93.8994 335.101 92.7994 334.901 91.8994C334.701 90.9994 334.401 90.1994 334.001 89.6994C333.601 89.0994 333.001 88.6994 332.401 88.4994C331.701 88.2994 330.901 88.0994 330.001 88.0994C329.101 88.0994 328.201 88.2994 327.301 88.6994C326.501 89.0994 325.801 89.5994 325.201 90.3994C324.601 91.0994 324.201 91.9994 323.901 93.0994C323.601 94.1994 323.401 95.4994 323.401 96.8994V113.299H319.001Z" fill="#CB1430"/>
<path d="M350.7 100.2C350.7 101.6 350.8 102.9 351.2 104.3C351.5 105.5 352 106.6 352.6 107.5C353.2 108.4 354.1 109.1 355 109.6C356 110.1 357.2 110.3 358.6 110.3C360.6 110.3 362.3 109.9 363.5 109.1C364.7 108.3 365.6 107.2 366 106L370.1 107.2C369.8 108 369.4 108.8 368.9 109.6C368.3 110.4 367.6 111.2 366.8 111.7C365.9 112.3 364.8 112.9 363.5 113.3C362.2 113.7 360.6 113.9 358.7 113.9C354.5 113.9 351.3 112.7 349.2 110.2C347 107.7 345.9 104 345.9 99.0996C345.9 96.4996 346.2 94.1997 346.9 92.3997C347.6 90.5997 348.5 89.0997 349.6 87.8997C350.7 86.7997 352.1 85.8997 353.6 85.3997C355.2 84.8997 356.8 84.5996 358.5 84.5996C360.9 84.5996 362.8 84.9996 364.4 85.6996C366 86.4996 367.3 87.4997 368.2 88.8997C369.1 90.2997 369.9 91.7996 370.3 93.6996C370.7 95.5996 370.9 97.5996 370.9 99.5996V100.2H350.7ZM366 96.5996C365.7 93.5996 365 91.3996 363.7 90.0996C362.4 88.6996 360.6 88.0996 358.3 87.9996C357.5 87.9996 356.6 88.0997 355.8 88.3997C354.9 88.6997 354.1 89.0996 353.4 89.6996C352.7 90.2996 352.1 91.1996 351.5 92.2996C351 93.3996 350.7 94.7996 350.6 96.4996L366 96.5996Z" fill="#CB1430"/>
<path d="M377.001 113.3V91.5996C377.001 90.9996 377.001 90.3996 377.001 89.7996C377.001 89.1996 377.001 88.5996 377.001 87.9996C377.001 87.3996 377.001 86.8997 376.901 86.3997C376.901 85.8997 376.901 85.3996 376.801 84.9996H381.201C381.201 85.3996 381.201 85.8997 381.301 86.3997C381.301 86.8997 381.401 87.3996 381.401 87.9996C381.401 88.4996 381.401 89.0996 381.501 89.5996C381.501 90.0996 381.501 90.4997 381.501 90.8997H381.601C381.901 89.8997 382.201 88.9996 382.701 88.0996C383.001 87.3996 383.501 86.6996 384.001 86.0996C384.501 85.5996 385.101 85.1996 385.801 84.9996C386.501 84.6996 387.301 84.5996 388.301 84.5996C388.701 84.5996 389.001 84.5996 389.401 84.6996C389.701 84.7996 390.001 84.7997 390.201 84.8997V89.1996C389.801 89.0996 389.501 88.9996 389.101 88.9996C388.601 88.9996 388.201 88.8997 387.701 88.8997C386.601 88.8997 385.701 89.0996 384.901 89.5996C384.101 90.0996 383.501 90.7996 383.001 91.5996C382.501 92.4996 382.201 93.4996 381.901 94.6996C381.701 95.9996 381.601 97.2996 381.601 98.5996V113.3H377.001Z" fill="#CB1430"/>
<path d="M394.701 79.0996V74.5996H399.401V79.0996H394.701ZM394.701 113.3V84.9996H399.401V113.3H394.701Z" fill="#CB1430"/>
<path d="M410.2 99.0996C410.2 100.6 410.3 102.1 410.6 103.6C410.8 105 411.2 106.1 411.8 107.1C412.3 108 413.1 108.8 414 109.4C414.9 109.9 416 110.2 417.4 110.2C419.1 110.2 420.5 109.7 421.6 108.8C422.7 107.9 423.4 106.5 423.7 104.6L428.5 104.9C428.3 106.1 428 107.2 427.5 108.3C427 109.4 426.3 110.3 425.4 111.1C424.5 111.9 423.4 112.6 422.1 113.1C420.8 113.6 419.3 113.8 417.6 113.8C415.4 113.8 413.5 113.4 412 112.7C410.5 112 409.2 110.9 408.2 109.6C407.2 108.3 406.5 106.7 406.1 105C405.7 103.1 405.4 101.1 405.4 99.1996C405.4 97.2996 405.6 95.5996 405.9 94.1996C406.2 92.6996 406.7 91.4997 407.2 90.3997C407.7 89.3997 408.4 88.4996 409.2 87.6996C409.9 86.9996 410.8 86.3997 411.7 85.8997C412.6 85.4997 413.6 85.0997 414.5 84.8997C415.5 84.6997 416.5 84.5996 417.5 84.5996C419.1 84.5996 420.5 84.7996 421.7 85.2996C422.9 85.6996 424 86.2996 424.9 87.0996C425.8 87.7996 426.5 88.7996 427.1 89.7996C427.7 90.7996 428.1 91.9996 428.3 93.0996L423.5 93.4996C423.3 91.8996 422.6 90.6996 421.6 89.7996C420.6 88.8996 419.2 88.3997 417.4 88.3997C416.1 88.3997 414.9 88.5996 414 89.0996C413.1 89.4996 412.3 90.1996 411.8 91.0996C411.2 91.9996 410.8 93.0996 410.6 94.4996C410.4 95.8996 410.1 97.2996 410.2 99.0996Z" fill="#CB1430"/>
<path d="M440.5 113.9C437.7 113.9 435.5 113.2 434.1 111.7C432.7 110.2 432 108.1 432 105.5C432 103.6 432.4 102.1 433.1 100.9C433.8 99.6997 434.7 98.7996 435.9 98.0996C437.1 97.3996 438.4 96.8996 439.8 96.6996C441.3 96.3996 442.8 96.2996 444.3 96.2996L450.6 96.1996V94.6996C450.6 93.4996 450.5 92.4996 450.2 91.6996C450 90.8996 449.6 90.1996 449.1 89.6996C448.6 89.1996 447.9 88.7996 447.2 88.5996C446.4 88.3996 445.6 88.1996 444.5 88.1996C443.7 88.1996 442.9 88.2997 442 88.3997C441.3 88.4997 440.7 88.6996 440.1 89.0996C439.6 89.3996 439.1 89.8996 438.8 90.4996C438.5 91.0996 438.3 91.7996 438.1 92.6996L433.2 92.2996C433.4 91.1996 433.7 90.1996 434.2 89.1996C434.7 88.1996 435.4 87.3996 436.3 86.7996C437.2 86.0996 438.3 85.5996 439.7 85.1996C441 84.7996 442.7 84.5996 444.6 84.5996C448.2 84.5996 450.8 85.3996 452.6 86.9996C454.4 88.5996 455.3 90.9996 455.3 94.0996V106.3C455.3 107.7 455.5 108.7 455.8 109.4C456.2 110.1 456.9 110.5 457.9 110.5C458.2 110.5 458.4 110.5 458.7 110.4C459 110.4 459.2 110.3 459.5 110.3V113.2C458.9 113.3 458.3 113.4 457.7 113.5C457.1 113.6 456.5 113.6 455.8 113.6C454.9 113.6 454.1 113.5 453.5 113.2C452.9 113 452.4 112.6 451.9 112.1C451.5 111.6 451.2 111 451 110.3C450.8 109.5 450.6 108.7 450.6 107.8H450.4C449.9 108.7 449.4 109.5 448.7 110.3C448.1 111 447.4 111.7 446.6 112.2C445.8 112.7 444.8 113.1 443.9 113.4C443 113.7 441.9 113.9 440.5 113.9ZM441.6 110.3C443.1 110.3 444.4 110 445.5 109.5C446.6 109 447.5 108.3 448.3 107.4C449 106.6 449.6 105.6 450 104.6C450.4 103.7 450.5 102.7 450.5 101.7V99.3997L445.4 99.4996C444.3 99.4996 443.2 99.5996 442.1 99.6996C441.1 99.7996 440.2 100.1 439.4 100.6C438.6 101 438 101.7 437.5 102.4C437 103.2 436.8 104.2 436.8 105.5C436.8 107 437.2 108.2 438 109.1C438.9 109.9 440.1 110.3 441.6 110.3Z" fill="#CB1430"/>
<path d="M481 113.299V95.3994C481 93.9994 480.9 92.8994 480.7 91.9994C480.5 91.0994 480.2 90.2994 479.7 89.7994C479.2 89.1994 478.6 88.7994 477.9 88.5994C477.2 88.3994 476.2 88.1994 475.1 88.1994C474.1 88.1994 473 88.3994 472.1 88.7994C471.2 89.1994 470.4 89.7994 469.8 90.4994C469.2 91.1994 468.7 92.1994 468.3 93.1994C468 94.2994 467.8 95.4994 467.8 96.8994V113.299H463.1V91.0994C463.1 90.4994 463.1 89.8994 463.1 89.1994C463.1 88.4994 463.1 87.8994 463.1 87.2994C463.1 86.6994 463.1 86.1994 463 85.7994C463 85.3994 463 85.0994 462.9 84.9994H467.3C467.3 85.1994 467.3 85.4994 467.4 85.6994C467.4 86.0994 467.4 86.4994 467.5 86.9994C467.6 87.4994 467.5 87.9994 467.6 88.4994C467.6 88.9994 467.6 89.3994 467.6 89.7994H467.7C468.1 88.9994 468.6 88.2994 469.2 87.5994C469.7 86.8994 470.4 86.3994 471.1 85.8994C471.9 85.3994 472.7 85.0994 473.6 84.7994C474.5 84.4994 475.6 84.3994 476.8 84.3994C478.4 84.3994 479.7 84.5994 480.8 84.9994C481.9 85.3994 482.9 85.9994 483.6 86.7994C484.3 87.5994 484.9 88.5994 485.2 89.8994C485.5 91.1994 485.7 92.6994 485.7 94.3994V113.199H481V113.299Z" fill="#CB1430"/>
<path d="M249.801 145.3C247.701 145.3 245.901 145.6 244.201 146.3C242.601 147 241.201 148 240.201 149.3C239.101 150.6 238.301 152.1 237.701 154C237.101 155.8 236.901 157.8 236.901 160C236.901 162.2 237.201 164.2 237.801 166.1C238.401 168 239.301 169.5 240.401 170.8C241.501 172.1 242.901 173.2 244.501 173.9C246.101 174.6 248.001 175 250.001 175C251.301 175 252.601 174.8 253.901 174.4C255.001 174 256.101 173.5 257.101 172.8C258.101 172.1 258.901 171.3 259.601 170.4C260.401 169.4 261.001 168.4 261.601 167.3L265.701 169.3C265.001 170.7 264.201 172 263.201 173.1C262.201 174.3 261.101 175.3 259.801 176.2C258.401 177.1 256.901 177.8 255.301 178.3C253.601 178.8 251.801 179 249.701 179C246.701 179 244.101 178.5 241.901 177.6C239.701 176.7 237.801 175.3 236.301 173.6C234.801 171.9 233.701 169.9 232.901 167.6C232.201 165.3 231.801 162.7 231.801 159.9C231.801 157 232.201 154.4 233.001 152.1C233.801 149.8 235.001 147.8 236.501 146.2C238.001 144.6 239.901 143.3 242.101 142.4C244.301 141.5 246.901 141.1 249.701 141.1C253.601 141.1 256.901 141.9 259.501 143.4C262.101 144.9 264.101 147.2 265.301 150.2L260.601 151.8C260.201 150.9 259.801 150.1 259.201 149.3C258.601 148.5 257.801 147.8 257.001 147.2C256.001 146.6 255.001 146.1 253.901 145.7C252.701 145.5 251.301 145.3 249.801 145.3Z" fill="#CB1430"/>
<path d="M295.2 164.4C295.2 169.3 294.1 173 291.9 175.4C289.7 177.8 286.6 179 282.4 179C280.4 179 278.7 178.7 277.1 178.1C275.6 177.5 274.2 176.6 273.2 175.4C272.1 174.2 271.3 172.7 270.7 170.8C270.1 169 269.9 166.8 269.9 164.3C269.9 154.5 274.1 149.7 282.6 149.7C284.8 149.7 286.7 150 288.3 150.6C289.9 151.2 291.2 152.1 292.2 153.3C293.2 154.5 294 156 294.5 157.9C295 159.9 295.2 162 295.2 164.4ZM290.3 164.4C290.3 162.2 290.1 160.4 289.8 159C289.5 157.6 289 156.4 288.3 155.6C287.7 154.8 286.9 154.2 285.9 153.8C283.8 153.1 281.5 153.1 279.5 153.8C278.5 154.2 277.7 154.8 277 155.6C276.3 156.5 275.8 157.6 275.4 159C275 160.4 274.9 162.2 274.9 164.4C274.9 166.6 275.1 168.4 275.5 169.8C275.9 171.2 276.4 172.4 277.1 173.2C277.8 174.1 278.6 174.7 279.5 175C280.5 175.4 281.5 175.5 282.5 175.5C283.6 175.5 284.7 175.3 285.8 175C286.8 174.7 287.6 174 288.3 173.2C289 172.3 289.5 171.2 289.9 169.8C290.1 168.4 290.3 166.6 290.3 164.4Z" fill="#CB1430"/>
<path d="M301.2 178.599V156.899C301.2 156.299 301.2 155.699 301.2 155.099C301.2 154.499 301.2 153.899 301.2 153.299C301.2 152.699 301.2 152.199 301.1 151.699C301.1 151.199 301.1 150.699 301 150.299H305.4C305.4 150.699 305.4 151.199 305.5 151.699C305.5 152.199 305.6 152.699 305.6 153.299C305.6 153.799 305.6 154.399 305.7 154.899C305.7 155.399 305.7 155.799 305.7 156.199H305.8C306.1 155.199 306.4 154.299 306.9 153.399C307.2 152.699 307.7 151.999 308.2 151.399C308.7 150.899 309.3 150.499 310 150.299C310.7 149.999 311.5 149.899 312.5 149.899C312.9 149.899 313.2 149.899 313.6 149.999C313.9 150.099 314.2 150.099 314.4 150.199V154.499C314 154.399 313.7 154.299 313.3 154.299C312.8 154.299 312.4 154.199 311.9 154.199C310.8 154.199 309.9 154.399 309.1 154.899C308.3 155.399 307.7 156.099 307.2 156.899C306.7 157.799 306.4 158.799 306.1 159.999C305.9 161.299 305.8 162.599 305.8 163.899V178.599H301.2Z" fill="#CB1430"/>
<path d="M336.801 178.6V160.7C336.801 159.3 336.701 158.2 336.501 157.3C336.301 156.4 336.001 155.6 335.501 155.1C335.001 154.5 334.401 154.1 333.701 153.9C333.001 153.7 332.001 153.5 330.901 153.5C329.901 153.5 328.801 153.7 327.901 154.1C327.001 154.5 326.201 155.1 325.601 155.8C325.001 156.5 324.501 157.5 324.101 158.5C323.801 159.6 323.601 160.8 323.601 162.2V178.6H318.901V156.4C318.901 155.8 318.901 155.2 318.901 154.5C318.901 153.8 318.901 153.2 318.901 152.6C318.901 152 318.901 151.5 318.801 151.1C318.801 150.7 318.801 150.4 318.701 150.3H323.101C323.101 150.5 323.101 150.8 323.201 151C323.201 151.4 323.201 151.8 323.301 152.3C323.301 152.8 323.301 153.3 323.401 153.8C323.401 154.3 323.401 154.7 323.401 155.1H323.501C323.901 154.3 324.401 153.6 325.001 152.9C325.501 152.2 326.201 151.7 326.901 151.2C327.701 150.7 328.501 150.4 329.401 150.1C330.301 149.8 331.401 149.7 332.601 149.7C334.201 149.7 335.501 149.9 336.601 150.3C337.701 150.6 338.601 151.3 339.401 152.1C340.101 152.9 340.701 153.9 341.001 155.2C341.301 156.5 341.501 158 341.501 159.7V178.5H336.801V178.6Z" fill="#CB1430"/>
<path d="M352.3 165.4C352.3 166.8 352.4 168.1 352.8 169.5C353.1 170.7 353.6 171.8 354.2 172.7C354.8 173.6 355.7 174.3 356.6 174.8C357.6 175.3 358.8 175.5 360.2 175.5C362.2 175.5 363.9 175.1 365.1 174.3C366.3 173.5 367.2 172.4 367.6 171.2L371.7 172.4C371.4 173.2 371 174 370.5 174.8C369.9 175.6 369.2 176.4 368.4 176.9C367.5 177.5 366.4 178.1 365.1 178.5C363.8 178.9 362.2 179.1 360.3 179.1C356.1 179.1 352.9 177.9 350.8 175.4C348.7 172.9 347.5 169.2 347.5 164.3C347.5 161.7 347.8 159.4 348.5 157.6C349.2 155.8 350.1 154.3 351.2 153.1C352.3 152 353.7 151.1 355.2 150.6C356.8 150.1 358.4 149.8 360.1 149.8C362.5 149.8 364.4 150.2 366 150.9C367.6 151.7 368.9 152.7 369.8 154.1C370.8 155.4 371.5 157 371.9 158.9C372.3 160.8 372.5 162.8 372.5 164.8V165.4H352.3ZM367.6 161.8C367.3 158.8 366.6 156.6 365.3 155.3C364 154 362.2 153.3 359.9 153.2C359.1 153.2 358.2 153.3 357.4 153.6C356.5 153.9 355.7 154.3 355 154.9C354.3 155.5 353.7 156.4 353.1 157.5C352.6 158.6 352.3 160 352.2 161.7H367.6V161.8Z" fill="#CB1430"/>
<path d="M378.501 178.6V156.9C378.501 156.3 378.501 155.7 378.501 155.1C378.501 154.5 378.501 153.9 378.501 153.3C378.501 152.7 378.501 152.2 378.401 151.7C378.401 151.2 378.401 150.7 378.301 150.3H382.701C382.701 150.7 382.701 151.2 382.801 151.7C382.801 152.2 382.901 152.7 382.901 153.3C382.901 153.8 382.901 154.4 383.001 154.9C383.001 155.4 383.001 155.8 383.001 156.2H383.101C383.401 155.2 383.701 154.3 384.201 153.4C384.501 152.7 385.001 152 385.501 151.4C386.001 150.9 386.601 150.5 387.301 150.2C388.001 149.9 388.801 149.8 389.801 149.8C390.201 149.8 390.501 149.8 390.901 149.9C391.201 150 391.501 150 391.701 150.1V154.4C391.301 154.3 391.001 154.2 390.601 154.2C390.101 154.2 389.701 154.1 389.201 154.1C388.101 154.1 387.201 154.3 386.401 154.8C385.601 155.3 385.001 156 384.501 156.8C384.001 157.7 383.701 158.7 383.401 159.9C383.201 161.2 383.101 162.5 383.101 163.8V178.5H378.501V178.6Z" fill="#CB1430"/>
<path d="M228 243.6L223.8 232.8H207L202.8 243.6H197.6L212.6 206.8H218.3L233.1 243.6H228ZM217.6 216.8C217.3 216.1 217.1 215.4 216.8 214.7C216.5 214 216.3 213.3 216.1 212.8C215.9 212.2 215.7 211.7 215.6 211.3C215.5 210.9 215.4 210.7 215.4 210.6C215.4 210.7 215.3 210.9 215.2 211.3C215.1 211.7 214.9 212.2 214.7 212.8C214.5 213.4 214.3 214 214 214.8C213.7 215.5 213.5 216.2 213.2 216.9L208.5 229H222.3L217.6 216.8Z" fill="#CB1430"/>
<path d="M258 235.799C258 237.099 257.7 238.299 257.2 239.299C256.7 240.299 255.9 241.199 255 241.899C254 242.599 252.8 243.099 251.4 243.499C250 243.899 248.4 244.099 246.5 244.099C245 244.099 243.5 243.999 242.1 243.699C240.9 243.499 239.7 243.099 238.6 242.499C237.6 241.999 236.8 241.199 236.1 240.299C235.4 239.399 234.9 238.299 234.6 236.899L238.8 236.099C239.2 237.599 240 238.699 241.3 239.399C242.6 240.099 244.3 240.499 246.5 240.499C247.4 240.499 248.4 240.399 249.3 240.299C250.1 240.199 250.8 239.899 251.5 239.599C252.1 239.299 252.6 238.799 252.9 238.199C253.2 237.599 253.4 236.899 253.4 236.099C253.4 235.199 253.2 234.499 252.8 233.999C252.4 233.399 251.8 232.899 251.1 232.599C250.3 232.199 249.4 231.899 248.5 231.599C247.5 231.299 246.4 230.999 245.1 230.699C244 230.399 242.8 230.099 241.7 229.699C240.6 229.399 239.6 228.899 238.7 228.299C237.8 227.699 237.1 226.999 236.5 226.099C235.9 225.199 235.7 224.099 235.7 222.799C235.7 220.199 236.6 218.299 238.5 216.899C240.3 215.499 243 214.899 246.5 214.899C249.6 214.899 252.1 215.399 253.9 216.499C255.7 217.599 256.9 219.399 257.4 221.799L253.2 222.299C253.1 221.599 252.8 220.999 252.3 220.499C251.9 219.999 251.4 219.599 250.8 219.299C250.2 218.999 249.5 218.799 248.8 218.599C248 218.499 247.3 218.399 246.5 218.399C244.4 218.399 242.8 218.699 241.8 219.399C240.8 219.999 240.3 220.999 240.3 222.299C240.3 223.099 240.5 223.699 240.9 224.199C241.3 224.699 241.9 225.199 242.5 225.499C243.3 225.899 244.1 226.199 244.9 226.399C245.8 226.699 246.9 226.899 248 227.199C248.7 227.399 249.5 227.599 250.3 227.799C251.1 227.999 251.8 228.299 252.6 228.599C253.3 228.899 254 229.299 254.7 229.699C255.3 230.099 255.9 230.599 256.4 231.199C256.9 231.799 257.3 232.499 257.6 233.199C257.9 233.899 258 234.699 258 235.799Z" fill="#CB1430"/>
<path d="M274.401 243.4C273.701 243.6 273.001 243.7 272.201 243.9C271.301 244 270.501 244.1 269.601 244.1C265.801 244.1 264.001 242 264.001 237.7V218.8H260.701V215.4H264.101L265.501 209.1H268.601V215.4H273.801V218.8H268.601V236.6C268.601 238 268.801 238.9 269.301 239.5C269.701 240 270.501 240.3 271.601 240.3C272.001 240.3 272.501 240.3 272.901 240.2C273.301 240.1 273.801 240 274.301 239.9L274.401 243.4Z" fill="#CB1430"/>
<path d="M285.6 244.1C282.8 244.1 280.6 243.4 279.2 241.9C277.8 240.4 277.1 238.3 277.1 235.7C277.1 233.8 277.5 232.3 278.2 231.1C278.9 229.9 279.8 229 281 228.3C282.2 227.6 283.5 227.1 284.9 226.9C286.4 226.6 287.9 226.5 289.4 226.5L295.7 226.4V224.9C295.7 223.7 295.6 222.7 295.3 221.9C295 221.1 294.7 220.4 294.2 219.9C293.7 219.4 293 219 292.3 218.8C291.5 218.6 290.6 218.4 289.6 218.4C288.8 218.4 288 218.5 287.1 218.6C286.4 218.7 285.8 218.9 285.2 219.3C284.7 219.6 284.2 220.1 283.9 220.7C283.6 221.3 283.4 222 283.2 222.9L278.3 222.5C278.5 221.4 278.8 220.4 279.3 219.4C279.8 218.4 280.5 217.6 281.4 217C282.3 216.3 283.4 215.8 284.8 215.4C286.2 215 287.8 214.8 289.7 214.8C293.3 214.8 295.9 215.6 297.7 217.2C299.5 218.8 300.4 221.2 300.4 224.3V236.5C300.4 237.9 300.6 238.9 300.9 239.6C301.3 240.3 302 240.7 303 240.7C303.3 240.7 303.5 240.7 303.8 240.6C304.1 240.6 304.3 240.5 304.6 240.5V243.4C303.4 243.7 302.2 243.8 301 243.8C300.1 243.8 299.3 243.7 298.7 243.4C298.1 243.2 297.6 242.8 297.1 242.3C296.7 241.8 296.4 241.2 296.2 240.5C296 239.7 295.8 238.9 295.8 238H295.6C295.1 238.9 294.6 239.7 293.9 240.5C293.3 241.2 292.6 241.9 291.8 242.4C291 242.9 290 243.3 289.1 243.6C288.1 243.9 286.9 244.1 285.6 244.1ZM286.7 240.6C288.2 240.6 289.5 240.3 290.6 239.8C291.7 239.3 292.6 238.6 293.4 237.7C294.1 236.9 294.7 235.9 295.1 234.9C295.5 234 295.6 233 295.6 232V229.7L290.5 229.8C289.4 229.8 288.3 229.9 287.2 230C286.2 230.1 285.3 230.4 284.5 230.9C283.7 231.3 283.1 232 282.6 232.7C282.1 233.5 281.9 234.5 281.9 235.8C281.9 237.3 282.3 238.5 283.1 239.4C284 240.1 285.2 240.6 286.7 240.6Z" fill="#CB1430"/>
<path d="M326.1 243.6V225.7C326.1 224.3 326 223.2 325.8 222.3C325.6 221.4 325.3 220.6 324.8 220.1C324.3 219.5 323.7 219.1 323 218.9C322.3 218.7 321.3 218.5 320.2 218.5C319.2 218.5 318.1 218.7 317.2 219.1C316.3 219.5 315.5 220.1 314.9 220.8C314.3 221.5 313.8 222.5 313.4 223.5C313.1 224.6 312.9 225.8 312.9 227.2V243.6H308.2V221.4C308.2 220.8 308.2 220.2 308.2 219.5C308.2 218.8 308.2 218.2 308.2 217.6C308.2 217 308.2 216.5 308.1 216.1C308.1 215.7 308.1 215.4 308 215.3H312.4C312.4 215.4 312.4 215.6 312.5 216C312.5 216.4 312.5 216.8 312.6 217.3C312.6 217.8 312.6 218.3 312.7 218.8C312.7 219.3 312.7 219.7 312.7 220.1H312.8C313.2 219.3 313.7 218.6 314.3 217.9C314.8 217.2 315.5 216.7 316.2 216.2C317 215.7 317.8 215.4 318.7 215.1C319.6 214.8 320.7 214.7 321.9 214.7C323.5 214.7 324.8 214.9 325.9 215.3C327 215.7 328 216.3 328.7 217.1C329.4 217.9 330 218.9 330.3 220.2C330.6 221.5 330.8 223 330.8 224.7V243.5H326.1V243.6Z" fill="#CB1430"/>
<path d="M345.1 244.1C342.3 244.1 340.1 243.4 338.7 241.9C337.3 240.4 336.6 238.3 336.6 235.7C336.6 233.8 337 232.3 337.7 231.1C338.4 229.9 339.3 229 340.5 228.3C341.7 227.6 343 227.1 344.4 226.9C345.9 226.6 347.4 226.5 348.9 226.5L355.2 226.4V224.9C355.2 223.7 355.1 222.7 354.8 221.9C354.5 221.1 354.2 220.4 353.7 219.9C353.2 219.4 352.5 219 351.8 218.8C351 218.6 350.1 218.4 349.1 218.4C348.3 218.4 347.5 218.5 346.6 218.6C345.9 218.7 345.3 218.9 344.7 219.3C344.2 219.6 343.7 220.1 343.4 220.7C343.1 221.3 342.9 222 342.7 222.9L337.8 222.5C338 221.4 338.3 220.4 338.8 219.4C339.3 218.4 340 217.6 340.9 217C341.8 216.3 342.9 215.8 344.3 215.4C345.7 215 347.3 214.8 349.2 214.8C352.8 214.8 355.4 215.6 357.2 217.2C359 218.8 359.9 221.2 359.9 224.3V236.5C359.9 237.9 360.1 238.9 360.4 239.6C360.8 240.3 361.5 240.7 362.5 240.7C362.8 240.7 363 240.7 363.3 240.6C363.6 240.6 363.8 240.5 364.1 240.5V243.4C362.9 243.7 361.7 243.8 360.5 243.8C359.6 243.8 358.8 243.7 358.2 243.4C357.6 243.2 357.1 242.8 356.6 242.3C356.2 241.8 355.9 241.2 355.7 240.5C355.5 239.7 355.3 238.9 355.3 238H355.1C354.6 238.9 354.1 239.7 353.4 240.5C352.8 241.2 352.1 241.9 351.3 242.4C350.5 242.9 349.5 243.3 348.6 243.6C347.6 243.9 346.4 244.1 345.1 244.1ZM346.2 240.6C347.7 240.6 349 240.3 350.1 239.8C351.2 239.3 352.1 238.6 352.9 237.7C353.6 236.9 354.2 235.9 354.6 234.9C355 234 355.1 233 355.1 232V229.7L350 229.8C348.9 229.8 347.8 229.9 346.7 230C345.7 230.1 344.8 230.4 344 230.9C343.2 231.3 342.6 232 342.1 232.7C341.6 233.5 341.4 234.5 341.4 235.8C341.4 237.3 341.8 238.5 342.6 239.4C343.5 240.1 344.7 240.6 346.2 240.6Z" fill="#CB1430"/>
</svg>
