<svg width="354" height="173" viewBox="0 0 354 173" fill="none" xmlns="http://www.w3.org/2000/svg">
<path d="M215.321 20.9113C216.077 21.0831 216.11 21.3361 215.422 21.6886C185.481 36.6233 161.622 58.4615 143.857 87.2202C129.247 110.865 120.763 137.094 118.397 165.907C118.24 167.886 118.381 169.901 118.184 171.916C118.116 172.629 118.433 172.982 119.133 172.982H126.069C126.769 172.982 127.131 172.629 127.139 171.916C127.766 139.118 140.06 105.986 159.268 80.0555C176.192 57.2236 197.726 39.6323 223.877 27.2813C225.764 26.3865 227.615 25.709 229.421 25.2483C229.658 25.1852 229.899 25.194 230.129 25.2753C236.569 27.507 242.756 30.1635 248.681 33.2442C248.963 33.3978 249.044 33.6147 248.911 33.9128C248.85 34.0484 248.762 34.1478 248.645 34.229C243.464 37.6444 238.215 41.6922 232.884 46.3724C206.141 69.8546 188.055 98.6587 178.634 132.802C175.074 145.696 173.082 158.987 172.656 172.693C172.656 172.892 172.744 172.991 172.929 172.991H181.204C181.389 172.991 181.494 172.883 181.502 172.693C182.858 141.657 191.703 113.558 208.024 88.395C221.158 68.1471 237.756 51.6039 257.813 38.7649C258.131 38.5661 258.529 38.5569 258.847 38.7468C266.49 43.2009 273.212 47.9717 279.021 53.0494C279.279 53.2751 279.315 53.6819 279.081 53.9438C279.073 53.9619 279.057 53.9708 279.049 53.9889C254.953 78.1039 239.047 106.664 231.336 139.669C228.729 150.81 227.333 161.76 227.136 172.521C227.136 172.837 227.277 172.991 227.578 172.991H235.568C235.813 172.991 236.018 172.774 236.026 172.521C236.247 161.733 237.712 150.8 240.419 139.714C247.929 108.995 263.019 82.3955 285.679 59.9252C286.077 59.5277 286.487 59.5277 286.894 59.9159C294.818 67.4966 301.914 75.6465 308.182 84.3834C308.455 84.7627 308.468 85.1514 308.218 85.5489C291.624 112.184 282.678 141.097 281.394 172.295C281.378 172.756 281.6 172.991 282.058 172.991H289.826C290.116 172.991 290.357 172.747 290.373 172.449C291.411 144.476 299.211 118.138 313.777 93.4453C313.85 93.319 314.011 93.2828 314.131 93.3552C314.168 93.3733 314.196 93.4003 314.212 93.4365C327.95 115.889 335.822 140.392 337.822 166.947C337.954 168.699 337.974 170.561 337.874 172.539C337.866 172.837 337.998 172.982 338.292 172.982H353.381C353.727 172.982 353.904 172.81 353.912 172.458C354.194 166.052 353.796 159.583 352.726 153.05C345.119 106.7 323.637 68.8878 288.294 39.6142C283.909 35.9908 278.961 32.386 273.425 28.7989C253.569 15.933 232.341 7.35865 209.734 3.08503C159.196 -6.46514 108.091 6.40091 67.1155 38.3042C62.8756 41.6017 58.5632 45.3875 54.1784 49.6522C28.4892 74.6161 11.6258 104.478 3.60448 139.218C2.14423 145.551 1.27541 152.083 0.531205 158.507C0.0364081 162.826 -0.116642 167.462 0.0885171 172.404C0.0965625 172.792 0.293755 172.982 0.671892 172.982H15.7451C16.083 172.982 16.2479 172.819 16.2399 172.476C16.1715 168.437 16.2599 165.139 16.5134 162.573C18.9672 137.853 26.6828 114.868 39.6561 93.6264C39.7889 93.4276 40.0464 93.3733 40.2395 93.4996C40.2918 93.5359 40.3361 93.5809 40.3723 93.6352C51.5676 112.591 58.4103 132.685 61.9543 154.343C62.1393 155.499 62.3163 155.499 62.4773 154.343C63.4226 147.421 64.7421 140.663 66.4155 134.068C66.5483 133.562 66.5401 133.056 66.3993 132.559C61.7853 115.654 54.8703 99.9236 45.6502 85.3864C45.4813 85.124 45.4892 84.871 45.6662 84.6183C52.1951 75.3934 59.4481 67.0809 67.4333 59.6991C67.6103 59.5365 67.8877 59.5365 68.0648 59.7083C75.4585 66.9365 82.0276 74.6978 87.76 82.9917C87.9089 83.2086 88.2027 83.254 88.4119 83.1003C88.4562 83.0641 88.4923 83.0279 88.5204 82.9829L93.2029 76.0347C93.3799 75.7728 93.3718 75.4296 93.1867 75.1765C87.5106 67.4603 81.384 60.377 74.8109 53.935C74.5977 53.727 74.5898 53.3745 74.7949 53.1577C74.811 53.1396 74.819 53.1307 74.8391 53.1126C81.2594 47.5923 88.1142 42.7584 95.3994 38.6112C95.6046 38.4937 95.8096 38.503 96.0027 38.6293C101.964 42.3516 107.818 46.6344 113.554 51.4683C113.687 51.5765 113.872 51.5677 113.996 51.4502L120.047 45.6857C120.215 45.5231 120.204 45.3694 120.019 45.225L105.203 33.9852C105.018 33.8497 104.973 33.5785 105.106 33.389C105.142 33.3347 105.195 33.2896 105.255 33.2623C111.365 30.0549 117.637 27.3807 124.057 25.221C124.351 25.1216 124.641 25.1216 124.934 25.221C129.017 26.7482 133.39 28.7538 138.04 31.2386C138.137 31.2929 138.261 31.2929 138.358 31.2386C139.802 30.3893 142.574 28.6275 146.673 25.944C146.693 25.9259 146.701 25.8989 146.673 25.8808C146.673 25.8808 146.673 25.8808 146.673 25.8715C143.93 24.2997 141.315 22.9354 138.829 21.7879C137.988 21.3993 138.024 21.1012 138.925 20.8932C144.106 19.7097 149.501 18.6887 155.097 17.8304C156.521 17.6135 158.001 17.7761 159.542 18.3183C159.868 18.4357 160.189 18.4267 160.515 18.3002C162.173 17.6768 163.572 16.7371 165.387 16.6016C167.044 16.4751 168.682 16.3938 170.303 16.3486C172.31 16.3034 172.366 16.6197 170.467 17.2973C168.77 17.9117 167.044 18.6345 165.29 19.4567C151.36 26.0345 138.953 33.8046 128.068 42.7584C92.3903 72.1136 69.489 113.829 64.4847 160.486C64.0342 164.679 63.8409 168.663 63.8932 172.431C63.8932 172.81 64.0863 173 64.4604 173H72.4013C72.6426 173 72.8278 172.81 72.8278 172.566C72.8278 167.064 73.2259 161.516 74.0144 155.924C80.7002 108.887 106.86 67.1984 145.486 40.9515C161.312 30.1905 178.175 22.5379 196.052 17.993C197.038 17.74 198.035 17.6948 199.065 17.8575C204.689 18.7339 210.108 19.7549 215.321 20.9205V20.9113ZM193.546 21.6886C193.465 21.6431 193.377 21.6431 193.289 21.6705L181.679 25.6277C181.514 25.682 181.414 25.8715 181.47 26.0433C181.494 26.1339 181.558 26.2059 181.647 26.2509L192.512 31.2567C192.609 31.3017 192.733 31.2929 192.822 31.2293L200.731 26.1608C200.879 26.0614 200.932 25.8534 200.835 25.7001C200.807 25.6547 200.763 25.6096 200.71 25.5827L193.546 21.6886ZM215.687 34.8434C215.587 34.7621 215.454 34.7533 215.349 34.8164L207.38 39.3342C207.239 39.4154 207.183 39.6049 207.264 39.7498C207.284 39.786 207.316 39.8218 207.344 39.8491L222.441 51.3597C222.558 51.4502 222.727 51.4409 222.832 51.3416L228.837 45.6857C228.962 45.5682 228.97 45.3787 228.854 45.252C228.846 45.2431 228.829 45.225 228.817 45.2158L215.687 34.8434ZM161.32 35.0603C161.231 34.9971 161.119 34.9882 161.03 35.0421L153.069 39.6504C152.945 39.7224 152.9 39.8942 152.973 40.0205C152.989 40.0567 153.017 40.0841 153.041 40.1022L167.99 51.387C168.094 51.459 168.227 51.459 168.327 51.3689L174.41 45.6857C174.515 45.5863 174.526 45.4145 174.426 45.3063C174.418 45.297 174.402 45.2793 174.394 45.2701L161.32 35.0603ZM197.231 83.0372L202.006 76.0077C202.191 75.7366 202.191 75.366 201.986 75.0953C196.849 68.129 191.466 61.7232 185.842 55.8774C185.649 55.6786 185.34 55.6605 185.134 55.8504L179.386 61.1269C179.121 61.3707 179.096 61.7956 179.342 62.0756L179.362 62.0937C186.152 69.0145 191.909 75.9896 196.628 83.0279C196.736 83.1997 196.965 83.2448 197.134 83.1366C197.171 83.1092 197.203 83.073 197.231 83.0372ZM142.86 82.9104L147.393 76.0166C147.647 75.6191 147.638 75.0953 147.357 74.7066C143.045 68.7164 137.767 62.5093 131.503 56.0673C131.338 55.8955 131.161 55.8862 130.972 56.0492L125.341 61.1088C124.934 61.479 124.89 62.1207 125.252 62.5363C125.26 62.5544 125.28 62.5632 125.296 62.5813C131.479 68.8246 137.127 75.601 142.236 82.9197C142.449 83.2178 142.654 83.2178 142.86 82.9104ZM251.852 82.4047L256.192 75.9446C256.449 75.5648 256.429 75.0591 256.156 74.6978C251.321 68.2195 246.043 62.0302 240.322 56.1123C240.137 55.9136 239.827 55.9043 239.63 56.0854L234.071 61.172C233.705 61.5063 233.673 62.0845 233.991 62.4458C233.999 62.455 234.007 62.4731 234.027 62.482C240.17 68.8339 245.741 75.4835 250.729 82.4228C251.107 82.9559 251.489 82.9559 251.852 82.4047ZM120.835 132.477C116.76 117.542 110.625 102.815 102.636 89.4338C102.54 89.2805 102.343 89.235 102.202 89.3255C102.166 89.3525 102.129 89.3798 102.105 89.4249L97.5515 96.7794C97.2498 97.2674 97.2337 97.8906 97.5073 98.3968C107.242 116.087 113.441 134.483 116.096 153.583C116.378 155.634 116.663 155.634 116.957 153.583C117.894 147.015 119.186 140.537 120.843 134.149C120.984 133.58 120.984 133.029 120.835 132.477ZM151.5 97.5024C161.199 115.112 167.68 134.212 170.645 154.207C170.886 155.788 171.107 155.779 171.32 154.207C172.234 147.467 173.497 140.97 175.11 134.709C175.359 133.742 175.323 132.712 175.005 131.601C170.725 116.494 164.651 102.273 156.77 88.9461C156.762 88.928 156.734 88.9099 156.718 88.9188C156.718 88.9188 156.698 88.9188 156.698 88.9369C154.912 91.5753 153.182 94.3128 151.509 97.15C151.448 97.2582 151.44 97.403 151.509 97.5112L151.5 97.5024ZM229.493 132.116C225.269 116.792 219.191 102.562 211.258 89.0906C211.242 89.0636 211.214 89.0544 211.186 89.0725C211.186 89.0725 211.178 89.0725 211.178 89.0817C209.379 91.8191 207.67 94.5932 206.053 97.403C205.988 97.5112 205.988 97.638 206.053 97.7462C215.961 115.889 222.276 134.573 224.992 153.791C225.233 155.517 225.478 155.517 225.728 153.791C226.677 147.114 227.94 140.654 229.517 134.429C229.714 133.661 229.702 132.884 229.493 132.116ZM283.981 132.206C279.826 117.235 273.771 102.67 265.806 89.3344C265.738 89.208 265.577 89.1718 265.452 89.2443C265.42 89.2712 265.384 89.2986 265.364 89.3344L260.842 96.8607C260.504 97.43 260.484 98.1437 260.806 98.7222C270.227 115.934 276.39 134.167 279.287 153.403C279.612 155.598 279.934 155.598 280.224 153.403C280.988 147.647 282.251 141.232 284.017 134.149C284.174 133.507 284.166 132.866 283.981 132.215V132.206Z" fill="black"/>
</svg>
