<svg width="337" height="337" viewBox="0 0 337 337" fill="none" xmlns="http://www.w3.org/2000/svg">
<path d="M335.06 168.03C335.06 75.78 260.28 1 168.03 1C75.78 1 1 75.78 1 168.03C1 260.28 75.78 335.06 168.03 335.06C260.28 335.06 335.06 260.28 335.06 168.03Z" stroke="#8590AC" stroke-width="2"/>
<path d="M328.95 167.97C328.95 79.09 256.9 7.04004 168.02 7.04004C79.1399 7.04004 7.08984 79.09 7.08984 167.97C7.08984 256.85 79.1399 328.9 168.02 328.9C256.9 328.9 328.95 256.85 328.95 167.97Z" stroke="#8590AC" stroke-width="2"/>
<path d="M177.32 37.6503C176.61 37.6003 176.53 37.3503 177.1 36.9103C178.8 35.5803 180.56 34.1503 182.38 32.6303C184.26 31.0603 185.26 28.1703 184.52 25.9403C183.16 21.8303 176.83 22.0403 173.69 23.4203C172.67 23.8703 172.41 24.5903 172.9 25.5903L173.07 25.9203C173.28 26.3503 173.8 26.5203 174.23 26.3103C174.23 26.3103 174.26 26.3003 174.27 26.2903C176.22 25.2203 178.23 25.0203 180.3 25.7103C180.64 25.8203 180.92 26.0703 181.07 26.3903C181.8 27.9103 181.6 29.2003 180.45 30.2703C178.32 32.2603 175.95 34.2803 173.34 36.3403C170.43 38.6403 170.82 39.9303 174.52 40.2003L183.13 40.8403C184.02 40.9103 184.52 40.5003 184.65 39.6303L184.71 39.2303C184.79 38.6903 184.42 38.2003 183.88 38.1203H183.8L177.32 37.6603" stroke="#8590AC" stroke-width="2"/>
<path d="M151.129 26.6296C151.089 26.2996 151.319 25.9996 151.649 25.9596L156.139 25.3696C156.459 25.3196 156.689 25.0296 156.649 24.7096L156.479 23.1496C156.439 22.8196 156.149 22.5796 155.819 22.6196L142.319 24.3496C142.019 24.3896 141.789 24.6396 141.789 24.9496V26.4396C141.789 26.7696 142.079 27.0396 142.409 27.0296H142.449L147.189 26.5996C147.509 26.5696 147.799 26.7996 147.839 27.1196L149.669 40.8896C149.709 41.2196 150.009 41.4496 150.339 41.4096C150.379 41.4096 150.419 41.4096 150.459 41.3796L152.439 40.6896C152.709 40.5996 152.869 40.3296 152.839 40.0496L151.139 26.6296" stroke="#8590AC" stroke-width="2"/>
<path d="M193.131 42.8204C197.191 43.6204 201.291 40.2204 202.281 35.2204C203.271 30.2204 200.781 25.5104 196.721 24.7104C192.661 23.9104 188.561 27.3104 187.571 32.3104C186.581 37.3104 189.071 42.0204 193.131 42.8204Z" stroke="#8590AC" stroke-width="2"/>
<path d="M130.16 32.2801C130.18 28.7901 135.04 28.7301 137.57 28.7701C138.32 28.7701 138.67 28.4101 138.63 27.6601L138.61 27.2501C138.57 26.5001 138.18 26.1001 137.43 26.0301C135.3 25.8401 133.22 26.1201 131.2 26.8901C126.07 28.8401 125 36.0101 131.78 36.5901C133.63 36.7401 135.55 36.8801 137.52 37.0101C138.55 37.0701 139.32 37.9601 139.26 38.9801C139.23 39.4501 139.03 39.8801 138.69 40.2101C136.73 42.0901 133.18 41.9301 130.6 41.6101C129.94 41.5301 129.59 41.8201 129.56 42.4901L129.54 42.9901C129.51 43.7001 130.04 44.3201 130.75 44.3901C135.41 44.9001 142.96 43.8901 142.33 37.6101C142.07 35.0101 139.25 33.9801 137.05 34.0101C134.97 34.0401 132.94 33.8101 130.96 33.3201C130.48 33.2001 130.15 32.7701 130.16 32.2801Z" stroke="#8590AC" stroke-width="2"/>
<path d="M208.46 30.7596C208.8 30.8196 209.03 31.1496 208.97 31.4896C208.97 31.5096 208.97 31.5296 208.95 31.5596L205.04 44.8396C204.94 45.1696 205.13 45.5196 205.47 45.6196C205.5 45.6196 205.52 45.6196 205.55 45.6396L207.52 45.9496C207.83 45.9996 208.13 45.8196 208.22 45.5196L212.98 29.8996C213.08 29.5696 212.89 29.2196 212.56 29.1096L206.97 27.5096C206.64 27.4196 206.29 27.6096 206.19 27.9396C206.19 27.9796 206.17 28.0196 206.17 28.0696L206.05 29.7396C206.03 30.0596 206.25 30.3396 206.56 30.3996L208.47 30.7596" stroke="#8590AC" stroke-width="2"/>
<path d="M116.221 42.9798C116.161 42.8098 116.221 42.6798 116.381 42.6098L122.751 40.0898C123.631 39.7398 123.901 39.1298 123.561 38.2398C123.371 37.7598 122.841 37.5198 121.951 37.5198C121.911 37.5198 121.871 37.5198 121.841 37.5398L115.691 39.9198C115.111 40.1398 114.731 39.9498 114.561 39.3498L113.801 36.7098C113.591 35.9398 113.861 35.4398 114.621 35.2098C116.771 34.5498 118.831 33.7798 120.801 32.9098C121.611 32.5498 122.001 31.9198 121.951 31.0198C121.921 30.5598 121.381 30.3198 120.321 30.2998C120.121 30.2998 119.921 30.3398 119.731 30.4098L110.541 33.9698C109.831 34.2398 109.481 35.0398 109.761 35.7398L115.171 49.6198C115.551 50.5898 116.221 50.8898 117.191 50.5098L126.901 46.7098C127.671 46.4098 127.951 45.8598 127.761 45.0698C127.731 44.9098 127.651 44.7698 127.541 44.6598C127.011 44.1198 126.381 43.9898 125.671 44.2598L118.031 47.1598C117.791 47.2498 117.631 47.1798 117.541 46.9298L116.221 42.9698" stroke="#8590AC" stroke-width="2"/>
<path d="M222.78 43.61C223.63 43.52 223.8 43.81 223.29 44.5C220.78 47.83 217.94 48.18 214.77 45.57C214.54 45.39 214.27 45.28 213.98 45.27C212.87 45.22 212.3 45.68 212.25 46.67C212.23 47.01 212.36 47.33 212.61 47.55C215.9 50.5 221.16 51.38 224.54 48.02C228.09 44.5 230.07 37.38 225.43 33.98C222.44 31.79 217.54 31.64 215.56 35.34C212.89 40.32 218.38 44.08 222.78 43.61Z" stroke="#8590AC" stroke-width="2"/>
<path d="M162.909 38.3598C162.909 37.2198 161.989 36.2998 160.849 36.2998C159.709 36.2998 158.789 37.2198 158.789 38.3598C158.789 39.4998 159.709 40.4198 160.849 40.4198C161.989 40.4198 162.909 39.4998 162.909 38.3598Z" stroke="#8590AC" stroke-width="2"/>
<path d="M109.499 46.2496C109.189 45.6396 108.439 45.3996 107.829 45.7096L103.839 47.7396C103.229 48.0496 102.989 48.7996 103.299 49.4096L103.349 49.5196C103.659 50.1296 104.409 50.3696 105.019 50.0596L109.009 48.0296C109.619 47.7196 109.859 46.9696 109.549 46.3596L109.499 46.2496Z" stroke="#8590AC" stroke-width="2"/>
<path d="M235.2 50.6704C235.53 50.0504 235.29 49.2804 234.67 48.9504L230.69 46.8504C230.07 46.5204 229.3 46.7604 228.97 47.3804L228.92 47.4704C228.59 48.0904 228.83 48.8604 229.45 49.1904L233.43 51.2904C234.05 51.6204 234.82 51.3804 235.15 50.7604L235.2 50.6704Z" stroke="#8590AC" stroke-width="2"/>
<path d="M282.97 167.97C282.97 104.48 231.51 53.0195 168.02 53.0195C104.53 53.0195 53.0703 104.48 53.0703 167.97C53.0703 231.46 104.53 282.92 168.02 282.92C231.51 282.92 282.97 231.46 282.97 167.97Z" stroke="#8590AC" stroke-width="2"/>
<path d="M40.9 217.01C38.85 211.79 37.02 205.85 35.41 199.19C33.02 189.3 31.82 178.69 31.83 167.36C31.87 125.26 51.52 86.0804 84.99 60.1904C85.17 60.0504 85.32 59.8604 85.41 59.6504C85.78 58.8104 85.71 58.2804 85.21 58.0704C84.5 57.7604 83.85 57.8504 83.24 58.3304C61.46 75.5004 46.16 96.4704 37.34 121.23C29.87 142.17 27.52 163.38 30.28 184.87C35.06 222.07 52.27 252.73 81.91 276.85C82.4 277.25 83.09 277.38 83.98 277.23C84.48 277.15 84.54 276.59 84.17 275.54C84.08 275.28 83.92 275.06 83.71 274.88C79.61 271.51 75.96 268.25 72.75 265.1C58.67 251.25 48.05 235.22 40.9 217.01Z" stroke="#8590AC" stroke-width="2"/>
<path d="M298.82 218.61C301.08 213.16 303.02 206.94 304.65 199.95C309.12 180.81 309.56 160.33 305.6 141.01C298.95 108.52 282.49 81.5395 256.22 60.0695C255.99 59.8795 255.69 59.7695 255.39 59.7695C254.85 59.7695 254.53 59.9495 254.43 60.3195C254.2 61.1095 254.41 61.7595 255.04 62.2795C265.99 71.3195 275.34 81.5695 283.09 93.0295C284.13 94.5795 285.05 96.0595 285.85 97.4895C287.99 101.33 290.33 105.03 292.22 108.98C303.85 133.37 308.02 158.74 304.73 185.11C301.13 213.96 289.01 239.56 268.37 261.9C264.27 266.34 259.44 270.1 255.06 274.38C254.84 274.6 254.73 274.9 254.75 275.21C254.78 275.68 254.94 276.03 255.25 276.24C255.68 276.53 256.09 276.52 256.5 276.19C264.19 270.03 271.17 263.08 277.44 255.33C281.88 249.85 286.24 243.77 289.76 237.46C292.15 233.17 294.58 229.15 296.41 224.56C297.21 222.55 298.01 220.57 298.82 218.61Z" stroke="#8590AC" stroke-width="2"/>
<path d="M231.74 281.27C231.27 280.42 230.2 280.12 229.35 280.59L229.21 280.67C228.36 281.14 228.06 282.21 228.53 283.06L236.31 297.04C236.78 297.89 237.85 298.19 238.7 297.72L238.84 297.64C239.69 297.17 239.99 296.1 239.52 295.25L231.74 281.27Z" stroke="#8590AC" stroke-width="2"/>
<path d="M108.821 285.16L116.361 288.91C116.661 289.06 117.011 289.08 117.331 288.96C118.041 288.71 118.441 288.38 118.541 287.97C118.731 287.13 118.451 286.52 117.681 286.13L108.181 281.33C107.181 280.82 105.961 281.22 105.451 282.22C105.451 282.22 105.451 282.23 105.441 282.24L98.4105 296.43C97.9505 297.34 98.3205 298.45 99.2405 298.9C99.2505 298.9 99.2605 298.91 99.2705 298.92C102.161 300.31 105.421 301.92 109.051 303.76C109.801 304.15 110.551 304.03 111.311 303.42C111.641 303.15 111.611 302.69 111.221 302.02C110.851 301.39 110.341 300.91 109.671 300.58L102.891 297.3C102.341 297.03 102.211 296.63 102.491 296.1L104.341 292.58C104.521 292.23 104.951 292.1 105.301 292.28H105.311C107.541 293.53 109.721 294.64 111.851 295.6C112.561 295.92 113.381 295.6 113.701 294.9C113.811 294.66 113.851 294.39 113.811 294.13C113.681 293.17 111.261 291.73 106.551 289.81C106.101 289.63 105.991 289.32 106.201 288.88L107.871 285.47C108.081 285.05 108.401 284.94 108.821 285.15" stroke="#8590AC" stroke-width="2"/>
<path d="M218.32 290.49L223.5 302.63C223.94 303.66 224.72 304.18 225.85 304.19C226.18 304.19 226.44 304.08 226.64 303.85C227.28 303.12 227.41 302.31 227.02 301.42L221.38 288.53C221.25 288.23 221.38 287.88 221.69 287.75H221.71L225.79 286.11C226.51 285.82 226.74 285.31 226.48 284.58L226.31 284.11C226.07 283.42 225.31 283.06 224.63 283.31C224.6 283.32 224.57 283.33 224.55 283.34L212.41 288.62C211.58 288.98 211.2 289.61 211.25 290.52C211.25 290.71 211.32 290.89 211.43 291.04C211.85 291.65 212.4 291.82 213.09 291.55L217.12 289.98C217.69 289.76 218.09 289.93 218.33 290.5" stroke="#8590AC" stroke-width="2"/>
<path d="M120.819 304.39L125.399 290.69C125.709 289.78 125.399 289.19 124.489 288.9L123.959 288.73C122.939 288.4 122.249 288.75 121.899 289.77L116.679 304.91C116.339 305.9 116.869 306.98 117.869 307.33L127.819 310.66C128.859 311.01 129.489 310.66 129.709 309.57L129.789 309.22C129.939 308.5 129.659 308.02 128.959 307.79L121.209 305.21C120.879 305.09 120.699 304.73 120.809 304.39" stroke="#8590AC" stroke-width="2"/>
<path d="M209.17 291.5C208.87 290.58 207.88 290.07 206.95 290.37L206.8 290.42C205.88 290.72 205.37 291.71 205.67 292.64L210.66 308.01C210.96 308.93 211.95 309.44 212.88 309.14L213.03 309.09C213.95 308.79 214.46 307.8 214.16 306.87L209.17 291.5Z" stroke="#8590AC" stroke-width="2"/>
<path d="M165.921 293.29C165.921 292.43 165.221 291.73 164.361 291.73C163.501 291.73 162.801 292.43 162.801 293.29C162.801 294.15 163.501 294.85 164.361 294.85C165.221 294.85 165.921 294.15 165.921 293.29Z" stroke="#8590AC" stroke-width="2"/>
<path d="M170.85 294.82C171.64 294.69 172.16 293.86 172.02 292.96C171.87 292.06 171.12 291.44 170.32 291.56C169.53 291.69 169.01 292.52 169.15 293.42C169.3 294.32 170.05 294.94 170.85 294.82Z" stroke="#8590AC" stroke-width="2"/>
<path d="M146.7 309.49L148.32 310.62C148.85 310.99 149.01 310.87 148.8 310.26L148.15 308.41C147.95 307.84 148.25 307.21 148.82 307.01C148.82 307.01 148.85 307.01 148.86 307L152.29 305.97C152.72 305.84 152.73 305.69 152.29 305.53C150.52 304.87 147.59 303.39 149.76 301.13C150.05 300.82 150.36 300.53 150.67 300.24C151.16 299.79 151.09 299.67 150.46 299.89C149.73 300.15 149.02 300.46 148.33 300.83C147.96 301.02 147.71 300.93 147.56 300.54C146.52 297.86 146.16 295.07 146.47 292.17C146.47 292.11 146.44 292.06 146.38 292.05L146.09 292.03C145.92 292.01 145.82 292.09 145.8 292.26C145.45 294.89 144.38 297.23 142.57 299.28C142.14 299.77 141.67 299.8 141.17 299.38L139.68 298.14C139.19 297.73 139.08 297.81 139.34 298.4L140.15 300.23C140.48 300.97 140.3 301.54 139.59 301.95C138.52 302.55 137.34 302.95 136.03 303.14C135.48 303.22 135.45 303.39 135.94 303.65C136.13 303.75 136.33 303.8 136.54 303.81C136.86 303.82 137.15 303.92 137.41 304.1C138.25 304.67 138.91 305.37 139.39 306.2C139.59 306.56 139.53 307 139.24 307.29L138.19 308.36C137.63 308.92 137.74 309.12 138.51 308.95L140.46 308.52C140.78 308.45 140.99 308.57 141.09 308.88C141.96 311.6 142.22 314.32 141.87 317.05C141.85 317.2 141.91 317.3 142.06 317.33L142.31 317.38C142.31 317.38 142.38 317.37 142.39 317.33C142.97 314.62 144.16 312.05 145.95 309.61C146.12 309.38 146.45 309.32 146.69 309.49" stroke="#8590AC" stroke-width="2"/>
<path d="M184.85 304.12C184.67 303.06 184.94 302.93 185.65 303.73L193.02 312C193.28 312.29 193.73 312.31 194.02 312.05C194.1 311.98 194.17 311.88 194.21 311.78L198.35 300.96C198.64 300.19 198.87 300.21 199.03 301.02L200.89 310.72C201.1 311.81 201.75 312.31 202.86 312.24C202.99 312.24 203.13 312.21 203.26 312.16C204.12 311.85 204.47 311.24 204.3 310.34L201.22 293.75C201.14 293.34 200.82 293.03 200.41 292.97C198.93 292.75 197.92 293.4 197.37 294.93C195.92 299.02 194.48 302.91 193.06 306.6C192.97 306.83 192.72 306.94 192.49 306.85C192.42 306.82 192.37 306.78 192.32 306.73C189.59 303.58 186.87 300.46 184.15 297.38C183.34 296.46 181.89 295.62 180.76 296.5C180.3 296.85 180.08 297.43 180.18 298L183.08 313.98C183.21 314.69 183.82 315.22 184.54 315.25L185.33 315.28C186.28 315.33 186.68 314.88 186.52 313.93L184.85 304.12Z" stroke="#8590AC" stroke-width="2"/>
<path d="M172.241 308.79C171.691 314.72 162.981 314.79 162.691 308.71C162.521 305.08 162.471 301.45 162.551 297.81C162.571 296.94 162.151 296.47 161.281 296.4L160.901 296.37C159.711 296.28 159.091 296.82 159.031 298.01C158.841 301.48 158.811 304.82 158.931 308.05C159.181 315.12 164.921 317.61 171.061 315.68C173.841 314.81 175.551 312.03 175.781 309.24C176.091 305.6 176.201 301.84 176.101 297.96C176.081 297.23 175.471 296.65 174.741 296.67L174.381 296.69C173.091 296.73 172.471 297.4 172.521 298.69C172.651 302.01 172.551 305.38 172.241 308.79Z" stroke="#8590AC" stroke-width="2"/>
<path d="M193.671 40.0398C195.951 40.4898 198.341 38.0598 199.031 34.6098C199.711 31.1598 198.421 27.9998 196.151 27.5498C193.871 27.0998 191.481 29.5298 190.791 32.9798C190.111 36.4298 191.401 39.5898 193.671 40.0398Z" stroke="#8590AC" stroke-width="2"/>
<path d="M224.781 39.5496C225.421 38.0496 224.471 36.2096 222.661 35.4496C220.851 34.6896 218.881 35.2796 218.241 36.7796C217.601 38.2796 218.551 40.1196 220.361 40.8796C222.171 41.6396 224.141 41.0496 224.781 39.5496Z" stroke="#8590AC" stroke-width="2"/>
<path d="M276.79 168.04C276.79 107.96 228.09 59.2598 168.01 59.2598C107.93 59.2598 59.2305 107.96 59.2305 168.04C59.2305 228.12 107.93 276.82 168.01 276.82C228.09 276.82 276.79 228.12 276.79 168.04Z" stroke="#8590AC" stroke-width="2"/>
<path d="M236.53 140.09L236.56 171.54C236.56 173.07 237.33 173.83 238.86 173.81H239.39C241.32 173.77 242.29 172.79 242.29 170.86V137.18C242.29 136.71 242.51 136.39 242.95 136.21C245.84 135.02 248.99 132.67 248.97 129.22C248.97 126.57 247.71 124.52 245.23 123.09C220.6 108.84 196.85 95.11 173.96 81.91C168.55 78.79 164.54 80.6 159.71 83.39C137.09 96.43 114.47 109.49 91.8597 122.57C88.9097 124.27 86.9797 125.96 87.2497 129.72C87.4597 132.8 90.3297 134.48 92.7297 135.91C96.6997 138.27 100.59 140.48 104.4 142.54C104.91 142.82 105.17 143.25 105.17 143.84C105.14 152.75 105.13 161.73 105.15 170.79C105.15 175.46 107.2 178.97 111.28 181.33C127.34 190.62 143.68 200.07 160.3 209.67C165.58 212.72 170.73 212.78 175.76 209.83C191.42 200.66 207.21 191.55 223.13 182.5C228.11 179.67 231.19 176.45 231.17 170.59C231.15 161.51 231.17 152.41 231.19 143.3C231.19 143.11 231.27 142.97 231.44 142.87L236.29 139.95C236.37 139.91 236.46 139.93 236.51 140.01C236.51 140.03 236.53 140.06 236.53 140.09Z" stroke="#8590AC" stroke-width="2"/>
<path d="M167.67 219.76L87.8602 173.71C87.2602 173.36 86.5402 173.3 85.8902 173.54C84.9202 173.9 84.3102 174.41 84.0802 175.08C83.4802 176.76 83.9502 178.05 85.5002 178.94L166.5 225.72C167.57 226.34 168.65 226.34 169.72 225.72C189.86 214.17 210.46 202.25 231.51 189.98C233.55 188.79 235.31 188.06 236.8 187.8C241.46 186.97 246.59 190.5 246.77 195.42C247.01 201.94 244.12 206.94 238.1 210.41C215.24 223.58 192.21 236.88 169.01 250.29C168.48 250.59 167.83 250.59 167.3 250.29C141.88 235.63 115.73 220.53 88.8502 204.98C87.4702 204.18 86.0502 204.18 84.5802 204.98C83.6202 205.5 83.8502 206.91 85.2702 209.22C85.4602 209.52 85.7202 209.78 86.0402 209.96C112.85 225.48 139.72 241 166.66 256.53C168.18 257.4 170.07 256.4 171.46 255.58C194.25 242.28 217.42 228.88 240.95 215.39C247.58 211.59 251.39 206 252.4 198.61C253.71 189.06 245.61 180.46 236.21 182.09C233.78 182.52 230.6 183.87 226.68 186.16C207.76 197.21 188.38 208.4 168.53 219.75C168.24 219.91 167.96 219.91 167.67 219.75" stroke="#8590AC" stroke-width="2"/>
<path d="M167.85 230.31L88.2602 184.37C87.7402 184.08 87.1802 183.91 86.5902 183.86C85.0602 183.75 84.8402 184.52 85.9502 186.17C86.0802 186.35 86.2402 186.5 86.4202 186.61L167.2 233.27C167.77 233.6 168.49 233.6 169.07 233.27C192.56 219.73 216.09 206.14 239.68 192.5C240.45 192.06 240.86 191.18 240.71 190.31C240.62 189.81 240.01 189.64 238.88 189.81C238.69 189.84 238.5 189.9 238.34 190L168.45 230.31C168.27 230.42 168.03 230.42 167.85 230.31Z" stroke="#8590AC" stroke-width="2"/>
<path d="M167.689 236.85L87.4793 190.57C86.7093 190.13 86.0793 190.27 85.5693 191L85.2993 191.39C84.8893 191.98 84.9893 192.45 85.6093 192.81L167.129 239.88C167.769 240.25 168.549 240.25 169.189 239.88L242.659 197.47C243.099 197.21 243.369 196.74 243.349 196.23C243.319 195.72 243.199 195.36 242.979 195.15C242.469 194.66 241.909 194.59 241.299 194.94L168.699 236.85C168.389 237.03 167.999 237.03 167.689 236.85Z" stroke="#8590AC" stroke-width="2"/>
<path d="M168.28 243.52C167.97 243.61 167.68 243.58 167.4 243.42L87.95 197.51C87.2 197.08 86.43 197.04 85.64 197.4C84.99 197.71 85 198.28 85.64 199.11C86.01 199.58 86.46 199.97 86.98 200.28L167.44 246.77C167.92 247.05 168.4 247.05 168.88 246.77C192.8 232.98 216.4 219.33 239.68 205.82C240.42 205.39 240.8 204.74 240.81 203.86C240.81 203.72 240.76 203.61 240.67 203.52C240.03 202.94 239.08 202.84 238.34 203.28C215.91 216.29 193.15 229.45 170.05 242.76C169.5 243.07 168.9 243.33 168.27 243.52" stroke="#8590AC" stroke-width="2"/>
<path d="M241.45 127.33C219.14 114.7 196.02 101.36 172.08 87.3101C169.91 86.0301 167.25 85.6701 165.03 86.9501C141.04 100.81 117.03 114.68 92.9999 128.55C92.7999 128.67 92.7299 128.92 92.8499 129.12C92.8699 129.15 92.8899 129.18 92.9199 129.21C93.2999 129.58 93.7299 129.9 94.2099 130.18C113.92 141.48 137.4 155.03 164.67 170.82C166.97 172.15 169.28 172.15 171.61 170.8C195.98 156.73 219.85 142.95 243.21 129.46C243.49 129.3 243.59 128.94 243.43 128.65C243.39 128.58 243.33 128.51 243.26 128.47C242.73 128.09 242.12 127.71 241.45 127.33Z" stroke="#8590AC" stroke-width="2"/>
<path d="M162.7 176.22C146.44 166.93 129.26 157.03 111.17 146.52C111.06 146.45 110.91 146.49 110.84 146.61C110.82 146.65 110.81 146.69 110.81 146.73C110.76 155 110.81 163.08 110.94 170.95C110.98 173.2 111.56 174.67 112.67 175.36C116.54 177.74 120.72 180.22 125.2 182.79C137.91 190.1 150.82 197.54 163.92 205.11C166.76 206.75 169.71 206.68 172.76 204.91C188.65 195.66 204.94 186.26 221.63 176.7C224.15 175.25 225.42 173.14 225.42 170.22C225.42 162.57 225.4 154.88 225.42 147.17C225.42 146.9 225.2 146.68 224.93 146.68C224.84 146.68 224.76 146.7 224.69 146.75C206.7 157.16 190.03 166.82 174.7 175.72C170.87 177.94 166.8 178.56 162.71 176.22" stroke="#8590AC" stroke-width="2"/>
<path d="M167.821 92.3601C167.451 91.7201 166.631 91.5001 165.991 91.8701L126.121 114.89C125.481 115.26 125.261 116.08 125.631 116.72L125.651 116.75C126.021 117.39 126.841 117.61 127.481 117.24L167.351 94.2201C167.991 93.8501 168.211 93.0301 167.841 92.3901L167.821 92.3601Z" stroke="#8590AC" stroke-width="2"/>
<path d="M120.1 119.89C119.73 119.25 118.91 119.03 118.27 119.4L107.23 125.8C106.59 126.17 106.37 126.99 106.74 127.63L106.78 127.7C107.15 128.34 107.97 128.56 108.61 128.19L119.65 121.79C120.29 121.42 120.51 120.6 120.14 119.96L120.1 119.89Z" stroke="#8590AC" stroke-width="2"/>
<path d="M335.06 168.03C335.06 260.28 260.28 335.06 168.03 335.06C75.78 335.06 1 260.28 1 168.03C1 75.78 75.78 1 168.03 1C209.03 1 209.03 1 168.03 1C260.28 1 335.06 75.78 335.06 168.03ZM328.95 167.97C328.95 79.09 256.9 7.04 168.02 7.04C79.14 7.04 7.09 79.09 7.09 167.97C7.09 256.85 79.14 328.9 168.02 328.9C256.9 328.9 328.95 256.85 328.95 167.97Z" fill="#233161"/>
<path d="M328.95 167.97C328.95 256.85 256.9 328.9 168.02 328.9C79.1399 328.9 7.08984 256.85 7.08984 167.97C7.08984 79.09 79.1399 7.04004 168.02 7.04004C256.9 7.04004 328.95 79.09 328.95 167.97ZM177.32 37.65C176.61 37.6 176.53 37.35 177.1 36.91C178.8 35.58 180.56 34.15 182.38 32.63C184.26 31.06 185.26 28.17 184.52 25.94C183.16 21.83 176.83 22.04 173.69 23.42C172.67 23.87 172.41 24.59 172.9 25.59L173.07 25.92C173.28 26.35 173.8 26.52 174.23 26.31C174.23 26.31 174.26 26.3 174.27 26.29C176.22 25.22 178.23 25.02 180.3 25.71C180.64 25.82 180.92 26.07 181.07 26.39C181.8 27.91 181.6 29.2 180.45 30.27C178.32 32.26 175.95 34.28 173.34 36.34C170.43 38.64 170.82 39.93 174.52 40.2L183.13 40.84C184.02 40.91 184.52 40.5 184.65 39.63L184.71 39.23C184.79 38.69 184.42 38.2 183.88 38.12H183.8L177.32 37.66V37.65ZM151.13 26.63C151.09 26.3 151.32 26 151.65 25.96L156.14 25.37C156.46 25.32 156.69 25.03 156.65 24.71L156.48 23.15C156.44 22.82 156.15 22.58 155.82 22.62L142.32 24.35C142.02 24.39 141.79 24.64 141.79 24.95V26.44C141.79 26.77 142.08 27.04 142.41 27.03H142.45L147.19 26.6C147.51 26.57 147.8 26.8 147.84 27.12L149.67 40.89C149.71 41.22 150.01 41.45 150.34 41.41C150.38 41.41 150.42 41.41 150.46 41.38L152.44 40.69C152.71 40.6 152.87 40.33 152.84 40.05L151.14 26.63H151.13ZM193.13 42.82C197.19 43.62 201.29 40.22 202.28 35.22C203.27 30.22 200.78 25.51 196.72 24.71C192.66 23.91 188.56 27.31 187.57 32.31C186.58 37.31 189.07 42.02 193.13 42.82ZM130.16 32.28C130.18 28.79 135.04 28.73 137.57 28.77C138.32 28.77 138.67 28.41 138.63 27.66L138.61 27.25C138.57 26.5 138.18 26.1 137.43 26.03C135.3 25.84 133.22 26.12 131.2 26.89C126.07 28.84 125 36.01 131.78 36.59C133.63 36.74 135.55 36.88 137.52 37.01C138.55 37.07 139.32 37.96 139.26 38.98C139.23 39.45 139.03 39.88 138.69 40.21C136.73 42.09 133.18 41.93 130.6 41.61C129.94 41.53 129.59 41.82 129.56 42.49L129.54 42.99C129.51 43.7 130.04 44.32 130.75 44.39C135.41 44.9 142.96 43.89 142.33 37.61C142.07 35.01 139.25 33.98 137.05 34.01C134.97 34.04 132.94 33.81 130.96 33.32C130.48 33.2 130.15 32.77 130.16 32.28ZM208.46 30.76C208.8 30.82 209.03 31.15 208.97 31.49C208.97 31.51 208.97 31.53 208.95 31.56L205.04 44.84C204.94 45.17 205.13 45.52 205.47 45.62C205.5 45.62 205.52 45.62 205.55 45.64L207.52 45.95C207.83 46 208.13 45.82 208.22 45.52L212.98 29.9C213.08 29.57 212.89 29.22 212.56 29.11L206.97 27.51C206.64 27.42 206.29 27.61 206.19 27.94C206.19 27.98 206.17 28.02 206.17 28.07L206.05 29.74C206.03 30.06 206.25 30.34 206.56 30.4L208.47 30.76H208.46ZM116.22 42.98C116.16 42.81 116.22 42.68 116.38 42.61L122.75 40.09C123.63 39.74 123.9 39.13 123.56 38.24C123.37 37.76 122.84 37.52 121.95 37.52C121.91 37.52 121.87 37.52 121.84 37.54L115.69 39.92C115.11 40.14 114.73 39.95 114.56 39.35L113.8 36.71C113.59 35.94 113.86 35.44 114.62 35.21C116.77 34.55 118.83 33.78 120.8 32.91C121.61 32.55 122 31.92 121.95 31.02C121.92 30.56 121.38 30.32 120.32 30.3C120.12 30.3 119.92 30.34 119.73 30.41L110.54 33.97C109.83 34.24 109.48 35.04 109.76 35.74L115.17 49.62C115.55 50.59 116.22 50.89 117.19 50.51L126.9 46.71C127.67 46.41 127.95 45.86 127.76 45.07C127.73 44.91 127.65 44.77 127.54 44.66C127.01 44.12 126.38 43.99 125.67 44.26L118.03 47.16C117.79 47.25 117.63 47.18 117.54 46.93L116.22 42.97V42.98ZM222.78 43.61C223.63 43.52 223.8 43.81 223.29 44.5C220.78 47.83 217.94 48.18 214.77 45.57C214.54 45.39 214.27 45.28 213.98 45.27C212.87 45.22 212.3 45.68 212.25 46.67C212.23 47.01 212.36 47.33 212.61 47.55C215.9 50.5 221.16 51.38 224.54 48.02C228.09 44.5 230.07 37.38 225.43 33.98C222.44 31.79 217.54 31.64 215.56 35.34C212.89 40.32 218.38 44.08 222.78 43.61ZM162.91 38.36C162.91 37.22 161.99 36.3 160.85 36.3C159.71 36.3 158.79 37.22 158.79 38.36C158.79 39.5 159.71 40.42 160.85 40.42C161.99 40.42 162.91 39.5 162.91 38.36ZM109.5 46.25C109.19 45.64 108.44 45.4 107.83 45.71L103.84 47.74C103.23 48.05 102.99 48.8 103.3 49.41L103.35 49.52C103.66 50.13 104.41 50.37 105.02 50.06L109.01 48.03C109.62 47.72 109.86 46.97 109.55 46.36L109.5 46.25ZM235.19 50.67C235.52 50.05 235.28 49.28 234.66 48.95L230.68 46.85C230.06 46.52 229.29 46.76 228.96 47.38L228.91 47.47C228.58 48.09 228.82 48.86 229.44 49.19L233.42 51.29C234.04 51.62 234.81 51.38 235.14 50.76L235.19 50.67ZM282.96 167.97C282.96 104.48 231.5 53.02 168.01 53.02C104.52 53.02 53.0598 104.48 53.0598 167.97C53.0598 231.46 104.52 282.92 168.01 282.92C231.5 282.92 282.96 231.46 282.96 167.97ZM40.8898 217.01C38.8398 211.79 37.0098 205.85 35.3998 199.19C33.0098 189.3 31.8098 178.69 31.8198 167.36C31.8598 125.26 51.5098 86.08 84.9798 60.19C85.1598 60.05 85.3098 59.86 85.3998 59.65C85.7698 58.81 85.6998 58.28 85.1998 58.07C84.4898 57.76 83.8398 57.85 83.2298 58.33C61.4498 75.5 46.1498 96.47 37.3298 121.23C29.8598 142.17 27.5098 163.38 30.2698 184.87C35.0498 222.07 52.2598 252.73 81.8998 276.85C82.3898 277.25 83.0798 277.38 83.9698 277.23C84.4698 277.15 84.5299 276.59 84.1599 275.54C84.0699 275.28 83.9098 275.06 83.6998 274.88C79.5998 271.51 75.9498 268.25 72.7398 265.1C58.6598 251.25 48.0398 235.22 40.8898 217.01ZM298.81 218.61C301.07 213.16 303.01 206.94 304.64 199.95C309.11 180.81 309.55 160.33 305.59 141.01C298.94 108.52 282.48 81.54 256.21 60.07C255.98 59.88 255.68 59.77 255.38 59.77C254.84 59.77 254.52 59.95 254.42 60.32C254.19 61.11 254.4 61.76 255.03 62.28C265.98 71.32 275.33 81.57 283.08 93.03C284.12 94.58 285.04 96.06 285.84 97.49C287.98 101.33 290.32 105.03 292.21 108.98C303.84 133.37 308.01 158.74 304.72 185.11C301.12 213.96 289 239.56 268.36 261.9C264.26 266.34 259.43 270.1 255.05 274.38C254.83 274.6 254.72 274.9 254.74 275.21C254.77 275.68 254.93 276.03 255.24 276.24C255.67 276.53 256.08 276.52 256.49 276.19C264.18 270.03 271.16 263.08 277.43 255.33C281.87 249.85 286.23 243.77 289.75 237.46C292.14 233.17 294.57 229.15 296.4 224.56C297.2 222.55 298 220.57 298.81 218.61ZM231.73 281.27C231.26 280.42 230.19 280.12 229.34 280.59L229.2 280.67C228.35 281.14 228.05 282.21 228.52 283.06L236.3 297.04C236.77 297.89 237.84 298.19 238.69 297.72L238.83 297.64C239.68 297.17 239.98 296.1 239.51 295.25L231.73 281.27ZM108.81 285.16L116.35 288.91C116.65 289.06 117 289.08 117.32 288.96C118.03 288.71 118.43 288.38 118.53 287.97C118.72 287.13 118.44 286.52 117.67 286.13L108.17 281.33C107.17 280.82 105.95 281.22 105.44 282.22C105.44 282.22 105.44 282.23 105.43 282.24L98.3998 296.43C97.9398 297.34 98.3098 298.45 99.2298 298.9C99.2398 298.9 99.2498 298.91 99.2598 298.92C102.15 300.31 105.41 301.92 109.04 303.76C109.79 304.15 110.54 304.03 111.3 303.42C111.63 303.15 111.6 302.69 111.21 302.02C110.84 301.39 110.33 300.91 109.66 300.58L102.88 297.3C102.33 297.03 102.2 296.63 102.48 296.1L104.33 292.58C104.51 292.23 104.94 292.1 105.29 292.28H105.3C107.53 293.53 109.71 294.64 111.84 295.6C112.55 295.92 113.37 295.6 113.69 294.9C113.8 294.66 113.84 294.39 113.8 294.13C113.67 293.17 111.25 291.73 106.54 289.81C106.09 289.63 105.98 289.32 106.19 288.88L107.86 285.47C108.07 285.05 108.39 284.94 108.81 285.15V285.16ZM218.31 290.49L223.49 302.63C223.93 303.66 224.71 304.18 225.84 304.19C226.17 304.19 226.43 304.08 226.63 303.85C227.27 303.12 227.4 302.31 227.01 301.42L221.37 288.53C221.24 288.23 221.37 287.88 221.68 287.75H221.7L225.78 286.11C226.5 285.82 226.73 285.31 226.47 284.58L226.3 284.11C226.06 283.42 225.3 283.06 224.62 283.31C224.59 283.32 224.56 283.33 224.54 283.34L212.4 288.62C211.57 288.98 211.19 289.61 211.24 290.52C211.24 290.71 211.31 290.89 211.42 291.04C211.84 291.65 212.39 291.82 213.08 291.55L217.11 289.98C217.68 289.76 218.08 289.93 218.32 290.5H218.31V290.49ZM120.81 304.39L125.39 290.69C125.7 289.78 125.39 289.19 124.48 288.9L123.95 288.73C122.93 288.4 122.24 288.75 121.89 289.77L116.67 304.91C116.33 305.9 116.86 306.98 117.86 307.33L127.81 310.66C128.85 311.01 129.48 310.66 129.7 309.57L129.78 309.22C129.93 308.5 129.65 308.02 128.95 307.79L121.2 305.21C120.87 305.09 120.69 304.73 120.8 304.39H120.81ZM209.16 291.5C208.86 290.58 207.87 290.07 206.94 290.37L206.79 290.42C205.87 290.72 205.36 291.71 205.66 292.64L210.65 308.01C210.95 308.93 211.94 309.44 212.87 309.14L213.02 309.09C213.94 308.79 214.45 307.8 214.15 306.87L209.16 291.5ZM165.91 293.29C165.91 292.43 165.21 291.73 164.35 291.73C163.49 291.73 162.79 292.43 162.79 293.29C162.79 294.15 163.49 294.85 164.35 294.85C165.21 294.85 165.91 294.15 165.91 293.29ZM170.84 294.82C171.63 294.69 172.15 293.86 172.01 292.96C171.86 292.06 171.11 291.44 170.31 291.56C169.52 291.69 169 292.52 169.14 293.42C169.29 294.32 170.04 294.94 170.84 294.82ZM146.69 309.49L148.31 310.62C148.84 310.99 149 310.87 148.79 310.26L148.14 308.41C147.94 307.84 148.24 307.21 148.81 307.01C148.81 307.01 148.84 307.01 148.85 307L152.28 305.97C152.71 305.84 152.72 305.69 152.28 305.53C150.51 304.87 147.58 303.39 149.75 301.13C150.04 300.82 150.35 300.53 150.66 300.24C151.15 299.79 151.08 299.67 150.45 299.89C149.72 300.15 149.01 300.46 148.32 300.83C147.95 301.02 147.7 300.93 147.55 300.54C146.51 297.86 146.15 295.07 146.46 292.17C146.46 292.11 146.43 292.06 146.37 292.05L146.08 292.03C145.91 292.01 145.81 292.09 145.79 292.26C145.44 294.89 144.37 297.23 142.56 299.28C142.13 299.77 141.66 299.8 141.16 299.38L139.67 298.14C139.18 297.73 139.07 297.81 139.33 298.4L140.14 300.23C140.47 300.97 140.29 301.54 139.58 301.95C138.51 302.55 137.33 302.95 136.02 303.14C135.47 303.22 135.44 303.39 135.93 303.65C136.12 303.75 136.32 303.8 136.53 303.81C136.85 303.82 137.14 303.92 137.4 304.1C138.24 304.67 138.9 305.37 139.38 306.2C139.58 306.56 139.52 307 139.23 307.29L138.18 308.36C137.62 308.92 137.73 309.12 138.5 308.95L140.45 308.52C140.77 308.45 140.98 308.57 141.08 308.88C141.95 311.6 142.21 314.32 141.86 317.05C141.84 317.2 141.9 317.3 142.05 317.33L142.3 317.38C142.3 317.38 142.37 317.37 142.38 317.33C142.96 314.62 144.15 312.05 145.94 309.61C146.11 309.38 146.44 309.32 146.68 309.49H146.69ZM184.84 304.12C184.66 303.06 184.93 302.93 185.64 303.73L193.01 312C193.27 312.29 193.72 312.31 194.01 312.05C194.09 311.98 194.16 311.88 194.2 311.78L198.34 300.96C198.63 300.19 198.86 300.21 199.02 301.02L200.88 310.72C201.09 311.81 201.74 312.31 202.85 312.24C202.98 312.24 203.12 312.21 203.25 312.16C204.11 311.85 204.46 311.24 204.29 310.34L201.21 293.75C201.13 293.34 200.81 293.03 200.4 292.97C198.92 292.75 197.91 293.4 197.36 294.93C195.91 299.02 194.47 302.91 193.05 306.6C192.96 306.83 192.71 306.94 192.48 306.85C192.41 306.82 192.36 306.78 192.31 306.73C189.58 303.58 186.86 300.46 184.14 297.38C183.33 296.46 181.88 295.62 180.75 296.5C180.29 296.85 180.07 297.43 180.17 298L183.07 313.98C183.2 314.69 183.81 315.22 184.53 315.25L185.32 315.28C186.27 315.33 186.67 314.88 186.51 313.93L184.84 304.12ZM172.23 308.79C171.68 314.72 162.97 314.79 162.68 308.71C162.51 305.08 162.46 301.45 162.54 297.81C162.56 296.94 162.14 296.47 161.27 296.4L160.89 296.37C159.7 296.28 159.08 296.82 159.02 298.01C158.83 301.48 158.8 304.82 158.92 308.05C159.17 315.12 164.91 317.61 171.05 315.68C173.83 314.81 175.54 312.03 175.77 309.24C176.08 305.6 176.19 301.84 176.09 297.96C176.07 297.23 175.46 296.65 174.73 296.67L174.37 296.69C173.08 296.73 172.46 297.4 172.51 298.69C172.64 302.01 172.54 305.38 172.23 308.79Z" fill="#E7EFF7"/>
<path d="M177.319 37.6503L183.799 38.1103C184.339 38.1403 184.749 38.6103 184.719 39.1503V39.2303L184.659 39.6303C184.529 40.5003 184.029 40.9103 183.139 40.8403L174.529 40.2003C170.829 39.9303 170.439 38.6403 173.349 36.3403C175.959 34.2803 178.329 32.2603 180.459 30.2703C181.609 29.2003 181.809 27.9103 181.079 26.3903C180.929 26.0703 180.649 25.8203 180.309 25.7103C178.239 25.0203 176.229 25.2203 174.279 26.2903C173.859 26.5203 173.329 26.3803 173.099 25.9603C173.099 25.9503 173.099 25.9303 173.079 25.9203L172.909 25.5903C172.419 24.5903 172.679 23.8703 173.699 23.4203C176.839 22.0403 183.169 21.8303 184.529 25.9403C185.269 28.1703 184.269 31.0603 182.389 32.6303C180.569 34.1503 178.809 35.5803 177.109 36.9103C176.539 37.3503 176.619 37.6003 177.329 37.6503H177.319Z" fill="#233161"/>
<path d="M151.129 26.6297L152.829 40.0497C152.859 40.3298 152.699 40.5997 152.429 40.6897L150.449 41.3798C150.139 41.4898 149.799 41.3197 149.689 41.0097C149.689 40.9697 149.669 40.9298 149.659 40.8897L147.829 27.1198C147.789 26.7998 147.499 26.5698 147.179 26.5998L142.439 27.0298C142.109 27.0598 141.819 26.8097 141.789 26.4797V24.9498C141.789 24.6398 142.009 24.3898 142.309 24.3498L155.809 22.6198C156.139 22.5798 156.439 22.8097 156.479 23.1397L156.649 24.6998C156.689 25.0198 156.459 25.3098 156.139 25.3598L151.649 25.9498C151.319 25.9898 151.089 26.2898 151.129 26.6198V26.6297Z" fill="#233161"/>
<path d="M193.131 42.8204C189.071 42.0204 186.581 37.3104 187.571 32.3104C188.561 27.3104 192.661 23.9104 196.721 24.7104C200.781 25.5104 203.271 30.2204 202.281 35.2204C201.291 40.2204 197.191 43.6204 193.131 42.8204ZM193.681 40.0304C195.961 40.4804 198.351 38.0504 199.041 34.6004C199.721 31.1504 198.431 27.9904 196.161 27.5404C193.881 27.0904 191.491 29.5204 190.801 32.9704C190.121 36.4204 191.411 39.5804 193.681 40.0304Z" fill="#233161"/>
<path d="M130.96 33.3201C132.94 33.8101 134.97 34.0401 137.05 34.0101C139.25 33.9801 142.07 35.0101 142.33 37.6101C142.96 43.8901 135.41 44.9001 130.75 44.3901C130.04 44.3201 129.51 43.7001 129.54 42.9901L129.56 42.4901C129.59 41.8201 129.94 41.5301 130.6 41.6101C133.18 41.9301 136.73 42.0901 138.69 40.2101C139.43 39.5001 139.46 38.3201 138.75 37.5801C138.43 37.2401 137.99 37.0401 137.52 37.0101C135.55 36.8801 133.63 36.7401 131.78 36.5901C125 36.0101 126.07 28.8401 131.2 26.8901C133.22 26.1201 135.3 25.8401 137.43 26.0301C138.18 26.1001 138.57 26.5001 138.61 27.2501L138.63 27.6601C138.67 28.4101 138.32 28.7801 137.57 28.7701C135.04 28.7301 130.18 28.7901 130.16 32.2801C130.16 32.7701 130.48 33.2001 130.96 33.3201Z" fill="#233161"/>
<path d="M208.46 30.7597L206.55 30.3997C206.24 30.3397 206.02 30.0597 206.04 29.7397L206.16 28.0697C206.19 27.7197 206.49 27.4597 206.83 27.4897C206.87 27.4897 206.91 27.4997 206.96 27.5097L212.55 29.1097C212.88 29.2097 213.08 29.5497 212.98 29.8897L208.22 45.5197C208.13 45.8197 207.83 45.9997 207.52 45.9497L205.55 45.6397C205.21 45.5897 204.97 45.2697 205.02 44.9197C205.02 44.8897 205.02 44.8597 205.04 44.8397L208.95 31.5597C209.05 31.2297 208.86 30.8797 208.53 30.7797C208.51 30.7797 208.49 30.7697 208.46 30.7597Z" fill="#233161"/>
<path d="M199.034 34.6114C199.717 31.1603 198.427 27.9975 196.151 27.5469C193.876 27.0964 191.477 29.5288 190.794 32.9798C190.111 36.4309 191.401 39.5938 193.677 40.0443C195.952 40.4948 198.351 38.0624 199.034 34.6114Z" fill="#E7EFF7"/>
<path d="M118.031 47.1698L125.671 44.2698C126.381 43.9998 127.011 44.1298 127.541 44.6698C127.651 44.7798 127.731 44.9198 127.761 45.0798C127.951 45.8698 127.671 46.4198 126.901 46.7198L117.191 50.5198C116.221 50.8998 115.551 50.5998 115.171 49.6298L109.761 35.7498C109.481 35.0498 109.831 34.2498 110.531 33.9698L119.721 30.4098C119.911 30.3398 120.111 30.2998 120.311 30.2998C121.371 30.3198 121.911 30.5598 121.941 31.0198C121.991 31.9198 121.601 32.5498 120.791 32.9098C118.821 33.7798 116.761 34.5498 114.611 35.2098C113.851 35.4398 113.581 35.9398 113.791 36.7098L114.551 39.3498C114.721 39.9498 115.101 40.1398 115.681 39.9198L121.831 37.5398C121.831 37.5398 121.901 37.5198 121.941 37.5198C122.831 37.5198 123.361 37.7598 123.551 38.2398C123.891 39.1298 123.621 39.7398 122.741 40.0898L116.371 42.6098C116.201 42.6798 116.151 42.8098 116.211 42.9798L117.531 46.9398C117.621 47.1898 117.781 47.2598 118.021 47.1698H118.031Z" fill="#233161"/>
<path d="M222.78 43.61C218.38 44.08 212.89 40.32 215.56 35.34C217.54 31.64 222.44 31.79 225.43 33.98C230.07 37.38 228.09 44.5 224.54 48.02C221.16 51.38 215.9 50.5 212.61 47.55C212.36 47.33 212.23 47.01 212.25 46.67C212.3 45.68 212.87 45.22 213.98 45.27C214.27 45.27 214.54 45.39 214.77 45.57C217.94 48.18 220.78 47.83 223.29 44.5C223.8 43.81 223.63 43.52 222.78 43.61ZM224.78 39.55C225.42 38.05 224.47 36.21 222.66 35.45C220.85 34.69 218.88 35.28 218.24 36.78C217.6 38.28 218.55 40.12 220.36 40.88C222.17 41.64 224.14 41.05 224.78 39.55Z" fill="#233161"/>
<path d="M224.774 39.546C225.411 38.0463 224.464 36.2095 222.659 35.4434C220.854 34.6773 218.875 35.2721 218.239 36.7718C217.602 38.2715 218.549 40.1083 220.354 40.8744C222.158 41.6405 224.138 41.0457 224.774 39.546Z" fill="#E7EFF7"/>
<path d="M160.849 40.4198C161.987 40.4198 162.909 39.4975 162.909 38.3598C162.909 37.2221 161.987 36.2998 160.849 36.2998C159.711 36.2998 158.789 37.2221 158.789 38.3598C158.789 39.4975 159.711 40.4198 160.849 40.4198Z" fill="#233161"/>
<path d="M107.833 45.7079L103.841 47.7417C103.231 48.0526 102.988 48.7993 103.299 49.4095L103.354 49.5165C103.665 50.1266 104.411 50.3693 105.022 50.0584L109.013 48.0245C109.623 47.7136 109.866 46.9669 109.555 46.3567L109.501 46.2498C109.19 45.6396 108.443 45.397 107.833 45.7079Z" fill="#233161"/>
<path d="M228.965 47.3838L228.918 47.4723C228.591 48.0927 228.829 48.8609 229.45 49.188L233.43 51.2868C234.051 51.6139 234.819 51.3761 235.146 50.7557L235.193 50.6672C235.52 50.0467 235.282 49.2786 234.661 48.9515L230.681 46.8527C230.06 46.5256 229.292 46.7634 228.965 47.3838Z" fill="#233161"/>
<path d="M282.97 167.97C282.97 231.46 231.51 282.92 168.02 282.92C104.53 282.92 53.0703 231.46 53.0703 167.97C53.0703 104.48 104.53 53.0195 168.02 53.0195C231.51 53.0195 282.97 104.48 282.97 167.97ZM276.79 168.04C276.79 107.96 228.09 59.2595 168.01 59.2595C107.93 59.2595 59.2303 107.96 59.2303 168.04C59.2303 228.12 107.93 276.82 168.01 276.82C228.09 276.82 276.79 228.12 276.79 168.04Z" fill="#233161"/>
<path d="M40.9 217.01C48.05 235.22 58.67 251.25 72.75 265.1C75.96 268.25 79.61 271.51 83.71 274.88C83.92 275.06 84.08 275.28 84.17 275.54C84.54 276.59 84.48 277.15 83.98 277.23C83.09 277.38 82.4 277.25 81.91 276.85C52.27 252.73 35.06 222.07 30.28 184.87C27.52 163.38 29.87 142.17 37.34 121.23C46.16 96.4704 61.46 75.5004 83.24 58.3304C83.85 57.8504 84.5 57.7604 85.21 58.0704C85.71 58.2804 85.78 58.8104 85.41 59.6504C85.32 59.8604 85.17 60.0504 84.99 60.1904C51.52 86.0804 31.87 125.26 31.83 167.36C31.83 178.69 33.02 189.3 35.41 199.19C37.02 205.85 38.85 211.79 40.9 217.01Z" fill="#233161"/>
<path d="M276.79 168.04C276.79 228.12 228.09 276.82 168.01 276.82C107.93 276.82 59.2305 228.12 59.2305 168.04C59.2305 107.96 107.93 59.2598 168.01 59.2598C228.09 59.2598 276.79 107.96 276.79 168.04ZM236.53 140.09L236.56 171.54C236.56 173.07 237.33 173.83 238.86 173.81H239.39C241.32 173.77 242.29 172.79 242.29 170.86V137.18C242.29 136.71 242.51 136.39 242.95 136.21C245.84 135.02 248.99 132.67 248.97 129.22C248.97 126.57 247.71 124.52 245.23 123.09C220.6 108.84 196.85 95.1098 173.96 81.9098C168.55 78.7898 164.54 80.5998 159.71 83.3898C137.09 96.4298 114.47 109.49 91.8605 122.57C88.9105 124.27 86.9805 125.96 87.2505 129.72C87.4605 132.8 90.3305 134.48 92.7305 135.91C96.7005 138.27 100.59 140.48 104.4 142.54C104.91 142.82 105.17 143.25 105.17 143.84C105.14 152.75 105.13 161.73 105.15 170.79C105.15 175.46 107.2 178.97 111.28 181.33C127.34 190.62 143.68 200.07 160.3 209.67C165.58 212.72 170.73 212.78 175.76 209.83C191.42 200.66 207.21 191.55 223.13 182.5C228.11 179.67 231.19 176.45 231.17 170.59C231.15 161.51 231.17 152.41 231.19 143.3C231.19 143.11 231.27 142.97 231.44 142.87L236.29 139.95C236.37 139.91 236.46 139.93 236.51 140.01C236.51 140.03 236.53 140.06 236.53 140.09ZM167.67 219.76L87.8605 173.71C87.2605 173.36 86.5405 173.3 85.8905 173.54C84.9205 173.9 84.3105 174.41 84.0805 175.08C83.4805 176.76 83.9505 178.05 85.5005 178.94L166.5 225.72C167.57 226.34 168.65 226.34 169.72 225.72C189.86 214.17 210.46 202.25 231.51 189.98C233.55 188.79 235.31 188.06 236.8 187.8C241.46 186.97 246.59 190.5 246.77 195.42C247.01 201.94 244.12 206.94 238.1 210.41C215.24 223.58 192.21 236.88 169.01 250.29C168.48 250.59 167.83 250.59 167.3 250.29C141.88 235.63 115.73 220.53 88.8505 204.98C87.4705 204.18 86.0505 204.18 84.5805 204.98C83.6205 205.5 83.8505 206.91 85.2705 209.22C85.4605 209.52 85.7205 209.78 86.0405 209.96C112.85 225.48 139.72 241 166.66 256.53C168.18 257.4 170.07 256.4 171.46 255.58C194.25 242.28 217.42 228.88 240.95 215.39C247.58 211.59 251.39 206 252.4 198.61C253.71 189.06 245.61 180.46 236.21 182.09C233.78 182.52 230.6 183.87 226.68 186.16C207.76 197.21 188.38 208.4 168.53 219.75C168.24 219.91 167.96 219.91 167.67 219.75V219.77V219.76ZM167.85 230.31L88.2605 184.37C87.7405 184.08 87.1805 183.91 86.5905 183.86C85.0605 183.75 84.8405 184.52 85.9505 186.17C86.0805 186.35 86.2405 186.5 86.4205 186.61L167.2 233.27C167.77 233.6 168.49 233.6 169.07 233.27C192.56 219.73 216.09 206.14 239.68 192.5C240.45 192.06 240.86 191.18 240.71 190.31C240.62 189.81 240.01 189.64 238.88 189.81C238.69 189.84 238.5 189.9 238.34 190L168.45 230.31C168.27 230.42 168.03 230.42 167.85 230.31ZM167.69 236.85L87.4805 190.57C86.7105 190.13 86.0805 190.27 85.5705 191L85.3005 191.39C84.8905 191.98 84.9905 192.45 85.6105 192.81L167.13 239.88C167.77 240.25 168.55 240.25 169.19 239.88L242.66 197.47C243.1 197.21 243.37 196.74 243.35 196.23C243.32 195.72 243.2 195.36 242.98 195.15C242.47 194.66 241.91 194.59 241.3 194.94L168.7 236.85C168.39 237.03 168 237.03 167.69 236.85ZM168.28 243.52C167.97 243.61 167.68 243.58 167.4 243.42L87.9505 197.51C87.2005 197.08 86.4305 197.04 85.6405 197.4C84.9905 197.71 85.0005 198.28 85.6405 199.11C86.0105 199.58 86.4605 199.97 86.9805 200.28L167.44 246.77C167.92 247.05 168.4 247.05 168.88 246.77C192.8 232.98 216.4 219.33 239.68 205.82C240.42 205.39 240.8 204.74 240.81 203.86C240.81 203.72 240.76 203.61 240.67 203.52C240.03 202.94 239.08 202.84 238.34 203.28C215.91 216.29 193.15 229.45 170.05 242.76C169.5 243.07 168.9 243.33 168.27 243.52H168.28Z" fill="#E7EFF7"/>
<path d="M298.82 218.61C298.01 220.57 297.21 222.55 296.41 224.56C294.58 229.15 292.15 233.17 289.76 237.46C286.24 243.77 281.88 249.85 277.44 255.33C271.17 263.08 264.19 270.03 256.5 276.19C256.09 276.52 255.68 276.53 255.25 276.24C254.94 276.03 254.78 275.68 254.75 275.21C254.73 274.9 254.84 274.6 255.06 274.38C259.44 270.1 264.27 266.34 268.37 261.9C289.01 239.56 301.13 213.96 304.73 185.11C308.02 158.74 303.85 133.37 292.22 108.98C290.33 105.03 287.99 101.33 285.85 97.4895C285.05 96.0595 284.13 94.5795 283.09 93.0295C275.34 81.5695 265.99 71.3195 255.04 62.2795C254.41 61.7595 254.2 61.1095 254.43 60.3195C254.53 59.9495 254.85 59.7695 255.39 59.7695C255.69 59.7695 255.99 59.8795 256.22 60.0695C282.49 81.5395 298.95 108.52 305.6 141.01C309.56 160.33 309.12 180.81 304.65 199.95C303.02 206.94 301.08 213.16 298.82 218.61Z" fill="#233161"/>
<path d="M236.53 140.09C236.53 140 236.46 139.93 236.37 139.93C236.34 139.93 236.31 139.93 236.29 139.95L231.44 142.87C231.27 142.97 231.19 143.11 231.19 143.3C231.16 152.41 231.15 161.51 231.17 170.59C231.19 176.45 228.11 179.67 223.13 182.5C207.21 191.55 191.42 200.66 175.76 209.83C170.73 212.78 165.58 212.72 160.3 209.67C143.68 200.07 127.34 190.62 111.28 181.33C107.2 178.97 105.16 175.46 105.15 170.79C105.13 161.73 105.14 152.75 105.17 143.84C105.17 143.25 104.91 142.82 104.4 142.54C100.59 140.48 96.6997 138.27 92.7297 135.91C90.3297 134.48 87.4597 132.8 87.2497 129.72C86.9797 125.96 88.9097 124.27 91.8597 122.57C114.47 109.49 137.09 96.43 159.71 83.39C164.54 80.6 168.55 78.79 173.96 81.91C196.85 95.11 220.6 108.84 245.23 123.09C247.71 124.52 248.96 126.57 248.97 129.22C248.99 132.67 245.84 135.02 242.95 136.21C242.51 136.39 242.29 136.71 242.29 137.18V170.86C242.29 172.79 241.32 173.77 239.39 173.8H238.86C237.33 173.83 236.57 173.07 236.56 171.54L236.53 140.09ZM241.45 127.33C219.14 114.7 196.02 101.36 172.08 87.31C169.91 86.03 167.25 85.67 165.03 86.95C141.04 100.81 117.03 114.68 92.9997 128.55C92.7997 128.67 92.7297 128.92 92.8497 129.12C92.8697 129.15 92.8897 129.18 92.9197 129.21C93.2997 129.58 93.7297 129.9 94.2097 130.18C113.92 141.48 137.4 155.03 164.67 170.82C166.97 172.15 169.28 172.15 171.61 170.8C195.98 156.73 219.85 142.95 243.21 129.46C243.49 129.3 243.59 128.94 243.43 128.65C243.39 128.58 243.33 128.51 243.26 128.47C242.73 128.09 242.12 127.71 241.45 127.33ZM162.7 176.22C146.44 166.93 129.26 157.03 111.17 146.52C111.06 146.45 110.91 146.49 110.84 146.61C110.82 146.65 110.81 146.69 110.81 146.73C110.76 155 110.81 163.08 110.94 170.95C110.98 173.2 111.56 174.67 112.67 175.36C116.54 177.74 120.72 180.22 125.2 182.79C137.91 190.1 150.82 197.54 163.92 205.11C166.76 206.75 169.71 206.68 172.76 204.91C188.65 195.66 204.94 186.26 221.63 176.7C224.15 175.25 225.42 173.14 225.42 170.22C225.42 162.57 225.4 154.88 225.42 147.17C225.42 146.9 225.2 146.68 224.93 146.68C224.84 146.68 224.76 146.7 224.69 146.75C206.7 157.16 190.03 166.82 174.7 175.72C170.87 177.94 166.8 178.56 162.71 176.22H162.7Z" fill="#233161"/>
<path d="M241.45 127.33C242.12 127.71 242.73 128.09 243.26 128.47C243.52 128.66 243.58 129.03 243.39 129.29C243.34 129.36 243.28 129.41 243.21 129.46C219.85 142.95 195.98 156.73 171.61 170.8C169.28 172.15 166.97 172.15 164.67 170.82C137.4 155.03 113.92 141.48 94.2098 130.18C93.7298 129.9 93.2998 129.58 92.9198 129.21C92.7498 129.06 92.7498 128.79 92.9098 128.63C92.9398 128.6 92.9698 128.58 92.9998 128.55C117.03 114.68 141.04 100.81 165.03 86.9501C167.25 85.6701 169.91 86.0301 172.08 87.3101C196.02 101.36 219.14 114.7 241.45 127.33ZM167.82 92.3601C167.45 91.7201 166.63 91.5001 165.99 91.8701L126.12 114.89C125.48 115.26 125.26 116.08 125.63 116.72L125.65 116.75C126.02 117.39 126.84 117.61 127.48 117.24L167.35 94.2201C167.99 93.8501 168.21 93.0301 167.84 92.3901L167.82 92.3601ZM120.1 119.89C119.73 119.25 118.91 119.03 118.27 119.4L107.23 125.8C106.59 126.17 106.37 126.99 106.74 127.63L106.78 127.7C107.15 128.34 107.97 128.56 108.61 128.19L119.65 121.79C120.29 121.42 120.51 120.6 120.14 119.96L120.1 119.89Z" fill="#E7EFF7"/>
<path d="M165.987 91.8686L126.116 114.889C125.475 115.259 125.255 116.078 125.625 116.719L125.645 116.754C126.015 117.395 126.835 117.614 127.476 117.244L167.347 94.2242C167.988 93.8542 168.208 93.0346 167.838 92.3937L167.818 92.3591C167.448 91.7182 166.628 91.4986 165.987 91.8686Z" fill="#233161"/>
<path d="M118.267 119.411L107.228 125.81C106.587 126.182 106.369 127.001 106.74 127.642L106.781 127.711C107.152 128.351 107.972 128.569 108.612 128.198L119.651 121.799C120.291 121.428 120.51 120.608 120.138 119.968L120.098 119.898C119.727 119.258 118.907 119.04 118.267 119.411Z" fill="#233161"/>
<path d="M162.7 176.22C166.79 178.56 170.86 177.94 174.69 175.72C190.02 166.82 206.69 157.16 224.68 146.75C224.91 146.61 225.2 146.69 225.34 146.92C225.38 147 225.41 147.08 225.41 147.17C225.41 154.88 225.41 162.57 225.41 170.22C225.41 173.14 224.14 175.25 221.62 176.7C204.93 186.26 188.64 195.66 172.75 204.91C169.7 206.68 166.75 206.75 163.91 205.11C150.81 197.54 137.9 190.1 125.19 182.79C120.71 180.22 116.53 177.74 112.66 175.36C111.55 174.67 110.97 173.2 110.93 170.95C110.8 163.08 110.75 155 110.8 146.73C110.8 146.6 110.91 146.49 111.04 146.49C111.08 146.49 111.13 146.49 111.16 146.52C129.25 157.03 146.43 166.93 162.69 176.22H162.7Z" fill="#E7EFF7"/>
<path d="M168.53 219.77C188.38 208.42 207.76 197.23 226.68 186.18C230.6 183.89 233.78 182.54 236.21 182.11C245.61 180.48 253.71 189.08 252.4 198.63C251.39 206.02 247.58 211.61 240.95 215.41C217.42 228.9 194.25 242.3 171.46 255.6C170.07 256.42 168.18 257.42 166.66 256.55C139.72 241.02 112.85 225.5 86.0402 209.98C85.7202 209.8 85.4602 209.54 85.2702 209.24C83.8502 206.93 83.6202 205.52 84.5802 205C86.0502 204.19 87.4702 204.19 88.8502 205C115.73 220.55 141.88 235.65 167.3 250.31C167.83 250.61 168.48 250.61 169.01 250.31C192.21 236.9 215.24 223.6 238.1 210.43C244.12 206.96 247.01 201.96 246.77 195.44C246.59 190.52 241.46 186.99 236.8 187.82C235.31 188.08 233.55 188.81 231.51 190C210.46 202.27 189.86 214.19 169.72 225.74C168.65 226.35 167.57 226.35 166.5 225.74L85.5002 178.96C83.9502 178.07 83.4802 176.78 84.0802 175.1C84.3102 174.43 84.9202 173.92 85.8902 173.56C86.5402 173.32 87.2602 173.38 87.8602 173.73L167.67 219.78C167.96 219.95 168.24 219.95 168.53 219.78V219.76V219.77Z" fill="#233161"/>
<path d="M167.85 230.31C168.03 230.42 168.27 230.42 168.45 230.31L238.34 190C238.5 189.9 238.69 189.84 238.88 189.81C240.01 189.64 240.62 189.81 240.71 190.31C240.86 191.18 240.45 192.06 239.68 192.5C216.09 206.14 192.56 219.73 169.07 233.27C168.49 233.6 167.78 233.6 167.2 233.27L86.4202 186.61C86.2402 186.5 86.0802 186.35 85.9502 186.17C84.8402 184.52 85.0602 183.75 86.5902 183.86C87.1802 183.91 87.7402 184.08 88.2602 184.37L167.85 230.31Z" fill="#233161"/>
<path d="M167.689 236.85C167.999 237.03 168.389 237.03 168.699 236.85L241.299 194.94C241.909 194.59 242.469 194.66 242.979 195.15C243.199 195.36 243.319 195.72 243.349 196.23C243.369 196.74 243.099 197.21 242.659 197.47L169.189 239.88C168.549 240.25 167.769 240.25 167.129 239.88L85.6093 192.81C84.9893 192.45 84.8893 191.98 85.2993 191.39L85.5693 191C86.0793 190.27 86.7093 190.13 87.4793 190.57L167.689 236.85Z" fill="#233161"/>
<path d="M168.279 243.52C168.909 243.33 169.509 243.07 170.059 242.76C193.159 229.45 215.919 216.29 238.349 203.28C239.089 202.84 240.039 202.94 240.679 203.52C240.769 203.61 240.819 203.72 240.819 203.86C240.819 204.74 240.429 205.39 239.689 205.82C216.409 219.33 192.809 232.98 168.889 246.77C168.409 247.05 167.929 247.05 167.449 246.77L86.9895 200.28C86.4695 199.97 86.0195 199.58 85.6495 199.11C84.9995 198.28 84.9895 197.71 85.6495 197.4C86.4395 197.04 87.2095 197.08 87.9595 197.51L167.409 243.42C167.689 243.58 167.979 243.61 168.289 243.52H168.279Z" fill="#233161"/>
<path d="M229.342 280.591L229.202 280.668C228.353 281.141 228.047 282.213 228.52 283.062L236.301 297.043C236.774 297.892 237.846 298.197 238.695 297.725L238.835 297.647C239.684 297.174 239.99 296.102 239.517 295.253L231.736 281.273C231.263 280.423 230.191 280.118 229.342 280.591Z" fill="#233161"/>
<path d="M108.819 285.16C108.399 284.95 108.079 285.06 107.869 285.48L106.199 288.89C105.989 289.33 106.099 289.64 106.549 289.82C111.259 291.74 113.679 293.18 113.809 294.14C113.919 294.91 113.379 295.61 112.619 295.72C112.359 295.76 112.089 295.72 111.849 295.61C109.719 294.65 107.539 293.54 105.309 292.29C104.969 292.1 104.529 292.23 104.349 292.57L102.499 296.1C102.219 296.63 102.349 297.03 102.899 297.3L109.679 300.58C110.349 300.91 110.859 301.39 111.229 302.02C111.619 302.69 111.649 303.15 111.319 303.42C110.559 304.03 109.809 304.15 109.059 303.76C105.429 301.92 102.169 300.31 99.2794 298.92C98.3594 298.48 97.9694 297.38 98.3994 296.46C98.3994 296.45 98.4094 296.44 98.4194 296.43L105.449 282.24C105.949 281.23 107.159 280.82 108.169 281.32C108.169 281.32 108.179 281.32 108.189 281.33L117.689 286.13C118.459 286.52 118.739 287.13 118.549 287.97C118.449 288.38 118.049 288.71 117.339 288.96C117.019 289.08 116.669 289.06 116.369 288.91L108.829 285.16H108.819Z" fill="#233161"/>
<path d="M217.111 289.97L213.081 291.54C212.391 291.81 211.841 291.639 211.421 291.029C211.311 290.879 211.251 290.7 211.241 290.51C211.191 289.6 211.571 288.969 212.401 288.609L224.541 283.329C225.211 283.039 225.991 283.349 226.281 284.019C226.281 284.049 226.301 284.08 226.311 284.1L226.481 284.57C226.741 285.3 226.511 285.81 225.791 286.1L221.711 287.739C221.401 287.859 221.251 288.21 221.371 288.51V288.529L227.011 301.42C227.401 302.31 227.271 303.12 226.631 303.85C226.431 304.08 226.171 304.19 225.841 304.19C224.711 304.19 223.931 303.66 223.491 302.63L218.311 290.489C218.071 289.919 217.671 289.75 217.101 289.97H217.111Z" fill="#233161"/>
<path d="M120.82 304.39C120.71 304.73 120.89 305.09 121.22 305.21L128.97 307.79C129.67 308.02 129.95 308.5 129.8 309.22L129.72 309.57C129.5 310.65 128.87 311.01 127.83 310.66L117.88 307.33C116.88 306.99 116.34 305.91 116.68 304.92L121.9 289.78C122.25 288.76 122.94 288.41 123.96 288.74L124.49 288.91C125.4 289.2 125.71 289.79 125.4 290.7L120.82 304.4V304.39Z" fill="#233161"/>
<path d="M206.959 290.368L206.807 290.417C205.882 290.717 205.376 291.71 205.677 292.635L210.67 308.004C210.971 308.928 211.964 309.434 212.888 309.134L213.04 309.084C213.965 308.784 214.471 307.791 214.17 306.867L209.177 291.498C208.876 290.573 207.883 290.067 206.959 290.368Z" fill="#233161"/>
<path d="M164.361 294.85C165.222 294.85 165.921 294.152 165.921 293.29C165.921 292.429 165.222 291.73 164.361 291.73C163.499 291.73 162.801 292.429 162.801 293.29C162.801 294.152 163.499 294.85 164.361 294.85Z" fill="#233161"/>
<path d="M170.855 294.824C171.646 294.696 172.169 293.863 172.023 292.963C171.877 292.063 171.118 291.438 170.328 291.566C169.537 291.694 169.015 292.527 169.16 293.427C169.306 294.326 170.065 294.952 170.855 294.824Z" fill="#233161"/>
<path d="M145.96 309.61C144.17 312.05 142.98 314.62 142.4 317.33C142.4 317.37 142.36 317.39 142.32 317.38L142.07 317.33C141.92 317.3 141.86 317.2 141.88 317.05C142.23 314.32 141.97 311.6 141.1 308.88C141 308.57 140.79 308.45 140.47 308.52L138.52 308.95C137.75 309.12 137.64 308.92 138.2 308.36L139.25 307.29C139.54 307 139.6 306.56 139.4 306.2C138.92 305.37 138.26 304.67 137.42 304.1C137.16 303.92 136.87 303.82 136.55 303.81C136.34 303.81 136.14 303.75 135.95 303.65C135.46 303.39 135.49 303.22 136.04 303.14C137.35 302.95 138.53 302.55 139.6 301.95C140.31 301.54 140.49 300.97 140.16 300.23L139.35 298.4C139.09 297.81 139.2 297.73 139.69 298.14L141.18 299.38C141.68 299.8 142.15 299.77 142.58 299.28C144.39 297.23 145.46 294.89 145.81 292.26C145.83 292.09 145.93 292.01 146.1 292.03L146.39 292.05C146.45 292.05 146.49 292.11 146.48 292.17C146.17 295.07 146.53 297.86 147.57 300.54C147.72 300.93 147.97 301.02 148.34 300.83C149.03 300.46 149.74 300.15 150.47 299.89C151.1 299.67 151.17 299.79 150.68 300.24C150.37 300.53 150.06 300.82 149.77 301.13C147.6 303.39 150.53 304.87 152.3 305.53C152.73 305.69 152.72 305.84 152.3 305.97L148.87 307C148.29 307.17 147.97 307.79 148.15 308.37C148.15 308.38 148.15 308.4 148.15 308.41L148.8 310.26C149.01 310.87 148.85 310.99 148.32 310.62L146.7 309.49C146.46 309.32 146.13 309.38 145.96 309.61Z" fill="#233161"/>
<path d="M184.85 304.12L186.52 313.93C186.68 314.88 186.28 315.33 185.33 315.28L184.54 315.25C183.82 315.22 183.21 314.69 183.08 313.98L180.18 298C180.08 297.43 180.3 296.85 180.76 296.5C181.89 295.62 183.34 296.46 184.15 297.38C186.87 300.46 189.59 303.58 192.32 306.73C192.48 306.91 192.76 306.93 192.94 306.77C192.99 306.72 193.03 306.67 193.06 306.6C194.48 302.91 195.92 299.02 197.37 294.93C197.92 293.4 198.93 292.75 200.41 292.97C200.82 293.03 201.14 293.34 201.22 293.75L204.3 310.34C204.47 311.24 204.12 311.85 203.26 312.16C203.13 312.21 202.99 312.23 202.86 312.24C201.75 312.31 201.1 311.81 200.89 310.72L199.03 301.02C198.87 300.21 198.64 300.19 198.35 300.96L194.21 311.78C194.07 312.15 193.66 312.33 193.29 312.19C193.19 312.15 193.09 312.09 193.02 312L185.65 303.73C184.94 302.93 184.67 303.06 184.85 304.12Z" fill="#233161"/>
<path d="M162.691 308.71C162.981 314.79 171.691 314.72 172.241 308.79C172.551 305.38 172.651 302.01 172.521 298.69C172.471 297.4 173.091 296.73 174.381 296.69L174.741 296.67C175.471 296.65 176.081 297.22 176.101 297.96C176.201 301.84 176.101 305.6 175.781 309.24C175.551 312.03 173.841 314.81 171.061 315.68C164.921 317.61 159.181 315.12 158.931 308.05C158.811 304.82 158.841 301.48 159.031 298.01C159.091 296.82 159.711 296.28 160.901 296.37L161.281 296.4C162.151 296.47 162.571 296.94 162.551 297.81C162.471 301.45 162.521 305.08 162.691 308.71Z" fill="#233161"/>
</svg>
