<svg width="641" height="181" viewBox="0 0 641 181" fill="none" xmlns="http://www.w3.org/2000/svg">
<path d="M91.7995 0.400391H101.699C119.699 2.60039 130.899 12.1004 135.599 29.0004C135.899 30.2004 136.099 30.1004 136.199 28.9004C136.599 22.9004 134.999 17.6004 131.499 13.1004C130.899 12.3004 130.999 12.1004 131.999 12.5004C135.099 13.8004 137.699 15.6004 139.799 17.9004C145.999 24.8004 143.499 34.5004 138.699 41.4004C138.499 41.7004 138.599 42.0004 138.799 42.2004C143.699 45.1004 146.899 49.6004 149.899 54.4004C150.799 55.8004 151.899 57.0004 153.299 58.0004C159.499 62.5004 165.299 67.8004 170.599 73.9004C171.199 74.5004 171.099 75.5004 170.399 76.1004C170.299 76.2004 170.099 76.3004 169.899 76.4004C167.899 77.2004 165.899 77.5004 163.899 77.3004C163.299 77.3004 163.299 77.4004 163.799 77.7004C165.799 79.1004 170.099 83.2004 168.599 85.9004C166.099 90.3004 161.299 94.8004 156.299 96.2004C148.699 98.3004 139.899 94.1004 133.999 89.2004C133.699 88.9004 133.299 88.8004 132.899 88.8004C123.499 88.9004 115.599 85.3004 109.099 78.0004C108.899 77.7004 108.699 77.8004 108.599 78.1004C108.499 78.3004 108.599 78.5004 108.699 78.6004C113.399 88.1004 121.099 93.4004 131.999 94.5004C132.599 94.6004 132.999 94.8004 133.299 95.4004C136.099 100.7 137.999 106.7 139.099 113.4C139.099 113.6 138.999 113.7 138.899 113.7C138.799 113.7 138.799 113.7 138.699 113.7C132.699 109.9 126.499 107.6 120.099 106.9C118.799 106.7 118.799 106.9 119.999 107.4C130.599 112 141.199 118.5 147.199 128C158.699 146.3 146.799 168.1 130.999 178.8C130.699 179 130.299 178.9 130.099 178.6C129.999 178.5 129.999 178.4 129.999 178.3C129.899 166 125.299 155.9 116.099 147.8C115.899 147.6 115.699 147.6 115.499 147.7C115.499 147.7 115.499 147.7 115.399 147.8C115.299 147.9 115.299 148.1 115.399 148.2C119.699 154.8 122.799 163.1 121.399 170.8C121.299 171.4 121.099 171.4 120.699 170.9C112.999 160.4 100.999 154.9 88.5995 151.3C81.5995 149.3 74.7995 147.3 68.2995 145.3C61.6995 143.3 55.9995 140.6 51.1995 137.2C40.5995 129.8 37.1995 116.9 38.7995 104.5C39.1995 101.8 38.5995 101.7 37.1995 103.9C34.1995 108.7 32.5995 114.6 32.5995 121.4C32.5995 122.3 32.2995 122.4 31.6995 121.7C24.4995 113.7 19.2995 103 19.9995 92.1004C20.5995 82.9004 23.2995 74.8004 28.1995 67.7004C29.5995 65.6004 29.2995 65.3004 27.2995 66.8004C21.3995 71.0004 16.0995 76.4004 11.3995 83.1004C10.7995 84.0004 10.3995 83.9004 10.2995 82.8004C8.39948 64.6004 14.3995 46.5004 29.5995 35.4004C39.3995 28.3004 50.5995 24.7004 63.3995 24.5004C65.0995 24.5004 65.0995 24.3004 63.4995 23.9004C54.7995 22.1004 45.8995 22.7004 36.7995 23.5004C36.1995 23.6004 36.0995 23.3004 36.3995 22.9004C50.6995 2.80039 82.5995 1.40039 102.999 9.90039C104.299 10.4004 104.399 10.3004 103.299 9.40039C97.8995 4.90039 91.8995 3.5004 85.1995 1.6004C84.4995 1.4004 84.5995 1.30041 85.1995 1.20041L91.7995 0.400391ZM121.399 28.4004C115.999 21.9004 107.399 17.1004 99.3995 14.9004C90.4995 12.4004 81.2995 12.2004 71.9995 14.2004C71.9995 14.2004 71.8995 14.2004 71.8995 14.3004C71.8995 14.4004 71.8995 14.5004 71.8995 14.5004C71.8995 14.5004 71.8995 14.6004 71.9995 14.6004C78.4995 14.6004 86.3995 15.6004 95.6995 17.5004C105.599 19.6004 114.099 23.3004 121.299 28.6004C121.799 29.0004 121.899 29.0004 121.399 28.4004ZM35.0995 50.8004C35.0995 50.9004 35.1995 50.9004 35.0995 50.8004C49.6995 38.1004 70.8995 35.6004 89.6995 37.6004C91.3995 37.8004 91.4995 37.6004 89.7995 37.1004C69.4995 30.3004 48.4995 32.6004 34.7995 50.6004C34.7995 50.7004 34.7995 50.7004 34.7995 50.7004L35.0995 50.8004ZM106.599 50.0004C106.599 50.2004 106.699 50.3004 106.799 50.4004C107.099 50.6004 107.199 50.6004 107.099 50.2004C106.599 47.3004 105.899 44.8004 106.299 41.7004C106.799 37.8004 110.699 36.9004 114.099 37.8004C117.399 38.7004 120.299 40.1004 122.799 42.0004H122.899L123.099 41.8004C123.199 41.7004 123.199 41.5004 123.099 41.4004C119.899 37.6004 114.599 33.0004 109.399 33.5004C107.099 33.7004 105.399 34.8004 104.099 36.8004C101.599 40.6004 103.899 46.2004 106.399 49.5004C106.499 49.7004 106.599 49.8004 106.599 50.0004ZM138.499 58.4004C135.099 58.6004 132.699 57.4004 129.399 56.7004C128.799 56.6004 128.699 56.7004 129.199 57.1004C132.399 59.9004 135.899 62.4004 139.699 64.6004C140.199 64.9004 140.399 64.7004 140.299 64.2004C140.099 61.8004 141.199 59.9004 143.299 58.5004C143.699 58.3004 143.699 58.0004 143.199 57.8004C141.699 57.1004 140.299 56.3004 138.999 55.5004C138.299 55.1004 137.599 54.9004 136.799 55.0004C136.299 55.1004 136.299 55.2004 136.799 55.3004C137.699 55.6004 138.499 56.1004 139.099 56.7004C139.499 57.1004 139.499 57.7004 139.099 58.1004C138.999 58.3004 138.699 58.4004 138.499 58.4004ZM65.6995 56.3004C49.4995 60.5004 39.5995 70.7004 35.7995 87.0004C35.3995 88.8004 35.5995 88.9004 36.3995 87.2004C42.5995 74.6004 54.5995 64.9004 66.1995 57.2004C67.7995 56.1004 67.6995 55.8004 65.6995 56.3004ZM95.9995 71.5004C94.7995 68.1004 95.5995 66.1004 97.0995 63.2004C97.3995 62.6004 97.2995 62.5004 96.6995 62.9004C90.3995 66.6004 91.8995 73.7004 94.0995 79.2004C94.1995 79.4004 94.3995 79.5004 94.5995 79.4004C94.6995 79.4004 94.6995 79.3004 94.7995 79.2004C96.4995 76.3004 98.7995 73.9004 101.799 71.8004C106.899 68.2004 110.699 64.6004 108.999 57.6004C108.799 56.9004 108.699 56.9004 108.499 57.6004C106.799 63.8004 102.899 68.6004 96.8995 71.9004C96.5995 72.1004 96.1995 72.0004 95.9995 71.6004C96.0995 71.6004 95.9995 71.6004 95.9995 71.5004ZM85.6995 59.7004L85.4995 59.5004H85.3995C79.0995 64.7004 72.7995 73.0004 72.1995 81.1004C71.4995 90.9004 79.9995 93.5004 87.9995 93.9004C95.3995 94.3004 102.599 96.0004 109.499 98.9004C109.599 98.9004 109.699 98.9004 109.699 98.8004V98.7004C109.699 98.6004 109.599 98.5004 109.599 98.5004C102.799 93.6004 94.6995 91.6004 86.6995 89.1004C83.8995 88.2004 81.4995 87.1004 79.3995 85.6004C70.4995 79.3004 81.2995 65.3004 85.6995 59.8004C85.6995 59.8004 85.6995 59.8004 85.6995 59.7004ZM61.9995 79.4004C56.0995 83.9004 52.5995 92.7004 51.9995 99.7004C50.4995 118.8 69.6995 127.8 84.8995 131.7C84.9995 131.7 85.0995 131.7 85.0995 131.6C85.0995 131.5 85.0995 131.5 84.9995 131.4C66.4995 122.8 48.9995 107.1 60.0995 84.3004C60.7995 82.8004 61.5995 81.2004 62.3995 79.8004C62.6995 79.0004 62.5995 78.9004 61.9995 79.4004ZM85.0995 113.2L84.9995 113.5C84.9995 113.5 84.9995 113.6 85.0995 113.6C98.1995 117.3 110.099 122.7 120.799 129.9C124.199 132.2 127.399 134.9 130.299 138.1C134.899 143.1 136.999 148.9 136.599 155.5V155.6H136.699C142.799 140 131.399 128.7 118.499 122.8C108.299 118.1 97.1995 115 85.1995 113.2C85.1995 113.1 85.0995 113.1 85.0995 113.2Z" fill="#B2223A"/>
<path d="M260.299 45.7004V114.4C260.299 114.7 260.099 114.9 259.799 114.9H245.699C245.399 114.9 245.199 114.7 245.199 114.4V49.6004C245.199 49.4004 245.399 49.2004 245.599 49.1004L259.699 45.3004C259.999 45.2004 260.299 45.4004 260.299 45.7004Z" fill="#242F5D"/>
<path d="M527.699 72.4998C527.799 81.1998 527.699 89.9998 527.699 98.8998C527.699 104 529.899 106.7 535.399 105C535.599 104.9 535.799 105 535.799 105.3L535.699 114.1C535.699 114.3 535.599 114.5 535.399 114.5C531.999 115.6 528.499 116 524.699 115.4C516.699 114.3 512.799 108.5 512.699 100.5C512.599 91.1998 512.599 81.7998 512.699 72.2998C512.699 71.8998 512.499 71.6998 512.099 71.6998H508.099C507.499 71.6998 507.199 71.3998 507.199 70.7998V62.7998C507.199 62.2998 507.499 61.9998 507.999 61.9998H511.999C512.499 61.9998 512.699 61.7998 512.699 61.2998V49.5998C512.699 49.2998 512.899 49.0998 513.199 48.9998L527.399 45.2998C527.599 45.2998 527.799 45.3998 527.799 45.4998V45.5998V61.3998C527.799 61.7998 527.999 61.9998 528.399 62.0998C530.499 62.2998 532.299 62.2998 533.899 61.9998C535.099 61.7998 535.799 62.2998 535.799 63.5998V70.4998C535.799 71.6998 535.199 72.1998 533.999 71.9998C532.599 71.7998 530.699 71.7998 528.299 71.9998C527.899 71.8998 527.699 72.0998 527.699 72.4998Z" fill="#B2223A"/>
<path d="M217.5 86.9996V114.3C217.5 114.6 217.2 114.9 216.9 114.9H202.5C202.2 114.9 201.9 114.6 201.9 114.3V49.6996C201.9 49.3996 202.2 49.0996 202.5 49.0996H234.9C235.2 49.0996 235.5 49.3996 235.5 49.6996V58.9996C235.5 59.2996 235.2 59.5996 234.9 59.5996H218.1C217.8 59.5996 217.5 59.8996 217.5 60.1996V75.5996C217.5 75.8996 217.8 76.1996 218.1 76.1996H232.7C233 76.1996 233.3 76.4996 233.3 76.7996V85.9996C233.3 86.2996 233 86.5996 232.7 86.5996L218.1 86.4996C217.7 86.3996 217.5 86.6996 217.5 86.9996Z" fill="#242F5D"/>
<path d="M355.8 100.3H336.6C336.4 100.3 336.3 100.4 336.3 100.6L332.5 114.6C332.5 114.8 332.3 114.9 332.1 114.9H317.9C317.7 114.9 317.5 114.7 317.5 114.5V114.4L338.7 49.3996C338.7 49.1996 338.9 49.0996 339 49.0996H354.7C354.9 49.0996 355 49.1996 355.1 49.3996L376.2 114.4C376.3 114.6 376.2 114.8 376 114.9H375.9H360.3C360.1 114.9 360 114.8 359.9 114.6L356.2 100.6C356.1 100.5 355.9 100.4 355.8 100.3ZM339 90.6996C338.9 91.0996 339 91.2996 339.4 91.2996L353 91.3996C353.3 91.3996 353.6 91.0996 353.6 90.7996C353.6 90.6996 353.6 90.6996 353.6 90.5996C351.6 82.9996 349.6 75.4996 347.7 68.0996C347.2 66.1996 347.2 64.3996 346.4 62.5996C346.2 62.0996 346 62.0996 346 62.6996C345.9 65.0996 345.5 67.4996 344.9 69.6996C342.7 77.1996 340.8 84.1996 339 90.6996Z" fill="#B2223A"/>
<path d="M398.001 72.3C397.601 72.4 397.401 72.7001 397.401 73.1001V114.5C397.401 114.7 397.201 114.9 397.001 114.9H382.801C382.501 114.9 382.301 114.7 382.301 114.4V66.8C382.301 66.3 382.601 65.8001 383.101 65.6001C391.001 62.6001 399.701 61.6001 409.301 62.5001C409.801 62.5001 410.001 62.8 409.901 63.3L407.501 72.5001C407.401 72.8001 407.101 73.0001 406.801 72.9001H406.701C403.901 71.8001 401.001 71.6 398.001 72.3Z" fill="#B2223A"/>
<path d="M485.6 100.7C485.7 98 484.3 96 481.3 94.6C473.8 91.2 466.1 88.3 465.8 78.6C465.7 73.6 467.4 69.5 471 66.5C478.5 60.2 490.8 61.4 499.1 65.5C499.6 65.7 499.7 66.1 499.5 66.6L496.4 73.8C496.2 74.2 495.9 74.3 495.5 74.1C492.3 72.1 484.8 69.9 481.9 73.9C479.5 77.1 481.3 80.5 484.4 82.1C492.2 85.9 500.7 88.4 501 98.7C501.3 109.7 492.3 115.7 482 116C475.8 116.2 470.2 115.1 465 112.7C464.7 112.5 464.6 112.3 464.7 111.9L468.3 103.6C468.5 103.2 468.7 103.1 469.1 103.3C473.6 105.6 479.8 107.6 483.8 104.2C485 103.3 485.6 102.1 485.6 100.7Z" fill="#B2223A"/>
<path d="M571.001 81.3003C571.201 81.3003 571.401 81.1003 571.401 80.9003C573.601 67.3003 555.201 72.2003 549.101 75.0003C549.001 75.1003 548.901 75.0003 548.801 74.9003L545.701 66.4003C545.601 66.2003 545.701 66.1003 545.901 66.0003C557.501 61.5003 578.301 58.3003 584.101 72.2003C585.201 74.9003 585.701 79.0003 585.701 84.5003C585.601 93.6003 585.601 102.5 585.701 111.1C585.701 111.8 585.301 112.5 584.601 112.8C576.401 115.8 567.501 116.7 557.701 115.4C548.601 114.2 542.201 108.3 542.801 98.5003C543.501 85.1003 560.701 82.0003 571.001 81.3003ZM571.001 88.4003C564.101 89.0003 556.401 91.4003 556.801 99.7003C557.201 107.4 564.801 108.6 570.901 106.8C571.301 106.7 571.501 106.4 571.501 106V88.8003C571.501 88.5003 571.401 88.4003 571.001 88.4003Z" fill="#B2223A"/>
<path d="M640.901 76.9004V114.8H626.401C626.101 114.8 625.901 114.6 625.901 114.3C625.801 103.7 625.801 93.1004 625.901 82.5004C625.901 79.4004 625.701 77.1004 625.101 75.6004C623.301 70.8004 616.701 71.2004 612.501 72.4004C612.101 72.5004 611.801 72.9004 611.801 73.4004L611.901 114.2C611.901 114.6 611.601 115 611.201 115H597.701C597.301 115 596.901 114.7 596.901 114.2L596.801 67.1004C596.801 66.5004 597.201 65.9004 597.801 65.7004C607.301 62.3004 617.001 61.6004 627.001 63.5004C634.901 64.9004 639.501 69.4004 640.901 76.9004Z" fill="#B2223A"/>
<path d="M291.377 100.3L300.477 64.1C300.677 63.3 301.177 63 301.877 63H314.777C315.077 63 315.277 63.2 315.277 63.5C315.277 63.6 315.277 63.6 315.277 63.7L291.677 134.7C291.577 135.2 291.177 135.4 290.777 135.4H276.577C275.977 135.4 275.877 135.1 276.077 134.6L283.977 115.5C284.177 115 284.177 114.5 284.077 113.9L267.077 63.7C266.877 63.2 267.077 63 267.577 63H282.477C282.977 63 283.177 63.2 283.277 63.7C285.777 74.2 288.177 84.8 290.677 95.5C290.877 96.3 291.077 98 291.377 100.3C291.277 100.4 291.277 100.4 291.377 100.3Z" fill="#242F5D"/>
<path d="M437.1 100.4C437.3 99.1998 437.3 97.8998 437.6 96.6998C440.2 86.4998 443 75.5998 446 63.7998C446.1 63.4998 446.4 63.2998 446.7 63.2998H459.9C460.2 63.2998 460.5 63.5998 460.5 63.8998C460.5 63.9998 460.5 63.9998 460.5 64.0998L437 134.9C436.9 135.3 436.5 135.6 436.1 135.5H421.7C421.2 135.5 421.1 135.3 421.2 134.8L429.3 115.3C429.4 115 429.4 114.7 429.3 114.3L412.4 63.9998C412.3 63.6998 412.5 63.4998 412.7 63.3998C412.7 63.3998 412.8 63.3998 412.9 63.3998H427.8C428.2 63.3998 428.5 63.5998 428.6 63.9998C431.2 74.4998 433.6 84.9998 435.8 95.2998C436.1 96.8998 436.5 98.5998 436.8 100.5C436.8 101.1 436.9 101.1 437.1 100.4Z" fill="#B2223A"/>
<path d="M140 97.2998C145.8 100.4 151 103.1 157.6 100.2C158 99.9998 158.2 100.2 158.3 100.6C159 107.3 156.8 115 148.4 109.3C144.1 106.4 141.2 102.5 139.6 97.5998C139.6 97.4998 139.6 97.2998 139.8 97.2998C139.9 97.2998 140 97.2998 140 97.2998Z" fill="#B2223A"/>
<path d="M0.900391 109.5V108L7.80039 108.2C8.20039 108.2 8.50039 108.4 8.70039 108.8C20.8004 130.4 38.3004 144.9 61.1004 152.3C65.8004 153.8 70.4004 155.2 74.7004 156.3C91.2004 160.8 106.9 164.9 117.8 179.5C118.2 180.1 118.1 180.2 117.4 180C116.5 179.7 115.6 179.4 114.6 179.1C110.3 177.6 104.9 176.5 98.3004 175.6C89.7004 174.4 81.0004 173.3 72.2004 172.1C62.2004 170.7 52.3004 168.2 42.7004 164.4C21.4004 156.1 8.00039 140.8 2.70039 118.4C2.10039 115.4 1.50039 112.5 0.900391 109.5Z" fill="#242F5D"/>
</svg>
