<svg width="617" height="195" viewBox="0 0 617 195" fill="none" xmlns="http://www.w3.org/2000/svg">
<path d="M212.4 15.2996C211 18.8996 213.9 23.4996 216.6 25.5996C216.7 25.6996 216.7 25.7997 216.6 25.8997C216.5 25.9997 216.5 25.9996 216.4 25.9996C203.4 22.7996 188.1 16.9997 187.6 0.899658C187.6 0.699658 187.7 0.599609 187.9 0.599609C188 0.599609 188.1 0.599646 188.1 0.699646C195.4 6.59965 203.4 11.2997 212.1 14.8997C212.4 14.8997 212.5 15.0996 212.4 15.2996Z" fill="#DB1278"/>
<path d="M429.3 1.10042C428.8 16.9004 413.4 22.9005 400.7 25.9005C400.6 25.9005 400.5 25.9005 400.4 25.7005C400.4 25.6005 400.4 25.5004 400.5 25.5004C403.2 23.4004 405.9 18.6005 404.6 15.2005C404.5 15.0005 404.6 14.9004 404.8 14.8004C413.4 11.2004 421.4 6.50046 428.7 0.70046C428.9 0.60046 429.1 0.600436 429.3 0.800436C429.3 0.900436 429.3 1.00042 429.3 1.10042Z" fill="#DB1278"/>
<path d="M239.199 23C237.799 25.1 238.599 27.6 239.299 29.8C239.299 29.9 239.299 30.1 239.099 30.1H238.999C231.699 29.6 219.799 27.6 218.099 18.5C217.999 18 218.299 17.6 218.799 17.5C218.899 17.5 218.999 17.5 219.199 17.5L238.999 22.4C239.299 22.6 239.299 22.7 239.199 23Z" fill="#DB1278"/>
<path d="M377.699 29.7995C378.199 27.2995 379.399 25.3995 377.899 23.0995C377.699 22.7995 377.799 22.5995 378.099 22.4995L397.699 17.5995C398.199 17.4995 398.599 17.7995 398.799 18.1995C398.799 18.2995 398.799 18.4995 398.799 18.5995C396.999 27.4995 385.799 29.6995 377.899 30.0995C377.799 30.0995 377.699 29.9995 377.699 29.7995Z" fill="#DB1278"/>
<path d="M218.099 32.5003C217.999 35.2003 221.499 38.3004 223.499 39.7004C223.599 39.8004 223.599 39.9004 223.499 39.9004L223.399 40.0003C212.999 38.6003 197.999 34.9004 193.699 23.9004C193.599 23.7004 193.699 23.6004 193.899 23.7004C201.799 27.1004 210.099 29.5004 218.699 30.7004C218.999 30.8004 219.099 30.9004 218.899 31.2004L218.399 31.9004C218.099 32.0004 218.099 32.2003 218.099 32.5003Z" fill="#DB1278"/>
<path d="M393.6 39.5002C395.7 38.2002 400.6 33.9002 398.1 31.1002C397.9 30.9002 397.9 30.7002 398.3 30.7002C406.9 29.5002 415.2 27.1002 423.2 23.7002C423.3 23.7002 423.4 23.7002 423.4 23.8002V23.9002C420.5 31.0002 415.4 33.7002 408 36.5002C403.4 38.2002 398.7 39.4002 393.8 39.9002C393.7 39.9002 393.6 39.8002 393.6 39.7002C393.5 39.6002 393.5 39.6002 393.6 39.5002Z" fill="#DB1278"/>
<path d="M247.301 34.2001C246.201 32.2001 241.601 23.8001 248.001 24.8001C253.901 25.7001 265.101 24.8001 264.201 34.8001C263.501 43.1001 262.301 49.3001 267.801 56.3001C267.901 56.5001 267.901 56.7001 267.701 56.8001C267.601 56.9001 267.401 56.9001 267.201 56.8001C258.701 50.4001 252.101 42.8001 247.301 34.2001Z" fill="#DB1278"/>
<path d="M353.4 41.5997C352.7 34.1997 351 26.8997 361.2 25.6997C364 25.3997 366.8 25.0997 369.6 24.7997C376.6 24.0997 368.2 37.0997 366.7 39.1997C362 46.0997 356.3 51.8997 349.6 56.6997C349.5 56.7997 349.3 56.7997 349.2 56.5997C349.1 56.4997 349.1 56.3997 349.2 56.2997C352.5 51.9997 353.8 47.0997 353.4 41.5997Z" fill="#DB1278"/>
<path d="M224.1 33.3002C229.6 33.6002 233.9 34.0002 240.1 33.6002C240.3 33.6002 240.5 33.7002 240.6 33.8002L244.2 40.3002C244.3 40.4002 244.2 40.6002 244.1 40.6002H244C236.6 41.5002 228.1 40.5002 223.7 33.8002C223.6 33.6002 223.6 33.3002 223.8 33.2002C223.9 33.3002 224 33.3002 224.1 33.3002Z" fill="#DB1278"/>
<path d="M376.3 33.9002C376.4 33.7002 376.6 33.6002 376.8 33.6002C382.2 33.9002 387.6 33.7002 392.9 33.2002C393.1 33.2002 393.3 33.3002 393.3 33.6002C393.3 33.7002 393.3 33.8002 393.2 33.9002C388.6 40.8002 380.5 41.7002 372.9 40.8002C372.7 40.8002 372.6 40.6002 372.6 40.4002V40.3002L376.3 33.9002Z" fill="#DB1278"/>
<path d="M225.399 45.9996C225.399 48.3996 228.099 50.0996 229.699 51.4996C229.999 51.6996 229.899 51.8996 229.599 51.8996C220.699 51.8996 205.399 50.3996 200.899 41.0996C200.799 40.8996 200.699 40.6996 200.799 40.6996C200.899 40.4996 201.099 40.2996 201.299 40.3996C209.399 42.5996 217.599 43.8996 225.999 44.2996C226.299 44.2996 226.399 44.4996 226.199 44.6996L225.699 45.3996C225.499 45.4996 225.399 45.7996 225.399 45.9996Z" fill="#DB1278"/>
<path d="M391.601 46L390.801 44.6C390.701 44.4 390.701 44.2001 391.001 44.2001C399.401 43.8001 407.601 42.5 415.701 40.3C415.901 40.2 416.201 40.4 416.201 40.6C416.201 40.7 416.201 40.8001 416.201 40.9001C411.901 50.4001 396.101 52.0001 387.201 51.9001C386.801 51.9001 386.801 51.8 387.101 51.6C389.101 50.4 390.601 48.8001 391.601 46.7001C391.701 46.4001 391.701 46.2 391.601 46Z" fill="#DB1278"/>
<path d="M250.2 49.8C243.9 52 236 53 231.3 46.8C231.2 46.6 231.2 46.4 231.4 46.3C231.5 46.3 231.5 46.2 231.6 46.2C236.4 45.8 241 45 245.7 43.8C245.9 43.7 246.1 43.8 246.3 44L250.5 49.1C250.6 49.3 250.6 49.5 250.4 49.6C250.2 49.8 250.2 49.8 250.2 49.8Z" fill="#DB1278"/>
<path d="M370.9 43.9998C371 43.7998 371.3 43.7998 371.5 43.7998C376.1 44.9998 380.8 45.7998 385.6 46.1998C385.8 46.1998 385.9 46.3998 385.9 46.5998C385.9 46.6998 385.9 46.6998 385.8 46.7998C381 52.7998 373.3 52.2998 366.7 49.5998C366.6 49.5998 366.5 49.3998 366.6 49.2998C366.6 49.2998 366.6 49.2998 366.6 49.1998L370.9 43.9998Z" fill="#DB1278"/>
<path d="M331.399 50.2005C343.099 66.5005 320.099 91.8004 308.699 101.5C308.599 101.6 308.399 101.6 308.199 101.5C298.099 93.0005 287.699 81.1005 283.599 68.4005C281.499 61.8005 281.699 53.6004 286.899 48.6004C292.999 42.8004 301.999 43.6005 308.099 49.2005C308.199 49.3005 308.499 49.3005 308.599 49.2005C315.299 43.2005 326.099 42.7005 331.399 50.2005Z" fill="#DB1278"/>
<path d="M258.199 57.1998C258.299 57.2998 258.299 57.3998 258.199 57.3998C252.499 60.6998 244.899 62.1998 239.199 57.8998C238.899 57.6998 238.699 57.4998 238.699 57.3998C238.699 56.9998 238.999 56.5998 239.399 56.4998C243.899 55.4998 248.299 54.1998 252.499 52.3998C252.699 52.2998 252.899 52.3998 252.999 52.4998L258.199 57.1998Z" fill="#DB1278"/>
<path d="M377.999 56.6999C378.299 56.7999 378.399 56.9999 378.399 57.2999C378.399 57.3999 378.299 57.4999 378.199 57.5999C372.499 62.3999 364.999 60.9999 358.899 57.5999C358.799 57.4999 358.699 57.3999 358.799 57.2999C358.799 57.2999 358.799 57.2999 358.799 57.1999L363.799 52.6999C363.999 52.4999 364.199 52.4999 364.399 52.5999C368.799 54.2999 373.299 55.6999 377.999 56.6999Z" fill="#DB1278"/>
<path d="M232.1 57.5004C232.5 59.9004 235.3 61.5004 237.3 62.5004C237.6 62.6004 237.5 62.7004 237.3 62.7004C227.8 64.1004 216.9 64.1004 209.8 56.8004C209.7 56.7004 209.7 56.4004 209.8 56.3004C209.9 56.2004 210 56.2004 210.1 56.2004C217.7 57.0004 225.2 56.7004 232.6 55.4004C232.7 55.4004 232.9 55.5003 232.9 55.6003C232.9 55.7003 232.9 55.7004 232.9 55.8004L232.3 56.9004C232.1 57.1004 232.1 57.3004 232.1 57.5004Z" fill="#DB1278"/>
<path d="M379.701 62.4C382.101 61.5 386.201 58.9 384.201 55.8C384.101 55.7 384.201 55.5 384.301 55.5C384.301 55.5 384.401 55.5 384.501 55.5C392.001 56.9 399.501 57.1 407.101 56.3C407.301 56.3 407.501 56.4 407.501 56.6C407.501 56.7 407.501 56.8 407.401 56.9C400.301 64.2 389.401 64.1 379.901 62.8C379.301 62.7 379.301 62.6 379.701 62.4Z" fill="#DB1278"/>
<path d="M266.101 62.9004C266.201 63.0004 266.301 63.2004 266.201 63.3004C266.201 63.3004 266.201 63.3004 266.201 63.4004C262.001 67.1004 255.101 69.6004 249.901 66.4004C249.701 66.3004 249.601 66.1004 249.501 66.0004C249.401 65.7004 249.601 65.3004 249.901 65.2004C253.701 63.8004 257.301 61.9004 260.701 59.6004C260.801 59.5004 261.001 59.5004 261.101 59.6004L266.101 62.9004Z" fill="#DB1278"/>
<path d="M367.2 65.3002C367.4 65.4002 367.6 65.6002 367.5 65.9002C367.5 66.1002 367.3 66.4002 367 66.5002C361.9 69.4002 355 67.0002 350.9 63.4002C350.7 63.2002 350.7 63.0002 350.9 62.8002L355.6 59.6002C355.8 59.4002 356.1 59.4002 356.3 59.6002C359.8 62.0002 363.4 63.9002 367.2 65.3002Z" fill="#DB1278"/>
<path d="M267.801 66.5002C268.201 66.1002 268.701 65.3002 269.301 64.8002C269.401 64.7002 269.501 64.7002 269.701 64.7002L275.701 66.7002C275.801 66.7002 275.901 66.8002 275.801 66.9002C272.901 71.2002 268.801 73.5002 263.501 73.6002C262.701 73.6002 261.701 73.8002 261.201 73.1002C261.001 72.8002 261.101 72.5002 261.301 72.3002C263.601 70.6002 265.701 68.6002 267.801 66.5002Z" fill="#DB1278"/>
<path d="M356 73.2005C355.8 73.5005 355.5 73.7005 355.1 73.7005C349.1 74.1005 344.5 71.8004 341.3 67.0004C341.2 66.8004 341.2 66.7004 341.5 66.6004C343.5 66.3004 345.4 65.6005 347.2 64.7005C347.4 64.6005 347.6 64.6004 347.8 64.8004C350.3 67.6004 353 70.2004 356 72.5004C356.1 72.7004 356.1 73.0005 356 73.2005Z" fill="#DB1278"/>
<path d="M251.4 71.6996C251.5 71.6996 251.5 71.7996 251.5 71.8996C251.5 71.8996 251.5 71.9996 251.4 71.9996C244.8 74.3996 233.1 76.0996 227.5 70.4996C227.3 70.2996 227.4 70.1996 227.6 70.1996C233.2 69.5996 238.6 68.2996 243.9 66.1996C244.2 66.0996 244.3 66.1996 244.3 66.4996C244 70.0996 248.4 71.2996 251.4 71.6996Z" fill="#DB1278"/>
<path d="M365.7 71.6004C369 71.2004 372.4 70.2004 372.7 66.3004C372.7 66.0004 372.9 65.9004 373.1 66.0004C378.2 68.1004 383.5 69.4004 389 70.0004C389.2 70.0004 389.3 70.2004 389.3 70.4004C389.3 70.5004 389.3 70.6004 389.2 70.6004C383.3 75.8004 372.5 74.3004 365.6 71.9004C365.5 71.9004 365.5 71.8004 365.5 71.7004C365.6 71.7004 365.6 71.7004 365.7 71.6004Z" fill="#DB1278"/>
<path d="M277.2 69.1996C277.2 69.0996 277.4 69.0996 277.4 69.0996C277.4 69.0996 277.5 69.0996 277.5 69.1996L279.7 74.4996C279.8 74.6996 279.8 74.8996 279.6 75.0996C277.9 77.2996 274 79.1997 271.3 77.8997C271 77.7997 271 77.5997 271.2 77.3997C273.5 74.8997 275.5 72.1996 277.2 69.1996Z" fill="#DB1278"/>
<path d="M339.4 69.2996C339.4 69.1996 339.6 69.0996 339.7 69.1996L339.8 69.2996C341.5 72.1996 343.4 74.8996 345.6 77.3996C345.8 77.5996 345.8 77.8996 345.6 77.9996C345.5 78.0996 345.5 78.0996 345.4 78.0996C342.1 78.6996 339.4 77.6996 337.3 75.0996C337.2 74.8996 337.1 74.6996 337.2 74.4996L339.4 69.2996Z" fill="#DB1278"/>
<path d="M256.099 74.4998C256.699 78.0998 259.699 77.7998 262.499 77.7998C262.699 77.7998 262.699 77.8998 262.599 77.9998C258.299 81.3998 250.899 83.4998 245.899 80.0998C245.799 79.9998 245.699 79.7998 245.799 79.6998L245.899 79.5998L255.799 74.2998C255.899 74.2998 255.999 74.2998 256.099 74.4998Z" fill="#DB1278"/>
<path d="M360.7 75.0998V74.5998C360.7 74.3998 360.8 74.2998 361 74.2998H361.1L370.9 79.4998C371.1 79.5998 371.2 79.7998 371.1 79.9998C371.1 80.0998 371 80.0998 370.9 80.1998C365.4 83.1998 358.8 81.4998 354.1 77.8998C353.9 77.6998 353.9 77.5998 354.2 77.6998C356.8 77.8998 359.2 78.0998 360.5 75.5998C360.7 75.4998 360.7 75.2998 360.7 75.0998Z" fill="#DB1278"/>
<path d="M281.599 78.6C281.599 78.5 281.699 78.5 281.699 78.5C281.699 78.5 281.799 78.5 281.799 78.6L286.299 85.7C286.399 85.8 286.399 86 286.399 86.2C284.899 90.3 281.999 92.2 277.599 91.9C277.399 91.9 277.199 91.7 277.199 91.5C277.199 91.4 277.199 91.4 277.299 91.3C279.699 87.4 281.199 83.2 281.599 78.6Z" fill="#DB1278"/>
<path d="M335 78.8998C335.1 78.7998 335.2 78.7998 335.3 78.7998C335.4 78.7998 335.4 78.8998 335.4 78.9998C335.9 83.4998 337.4 87.6998 339.8 91.4998C339.9 91.5998 339.9 91.7998 339.7 91.8998H339.6C335.1 92.2998 332 90.2998 330.6 86.0998C330.6 85.9998 330.6 85.8998 330.6 85.7998L335 78.8998Z" fill="#DB1278"/>
<path d="M267.5 81.4002C267.6 81.3002 267.8 81.3002 267.9 81.4002C269.6 82.8002 271.6 83.2002 273.8 82.7002C273.9 82.7002 274 82.8002 274.1 82.9002C274.1 83.0002 274.1 83.0001 274.1 83.1001C271.6 87.2001 266.2 91.0002 261.2 88.7002C261.1 88.6002 261 88.5002 261.1 88.4002C261.1 88.4002 261.1 88.4002 261.1 88.3002L267.5 81.4002Z" fill="#DB1278"/>
<path d="M343 82.7002C345.2 83.2002 347.3 82.8002 349 81.4002C349.2 81.3002 349.3 81.3002 349.5 81.4002L355.8 88.1001C355.9 88.3001 355.9 88.5002 355.8 88.7002L355.7 88.8002C350.3 90.6002 345.8 87.2002 342.9 83.0002C342.8 82.9002 342.9 82.8002 342.9 82.8002C342.9 82.7002 343 82.7002 343 82.7002Z" fill="#DB1278"/>
<path d="M124.801 110.6V173C124.801 173.2 124.701 173.3 124.501 173.3H118.101C117.901 173.3 117.801 173.2 117.801 173V111.8C117.801 111.6 117.901 111.5 118.101 111.5L124.501 110.3C124.601 110.2 124.801 110.3 124.801 110.6C124.801 110.5 124.801 110.5 124.801 110.6Z" fill="#DB1278"/>
<path d="M219.599 137C223.699 133 228.799 131.6 234.699 133C245.999 135.6 249.599 148.8 246.899 158.8C242.499 175.1 226.199 176.4 212.399 172.6C212.199 172.6 212.199 172.4 212.199 172.3V111.8C212.199 111.6 212.299 111.4 212.499 111.4L218.799 110.2C218.999 110.2 219.199 110.3 219.199 110.5C219.199 110.5 219.199 110.5 219.199 110.6V136.8C219.199 136.9 219.299 137.1 219.499 137.1L219.599 137ZM219.799 167.8C228.199 169.6 236.399 168 239.399 158.9C241.299 153.4 240.699 144.9 235.899 140.8C230.799 136.4 223.299 139.2 219.299 143.9C219.199 144 219.099 144.2 219.099 144.3V167C219.199 167.5 219.399 167.7 219.799 167.8Z" fill="#DB1278"/>
<path d="M415.9 155.4H392.3C392.2 155.4 392.1 155.5 392.1 155.5L385.6 173C385.6 173.1 385.5 173.1 385.4 173.1H378.3C378.2 173.1 378.1 173 378.1 172.9V172.8L400.6 113.7C400.6 113.6 400.7 113.6 400.8 113.6H407.7C407.8 113.6 407.9 113.7 407.9 113.7L430.4 172.8C430.4 172.9 430.4 173 430.3 173.1H430.2H422.9C422.8 173.1 422.7 173 422.7 173L416.2 155.5C416.1 155.4 416 155.4 415.9 155.4ZM394.6 148.8C394.6 148.9 394.6 149 394.7 149.1C394.7 149.1 394.7 149.1 394.8 149.1H413.4C413.5 149.1 413.6 149 413.6 148.9C413.6 148.9 413.6 148.9 413.6 148.8L404.3 123.9C404.3 123.8 404.1 123.7 404 123.8C403.9 123.8 403.9 123.9 403.9 123.9L394.6 148.8Z" fill="#DB1278"/>
<path d="M103.499 123.6C106.15 123.6 108.299 121.451 108.299 118.8C108.299 116.149 106.15 114 103.499 114C100.848 114 98.6992 116.149 98.6992 118.8C98.6992 121.451 100.848 123.6 103.499 123.6Z" fill="#DB1278"/>
<path d="M7.59962 140.2H41.6996C41.7996 140.2 41.8996 140.1 41.8996 140V114.7C41.8996 114.6 41.9996 114.5 42.0996 114.5H48.9996C49.0996 114.5 49.1996 114.6 49.1996 114.7V173C49.1996 173.1 49.0996 173.2 48.9996 173.2H42.0996C41.9996 173.2 41.8996 173.1 41.8996 173V146.6C41.8996 146.5 41.7996 146.4 41.6996 146.4H7.59962C7.49962 146.4 7.3996 146.5 7.3996 146.6V173C7.3996 173.1 7.29961 173.2 7.19961 173.2H0.299614C0.199614 173.2 0.0996094 173.1 0.0996094 173V114.6C0.0996094 114.5 0.199614 114.4 0.299614 114.4H7.19961C7.29961 114.4 7.3996 114.5 7.3996 114.6V139.9C7.3996 140.1 7.49962 140.2 7.59962 140.2Z" fill="#DB1278"/>
<path d="M478.799 133.1H490.999C491.199 133.1 491.299 133.2 491.299 133.4V138.5C491.299 138.7 491.199 138.8 490.999 138.8H478.899C478.699 138.8 478.599 138.9 478.599 139.1C478.499 149.8 478.499 157.7 478.599 162.6C478.899 171.2 487.699 167.4 491.399 164.5C491.499 164.4 491.699 164.4 491.799 164.5V164.6L493.299 169.7C493.399 169.9 493.299 170 493.099 170.2C484.799 176.5 471.599 176.5 471.399 162.8C471.299 154.9 471.199 147.1 471.199 139.3C471.199 139 470.999 138.8 470.699 138.8H465.999C465.799 138.8 465.699 138.7 465.699 138.5V135.3C465.699 135.1 465.799 134.9 465.999 134.8L470.999 132.8C471.199 132.7 471.299 132.5 471.299 132.3V124.2C471.299 123.9 471.399 123.7 471.699 123.7L478.099 122.2C478.299 122.1 478.499 122.2 478.499 122.5V132.8C478.399 133 478.499 133.1 478.799 133.1Z" fill="#DB1278"/>
<path d="M441.8 153.6C439.9 152.7 438.3 151.5 437 150C433.3 145.8 433.5 139.2 437.6 135.6C443.2 130.7 453.3 131.6 459.8 134.2C460 134.3 460.1 134.4 460 134.6L458.3 139.9C458.2 140.1 458.1 140.2 457.9 140.1C453.7 138.5 449.9 137.3 445.3 138.3C442 139 440.2 142.4 442.3 145.2C444.1 147.6 448.6 149.4 451.7 150.8C458.1 153.6 462.9 159 460.5 166.3C457 176.7 441.3 175 434 171C433.7 170.8 433.6 170.5 433.6 170.2L434.9 164.8C434.9 164.6 435.1 164.5 435.3 164.6H435.4C438.4 166.6 441.7 167.8 445.2 168.2C449.6 168.7 455.4 167 453.4 161.1C452.4 158.2 444.5 155 441.8 153.6Z" fill="#DB1278"/>
<path d="M521.201 168C516.701 173.4 511.101 175.3 504.501 173.8C496.001 171.8 495.001 161 501.101 155.8C506.201 151.5 513.701 149.7 520.701 148.8C520.901 148.8 521.001 148.6 521.101 148.4C521.201 146 521.101 144 520.801 142.5C519.101 134.4 506.401 139.7 502.501 142.6C502.401 142.7 502.201 142.7 502.101 142.5V142.4L500.101 137.2C500.001 137 500.101 136.8 500.301 136.7C508.801 131.5 528.101 126.8 528.201 143.3C528.301 149.8 528.301 156.4 528.301 162.9C528.301 165.7 529.601 167.4 532.401 167.9C532.601 167.9 532.701 168.1 532.601 168.3L530.501 173.3C530.401 173.5 530.301 173.6 530.101 173.6C526.101 173.4 523.301 171.6 521.801 168C521.501 167.8 521.401 167.7 521.201 168ZM507.701 158.3C503.201 161.1 503.601 168.8 510.601 167.9C515.101 167.3 518.101 164.6 520.901 161.3C521.101 161.1 521.101 160.9 521.101 160.6V154.5C521.101 154.3 521.001 154.2 520.801 154.2C515.601 154.7 511.301 156.1 507.701 158.3Z" fill="#DB1278"/>
<path d="M547.9 139.7C552.7 134.7 560.7 130.6 567.4 132.6C573.6 134.5 574.1 140.1 574.2 146.3C574.2 155.1 574.2 163.9 574.2 172.7C574.2 172.9 574.1 173 573.9 173H567.5C567.3 173 567.2 172.9 567.2 172.7C567.2 164.1 567.2 155.4 567.2 146.8C567.3 130.5 552.4 142 547.6 146.6C547.4 146.8 547.4 146.9 547.4 147.2V172.8C547.4 173 547.3 173.1 547.1 173.1H540.8C540.5 173.1 540.4 173 540.4 172.7V134.2C540.4 133.9 540.5 133.7 540.8 133.7L546.9 132.6C547.1 132.6 547.3 132.7 547.3 132.9C547.3 132.9 547.3 132.9 547.3 133V139.5C547.3 139.7 547.4 139.8 547.6 139.8C547.8 139.8 547.9 139.8 547.9 139.7Z" fill="#DB1278"/>
<path d="M605.801 167.9C601.201 173.6 595.501 175.5 588.601 173.7C580.601 171.6 579.901 161.2 585.401 156.1C590.301 151.6 598.801 149.6 605.201 148.9C605.401 148.9 605.501 148.8 605.501 148.5C605.601 145.9 605.501 144.2 605.401 143.4C603.901 134.3 591.401 139.5 586.901 142.7C586.801 142.8 586.601 142.8 586.501 142.6C586.501 142.6 586.501 142.6 586.501 142.5L584.601 137.4C584.501 137.1 584.601 136.8 584.901 136.6C591.201 133 597.801 131.6 604.701 132.4C610.801 133.1 612.501 137.7 612.601 143.3C612.701 150.1 612.801 156.9 612.701 163.7C612.701 166.2 614.701 167 616.701 167.9C616.901 168 617.001 168.2 616.901 168.4L614.901 173.3C614.801 173.5 614.701 173.6 614.501 173.6C610.401 173.5 607.601 171.5 606.101 167.8C606.101 167.7 606.001 167.6 605.801 167.9ZM591.001 167.1C596.201 170.2 602.401 165.3 605.501 161.3C605.601 161.1 605.701 160.9 605.701 160.7V154.8C605.701 154.4 605.501 154.2 605.101 154.3C600.101 155 590.601 157 589.401 162.6C588.901 164.6 589.501 166.2 591.001 167.1Z" fill="#DB1278"/>
<path d="M81.4998 168.1C77.7998 172.6 73.0998 174.7 67.5998 174.3C61.6998 173.9 57.3998 170.3 57.4998 164.2C57.5998 153.6 72.1997 150.1 80.8997 149.2C81.0998 149.2 81.1998 149 81.2998 148.8C81.5998 146 81.5998 141.7 79.2998 139.8C75.2998 136.5 66.4997 140.3 62.8997 142.8C62.6997 142.9 62.4998 142.9 62.2998 142.7C62.2998 142.7 62.2998 142.6 62.1998 142.6L60.2998 137.6C60.1998 137.4 60.2998 137.3 60.4998 137.1C66.2998 133.5 72.5997 131.9 79.3997 132.5C86.8997 133.2 88.3997 138.3 88.3997 144.9C88.3997 150.5 88.3997 156.1 88.3997 161.7C88.3997 165.1 88.9998 167.4 92.4998 168.1C92.6998 168.2 92.7998 168.3 92.6998 168.5L90.6998 173.4C90.5998 173.6 90.4998 173.7 90.2998 173.7C86.2998 173.5 83.4998 171.6 81.9998 168C81.7998 167.9 81.5998 167.9 81.4998 168.1ZM65.1998 165.2C65.6998 167.4 68.0998 168.2 69.9998 168.3C74.0998 168.5 78.7998 164.7 81.0998 161.5C81.1998 161.4 81.2998 161.2 81.2998 161V154.6C81.2998 154.4 81.1998 154.3 80.9998 154.3C75.8998 155.1 63.4998 157.5 65.1998 165.2Z" fill="#DB1278"/>
<path d="M139.499 155.1C139.799 160 142.099 164.6 146.499 166.9C152.499 170 159.499 167.5 164.499 163.5C164.699 163.4 164.899 163.4 164.999 163.6C164.999 163.6 164.999 163.7 165.099 163.7L166.899 168.4C166.999 168.6 166.899 168.7 166.799 168.9C162.999 172.2 158.599 174 153.799 174.4C124.299 176.8 125.799 132.1 151.399 132.6C161.599 132.8 166.999 140.4 166.999 150C166.999 150.2 166.899 150.3 166.699 150.4C164.599 151.2 163.199 151.6 162.399 151.7C154.899 152.6 147.399 153.6 139.899 154.7C139.599 154.7 139.499 154.8 139.499 155.1ZM155.699 140.1C154.199 138.9 152.999 138.3 151.999 138.3C145.299 138.3 141.199 141.7 139.699 148.5C139.599 148.9 139.799 149.1 140.199 149L158.899 146.6C159.099 146.6 159.199 146.4 159.199 146.2C158.799 143.8 157.599 141.7 155.699 140.1Z" fill="#DB1278"/>
<path d="M304.3 139.9C307.5 135 312.4 131.1 318.4 132.9C318.7 133 318.9 133.4 318.8 133.7L317.2 140.4C317.1 140.6 317 140.7 316.8 140.6C311.4 138.8 307.3 142.4 304.7 146.7C304.2 147.5 304 148.4 304 149.5C303.9 157.3 303.9 165 304 172.8C304 173 303.8 173.2 303.6 173.2H297.4C297.1 173.2 296.9 173 296.9 172.7V134.3C296.9 134.1 297 134 297.2 133.9L303.5 132.8C303.7 132.8 303.9 132.9 303.9 133.1C303.9 133.1 303.9 133.1 303.9 133.2V139.7C303.9 140.2 304 140.3 304.3 139.9Z" fill="#DB1278"/>
<path d="M100.201 133.4H106.501C106.701 133.4 106.901 133.6 106.901 133.8V172.9C106.901 173.1 106.701 173.3 106.501 173.3H100.201C100.001 173.3 99.8008 173.1 99.8008 172.9V133.8C99.8008 133.6 100.001 133.4 100.201 133.4Z" fill="#DB1278"/>
<path d="M188.999 160.7L199.799 133.8C199.899 133.5 200.099 133.4 200.399 133.4H206.999C207.299 133.4 207.299 133.5 207.199 133.8C200.799 149.3 194.399 164.7 187.899 180.1C185.299 186.4 179.999 192.8 172.599 194.2C172.399 194.2 172.199 194.2 172.099 193.9L170.099 188.6C169.999 188.4 170.099 188.3 170.299 188.2C178.399 186 182.399 177.8 184.799 170.4C184.899 170.2 184.899 169.9 184.799 169.7L169.799 133.8C169.699 133.5 169.799 133.3 170.099 133.3H176.999C177.199 133.3 177.399 133.4 177.499 133.6L188.599 160.6C188.699 161.1 188.899 161.1 188.999 160.7Z" fill="#DB1278"/>
<path d="M280.4 167.2C276.1 171.1 271.7 174 265.8 174.3C259 174.7 254.4 171 254.3 164C254.2 156.4 254.2 146.3 254.3 133.7C254.3 133.5 254.4 133.4 254.6 133.4H261C261.2 133.4 261.3 133.5 261.3 133.7C261.3 142.9 261.3 152 261.3 161.2C261.3 164.4 262.7 167.8 266.3 168.1C270.9 168.5 276.9 164.1 280 160.9C280.2 160.7 280.3 160.5 280.3 160.3V133.7C280.3 133.5 280.4 133.4 280.6 133.4H287C287.2 133.4 287.3 133.5 287.3 133.7C287.3 146.7 286.3 160.1 289.1 172.9C289.2 173.2 289.1 173.3 288.8 173.3L282.5 173.9C282.3 173.9 282.1 173.8 282 173.5L280.9 167.3C280.7 167.1 280.6 167.1 280.4 167.2Z" fill="#DB1278"/>
<path d="M341.5 161.1C341.5 161.2 341.6 161.2 341.7 161.2C341.7 161.2 341.8 161.2 341.8 161.1L352.7 133.8C352.8 133.6 353 133.5 353.2 133.5H359.9C360.1 133.5 360.2 133.6 360.2 133.8V133.9C355 146.4 349.8 158.9 344.6 171.4C340.7 180.7 336.9 191.9 325.7 194.3C325.5 194.4 325.2 194.2 325.1 194L323.1 188.8C323 188.6 323.1 188.5 323.3 188.4C331.5 185.9 335.1 178.3 337.8 170.5C337.9 170.3 337.9 170.1 337.8 169.9L322.7 133.9C322.6 133.6 322.7 133.5 323 133.5H329.9C330.2 133.5 330.4 133.7 330.5 133.9L341.5 161.1Z" fill="#DB1278"/>
</svg>
