<svg width="197" height="206" viewBox="0 0 197 206" fill="none" xmlns="http://www.w3.org/2000/svg">
<path d="M143.501 188.301C144.701 173.001 136.201 162.101 123.201 154.401C114.501 149.301 104.801 146.001 95.7011 141.501C85.4011 136.501 74.401 132.401 65.401 125.701C48.601 113.101 48.5011 92.9015 65.2011 80.1015C73.9011 73.5015 84.701 69.6015 94.601 64.6015C105.701 59.0015 117.401 54.3015 127.901 47.8015C139.001 41.0015 143.901 30.1015 143.601 16.7015C143.201 0.901483 148.801 -2.89853 164.201 2.00147C183.201 8.10147 197.201 26.0015 196.201 43.1015C195.101 62.4015 178.001 80.4015 155.801 84.2015C142.501 86.5015 128.901 87.1015 115.501 88.6015C104.401 89.9015 93.201 90.7015 82.401 93.3015C82.101 93.4015 81.901 93.4015 81.601 93.5015C72.101 96.4015 72.601 110.301 82.301 112.301C82.501 112.301 82.601 112.401 82.801 112.401C101.801 115.501 121.001 117.101 140.201 119.101C154.901 120.601 168.901 123.301 180.701 133.201C194.001 144.401 199.401 161.301 194.201 175.901C188.701 191.301 170.201 204.801 154.601 204.901C145.201 205.101 143.401 202.601 143.501 188.301Z" fill="#222222"/>
<path d="M28.101 102.801C28.101 81.8011 -0.198945 61.3011 0.0010551 40.3011C0.101055 21.0011 11.101 6.30113 28.301 1.70113C44.301 -2.59887 61.901 4.60111 70.301 18.9011C79.601 34.7011 77.101 51.7011 63.601 66.2011C60.101 69.9011 56.8011 73.7011 53.7011 77.8011C41.5011 94.0011 41.301 111.201 53.301 127.501C56.901 132.401 61.1011 136.801 65.2011 141.301C77.3011 154.801 79.3011 172.001 70.2011 187.201C61.7011 201.401 44.5011 208.301 28.0011 204.001C11.6011 199.701 0.301031 185.301 0.101031 167.201C-0.298969 145.801 28.101 124.101 28.101 102.801Z" fill="#222222"/>
</svg>
