<svg width="680" height="227" viewBox="0 0 680 227" fill="none" xmlns="http://www.w3.org/2000/svg">
<path d="M142.361 143.26C142.361 143.2 142.321 143.16 142.261 143.16H88.1406C88.0806 143.16 88.0405 143.12 88.0405 143.06V52.2201C88.0405 52.1601 88.0006 52.1201 87.9406 52.1201H63.9105C63.8505 52.1201 63.8105 52.1601 63.8105 52.2201V165.03C63.8105 165.09 63.8505 165.13 63.9105 165.13H142.251C142.311 165.13 142.351 165.09 142.351 165.03V143.27" stroke="#F18681" stroke-width="2"/>
<path d="M174.55 140.57C174.55 140.51 174.59 140.48 174.64 140.45L235.33 115.28C235.43 115.24 235.49 115.13 235.47 115.03C233.02 98.1003 223.16 83.8403 206.26 78.8603C198.11 76.4603 189.86 76.0103 181.5 77.5003C166.61 80.1603 153.96 89.7903 148.15 103.74C142.83 116.5 143.43 131.54 150.1 143.72C161.68 164.85 188.98 170.67 210.44 163.97C219.18 161.24 227.4 156.84 233.66 150.19C233.74 150.11 233.73 149.98 233.65 149.9C233.65 149.9 233.64 149.9 233.63 149.89L218.75 138.45C218.68 138.4 218.59 138.4 218.51 138.45C213.19 142.43 207.23 146.11 200.54 147.1C191.43 148.45 181.52 147.36 174.57 140.7C174.54 140.67 174.52 140.63 174.53 140.59" stroke="#F18681" stroke-width="2"/>
<path d="M268.171 90.2799C268.031 90.4599 267.961 90.4399 267.961 90.2099L267.991 78.2499C267.991 78.1599 267.941 78.1099 267.851 78.1099H244.101C244.101 78.1099 244.041 78.1399 244.041 78.1699V164.84C244.041 165 244.171 165.12 244.321 165.12H267.841C267.891 165.12 267.931 165.08 267.931 165.03C267.951 150.22 267.941 135.07 267.911 119.57C267.911 116.82 267.971 114.85 268.101 113.65C268.911 106.47 273.771 100.49 280.711 98.2899C285.411 96.8099 290.131 96.8699 294.881 98.4699C301.821 100.82 306.991 106.56 307.661 113.94C307.741 114.79 307.771 116.53 307.771 119.15C307.721 134.35 307.721 149.59 307.751 164.87C307.751 164.99 307.811 165.06 307.931 165.06C308.271 165.08 308.671 165.09 309.121 165.09C316.631 165.12 324.091 165.11 331.491 165.07C331.591 165.07 331.651 165.02 331.651 164.91C331.631 147.77 331.631 130.31 331.661 112.5C331.661 110.5 331.591 108.7 331.441 107.1C329.931 90.9199 318.281 79.2999 302.381 77.0399C293.301 75.7499 284.921 77.4399 277.241 82.1099C273.771 84.2199 270.691 86.9799 268.151 90.2399" stroke="#F18681" stroke-width="2"/>
<path d="M434.561 123.6C435.651 96.9004 414.711 76.9304 388.461 76.6704C373.901 76.5304 359.981 82.5504 350.841 93.8604C341.731 105.14 338.861 120.1 342.781 133.99C346.571 147.45 356.491 158.05 369.481 163.19C383.351 168.66 399.611 167.53 412.501 159.99C425.621 152.3 433.941 138.83 434.571 123.6" stroke="#F18681" stroke-width="2"/>
<path d="M550.32 161.83C556.64 164.91 563.591 166.49 571.161 166.58C586.121 166.76 600.581 160.24 609.661 148.28C617.881 137.45 620.51 123.3 617.12 110.17C613.62 96.6303 604 85.8803 591 80.4003C584.18 77.5303 576.861 76.3103 569.021 76.7403C553.8 77.5703 539.8 85.2603 531.7 98.1603C524.7 109.3 523.191 123.06 527.161 135.55C530.871 147.21 539.35 156.49 550.32 161.83Z" stroke="#F18681" stroke-width="2"/>
<path d="M479.811 137.13C479.811 137.13 479.751 137.08 479.731 137.03C472.591 117.44 465.441 97.8504 458.301 78.2604C458.261 78.1604 458.191 78.1104 458.081 78.1104H431.081C431.021 78.1104 430.971 78.1604 430.971 78.2204C430.971 78.2404 430.971 78.2504 430.971 78.2604L466.691 165.02C466.711 165.07 466.751 165.1 466.811 165.1H492.771C492.861 165.1 492.941 165.05 492.971 164.97L528.681 78.2204C528.681 78.2204 528.681 78.1304 528.641 78.1104C528.631 78.1104 528.621 78.1104 528.611 78.1104H501.501C501.441 78.1104 501.401 78.1304 501.381 78.1904L479.911 137.09C479.911 137.09 479.851 137.15 479.811 137.13ZM479.811 137.13C479.811 137.13 479.811 137.13 479.801 137.13" stroke="#F18681" stroke-width="2"/>
<path d="M168.091 125.05L209.381 107.92C209.501 107.87 209.561 107.74 209.511 107.62C206.401 101.11 200.621 96.5197 193.361 95.8197C186.811 95.1797 180.051 97.1097 175.251 101.6C168.921 107.53 166.871 116.5 167.891 124.95C167.901 125.03 167.971 125.09 168.051 125.08C168.061 125.08 168.071 125.08 168.091 125.08" stroke="#F18681" stroke-width="2"/>
<path d="M364.85 124.44C366.36 138.82 379.24 148.83 393.63 145.42C398.72 144.21 402.86 141.51 406.05 137.31C413.23 127.84 412.74 112.77 404.12 104.08C399.52 99.4503 393.95 97.1403 387.41 97.1603C372.34 97.2003 363.37 110.32 364.85 124.44Z" stroke="#F18681" stroke-width="2"/>
<path d="M561.691 143.68C565.911 145.81 570.521 146.52 575.541 145.83C590.751 143.71 598.031 127.48 593.761 113.78C590.311 102.72 579.941 95.8499 568.351 97.3699C556.511 98.9199 549.111 108.57 548.641 120.28C548.241 130.08 552.921 139.25 561.701 143.67" stroke="#F18681" stroke-width="2"/>
<path d="M0.900391 0.509766H679.04V226.47H0.900391V0.509766ZM142.36 143.26C142.36 143.2 142.32 143.16 142.26 143.16H88.1404C88.0804 143.16 88.0404 143.12 88.0404 143.06V52.2198C88.0404 52.1598 88.0004 52.1198 87.9404 52.1198H63.9104C63.8504 52.1198 63.8104 52.1598 63.8104 52.2198V165.03C63.8104 165.09 63.8504 165.13 63.9104 165.13H142.25C142.31 165.13 142.35 165.09 142.35 165.03V143.27L142.36 143.26ZM174.55 140.56C174.55 140.5 174.59 140.47 174.64 140.44L235.33 115.27C235.43 115.23 235.49 115.12 235.47 115.02C233.02 98.0898 223.16 83.8298 206.26 78.8498C198.11 76.4498 189.86 75.9998 181.5 77.4898C166.61 80.1498 153.96 89.7798 148.15 103.73C142.83 116.49 143.43 131.53 150.1 143.71C161.68 164.84 188.98 170.66 210.44 163.96C219.18 161.23 227.4 156.83 233.66 150.18C233.74 150.1 233.73 149.97 233.65 149.89C233.65 149.89 233.64 149.89 233.63 149.88L218.75 138.44C218.68 138.39 218.59 138.39 218.51 138.44C213.19 142.42 207.23 146.1 200.54 147.09C191.43 148.44 181.52 147.35 174.57 140.69C174.54 140.66 174.52 140.62 174.53 140.58L174.55 140.56ZM268.17 90.2698C268.03 90.4498 267.96 90.4298 267.96 90.1998L267.99 78.2398C267.99 78.1498 267.94 78.0998 267.85 78.0998H244.1C244.1 78.0998 244.04 78.1298 244.04 78.1598V164.83C244.04 164.99 244.17 165.11 244.32 165.11H267.84C267.89 165.11 267.93 165.07 267.93 165.02C267.95 150.21 267.94 135.06 267.91 119.56C267.91 116.81 267.97 114.84 268.1 113.64C268.91 106.46 273.77 100.48 280.71 98.2798C285.41 96.7998 290.13 96.8598 294.88 98.4598C301.82 100.81 306.99 106.55 307.66 113.93C307.74 114.78 307.77 116.52 307.77 119.14C307.72 134.34 307.72 149.58 307.75 164.86C307.75 164.98 307.81 165.05 307.93 165.05C308.27 165.07 308.67 165.08 309.12 165.08C316.63 165.11 324.09 165.1 331.49 165.06C331.59 165.06 331.65 165.01 331.65 164.9C331.63 147.76 331.63 130.3 331.66 112.49C331.66 110.49 331.59 108.69 331.44 107.09C329.93 90.9098 318.28 79.2898 302.38 77.0298C293.3 75.7398 284.92 77.4298 277.24 82.0998C273.77 84.2098 270.69 86.9698 268.15 90.2298L268.17 90.2698ZM434.57 123.59C435.66 96.8898 414.72 76.9198 388.47 76.6598C373.91 76.5198 359.99 82.5398 350.85 93.8498C341.74 105.13 338.87 120.09 342.79 133.98C346.58 147.44 356.5 158.04 369.49 163.18C383.36 168.65 399.62 167.52 412.51 159.98C425.63 152.29 433.95 138.82 434.58 123.59H434.57ZM550.32 161.82C556.64 164.9 563.59 166.48 571.16 166.57C586.12 166.75 600.58 160.23 609.66 148.27C617.88 137.44 620.51 123.29 617.12 110.16C613.62 96.6198 604 85.8698 591 80.3898C584.18 77.5198 576.86 76.2998 569.02 76.7298C553.8 77.5598 539.8 85.2498 531.7 98.1498C524.7 109.29 523.19 123.05 527.16 135.54C530.87 147.2 539.35 156.48 550.32 161.82ZM479.82 137.12C479.82 137.12 479.76 137.07 479.74 137.02C472.6 117.43 465.45 97.8398 458.31 78.2498C458.27 78.1498 458.2 78.0998 458.09 78.0998H431.09C431.03 78.0998 430.98 78.1498 430.98 78.2098C430.98 78.2298 430.98 78.2398 430.98 78.2498L466.7 165.01C466.72 165.06 466.76 165.09 466.82 165.09H492.78C492.87 165.09 492.95 165.04 492.98 164.96L528.69 78.2098C528.69 78.2098 528.69 78.1198 528.65 78.0998C528.64 78.0998 528.63 78.0998 528.62 78.0998H501.51C501.45 78.0998 501.41 78.1198 501.39 78.1798L479.92 137.08C479.92 137.08 479.86 137.14 479.82 137.12C479.82 137.12 479.82 137.12 479.81 137.12H479.82Z" fill="#E20C03"/>
<path d="M142.36 143.26V165.02C142.36 165.08 142.32 165.12 142.26 165.12H63.9203C63.8603 165.12 63.8203 165.07 63.8203 165.02V52.2104C63.8203 52.1504 63.8603 52.1104 63.9203 52.1104H87.9503C88.0103 52.1104 88.0503 52.1604 88.0503 52.2104V143.05C88.0503 143.11 88.0903 143.15 88.1503 143.15H142.27C142.33 143.15 142.37 143.19 142.37 143.25L142.36 143.26Z" fill="white"/>
<path d="M174.55 140.57C174.55 140.57 174.55 140.65 174.59 140.68C181.54 147.34 191.45 148.43 200.56 147.08C207.24 146.09 213.2 142.41 218.53 138.43C218.6 138.38 218.7 138.38 218.77 138.43L233.65 149.87C233.74 149.94 233.76 150.07 233.69 150.16C233.69 150.16 233.69 150.17 233.68 150.18C227.42 156.83 219.19 161.23 210.46 163.96C189 170.67 161.7 164.84 150.12 143.71C143.45 131.54 142.85 116.49 148.17 103.73C153.99 89.7796 166.64 80.1496 181.52 77.4896C189.88 75.9996 198.13 76.4496 206.28 78.8496C223.19 83.8296 233.05 98.0896 235.49 115.02C235.51 115.13 235.45 115.23 235.35 115.27L174.66 140.44C174.61 140.46 174.58 140.5 174.57 140.56L174.55 140.57ZM168.09 125.05L209.38 107.92C209.5 107.87 209.56 107.74 209.51 107.62C206.4 101.11 200.62 96.5196 193.36 95.8196C186.81 95.1796 180.05 97.1096 175.25 101.6C168.92 107.53 166.87 116.5 167.89 124.95C167.9 125.03 167.97 125.09 168.05 125.08C168.06 125.08 168.07 125.08 168.09 125.08V125.05Z" fill="white"/>
<path d="M268.171 90.2799C270.711 87.0199 273.791 84.2599 277.261 82.1499C284.941 77.4799 293.321 75.7899 302.401 77.0799C318.301 79.3399 329.951 90.9599 331.461 107.14C331.611 108.73 331.681 110.53 331.681 112.54C331.651 130.34 331.651 147.81 331.671 164.95C331.671 165.05 331.621 165.11 331.511 165.11C324.101 165.15 316.651 165.16 309.141 165.13C308.691 165.13 308.301 165.12 307.951 165.1C307.831 165.1 307.771 165.03 307.771 164.91C307.741 149.63 307.751 134.39 307.791 119.19C307.791 116.57 307.761 114.83 307.681 113.98C307.011 106.6 301.841 100.86 294.901 98.5099C290.161 96.8999 285.431 96.84 280.731 98.33C273.791 100.52 268.931 106.51 268.121 113.69C267.991 114.89 267.921 116.86 267.931 119.61C267.961 135.1 267.971 150.26 267.951 165.07C267.951 165.12 267.911 165.16 267.861 165.16H244.341C244.181 165.16 244.061 165.03 244.061 164.88V78.2099C244.061 78.2099 244.091 78.1499 244.121 78.1499H267.871C267.961 78.1499 268.011 78.1999 268.011 78.2899L267.981 90.2499C267.981 90.4799 268.051 90.4999 268.191 90.3199L268.171 90.2799Z" fill="white"/>
<path d="M388.471 76.6697C414.711 76.9297 435.661 96.8997 434.571 123.6C433.951 138.82 425.631 152.29 412.501 159.99C399.611 167.54 383.351 168.67 369.481 163.19C356.491 158.06 346.581 147.46 342.781 133.99C338.871 120.1 341.731 105.14 350.841 93.8597C359.981 82.5497 373.901 76.5197 388.461 76.6697H388.471ZM364.851 124.44C366.361 138.82 379.241 148.83 393.631 145.42C398.721 144.21 402.861 141.51 406.051 137.31C413.231 127.84 412.741 112.77 404.121 104.08C399.521 99.4497 393.951 97.1397 387.411 97.1597C372.341 97.1997 363.371 110.32 364.851 124.44Z" fill="white"/>
<path d="M550.32 161.83C539.35 156.49 530.861 147.22 527.161 135.55C523.191 123.06 524.7 109.3 531.7 98.1603C539.8 85.2503 553.8 77.5703 569.021 76.7403C576.861 76.3103 584.18 77.5303 591 80.4003C604 85.8703 613.62 96.6303 617.12 110.17C620.52 123.3 617.881 137.46 609.661 148.28C600.581 160.24 586.121 166.76 571.161 166.58C563.591 166.49 556.64 164.91 550.32 161.83ZM561.7 143.68C565.92 145.81 570.531 146.52 575.551 145.83C590.761 143.71 598.041 127.48 593.771 113.78C590.321 102.72 579.95 95.8503 568.36 97.3703C556.52 98.9203 549.121 108.57 548.651 120.28C548.251 130.08 552.93 139.25 561.71 143.67L561.7 143.68Z" fill="white"/>
<path d="M479.81 137.13C479.81 137.13 479.89 137.14 479.91 137.1C479.91 137.1 479.91 137.1 479.91 137.09L501.38 78.1896C501.4 78.1296 501.44 78.0996 501.5 78.0996H528.61C528.61 78.0996 528.69 78.1396 528.69 78.1896C528.69 78.1996 528.69 78.2096 528.69 78.2196L492.98 164.97C492.95 165.05 492.87 165.11 492.78 165.11H466.82C466.76 165.11 466.73 165.08 466.7 165.03L430.98 78.2696C430.96 78.2096 430.98 78.1396 431.04 78.1196C431.05 78.1196 431.07 78.1196 431.08 78.1196H458.08C458.19 78.1196 458.26 78.1696 458.3 78.2696C465.44 97.8596 472.59 117.45 479.73 137.04C479.75 137.09 479.77 137.12 479.81 137.14V137.13Z" fill="white"/>
<path d="M209.38 107.92L168.09 125.05C168.02 125.08 167.93 125.05 167.9 124.97C167.9 124.96 167.9 124.95 167.9 124.93C166.88 116.48 168.92 107.51 175.26 101.58C180.06 97.0903 186.82 95.1703 193.37 95.8003C200.62 96.5103 206.41 101.1 209.52 107.6C209.57 107.71 209.52 107.85 209.4 107.9L209.38 107.92Z" fill="#E20C03"/>
<path d="M393.62 145.42C379.24 148.82 366.35 138.81 364.84 124.44C363.36 110.33 372.33 97.2003 387.4 97.1603C393.94 97.1403 399.51 99.4503 404.11 104.08C412.73 112.76 413.22 127.84 406.04 137.31C402.85 141.51 398.72 144.21 393.62 145.42Z" fill="#E20C03"/>
<path d="M561.689 143.68C552.909 139.25 548.229 130.09 548.629 120.29C549.099 108.58 556.499 98.9297 568.339 97.3797C579.929 95.8597 590.299 102.73 593.749 113.79C598.019 127.49 590.739 143.72 575.529 145.84C570.519 146.54 565.899 145.82 561.679 143.69L561.689 143.68Z" fill="#E20C03"/>
</svg>
