<svg width="376" height="85" viewBox="0 0 376 85" fill="none" xmlns="http://www.w3.org/2000/svg">
<path d="M137.2 0.200195H146.7C146.9 0.200195 147 0.300183 147 0.500183V82.0002C147 82.2002 146.9 82.3002 146.7 82.3002H137.2C137 82.3002 136.9 82.2002 136.9 82.0002V0.500183C136.9 0.300183 137.1 0.200195 137.2 0.200195Z" fill="#333333"/>
<path d="M63.8992 13.7998L39.3992 13.8998C39.2992 13.8998 39.1992 13.7998 39.1992 13.6998C39.1992 13.5998 39.1992 13.5998 39.2992 13.5998L49.3992 3.39984L49.4992 3.2998H74.2992C74.3992 3.2998 74.4992 3.39982 74.4992 3.49982L74.5992 28.2998C74.5992 28.2998 74.5992 28.3998 74.4992 28.3998L64.3992 38.6998C64.2992 38.7998 64.1992 38.7998 64.0992 38.6998L63.9992 38.5998L63.8992 13.9998C64.0992 13.8998 63.9992 13.7998 63.8992 13.7998Z" fill="#800000"/>
<path d="M169.501 55.7004C169.601 61.6004 171.501 69.1004 176.501 72.8004C181.001 76.1004 188.301 76.4004 193.301 74.3004C197.801 72.4004 200.901 68.9004 202.401 63.7004C202.401 63.5004 202.601 63.4004 202.701 63.4004H212.101C212.301 63.4004 212.301 63.5003 212.301 63.6003C212.201 64.3003 212.101 64.9004 212.001 65.4004C209.601 73.1004 204.201 79.6004 196.601 82.4004C191.001 84.4004 183.801 84.8004 178.101 83.2004C160.601 78.3004 156.301 58.9004 159.801 43.3004C162.801 29.8004 173.601 20.7004 187.501 21.0004C191.601 21.1004 195.701 22.2004 199.601 24.2004C207.101 28.1004 211.401 34.5004 212.501 43.2004C213.101 47.8004 213.401 51.8003 213.301 55.1003C213.301 55.3003 213.201 55.3004 213.101 55.3004H169.801C169.501 55.5004 169.501 55.6004 169.501 55.7004ZM189.901 30.2004C178.801 28.0004 170.201 36.5004 169.801 47.3004C169.801 47.5004 169.901 47.6003 170.001 47.6003H202.701C202.801 47.6003 202.901 47.5004 202.901 47.4004C202.201 38.9004 198.901 31.9004 189.901 30.2004Z" fill="#333333"/>
<path d="M290.301 55.7004C290.301 59.7004 291.101 63.5004 292.801 67.0004C295.601 72.9004 300.501 75.8004 307.101 75.6004C315.401 75.3004 320.801 71.4004 323.301 63.7004C323.301 63.6004 323.401 63.5004 323.501 63.5004H332.801C333.001 63.5004 333.201 63.7004 333.201 63.9004V64.0004C331.201 72.2004 325.701 79.4004 317.801 82.4004C313.201 84.2004 308.301 84.8004 303.101 84.2004C291.001 82.8004 282.801 74.1004 280.301 62.4004C278.301 53.0004 279.401 41.9004 284.501 33.7004C293.301 19.6004 312.301 17.2004 324.901 27.3004C328.901 30.5004 331.301 35.2004 332.601 40.4004C333.801 45.3004 334.201 50.3004 333.801 55.4004C333.801 55.5004 333.701 55.6004 333.501 55.6004H290.301C290.301 55.5004 290.301 55.6004 290.301 55.7004ZM310.501 30.2004C299.301 28.1004 291.001 36.5004 290.501 47.3004C290.501 47.5004 290.601 47.6004 290.701 47.6004H323.301C323.501 47.6004 323.601 47.5004 323.601 47.3004C323.001 38.7004 319.601 31.9004 310.501 30.2004Z" fill="#333333"/>
<path d="M356.3 32.2005C360.5 25.2005 366.8 20.1004 375.4 21.3004C375.6 21.3004 375.6 21.4004 375.6 21.6004V31.7005C375.6 31.8005 375.5 31.9005 375.4 31.9005C369.3 31.1005 363.5 32.5004 359.8 37.8004C357.6 41.0004 356.5 44.6004 356.5 48.5004C356.6 59.7004 356.6 70.8004 356.6 82.0004C356.6 82.2004 356.5 82.3004 356.3 82.3004H346.9C346.7 82.3004 346.5 82.2005 346.5 81.9005V22.6004C346.5 22.5004 346.6 22.4005 346.7 22.4005H355.9C356.1 22.4005 356.1 22.5004 356.1 22.6004V32.0004C356.1 32.4004 356.1 32.4005 356.3 32.2005Z" fill="#333333"/>
<path d="M263.101 22.4004H273.801C273.901 22.4004 273.901 22.5004 273.901 22.5004C273.901 22.5004 273.901 22.5003 273.901 22.6003L251.401 82.1003C251.401 82.2003 251.301 82.2004 251.301 82.2004H240.801C240.701 82.2004 240.701 82.2003 240.701 82.1003L218.801 22.6003C218.801 22.5003 218.801 22.4004 218.901 22.4004C218.901 22.4004 218.901 22.4004 219.001 22.4004H230.401C230.501 22.4004 230.501 22.4004 230.501 22.5004L246.301 70.7004C246.301 70.8004 246.401 70.8004 246.501 70.8004C246.501 70.8004 246.601 70.8004 246.601 70.7004L263.101 22.5004C263.001 22.5004 263.101 22.4004 263.101 22.4004Z" fill="#333333"/>
<path d="M51.9008 39.2004C51.9008 46.3004 46.2008 52.0004 39.1008 52.0004C32.0008 52.0004 26.3008 46.3004 26.3008 39.2004C26.3008 32.1004 32.0008 26.4004 39.1008 26.4004C46.1008 26.4004 51.9008 32.1004 51.9008 39.2004ZM47.9008 39.2004C47.9008 34.3004 43.9008 30.3004 39.0008 30.3004C34.1008 30.3004 30.1008 34.3004 30.1008 39.2004C30.1008 44.1004 34.1008 48.1003 39.0008 48.1003C43.9008 48.1003 47.9008 44.1004 47.9008 39.2004Z" fill="#333333"/>
<path d="M25.8996 66.1002C25.8996 73.2002 20.0996 79.0002 12.9996 79.0002C5.8996 79.0002 0.0996094 73.2002 0.0996094 66.1002C0.0996094 59.0002 5.8996 53.2002 12.9996 53.2002C20.1996 53.2002 25.8996 58.9002 25.8996 66.1002ZM21.8996 66.1002C21.8996 61.2002 17.8996 57.2002 12.9996 57.2002C8.0996 57.2002 4.09961 61.2002 4.09961 66.1002C4.09961 71.0002 8.0996 75.0002 12.9996 75.0002C17.9996 75.0002 21.8996 71.0002 21.8996 66.1002Z" fill="#333333"/>
</svg>
