<svg width="396" height="189" viewBox="0 0 396 189" fill="none" xmlns="http://www.w3.org/2000/svg">
<path d="M38.9004 121.3C39.2004 120.7 39.1004 120 38.9004 119.4C36.5004 113.7 34.1004 107.7 31.7004 101.6C31.5004 101.1 31.2004 100.8 30.8004 100.6C29.7004 100.2 28.6004 99.8999 27.7004 99.6999C27.1004 99.5999 26.4004 99.4999 25.8004 99.1999C24.9004 98.8999 24.0004 98.7999 23.1004 98.4999C17.5004 96.9999 11.9004 95.5999 6.3004 94.1999C5.3004 93.9999 4.30044 93.7999 3.40044 93.5999C2.40044 93.4999 1.40044 93.1999 0.400439 92.8999C0.200439 92.7999 0.100391 92.6999 0.100391 92.4999C0.000390626 84.2999 0.000390626 76.0999 0.100391 67.9999C0.100391 67.7999 0.200439 67.6999 0.400439 67.5999C2.70044 67.0999 5.20041 66.8999 7.50041 66.4999C11.2004 65.7999 15.1004 65.1999 19.2004 64.5999C20.3004 64.3999 21.4004 64.1999 22.5004 63.9999C23.8004 63.6999 25.2004 63.5999 26.5004 63.4999C27.7004 63.4999 28.7004 62.8999 30.0004 62.7999C30.4004 62.7999 30.7004 62.5999 30.8004 62.1999C33.5004 55.7999 36.0004 49.6999 38.2004 43.8999C38.7004 42.4999 38.6004 41.0999 37.9004 39.6999C35.4004 35.1999 32.8004 30.7999 30.0004 26.3999C27.9004 23.0999 25.9004 19.6999 24.1004 16.1999C23.8004 15.5999 23.7004 14.9999 24.0004 14.3999C24.2004 13.8999 25.0004 13.0999 26.4004 11.9999C30.7004 8.59989 34.9004 5.29989 39.0004 1.89989C40.7004 0.499893 42.1004 -0.40011 44.3004 1.09989C51.2004 5.79989 58.0004 10.1999 64.5004 14.2999C66.0004 15.2999 67.7004 15.2999 69.5004 14.3999C71.3004 13.5999 73.0004 12.7999 74.7004 12.0999C75.0004 11.9999 75.4004 12.0999 75.5004 12.3999C75.5004 12.4999 75.5004 12.4999 75.5004 12.5999C75.7004 18.0999 75.7004 23.5999 75.6004 29.0999C75.6004 29.6999 75.4004 30.1999 75.0004 30.4999C67.3004 36.3999 60.1004 43.0999 55.3004 51.6999C52.3004 57.0999 50.1004 62.6999 48.7004 68.4999C48.5004 69.4999 48.3004 70.5999 48.2004 71.6999C48.1004 72.7999 47.7004 73.6999 47.7004 74.7999C47.6004 77.8999 47.6004 80.9999 47.7004 83.9999C47.7004 85.0999 47.8004 86.0999 48.0004 87.0999C48.2004 88.1999 48.2004 89.1999 48.3004 90.2999C48.4004 90.9999 48.5004 91.6999 48.7004 92.5999C48.9004 93.3999 49.1004 94.0999 49.3004 94.8999C51.5004 104 55.8004 112.9 61.8004 120C65.5004 124.3 70.1004 128.6 75.1004 131.7C79.7004 134.6 84.8004 136.7 90.4004 138C91.7004 138.3 92.9004 138.6 94.1004 138.8C94.9004 139 95.8004 139.1 96.7004 139.1C97.5004 139.1 98.4004 139.2 99.3004 139.3C101.9 139.7 104.5 139.7 107.1 139.3C107.9 139.2 108.6 139.1 109.3 139.1C111.3 139 113.2 138.5 115.2 138C119.7 137 124.4 135.3 129.5 132.8C137.6 128.9 145.2 123.5 152.2 117.4C152.8 116.8 153.5 116.4 154.2 116C154.6 115.8 154.9 115.8 155.3 116.1C156.8 117.1 158.1 118.3 159.4 119.4C164.9 124.7 170.7 130.2 176.7 135.8C180 138.9 183.2 142.1 186.6 145.3C186.9 145.6 186.9 145.9 186.7 146.2L173.7 163.9C173.5 164.2 173.1 164.3 172.8 164.1C167.1 161 161.6 157.1 156.2 153.8C153.4 152 150.5 150 147.6 148.1C146 147.1 144.5 146.9 142.8 147.6C136.6 150.3 131.1 152.5 126.2 154.4C124.5 155 124 157.7 123.8 159.3C123.6 161 123 162.5 122.9 164.2C122.8 165.8 122.2 167.2 122 168.8C121.8 170.3 121.3 171.7 121.1 173.2C121 174.7 120.4 176.1 120.2 177.6C120.1 178.9 119.5 180.1 119.4 181.4C119.3 182.2 119.2 183 119 183.7C118.7 184.7 118.5 185.8 118.4 186.9C118.4 187.3 118.1 187.6 117.7 187.6C109.9 188 101.8 188.1 93.5004 187.6C93.2004 187.6 92.9004 187.3 92.9004 187C92.8004 185.4 92.3004 184 92.0004 182.5C90.2004 174.5 88.5004 166.6 86.8004 158.7C86.5004 157.4 86.0004 156.5 85.3004 155.9C83.7004 154.7 81.5004 153.8 79.5004 153.1C76.5004 152 73.6004 150.6 70.7004 149.1C69.3004 148.4 67.9004 147.8 66.3004 147.3C64.0004 146.6 60.2004 150 58.3004 151.2C54.4004 153.8 50.2004 156.5 46.0004 159.5C43.3004 161.4 40.6004 163.1 37.8004 164.6C37.4004 164.8 37.1004 164.8 36.7004 164.4C31.2004 158.9 26.1004 153.6 21.5004 148.7C21.0004 148.2 20.6004 147.7 20.3004 147.1C20.0004 146.6 19.9004 146.2 20.2004 145.7C20.8004 144.5 21.5004 143.6 22.2004 142.7C24.0004 140.5 25.8004 138.3 27.4004 136.1C30.8004 131.6 33.9004 127.5 36.8004 123.9C37.6004 123.4 38.2004 122.4 38.9004 121.3Z" fill="#EF801D"/>
<path d="M133 55.4005C133.1 55.7005 133.2 55.7005 133.3 55.4005C138.7 42.3005 145.2 29.5005 153.9 18.5005C156.4 15.3005 159.3 12.1005 162.8 10.0005C164.8 8.80048 167.6 8.40048 169.2 10.5005C169.7 11.1005 170.1 12.0005 170.4 13.0005C171 15.0005 171.6 17.1005 172 19.1005C173 24.0005 173.6 28.8005 174 33.3005C175.4 50.2005 175.7 67.4005 174.8 84.7005C174.6 89.6005 174.1 94.7005 173.3 99.3005C172.8 102.6 171.1 105.8 167.2 105.4C162.8 105 162.7 101.3 163.2 97.5005C163.8 92.2005 164.3 87.1005 164.6 82.2005C165.9 62.8005 165.2 43.6005 162.3 24.5005C162.3 24.4005 162.2 24.4005 162.2 24.4005H162.1C152.5 34.3005 145.8 48.1005 141.1 61.4005C139.8 65.1005 138.6 68.5005 137.5 71.6005C136.5 74.5005 133.6 76.4005 130.6 75.1005C129.2 74.5005 128.2 73.3005 127.6 71.4005C126.6 68.4005 125.7 65.5005 124.8 62.7005C120.4 48.7005 112.3 35.9005 102.2 25.2005H102.1C101.6 26.8005 101.1 28.4005 100.7 30.1005C97.4 44.1005 96.5 59.2005 96.6 73.9005C96.6 80.2005 97.1 86.9005 97.3 93.0005C97.4 96.2005 96.7 100.5 92.6 100.7C88.2 100.9 87.1 96.8005 86.9 93.4005C86.6 88.8005 86.5 83.6005 86.5 77.8005C86.6 60.8005 87.6 43.6005 90.9 27.3005C91.5 24.5005 92.2 21.7005 93 19.0005C93.7 16.8005 94.7 14.0005 96.6 12.6005C100.3 9.70048 104.5 13.1005 107 15.8005C110.9 19.9005 114.3 23.8005 117.3 27.5005C123.9 36.0005 129.2 45.4005 133 55.4005Z" fill="#33AEDF"/>
<path d="M187.701 79.2C185.701 78.5 182.401 76.9 183.901 74.3C184.801 72.7 186.401 72.9 187.801 73.6C189.101 74.2 190.301 74.7 191.501 75.2C191.601 75.2 191.701 75.2 191.801 75.1C195.601 69.9 199.301 64.8 202.201 59C203.501 56.5 204.001 53.8 204.401 50.9C204.801 47.7 209.101 47.7 209.501 50.9C209.901 54.2 210.701 57.5 211.901 60.9C214.101 67.6 216.801 74.2 219.901 80.7C220.001 80.9 220.101 81 220.301 80.9C221.301 80.8 222.301 80.7 223.401 80.7C225.301 80.6 226.301 81.5 226.301 83.3C226.301 85.5 224.601 86.1 222.801 86C222.701 86 222.601 86.1 222.601 86.2V86.3C224.101 89 225.501 91.6 226.801 93.9C227.501 95.1 228.001 96.6 227.401 97.9C226.601 99.7 224.201 99.2 223.101 98C222.101 96.9 221.101 95.6 220.201 93.9C218.801 91.2 217.501 88.6 216.401 86.3C216.301 86.2 216.201 86.1 216.101 86.1C208.501 85.9 200.801 84.1 193.701 81.5C193.601 81.4 193.401 81.5 193.301 81.6C191.001 83.9 181.901 93.6 178.401 91.7C176.601 90.7 176.801 88.8 178.301 87.6C181.601 85 184.901 82.5 187.801 79.5C187.901 79.4 187.901 79.3 187.701 79.2ZM197.001 77.4C202.301 79.4 208.001 80.7 213.501 81.1C213.601 81.1 213.601 81.1 213.601 81C210.701 74.7 208.401 68.4 206.401 61.9C206.401 61.8 206.301 61.8 206.201 61.8C206.201 61.8 206.101 61.8 206.101 61.9C203.701 67.3 200.601 72.4 196.901 77.3C196.901 77.2 196.901 77.3 197.001 77.4Z" fill="#33AEDF"/>
<path d="M240.399 72.8005C246.699 68.7005 252.399 64.0005 257.399 58.7005C258.599 57.4005 260.599 55.1005 263.499 51.5005C264.099 50.7005 265.299 50.1005 266.299 50.3005C268.999 50.7005 268.099 54.0005 267.199 55.7005C266.199 57.5005 264.899 59.1005 263.399 60.6005C259.499 64.6005 255.199 68.5005 250.399 72.2005C250.299 72.3005 250.299 72.4005 250.399 72.5005C250.399 72.5005 250.399 72.5005 250.499 72.6005C258.799 77.5005 265.499 84.7005 270.599 92.8005C271.499 94.2005 272.099 95.5005 272.499 96.7005C273.299 99.5005 269.799 100.9 267.899 99.2005C267.699 99.0005 267.299 98.4005 266.699 97.5005C265.299 95.3005 263.999 93.3005 262.699 91.3005C261.199 89.1005 259.099 86.7005 256.499 83.9005C253.299 80.6005 249.699 78.0005 245.699 75.9005C245.599 75.8005 245.399 75.8005 245.299 75.9005L240.599 78.9005C240.499 79.0005 240.399 79.1005 240.399 79.2005C240.099 82.7005 239.699 86.2005 239.299 89.7005C238.799 93.0005 238.099 98.6005 235.099 100.5C234.999 100.6 234.899 100.7 234.799 100.8C234.599 101.1 234.299 101.2 233.899 101C232.499 100.4 231.799 99.6005 231.699 98.5005C231.699 97.9005 231.799 97.0005 232.199 95.7005C232.899 93.1005 233.399 90.7005 233.799 88.4005C234.999 80.1005 235.399 71.9005 234.799 63.6005C234.599 60.0005 234.299 56.5005 233.899 53.0005C233.799 51.6005 234.699 50.4005 236.199 50.2005C239.899 49.9005 240.099 55.8005 240.199 58.2005C240.299 63.0005 240.499 67.8005 240.499 72.6005C240.299 72.8005 240.399 72.8005 240.399 72.8005Z" fill="#33AEDF"/>
<path d="M279.099 92.6C279.599 89.4 279.899 86 279.999 82.3C280.299 73.2 280.399 64.4 280.199 56C280.199 55.8 280.099 55.7 279.899 55.7C277.999 55.8 274.799 56.3 274.699 53.5C274.599 51.1 277.299 50.8 279.099 50.7C286.099 50.5 292.699 51 298.799 52.1C301.399 52.6 303.799 53.3 305.999 54.3C306.199 54.4 306.299 54.3 306.299 54.2C306.599 53.1 307.499 52.4999 308.799 52.3999C310.299 52.2999 311.899 52.3 313.399 52C316.099 51.5 318.799 51 321.499 50.6C325.999 49.9 330.399 50.1 334.699 51.1C338.199 51.9 341.699 53.8 343.699 56.8C346.499 61 346.799 67.2 345.099 71.7C343.499 76 340.099 79.4999 335.999 81.3999C335.899 81.3999 335.899 81.5 335.899 81.6C335.899 81.6 335.899 81.6 335.899 81.7C340.199 85.1 343.599 88.7999 347.299 92.8999C348.799 94.5999 350.699 94.9999 352.899 94.8999C353.599 94.8999 354.099 94.6 354.599 94.1C355.399 93.2 356.899 91.5 358.299 92.2C359.899 93 359.899 95.1 359.099 96.5C356.699 100.5 351.599 100.6 347.599 99.3999C346.499 99.0999 345.299 98.4 344.499 97.5C341.399 93.9 338.199 90.5 334.699 87.1C332.599 85.1 330.499 83.5 327.899 82.8C326.199 82.3 325.499 80.5 326.799 79.2C327.599 78.4 328.899 78.1 329.999 78.1C335.699 77.7 339.799 73.6 340.499 68C341.599 58.5 334.899 55.1 326.599 55.3C326.499 55.3 326.399 55.4 326.399 55.5C323.499 68.4 322.499 81.6 323.399 95C323.499 96.4 323.199 98.9 321.199 99C319.599 99.1 318.699 98.3999 318.199 96.8999C317.799 95.5999 317.599 93.9 317.599 91.8C317.399 79.6 317.999 67.7 320.799 56.1C320.799 55.9 320.799 55.8999 320.599 55.8999C317.699 56.3999 314.699 56.8 311.599 57.3C310.599 57.4 309.599 57.5 308.699 57.3C308.499 57.3 308.399 57.3 308.399 57.5C308.099 58.9 306.699 59.9 305.299 59.3C302.299 58.1 299.699 57.4 296.299 57C292.699 56.6 289.299 56.3 285.999 56.1C285.899 56.1 285.799 56.2 285.799 56.3L285.699 70.8C285.699 71 285.799 71 285.899 71C290.399 71.3 294.699 71.2999 298.899 70.8999C302.499 70.5999 303.099 75 299.399 75.5C295.099 76.1 290.199 75.9 285.799 75.7C285.599 75.7 285.499 75.7999 285.499 75.8999C285.499 81.5999 285.199 87.0999 284.599 92.3999C284.599 92.5999 284.699 92.6 284.799 92.6C288.299 92.6 291.699 92.5 294.999 92.2C297.999 91.9 301.199 91.4 303.899 90C305.699 89.1 309.499 86.5 310.999 89.2C312.699 92.2999 306.299 94.6 304.299 95.2C296.299 97.7 287.799 97.7 279.399 97.7C277.399 97.7 273.699 97.5 274.299 94.6C274.799 92.2 277.199 92.7 278.899 92.6C278.899 92.9 279.099 92.8 279.099 92.6Z" fill="#33AEDF"/>
<path d="M228.901 119.6C232.001 115.9 236.201 113.6 241.401 112.7C245.601 112 250.201 112.1 254.301 113.3C259.301 114.7 263.801 118.3 264.801 123.5C265.401 126.5 265.301 129.5 264.401 132.4C262.401 139.1 257.301 142.6 250.501 142.2C248.301 142.1 244.801 141.3 243.701 139.2C242.701 137.4 244.301 134.7 246.601 135.7C247.401 136 248.101 136.3 248.901 136.6C255.501 138.8 259.801 133.7 259.901 127.5C260.001 121.2 254.601 117.8 248.801 117.5C247.001 117.4 245.001 117.5 242.901 117.8C242.701 117.8 242.701 117.9 242.701 118.1C243.401 128.6 243.301 138.8 242.501 148.7C242.201 152 241.601 155.5 240.801 158.8C240.501 160.2 239.401 161.1 238.001 160.8C236.201 160.5 235.701 158.5 235.901 157C236.601 151.2 237.601 145.1 237.801 139.3C238.001 132.9 237.901 126.3 237.501 119.5C237.501 119.3 237.401 119.2 237.201 119.3C235.901 120.1 234.601 121.1 233.501 122.2C232.001 123.6 230.301 124.6 228.701 122.5C228.501 122.3 228.401 122.3 228.401 122.6C228.401 123.9 228.401 125.1 228.201 126.3C228.001 127.7 227.201 128.4 225.901 128.3C223.201 128.3 222.901 124.4 223.001 122.3C223.001 122.1 222.901 122 222.801 121.9C215.301 116.7 205.401 120.2 204.401 129.6C204.101 132.4 204.601 136 207.101 137.6C208.201 138.3 209.401 138.8 210.701 139.3C212.901 140.1 215.001 140.9 217.001 141.6C222.001 143.5 224.601 146.7 224.501 152.1C224.301 159.7 216.301 161.7 210.201 161C208.601 160.8 207.101 160.2 205.701 159.3C205.501 159.2 205.401 159.2 205.401 159.4C205.401 160.9 205.401 162.5 205.401 164C205.401 165.6 204.701 166.5 203.301 166.6C201.301 166.7 200.301 165.7 200.301 163.6C200.301 159 200.101 154 200.801 149.5C201.001 148.3 201.801 146.9 203.201 146.8C204.501 146.7 205.301 147.5 205.601 148.7C205.801 149.9 206.101 151 206.201 152.2C206.501 154.5 207.801 155.7 210.101 156C212.601 156.3 217.101 156.2 218.601 153.6C219.601 152 219.201 149.5 217.801 148.2C216.901 147.3 215.801 146.7 214.401 146.2C211.901 145.3 209.501 144.4 207.001 143.4C204.701 142.5 202.901 141.4 201.501 139.9C198.601 136.8 198.501 131.5 199.201 127.4C200.401 120.6 205.701 115.7 212.501 114.6C216.701 113.9 220.301 114.7 223.401 116.7C223.601 116.8 223.701 116.8 223.801 116.5C224.101 115.3 224.801 114.1 226.201 113.9C229.401 113.5 229.101 117.6 228.701 119.4C228.701 119.8 228.801 119.8 228.901 119.6Z" fill="#EF801D"/>
<path d="M308.1 148.5C307.9 148.5 307.8 148.6 307.9 148.8C309.2 151.2 310.5 153.6 311.8 155.9C312.2 156.5 312.4 157.2 312.6 157.9C313 159.2 312.5 160.7 311.1 161C308.5 161.5 306.7 158.2 305.6 156.2C304.2 153.6 303 151.1 301.8 148.7C301.7 148.5 301.6 148.5 301.4 148.5C294 148.2 287 146.6 279.8 144.1C279.6 144 279.5 144.1 279.3 144.2C276.9 146.7 268.9 155.2 265.4 154.3C264 153.9 263.1 152.3 264 151C264.3 150.5 264.7 150.1 265.2 149.7C268.4 147.3 271.4 144.8 274.1 142.1C274.2 142 274.2 141.9 274.1 141.8C274.1 141.8 274 141.8 274 141.7C272.1 141 268.6 139.4 270.3 136.8C271 135.7 272.1 135.5 273.5 136C274.8 136.5 276.2 137.1 277.5 137.7C277.7 137.8 277.9 137.7 278 137.6C282.2 132.1 285.2 127.5 287.2 123.9C288.4 121.7 289.1 120 289.3 118.8C289.6 117.4 289.8 116 290 114.7C290.3 113 291.2 112 292.9 112.2C294.1 112.4 294.8 113.1 295 114.5C295.4 117.5 296.1 120.5 297.1 123.6C299.3 130.3 302 136.8 305.1 143.2C305.2 143.3 305.2 143.4 305.4 143.3C306.5 143.2 307.5 143.1 308.6 143.1C310.4 143.1 311.3 143.9 311.3 145.6C311.5 147.9 309.9 148.6 308.1 148.5ZM283.2 139.9C288.3 141.7 293.7 142.9 299.1 143.4C299.2 143.4 299.2 143.4 299.2 143.3C299.2 143.3 299.2 143.3 299.2 143.2C296.4 137.2 294.1 131 292.2 124.8C292.1 124.5 292 124.5 291.9 124.8C289.6 130 286.6 134.9 283.1 139.6C283.1 139.7 283.1 139.8 283.2 139.9Z" fill="#EF801D"/>
<path d="M369.3 154.8C372.8 154.8 376.3 154.7 379.7 154.3C382.4 154 384.6 153.6 386.4 152.9C387.8 152.4 389.3 151.7 390.9 151C392.5 150.2 393.8 150.4 394.6 151.6C396.3 154 392.3 156 390.4 156.7C386.3 158.3 381.7 159.2 376.7 159.5C371.5 159.8 366.7 159.9 362.4 159.7C361.1 159.6 359.1 159 359.1 157.4C359.1 155.7 360.3 154.6 361.9 154.7C362.5 154.7 363.1 154.7 363.6 154.7C363.7 154.7 363.8 154.6 363.9 154.5C364.2 152.3 364.4 150.8 364.5 150.2C365.1 140.2 365.3 130 365 119.7C365 119.5 364.9 119.4 364.7 119.4C362.7 119.5 359.5 120 359.7 116.9C359.8 113.8 365.1 114.4 367.1 114.4C372.7 114.4 378.2 114.9 383.4 115.9C385.3 116.3 392.4 117.8 392.2 120.6C392.1 122 390.6 123.3 389.1 122.6C386.6 121.4 383.4 120.6 379.6 120.2C376.5 119.9 373.5 119.6 370.4 119.4C370.2 119.4 370.2 119.5 370.2 119.6L370.1 134C370.1 134.2 370.2 134.3 370.4 134.3C374.5 134.6 378.4 134.6 382.1 134.3C383.7 134.2 385.5 134.3 385.8 136.2C386 138.1 384.4 138.9 382.8 139C378.9 139.3 374.7 139.3 370.2 139.1C370 139.1 369.9 139.2 369.9 139.3C369.9 144.3 369.6 149.4 369 154.5C369.1 154.7 369.1 154.8 369.3 154.8Z" fill="#EF801D"/>
<path d="M344.6 121.3C338.7 118.7 331.5 119.3 327 124.2C322 129.5 321.4 137.6 322.6 144.5C323.6 150.2 326.9 154.7 332.7 155.9C337.7 157 344.9 156.6 349 152.9C350 152 350.7 150.7 351.6 149.7C352.8 148.3 355.2 148.8 355.7 150.5C356.3 152.4 354.8 154.5 353.4 155.8C348.6 160.1 342.7 161.6 336.3 161.4C326.2 161.1 319.1 155.4 317.2 145.3C315.9 138.4 316.5 130.5 320.2 124.4C325.4 115.9 334.4 113.2 343.8 115.3C346.8 116 349.5 117.3 351.8 119.2C353.3 120.4 354.5 122.3 352.7 124C351.3 125.3 350.3 124.7 348.9 123.7C347.5 122.8 346 122 344.6 121.3Z" fill="#EF801D"/>
<path d="M381 177.3C382.7 178 384.5 178.2 386.2 179C390.1 180.9 389.4 186.5 385.3 187.7C383.5 188.2 381.8 188.2 380.1 187.6C378.1 187 376.9 185.5 376.6 183.1C376.6 183 376.6 183 376.7 183L379.4 182.6C379.5 182.6 379.5 182.6 379.5 182.7C379.7 184.4 380.6 185.3 382.2 185.5C383.1 185.6 383.9 185.5 384.7 185.1C386.3 184.3 386.1 182.2 384.3 181.7C382.2 181.2 380.7 180.7 379.6 180.1C376 178.4 376.5 173.4 380.4 172.3C382 171.9 383.5 171.9 385.1 172.3C387.1 172.9 388.3 174.3 388.4 176.5C388.4 176.5 388.4 176.6 388.3 176.6H385.4C385.3 176.6 385.3 176.6 385.3 176.5C384.9 174 382.1 174.1 380.4 175C380.3 175.1 380.2 175.2 380.1 175.3C379.8 176.3 380.1 176.9 381 177.3Z" fill="#33AEDF"/>
<path d="M294.1 178.3H301.4C301.5 178.3 301.5 178.4 301.5 178.4V180.7C301.5 180.8 301.4 180.8 301.4 180.8H294.1C294 180.8 294 180.9 294 180.9V184.8C294 184.9 294.1 184.9 294.1 184.9H302.3C302.4 184.9 302.4 185 302.4 185V187.3C302.4 187.4 302.3 187.4 302.3 187.4H291.1C291 187.4 291 187.3 291 187.3V172.4C291 172.3 291.1 172.3 291.1 172.3H302C302.1 172.3 302.1 172.4 302.1 172.4V174.7C302.1 174.8 302 174.8 302 174.8H294.1C294 174.8 294 174.9 294 174.9V178C294 178.3 294.1 178.3 294.1 178.3Z" fill="#33AEDF"/>
<path d="M307.301 187.6H303.901C303.801 187.6 303.801 187.5 303.801 187.5V187.4L308.901 179.7V179.6L304.401 172.7C304.401 172.6 304.401 172.6 304.401 172.5C304.401 172.5 304.401 172.5 304.501 172.5H307.801C307.801 172.5 307.901 172.5 307.901 172.6L310.701 176.8C310.701 176.9 310.801 176.9 310.901 176.8L313.701 172.6L313.801 172.5H317.001C317.101 172.5 317.101 172.6 317.101 172.6C317.101 172.6 317.101 172.6 317.101 172.7L312.601 179.6V179.7L317.701 187.4C317.701 187.5 317.701 187.5 317.701 187.6C317.701 187.6 317.701 187.6 317.601 187.6H314.201C314.201 187.6 314.101 187.6 314.101 187.5L310.901 182.5C310.901 182.4 310.801 182.4 310.701 182.5L307.401 187.5C307.401 187.6 307.401 187.6 307.301 187.6Z" fill="#33AEDF"/>
<path d="M322.199 181.9V187.5C322.199 187.6 322.199 187.6 322.099 187.6H319.299C319.199 187.6 319.199 187.6 319.199 187.5V172.7C319.199 172.6 319.299 172.5 319.399 172.5C321.099 172.5 322.899 172.5 324.799 172.5C326.799 172.5 328.099 172.7 328.799 173.2C331.699 175.1 331.399 179.9 328.099 181.3C327.799 181.4 327.499 181.5 327.099 181.6C326.599 181.6 326.199 181.8 325.699 181.8C324.599 181.8 323.499 181.8 322.399 181.8C322.299 181.7 322.199 181.8 322.199 181.9ZM322.199 175.1V179.1C322.199 179.2 322.299 179.2 322.299 179.2H325.199C326.499 179.2 327.599 178.3 327.599 177.3V176.9C327.599 175.8 326.499 175 325.199 175H322.299C322.299 175 322.199 175 322.199 175.1Z" fill="#33AEDF"/>
<path d="M340.8 184.2H334.8C334.7 184.2 334.7 184.2 334.7 184.3L333.6 187.5C333.6 187.6 333.5 187.6 333.5 187.6H330.6C330.5 187.6 330.5 187.5 330.5 187.5L335.8 172.6C335.8 172.5 335.9 172.5 335.9 172.5H339.8C339.9 172.5 339.9 172.5 339.9 172.6L345.2 187.5C345.2 187.6 345.2 187.6 345.1 187.7C345.1 187.7 345.1 187.7 345 187.7H342C341.9 187.7 341.9 187.7 341.9 187.6L340.8 184.4C340.9 184.3 340.8 184.2 340.8 184.2ZM335.6 181.5C335.6 181.6 335.6 181.7 335.7 181.7H339.8C339.9 181.7 339.9 181.6 339.9 181.6L337.9 175.4C337.9 175.3 337.8 175.3 337.7 175.3C337.7 175.3 337.6 175.3 337.6 175.4L335.6 181.5Z" fill="#33AEDF"/>
<path d="M356.3 172.4H358.9C359 172.4 359 172.5 359 172.5V187.4C359 187.5 358.9 187.5 358.9 187.5H356C356 187.5 355.9 187.5 355.9 187.4L350.1 177.9C350.1 177.8 350 177.8 349.9 177.9L349.8 178V187.4C349.8 187.5 349.7 187.5 349.7 187.5H347.2C347.1 187.5 347.1 187.4 347.1 187.4V172.5C347.1 172.4 347.2 172.4 347.2 172.4H349.9C349.9 172.4 350 172.4 350 172.5L355.9 182.3C355.9 182.4 356 182.4 356.1 182.3L356.2 182.2V172.5C356.1 172.5 356.2 172.4 356.3 172.4Z" fill="#33AEDF"/>
<path d="M362.1 172.6C362.1 172.5 362.2 172.4 362.3 172.4H368.6C372 172.4 374.8 175.3 374.8 178.8V181.1C374.8 184.7 372 187.5 368.6 187.5H362.3C362.2 187.5 362.1 187.4 362.1 187.3V172.6ZM365.2 175.1V185C365.2 185.1 365.3 185.1 365.3 185.1H368.3C370.2 185.1 371.7 183.5 371.7 181.4V178.7C371.7 176.7 370.2 175 368.4 175H365.4C365.2 175 365.2 175 365.2 175.1Z" fill="#33AEDF"/>
<path d="M394.5 172.4C394.6 172.4 394.6 172.5 394.6 172.5V172.6C394.6 178.8 394.1 183.8 393.5 183.8H392.6C392 183.8 391.5 178.8 391.5 172.6V172.5C391.5 172.4 391.6 172.4 391.6 172.4H394.5Z" fill="#33AEDF"/>
<path d="M391.7 184.6H394.3C394.4 184.6 394.4 184.7 394.4 184.7V187.4C394.4 187.5 394.3 187.5 394.3 187.5H391.7C391.6 187.5 391.6 187.4 391.6 187.4V184.7C391.6 184.7 391.6 184.6 391.7 184.6Z" fill="#33AEDF"/>
</svg>
