<svg width="255" height="267" viewBox="0 0 255 267" fill="none" xmlns="http://www.w3.org/2000/svg">
<path d="M202.3 99.9004H50.5996V186H202.3V99.9004Z" fill="white"/>
<path d="M200.998 186V152.5C200.998 152.4 200.898 152.3 200.798 152.3C200.198 152.3 199.698 152.3 199.198 152.3C193.598 152.5 188.598 148.4 187.098 143.1C186.798 141.9 186.598 140.5 186.698 138.8C186.698 137.3 186.698 135.8 186.698 134.3C186.698 132.8 186.798 131.4 187.098 130.2C188.298 125.9 191.798 122.4 196.198 121.3C197.598 121 199.198 120.9 200.698 121C200.798 121 200.898 120.9 200.898 120.8V102.3C200.898 102.1 200.798 102.1 200.698 102C191.398 101.1 182.398 101.4 173.698 102.8C165.098 104.2 156.798 106.7 148.898 110.4C147.198 111.2 145.598 112.2 143.898 113C143.298 113.3 142.598 113.7 141.998 114.1C138.998 116 136.098 118.1 133.498 120.5C131.398 122.3 129.398 124.7 127.398 126.9L125.498 128.9C125.398 129 125.298 129 125.198 128.9C124.598 128.1 123.998 127.4 123.198 126.8C120.198 123.2 117.398 120.4 114.698 118.3C107.598 112.9 99.6984 108.8 90.8984 106.1C85.9984 104.6 81.2984 103.5 76.8984 102.7C71.0984 101.8 65.1984 101.4 59.1984 101.4C56.1984 101.4 53.1984 101.6 49.9984 101.8C49.7984 101.8 49.6984 101.9 49.6984 102.1V120.7C49.6984 120.8 49.7984 120.9 49.8984 120.9C53.3984 120.7 56.6984 121.5 59.2984 123.8C62.5984 126.6 63.7984 130.2 63.6984 134.4C63.5984 137.2 63.8984 140.3 63.2984 142.9C62.0984 147.6 58.1984 151.1 53.3984 152C52.1984 152.2 50.9984 152.1 49.7984 152.1C49.6984 152.1 49.5984 152.2 49.5984 152.3V185.8H45.1984C45.0984 185.8 44.9984 185.7 44.9984 185.6V152.3C44.9984 152.2 44.9984 152.2 44.8984 152.2C37.7984 152.2 32.3984 146.7 32.3984 139.6C32.3984 137.4 32.3984 135.3 32.3984 133.1C32.3984 131.7 32.6984 130.1 33.1984 128.8C35.1984 123.8 39.4984 120.8 44.8984 120.7C44.9984 120.7 45.0984 120.6 45.0984 120.5V97.9C45.0984 97.8 45.1984 97.7 45.2984 97.7C57.0984 96.1 68.8984 96.4 80.5984 98.6C80.5984 98.6 80.6984 98.6 80.6984 98.5C79.4984 95.2 78.9984 91.5 78.3984 88.1C78.0984 86.2 77.8984 84.1 77.6984 82C77.3984 78.2 77.1984 74.3 76.8984 70.5C76.8984 69.8 76.7984 69.1 76.6984 68.4C76.5984 68 76.4984 67.7 76.0984 67.5C73.3984 66 70.9984 64.2 68.8984 62.1C65.2984 58.4 63.0984 53.2 62.9984 48.1C62.8984 45.2 63.6984 41.9 65.0984 39.4C67.5984 34.9 72.0984 32.2 77.0984 31.5C77.9984 31.4 79.0984 31.3 80.2984 31.4C81.4984 31.4 82.5984 31.6 83.5984 31.8C87.0984 32.5 90.5984 33.8 93.8984 35.6C93.9984 35.7 94.0984 35.6 94.0984 35.5C94.4984 21.9 105.698 11.3 118.798 9.40002C118.898 9.40002 118.998 9.30001 118.898 9.20001C116.998 6.20001 118.198 2.60005 120.998 0.800049C121.898 0.300049 122.898 0 124.098 0C128.798 0.1 131.598 5.20001 128.998 9.20001V9.30005C135.298 10.3 140.698 12.9 145.098 17C150.498 22 153.398 28.2 153.798 35.4C153.798 35.5 153.898 35.5 153.898 35.5C157.898 33.4 161.798 32.1 165.498 31.5C167.098 31.3 168.798 31.2 170.498 31.5C174.198 32 177.398 33.5 180.098 36.1C182.098 38.1 183.498 40.8 184.198 43.6C184.598 45.3 184.798 47.1 184.698 49C184.098 57.3 178.698 64 171.398 67.7C171.298 67.8 171.198 67.8 171.198 67.9C170.998 68.7 170.898 69.5 170.798 70.4C170.498 74.8 170.198 79.2 169.798 83.6C169.398 88.8 168.398 94 166.898 99.2C166.898 99.3 166.898 99.4 166.998 99.3C179.598 96.7001 192.198 96.2 204.998 97.9C205.098 97.9 205.198 98 205.198 98.1V120.7C205.198 120.8 205.298 120.9 205.398 120.9C211.098 121 215.698 124.6 217.298 130C217.698 131.3 217.798 132.7 217.798 134.4C217.698 137.4 218.098 140.6 217.298 143.4C215.798 148.7 211.098 152.4 205.398 152.4C205.298 152.4 205.198 152.5 205.198 152.6V185.9C205.198 186 205.098 186.1 204.998 186.1L200.998 186ZM109.498 17.8C103.498 21.5 99.0984 28 98.6984 35.2C98.5984 36.2 98.6984 37.1 98.7984 38C98.7984 38.1 98.8984 38.2 98.9984 38.2H149.098C149.198 38.2 149.298 38.1 149.298 38C149.498 31.7 147.598 26.4 143.498 22C134.698 12.7 120.398 11.1 109.498 17.8ZM153.298 41.7C150.698 53.4 140.698 61.4 129.198 63.2C122.098 64.3 115.398 63.2 108.998 60C101.798 56.3 96.3984 49.6 94.5984 41.7C94.5984 41.6 94.4984 41.5 94.3984 41.4C91.4984 39.5 88.5984 38.1 85.5984 37.2C81.3984 35.8 76.0984 35.5 72.2984 38.3C67.2984 41.9 66.3984 48.4 68.7984 54C70.6984 58.6 74.6984 62.2001 79.2984 64.3C79.8984 64.6001 80.3984 65.2 80.5984 65.9C80.9984 67.4 81.2984 68.8 81.3984 70.2C81.5984 74.1 81.8984 78.1 82.1984 82.2C82.5984 88.2 83.6984 94.3 85.6984 99.9C85.6984 100 85.7984 100.1 85.8984 100.1C100.798 103.8 114.998 110.8 125.098 122.2C125.198 122.3 125.298 122.3 125.298 122.2C131.798 115 139.498 109.4 148.498 105.5C152.798 103.6 157.098 102 161.498 100.8C161.598 100.8 161.698 100.7 161.698 100.6C163.798 94.9 164.898 88.8 165.398 82.7C165.698 78.8 165.998 74.8 166.198 70.4C166.298 69.1 166.598 64.9 168.098 64.3C170.498 63.2001 172.598 61.8 174.398 60.1C178.698 56.1 181.198 50.1 179.598 44.3C177.998 38.6 172.898 35.7 167.198 36.1C162.298 36.5 157.498 38.6 153.298 41.3C153.398 41.5 153.398 41.6 153.298 41.7ZM99.7984 43.1C101.498 47.5 104.198 51 107.898 53.8C117.998 61.3 132.098 60.8 141.598 52.6C144.598 50 146.798 46.8 148.098 43.1C148.098 43 148.098 42.9 147.998 42.9H99.8984C99.7984 42.8 99.6984 42.9 99.7984 43.1ZM59.1984 133.4C59.1984 129.1 55.6984 125.5 51.3984 125.5H44.9984C40.6984 125.5 37.0984 129 37.0984 133.3V139.9C37.0984 144.2 40.5984 147.8 44.8984 147.8H51.2984C55.5984 147.8 59.1984 144.3 59.1984 140V133.4ZM213.298 133.4C213.298 129.1 209.798 125.6 205.498 125.6H198.998C194.698 125.6 191.198 129.1 191.198 133.4V140.1C191.198 144.4 194.698 147.9 198.998 147.9H205.498C209.798 147.9 213.298 144.4 213.298 140.1V133.4Z" fill="#231F20"/>
<path d="M98.7 35.2007C99.2 28.0007 103.6 21.6008 109.5 17.8008C120.3 11.1008 134.6 12.7007 143.4 22.0007C147.5 26.4007 149.4 31.7007 149.2 38.0007C149.2 38.1007 149.1 38.2007 149 38.2007H98.9C98.8 38.2007 98.7 38.1007 98.7 38.0007C98.6 37.1007 98.6 36.2007 98.7 35.2007Z" fill="#D01F25"/>
<path d="M129.2 63.2005C140.7 61.4005 150.7 53.4005 153.3 41.7005C153.3 41.6005 153.4 41.5006 153.5 41.4006C157.7 38.7006 162.5 36.5005 167.4 36.2005C173.1 35.8005 178.3 38.7006 179.8 44.4005C181.4 50.1005 178.9 56.1005 174.6 60.2005C172.8 61.9005 170.7 63.3006 168.3 64.4006C166.8 65.1006 166.5 69.2005 166.4 70.5005C166.2 74.8005 165.9 78.9006 165.6 82.8006C165.1 88.8006 164 95.0005 161.9 100.701C161.9 100.801 161.8 100.901 161.7 100.901C157.4 102.101 153.1 103.701 148.7 105.601C139.7 109.501 132 115.101 125.5 122.301C125.4 122.401 125.3 122.401 125.3 122.301C115.2 110.901 101.1 103.901 86.0995 100.201C85.9995 100.201 85.8995 100.101 85.8995 100.001C83.8995 94.3005 82.7995 88.2006 82.3995 82.3006C82.0995 78.2006 81.7995 74.2006 81.5995 70.3006C81.4995 68.9006 81.1995 67.4005 80.7995 66.0005C80.5995 65.3005 80.1995 64.7006 79.4995 64.4006C74.8995 62.3006 70.8995 58.7006 68.9995 54.1006C66.5995 48.5006 67.4995 42.0006 72.4995 38.4006C76.2995 35.7006 81.4995 36.0006 85.7995 37.3006C88.7995 38.3006 91.6995 39.7005 94.5995 41.5005C94.6995 41.6005 94.7995 41.7006 94.7995 41.8006C96.5995 49.7006 102 56.4006 109.2 60.1006C115.4 63.3006 122.1 64.3005 129.2 63.2005ZM108.6 74.0005C108.6 71.1005 106.2 68.7005 103.3 68.7005C100.4 68.7005 97.9995 71.1005 97.9995 74.0005C97.9995 76.9005 100.4 79.3006 103.3 79.3006C106.3 79.3006 108.6 76.9005 108.6 74.0005ZM149.9 74.0005C149.9 71.1005 147.5 68.7005 144.6 68.7005C141.7 68.7005 139.3 71.1005 139.3 74.0005C139.3 76.9005 141.7 79.3006 144.6 79.3006C147.6 79.3006 149.9 76.9005 149.9 74.0005ZM124.1 105.001C125.2 105.801 126.5 106.201 128.1 106.301C132.5 106.501 137.6 104.601 140.9 102.101C141.3 101.801 141.7 101.401 142.1 101.001C142.2 100.901 142.2 100.801 142.1 100.801L139.7 98.4006C139.6 98.3006 139.6 98.3006 139.5 98.4006C136.7 101.401 131.5 102.701 127.7 102.501C127 102.401 125.9 102.101 125.9 101.201C125.9 99.4005 125.9 97.6005 125.9 95.7005C125.9 95.6005 125.9 95.5005 126 95.4006C127.7 94.0005 129.5 92.4006 131.3 90.8006C133.1 89.2006 132.5 87.1006 130.2 86.6006C129.7 86.5006 129.2 86.5005 128.7 86.5005C125.3 86.5005 122 86.5005 118.9 86.5005C117.1 86.5005 115.1 87.1006 115.6 89.3006C115.7 89.8006 116.1 90.2006 116.7 90.8006C118.6 92.5006 120.4 94.0005 122 95.4006C122.1 95.5005 122.1 95.5006 122.1 95.6006C122.1 97.4006 122.1 99.1006 122.1 100.801C122.1 101.101 122 101.501 121.9 101.801C121.9 101.901 121.8 101.901 121.7 102.001C121.2 102.301 120.7 102.501 120.2 102.501C116 102.701 112.3 101.501 109.1 99.1006C108.9 98.9006 108.7 98.7006 108.5 98.4006C108.4 98.3006 108.4 98.3006 108.3 98.4006L105.9 100.801C105.8 100.901 105.8 101.001 105.9 101.101C109.3 104.801 119.2 108.501 123.7 105.101C123.9 104.901 124 104.901 124.1 105.001Z" fill="#C7990B"/>
<path d="M99.799 43.1004C99.699 42.9004 99.799 42.9004 99.999 42.9004H148.099C148.199 42.9004 148.199 43.0004 148.199 43.1004C146.799 46.9004 144.599 50.1004 141.699 52.6004C132.199 60.8004 118.199 61.3004 107.999 53.8004C104.199 51.0004 101.499 47.5004 99.799 43.1004Z" fill="#D01F25"/>
<path d="M108.572 74.8952C109.041 72.0059 107.079 69.2834 104.19 68.8145C101.3 68.3456 98.5777 70.3077 98.1088 73.1971C97.6399 76.0864 99.602 78.8088 102.491 79.2778C105.381 79.7467 108.103 77.7846 108.572 74.8952Z" fill="#231F20"/>
<path d="M144.599 79.3002C147.526 79.3002 149.899 76.9273 149.899 74.0002C149.899 71.0731 147.526 68.7002 144.599 68.7002C141.672 68.7002 139.299 71.0731 139.299 74.0002C139.299 76.9273 141.672 79.3002 144.599 79.3002Z" fill="#231F20"/>
<path d="M123.799 105C119.299 108.4 109.399 104.6 105.999 101C105.899 100.9 105.899 100.8 105.999 100.7L108.399 98.3004C108.499 98.2004 108.599 98.2004 108.599 98.3004C108.699 98.5004 108.899 98.8004 109.199 99.0004C112.399 101.5 116.099 102.6 120.299 102.4C120.799 102.4 121.399 102.2 121.799 101.9C121.899 101.9 121.899 101.8 121.999 101.7C122.199 101.3 122.199 101 122.199 100.7C122.199 99.0004 122.199 97.3004 122.199 95.5004C122.199 95.4004 122.199 95.3004 122.099 95.3004C120.499 93.9004 118.699 92.4004 116.799 90.7004C116.199 90.2004 115.799 89.7004 115.699 89.2004C115.199 87.0004 117.199 86.4004 118.999 86.4004C122.099 86.4004 125.399 86.4004 128.799 86.4004C129.299 86.4004 129.799 86.4004 130.299 86.5004C132.599 86.9004 133.199 89.1004 131.399 90.7004C129.599 92.3004 127.799 93.8004 126.099 95.3004C125.999 95.4004 125.999 95.5004 125.999 95.6004C125.999 97.5004 125.999 99.4004 125.999 101.1C125.999 102 127.099 102.4 127.799 102.4C131.599 102.7 136.799 101.4 139.599 98.3004C139.699 98.2004 139.699 98.2004 139.799 98.3004L142.199 100.7C142.299 100.8 142.299 100.9 142.199 100.9C141.799 101.3 141.499 101.7 140.999 102C137.599 104.5 132.599 106.4 128.199 106.2C126.599 106.1 125.299 105.7 124.199 104.9C123.999 104.9 123.899 104.9 123.799 105Z" fill="#231F20"/>
<path d="M76.8992 102.9V185.801C76.8992 185.901 76.7992 186 76.6992 186H49.6992V152.5C49.6992 152.4 49.7992 152.301 49.8992 152.301C51.0992 152.301 52.2992 152.4 53.4992 152.2C58.2992 151.3 62.1992 147.901 63.3992 143.101C64.0992 140.501 63.7992 137.401 63.7992 134.601C63.8992 130.401 62.5992 126.8 59.3992 124C56.6992 121.7 53.4992 120.901 49.9992 121.101C49.8992 121.101 49.7992 121.1 49.7992 120.9V102.301C49.7992 102.101 49.8992 102 50.0992 102C53.2992 101.7 56.3992 101.601 59.2992 101.601C65.1992 101.501 71.0992 102 76.8992 102.9Z" fill="#D01F25"/>
<path d="M200.999 186H173.799C173.699 186 173.699 186.001 173.699 185.901V102.901C182.399 101.501 191.499 101.201 200.699 102.101C200.899 102.101 200.899 102.201 200.899 102.401V120.901C200.899 121.001 200.799 121.101 200.699 121.101C199.099 121.001 197.599 121.101 196.199 121.401C191.799 122.401 188.299 125.901 187.099 130.301C186.799 131.501 186.599 132.901 186.699 134.401C186.699 135.901 186.699 137.401 186.699 138.901C186.699 140.501 186.799 142 187.099 143.2C188.499 148.4 193.499 152.501 199.199 152.401C199.699 152.401 200.299 152.401 200.799 152.401C200.899 152.401 200.999 152.501 200.999 152.601V186Z" fill="#D01F25"/>
<path d="M44.9997 125.5H51.3997C55.6997 125.5 59.2997 129 59.1997 133.4V140C59.1997 144.3 55.6997 147.9 51.2997 147.8H44.8997C40.5997 147.8 36.9997 144.3 37.0997 139.9V133.3C37.0997 129 40.5997 125.5 44.9997 125.5Z" fill="#C7990B"/>
<path d="M199.099 125.5H205.599C209.899 125.5 213.399 129 213.399 133.3V140C213.399 144.3 209.899 147.8 205.599 147.8H199.099C194.799 147.8 191.299 144.3 191.299 140V133.3C191.299 129 194.799 125.5 199.099 125.5Z" fill="#C7990B"/>
<path d="M127.4 127C128.7 129.6 130.1 132.2 131.4 134.8C131.7 135.3 132 135.7 132.3 135.8C132.8 136 133.3 136 133.8 135.6C135.4 134.5 136.9 133.3 138.4 132.2C138.6 132.1 138.6 132.1 138.6 132.3C137.5 138.9 136.4 145.5 135.4 152.1C135.1 153.8 137.1 154.1 137.9 153C140.8 149.3 143.7 145.6 146.6 141.8C146.6 141.7 146.7 141.7 146.8 141.8C146.8 141.8 146.8 141.8 146.8 141.9C147.3 143.8 147.8 145.7 148.2 147.5C148.4 148.5 149.5 148.8 150.4 148.8C153.7 148.6 157 148.4 160.3 148.2C160.4 148.2 160.4 148.2 160.4 148.3C159.3 151.3 158.1 154.4 157 157.5C156.7 158.3 156.8 159.3 157.5 159.8C159.1 160.9 160.6 161.9 162.1 162.9C162.2 163 162.2 163.1 162.1 163.2C156.1 167.5 150.2 171.8 144.3 176C143.1 176.9 142.8 178.3 143.3 179.7C144 181.4 144.5 183 145.1 184.5V184.6L126.9 182C126.8 182 126.8 182 126.8 182.1L126.7 186.1C126.7 186.1 126.7 186.2 126.6 186.2H123.9C123.9 186.2 123.8 186.2 123.8 186.1V182.1C123.8 182 123.7 182 123.6 182L105.3 184.6C105.2 184.6 105.2 184.6 105.2 184.5C105.2 184.5 105.2 184.5 105.2 184.4C105.7 183 106.3 181.4 107 179.7C107.6 178.3 107.1 176.9 105.9 176C99.8995 171.7 93.8995 167.4 87.9995 163.1C87.9995 163.1 87.8995 163 87.9995 163C89.5995 161.9 91.0995 160.9 92.5995 159.9C93.2995 159.4 93.4995 158.7 93.1995 157.8C92.0995 154.7 90.9995 151.6 89.7995 148.5C89.7995 148.4 89.7995 148.3 89.8995 148.3C89.8995 148.3 89.8995 148.3 89.9995 148.3C93.0995 148.5 96.3995 148.7 99.8995 148.9C101 149 102 148.4 102.2 147.4C102.6 145.5 103 143.7 103.5 142C103.5 141.9 103.6 141.9 103.6 141.9C103.6 141.9 103.6 141.9 103.7 141.9C106.6 145.6 109.5 149.3 112.5 153.1C113.4 154.2 115.3 153.9 115 152.2C113.9 145.6 112.9 139 111.8 132.5C111.8 132.3 111.8 132.3 112 132.4C113.4 133.5 115 134.6 116.6 135.8C117.2 136.2 117.9 136.3 118.5 135.9C118.7 135.8 118.9 135.5 119.1 135.1C120.5 132.5 121.8 129.8 123.1 127.2C123.9 127.7 124.5 128.4 125.1 129.3C125.2 129.4 125.3 129.4 125.4 129.3L127.4 127Z" fill="#D01F25"/>
<path d="M4.39999 194.9C4.29999 194.5 4.2 194.5 4.2 194.9V229C4.2 229.1 4.1 229.2 4 229.2H0.199997C0.0999969 229.2 0 229.1 0 229V190.1C0 190 0.0999969 189.9 0.199997 189.9H6.7C6.8 189.9 7 190 7 190.1C11 201 14.8 211.7 18.7 222.3C18.7 222.4 18.7 222.4 18.8 222.4H18.9L30.7 190L30.8 189.9H37.4C37.5 189.9 37.6 190 37.6 190.1V229C37.6 229.2 37.5 229.2 37.4 229.2H33.3C33.2 229.2 33.1 229.1 33.1 229V195C33.1 194.6 33 194.6 32.9 195L20.3 229.1C20.3 229.2 20.2 229.3 20.1 229.3H17C16.9 229.3 16.9 229.3 16.9 229.2L4.39999 194.9Z" fill="#231F20"/>
<path d="M105.299 189.9H109.499C109.499 189.9 109.599 189.9 109.599 190V229.1C109.599 229.1 109.599 229.2 109.499 229.2H105.299C105.299 229.2 105.199 229.2 105.199 229.1L105.299 189.9Z" fill="#231F20"/>
<path d="M168.798 209.4C172.698 210.5 175.898 213.5 176.398 217.6C176.998 222.8 175.098 227.3 169.898 229.1C167.598 229.9 165.398 230.2 162.998 230.3C158.298 230.3 153.398 230.3 148.498 230.3C148.398 230.3 148.398 230.3 148.398 230.2V191.2C148.398 191.1 148.498 191 148.598 191C153.598 191 158.698 191 163.798 191C170.098 191 175.598 194.2 175.498 201.2C175.398 205.2 172.698 208.1 168.998 209.3C168.598 209.3 168.598 209.3 168.798 209.4ZM153.198 195V207.6C153.198 207.7 153.198 207.7 153.298 207.7H163.398C167.098 207.7 170.198 205 170.198 201.7V200.9C170.198 197.6 167.098 194.9 163.398 194.9L153.198 195ZM170.798 222.1C171.498 220.6 171.598 219 171.198 217.2C170.198 212.9 165.998 211.5 162.098 211.5C159.098 211.5 156.198 211.5 153.298 211.5C153.198 211.5 153.098 211.6 153.098 211.7V226C153.098 226.1 153.098 226.1 153.198 226.1C156.298 226.1 159.498 226.1 162.798 226.1C165.898 226 169.498 225 170.798 222.1Z" fill="#231F20"/>
<path d="M63.6999 224.1C63.6999 223.9 63.5999 223.8 63.4999 224C60.6999 228.8 55.2999 230.8 49.9999 229.1C45.3999 227.7 42.9999 223.5 43.8999 218.9C44.9999 213.4 51.0999 211.7 55.8999 211.2C58.3999 210.9 60.9999 211 63.3999 211C63.4999 211 63.5999 210.9 63.5999 210.8C63.7999 207.5 63.0999 204 59.3999 203.1C57.4999 202.7 55.6999 202.6 53.8999 202.9C51.0999 203.4 49.4999 205 48.8999 207.6C48.8999 207.7 48.7999 207.8 48.5999 207.8L44.6999 207.2C44.5999 207.2 44.4999 207.1 44.5999 207C45.5999 202.5 48.8999 200.3 53.1999 199.5C58.3999 198.6 65.0999 198.9 67.0999 204.9C67.6999 206.6 67.8999 208.6 67.8999 210.8C67.8999 215.3 67.8999 219.8 67.8999 224.2C67.8999 225.4 68.0999 226.9 68.5999 228.8C68.5999 228.9 68.5999 229 68.4999 229H64.3999C64.2999 229 64.2999 229 64.1999 228.9C63.8999 227.5 63.6999 225.8 63.6999 224.1ZM60.8999 223.2C63.0999 220.8 63.8999 217.9 63.6999 214.6C63.6999 214.5 63.5999 214.4 63.4999 214.4C61.0999 214.3 58.6999 214.3 56.2999 214.6C52.7999 215 48.5999 216.7 48.5999 220.9C48.5999 224 50.6999 225.8 53.6999 226.1C56.5999 226.3 58.9999 225.3 60.8999 223.2Z" fill="#231F20"/>
<path d="M79.5992 225V239C79.5992 239.1 79.4992 239.2 79.3992 239.2H75.3992C75.2992 239.2 75.1992 239.1 75.1992 239V200.3C75.1992 200.2 75.2992 200.1 75.3992 200.1H79.0992C79.1992 200.1 79.2992 200.2 79.2992 200.3V205.1C79.2992 205.3 79.3992 205.3 79.4992 205.1C80.9992 202.3 83.3992 199.8 86.6992 199.3C94.9992 198.2 98.9992 205.8 99.2992 212.9C99.3992 215.1 99.2992 217.1 98.8992 218.9C98.0992 223.4 95.0992 228.2 90.3992 229.4C88.4992 229.9 86.5992 229.8 84.5992 229C82.6992 228.3 81.0992 226.9 79.7992 224.9C79.6992 224.7 79.5992 224.7 79.5992 225ZM84.7992 225.5C88.0992 226.3 90.6992 225.4 92.3992 222.9C94.3992 220 94.7992 216.3 94.4992 212.8C94.2992 210 93.4992 206.8 91.3992 204.8C89.1992 202.7 85.7992 202.6 83.2992 204.3C81.0992 205.8 79.5992 208.6 79.5992 211.2C79.5992 212.7 79.5992 214.3 79.4992 216.1C79.4992 217.7 79.5992 219.1 79.8992 220.2C80.5992 222.6 82.3992 224.9 84.7992 225.5Z" fill="#231F20"/>
<path d="M120.199 215.101C120.199 218.501 120.999 222.001 123.599 224.301C126.199 226.601 130.499 226.701 133.399 224.701C134.799 223.701 135.899 222.401 136.599 220.701C136.699 220.501 136.799 220.401 136.999 220.501L140.799 221.201C140.899 221.201 140.999 221.301 140.999 221.401C138.599 227.201 134.199 230.001 127.799 229.801C124.699 229.701 121.999 228.601 119.799 226.401C115.699 222.301 114.899 215.901 115.899 210.401C116.799 205.301 120.399 200.601 125.499 199.501C131.899 198.101 138.099 201.101 140.299 207.401C141.099 209.701 141.399 212.101 141.299 214.701C141.299 214.801 141.199 214.801 141.099 214.801H120.499C120.299 214.901 120.199 215.001 120.199 215.101ZM136.499 211.501C136.399 205.801 132.399 201.801 126.499 203.201C122.499 204.201 120.699 207.601 120.199 211.501C120.199 211.601 120.199 211.701 120.399 211.701H136.299C136.499 211.701 136.499 211.601 136.499 211.501Z" fill="#231F20"/>
<path d="M184.499 215.101C184.499 216.901 184.699 218.601 185.199 220.101C185.899 222.301 187.799 224.701 189.999 225.501C194.499 227.101 198.999 225.101 200.899 220.601C200.999 220.401 201.099 220.301 201.299 220.401L204.899 221.101C205.099 221.101 205.099 221.201 205.099 221.401C202.799 227.401 197.799 230.201 191.399 229.801C181.199 229.101 178.499 218.001 180.299 209.801C181.299 204.901 184.699 200.701 189.699 199.601C191.499 199.201 193.499 199.101 195.499 199.501C200.599 200.401 204.099 204.601 205.199 209.601C205.599 211.301 205.699 213.101 205.699 214.801C205.699 214.901 205.599 215.001 205.499 215.001H184.699C184.499 214.901 184.499 215.001 184.499 215.101ZM191.399 203.001C187.099 203.701 185.099 207.401 184.599 211.501C184.599 211.601 184.599 211.701 184.699 211.701H200.599C200.699 211.701 200.699 211.701 200.699 211.601C200.599 206.101 197.199 202.101 191.399 203.001Z" fill="#231F20"/>
<path d="M228.8 224.301C228.7 224.501 228.6 224.701 228.5 224.901C225.7 228.901 221.7 230.401 216.5 229.501C214.6 229.201 212.9 228.201 211.4 226.601C209.2 224.301 208.8 220.501 209.9 217.601C211.6 213.001 217.4 211.701 221.7 211.201C224.1 210.901 226.5 211.001 228.9 211.001C229 211.001 229.1 210.901 229.1 210.801C229.4 206.401 228.3 203.301 223.4 202.801C219.4 202.401 215.5 203.201 214.4 207.601C214.4 207.701 214.3 207.801 214.2 207.701L210.4 207.101C210.3 207.101 210.3 207.001 210.3 206.901C211.2 202.601 214.4 200.201 218.6 199.501C219.6 199.301 220.7 199.201 221.9 199.101C225.9 198.801 230.4 199.801 232.2 203.601C233.1 205.401 233.5 207.501 233.5 209.701C233.5 214.401 233.5 219.001 233.6 223.601C233.6 225.401 233.9 227.201 234.4 228.801C234.4 228.901 234.4 229.001 234.3 229.001H230.2C230.1 229.001 230 228.901 229.9 228.801C229.6 227.201 229.4 225.701 229.3 224.301C229.1 223.901 229 223.901 228.8 224.301ZM222.6 214.401C218.6 214.701 213.3 216.601 214.2 221.801C214.6 224.001 215.9 225.301 218.3 225.801C221.3 226.401 223.9 225.601 226 223.501C228 221.501 229 219.301 229.1 216.701C229.1 216.001 229.1 215.301 229.1 214.501C229.1 214.401 229 214.301 228.9 214.301C226.9 214.201 224.8 214.301 222.6 214.401Z" fill="#231F20"/>
<path d="M245 205.9C246.7 201.5 249.6 198.7 254.6 199.3C254.7 199.3 254.8 199.4 254.8 199.5V203.5C254.8 203.6 254.7 203.7 254.6 203.7C247.8 203.6 245.1 208.7 245 214.7C245 219.6 245 224.4 245 229C245 229.1 244.9 229.2 244.8 229.2H240.8C240.7 229.2 240.6 229.1 240.6 229V200.3C240.6 200.2 240.7 200.1 240.8 200.1H244.7C244.8 200.1 244.9 200.2 244.9 200.3V205.9C244.9 206.1 244.9 206.1 245 205.9Z" fill="#231F20"/>
<path d="M51.8985 254.5C50.9985 251.5 48.5985 250.5 45.5985 251.3C43.6985 251.8 42.5985 253.1 42.0985 254.9C41.4985 257.4 41.5985 259.7 42.3985 261.7C43.0985 263.5 44.5985 264.5 46.4985 264.7C49.3985 264.9 51.1985 263.5 52.0985 260.5C52.0985 260.4 52.0985 260.4 52.1985 260.4L54.3985 260.9L54.4985 261C53.3985 265.1 50.6985 267 46.2985 266.6C42.9985 266.4 40.9985 264.8 39.8985 261.7C38.9985 259.2 38.8985 256.2 39.8985 253.8C41.3985 250.3 44.0985 248.7 48.1985 249C51.1985 249.2 53.1985 250.8 54.0985 253.9C54.0985 253.9 54.0985 254 53.9985 254L51.8985 254.5Z" fill="#231F20"/>
<path d="M155.098 262.6C155.798 261 154.498 259.6 152.798 259.2C151.498 258.9 150.198 258.5 148.698 258.1C146.998 257.6 145.398 256.8 144.698 255.1C144.298 254.1 144.298 253.2 144.698 252.2C145.898 249 149.398 248.6 152.398 249.1C153.498 249.3 154.398 249.7 155.198 250.3C156.298 251.2 156.898 252.4 156.998 254C156.598 254.1 155.898 254.2 154.798 254.3C154.598 252.4 153.498 251.3 151.598 251.1C149.998 250.9 147.598 251.1 146.998 252.8C146.198 254.7 147.898 255.5 149.398 255.9C150.598 256.2 151.798 256.5 152.798 256.8C154.198 257.1 155.598 257.7 156.598 258.8C157.698 260.2 157.898 261.7 157.198 263.5C155.898 266.7 151.698 267 148.898 266.5C145.998 266 144.298 264.2 143.898 261.3C143.898 261.1 143.998 261 144.198 260.9L145.898 260.7C146.098 260.7 146.198 260.8 146.198 260.9C146.398 262.8 147.698 264 149.598 264.4C151.298 264.8 154.198 264.6 155.098 262.6Z" fill="#231F20"/>
<path d="M102.299 265.201C101.299 266.401 99.8989 266.901 98.0989 266.601C95.8989 266.301 94.4989 264.901 93.8989 262.401C93.2989 260.101 93.5989 256.701 95.2989 255.001C97.0989 253.301 100.199 253.001 101.999 255.001C102.099 255.101 102.199 255.101 102.199 254.901V249.301C102.199 249.101 102.299 249.101 102.399 249.101H104.099C104.299 249.101 104.299 249.201 104.299 249.301V266.101C104.299 266.301 104.199 266.401 103.999 266.401H102.499C102.299 266.401 102.299 266.301 102.299 266.201V265.201C102.399 265.101 102.399 265.101 102.299 265.201ZM100.199 255.801C98.1989 255.001 96.5989 256.201 96.0989 258.101C95.7989 259.501 95.7989 260.901 96.0989 262.301C96.4989 263.801 97.8989 265.101 99.4989 264.901C102.899 264.501 102.799 259.801 101.999 257.601C101.599 256.701 100.999 256.101 100.199 255.801Z" fill="#231F20"/>
<path d="M107.1 249.2H109.1C109.2 249.2 109.2 249.3 109.2 249.3V251.6C109.2 251.7 109.1 251.7 109.1 251.7H107.1C107 251.7 107 251.6 107 251.6V249.3C107 249.2 107.1 249.2 107.1 249.2Z" fill="#231F20"/>
<path d="M173.398 255.1C174.498 254 175.798 253.5 177.498 253.7C180.598 254 181.198 256 181.098 258.7C181.098 261.6 181.098 264.2 181.098 266.4C181.098 266.5 181.098 266.5 180.998 266.5H179.098C178.998 266.5 178.998 266.5 178.998 266.4C178.998 263.2 178.998 260.5 178.998 258.3C178.898 256 176.898 255 174.898 256C173.798 256.6 173.198 257.6 173.198 259.1C173.198 261.7 173.198 264.1 173.198 266.4C173.198 266.5 173.198 266.5 173.098 266.5H170.998C170.898 266.5 170.898 266.5 170.898 266.4V249.3C170.898 249.2 170.898 249.2 170.998 249.2H173.098C173.198 249.2 173.198 249.2 173.198 249.3V255.1C173.198 255.3 173.198 255.3 173.398 255.1Z" fill="#231F20"/>
<path d="M209.1 249.2H211C211.1 249.2 211.1 249.2 211.1 249.3V266.4C211.1 266.5 211.1 266.5 211 266.5H209.1C209 266.5 209 266.5 209 266.4V249.3C209 249.2 209.1 249.2 209.1 249.2Z" fill="#231F20"/>
<path d="M64.2986 258.3C64.3986 255.9 62.4986 255.4 60.5986 255.6C59.2986 255.7 58.4986 256.5 58.1986 257.8C58.1986 257.9 58.0986 257.9 58.0986 257.9L56.0986 257.6C56.0986 257.6 55.9986 257.6 55.9986 257.5C56.2986 255.9 56.9986 254.8 58.2986 254.3C59.8986 253.7 61.7986 253.5 63.6986 254C65.2986 254.3 66.2986 255.7 66.2986 257.3C66.1986 259.4 66.2986 261.5 66.3986 263.7C66.3986 264.7 66.5986 265.5 66.9986 266.2C67.0986 266.4 66.9986 266.5 66.7986 266.5H64.9986C64.7986 266.5 64.6986 266.4 64.5986 266.2L64.2986 265.2C64.2986 265.1 64.1986 265 64.0986 265.1C62.3986 266.5 60.8986 266.8 58.6986 266.6C55.8986 266.3 54.3986 263.1 56.2986 260.9C57.3986 259.6 59.1986 259.3 60.7986 259.2C61.7986 259.1 62.8986 258.9 63.9986 258.6C64.1986 258.5 64.2986 258.4 64.2986 258.3ZM59.5986 264.9C61.1986 265.2 62.4986 264.7 63.4986 263.6C64.2986 262.7 64.1986 261.5 64.2986 260.4C64.2986 260.3 64.2986 260.3 64.1986 260.3C62.8986 260.7 61.5986 260.9 60.2986 261.1C59.5986 261.2 58.8986 261.4 58.3986 261.9C57.6986 262.5 57.7986 263.7 58.3986 264.3C58.6986 264.6 59.0986 264.8 59.5986 264.9Z" fill="#231F20"/>
<path d="M71.0984 255.4C72.2984 254 73.8984 253.4 76.0984 253.8C78.5984 254.2 79.1984 256.1 79.0984 258.4C79.0984 261.2 79.0984 263.9 79.0984 266.3C79.0984 266.4 79.0984 266.4 78.9984 266.4H76.9984C76.9984 266.4 76.8984 266.4 76.8984 266.3C76.8984 263.5 76.8984 260.8 76.8984 258.2C76.8984 256.3 75.9984 255.4 74.0984 255.5C71.7984 255.7 71.1984 257.6 71.1984 259.6C71.1984 261.9 71.1984 264.1 71.1984 266.3C71.1984 266.3 71.1984 266.4 71.0984 266.4H68.9984C68.9984 266.4 68.8984 266.4 68.8984 266.3V254.1C68.8984 253.9 68.9984 253.8 69.1984 253.8H70.4984C70.6984 253.8 70.8984 253.9 70.8984 254.2V255.3C70.8984 255.6 70.9984 255.6 71.0984 255.4Z" fill="#231F20"/>
<path d="M89.5995 265.101C88.0995 266.601 86.1995 266.801 84.0995 266.601C82.3995 266.401 81.0995 265.301 80.9995 263.501C80.7995 260.601 83.2995 259.401 85.7995 259.201C86.9995 259.101 88.1995 258.901 89.3995 258.501C89.4995 258.501 89.5995 258.401 89.5995 258.301C89.6995 257.001 89.1995 255.901 87.8995 255.701C85.8995 255.301 84.0995 255.601 83.4995 257.901C83.4995 257.901 83.4995 258.001 83.3995 258.001L81.3995 257.701C81.2995 257.701 81.2995 257.701 81.2995 257.601C81.5995 256.401 82.1995 255.201 83.2995 254.601C85.0995 253.701 87.2995 253.701 89.1995 254.101C90.8995 254.501 91.6995 255.601 91.7995 257.301C91.7995 259.201 91.8995 261.401 91.7995 263.901C91.7995 264.801 91.9995 265.601 92.3995 266.301C92.4995 266.501 92.4995 266.601 92.1995 266.601H90.4995C90.2995 266.601 90.1995 266.501 90.0995 266.301C89.9995 266.001 89.8995 265.601 89.7995 265.301C89.7995 265.001 89.6995 265.001 89.5995 265.101ZM89.3995 260.301C88.0995 260.701 86.7995 260.901 85.3995 261.101C84.5995 261.201 83.3995 261.801 83.3995 262.701C83.2995 263.801 83.7995 264.401 84.7995 264.801C85.8995 265.201 87.0995 265.001 88.1995 264.301C89.5995 263.401 89.6995 262.001 89.6995 260.501C89.5995 260.301 89.4995 260.301 89.3995 260.301Z" fill="#231F20"/>
<path d="M119.899 265.1C119.899 265 119.799 265 119.799 265C118.699 266 117.499 266.5 116.099 266.6C115.099 266.6 114.299 266.6 113.599 266.4C110.999 265.7 110.399 262.2 112.399 260.5C113.799 259.3 115.499 259.3 117.299 259.1C117.899 259.1 118.699 258.9 119.799 258.5C119.899 258.5 119.999 258.401 119.999 258.301C120.099 255.501 117.499 255.201 115.499 255.701C114.699 255.901 114.199 256.601 113.899 257.801C113.899 257.901 113.799 257.9 113.799 257.9L111.899 257.6C111.799 257.6 111.799 257.5 111.799 257.5C112.299 253.7 116.599 253.4 119.499 254C120.999 254.3 122.099 255.5 122.099 256.9C122.099 259.2 122.099 261.501 122.199 263.801C122.199 264.801 122.399 265.601 122.699 266.201C122.799 266.401 122.699 266.5 122.499 266.5H120.799C120.599 266.5 120.399 266.401 120.399 266.201L119.899 265.1ZM114.499 264.701C115.799 265.201 117.099 265 118.299 264.1C119.499 263.3 119.699 261.8 119.699 260.4C119.699 260.3 119.599 260.201 119.499 260.301C118.199 260.701 116.899 260.9 115.499 261.1C114.499 261.2 113.199 261.9 113.299 263.1C113.399 264 113.799 264.501 114.499 264.701Z" fill="#231F20"/>
<path d="M126.598 255.4C126.898 255.1 127.298 254.7 127.698 254.4C128.898 253.7 130.198 253.5 131.698 253.9C133.598 254.3 134.498 255.5 134.598 257.5C134.598 260.2 134.598 263.2 134.598 266.4C134.598 266.5 134.598 266.5 134.498 266.5H132.498C132.498 266.5 132.398 266.5 132.398 266.4C132.398 263.7 132.398 261.1 132.398 258.5C132.398 256.8 131.798 255.6 129.898 255.6C127.098 255.7 126.698 257.8 126.698 260.1C126.698 262.2 126.698 264.3 126.698 266.4C126.698 266.5 126.698 266.5 126.598 266.5H124.498C124.398 266.5 124.398 266.5 124.398 266.4V254.3C124.398 254.1 124.498 254 124.698 254H126.098C126.298 254 126.398 254.1 126.398 254.3V255.3C126.398 255.4 126.498 255.5 126.598 255.4Z" fill="#231F20"/>
<path d="M165.799 255.7C164.799 255.3 163.799 255.4 162.899 256C160.999 257.1 161.099 260.5 161.499 262.3C161.899 263.9 163.099 264.9 164.799 264.8C166.399 264.7 167.399 263.7 167.699 261.8C167.699 261.7 167.699 261.7 167.799 261.7L169.799 262C169.799 262 169.899 262 169.899 262.1C169.499 264.4 168.299 265.8 166.399 266.4C165.599 266.6 164.199 266.6 163.399 266.5C160.999 266 159.599 264.4 159.199 261.8C158.799 259.1 159.199 255.6 161.899 254.3C163.299 253.6 164.799 253.5 166.399 253.8C168.199 254.2 169.399 255.7 169.699 257.5C169.699 257.6 169.699 257.6 169.599 257.6L167.599 257.9C167.599 257.9 167.499 257.9 167.499 257.8C167.199 256.8 166.699 256 165.799 255.7Z" fill="#231F20"/>
<path d="M194.498 261.2C194.498 264.1 192.198 266.5 189.298 266.6H188.298C185.398 266.6 182.998 264.3 182.898 261.4V259.1C182.898 256.2 185.198 253.8 188.098 253.7H189.098C191.998 253.7 194.398 256 194.498 258.9V261.2ZM185.298 262C185.898 264.6 188.498 265.8 190.798 264.3C192.498 263.1 192.498 260 192.098 258.2C191.698 256.7 190.298 255.6 188.798 255.6C185.398 255.6 184.698 259.3 185.298 262Z" fill="#231F20"/>
<path d="M207.2 261.3C207.2 264.2 204.8 266.6 201.8 266.6H200.8C197.9 266.6 195.5 264.2 195.5 261.2V259C195.5 256.1 197.9 253.7 200.9 253.7H201.9C204.8 253.7 207.2 256.1 207.2 259.1V261.3ZM202.5 255.7C200.7 255.1 198.7 256.1 198.1 257.9C197.3 260.6 197.8 265 201.6 264.8C203.3 264.7 204.5 263.3 204.8 261.6C205.4 259.4 205 256.6 202.5 255.7Z" fill="#231F20"/>
<path d="M107.1 254H109.2C109.2 254 109.3 254 109.3 254.1V266.5C109.3 266.5 109.3 266.6 109.2 266.6H107.1C107.1 266.6 107 266.6 107 266.5L107.1 254Z" fill="#231F20"/>
</svg>
