<svg width="2775" height="1526" viewBox="0 0 2775 1526" fill="none" xmlns="http://www.w3.org/2000/svg">
<path d="M728.326 1522.24C727.28 1521.25 729.322 1506.46 732.859 1489.44C751.242 1401.13 757.519 1323.92 757.469 1187.22C757.419 1044.65 753.036 999.494 729.721 900.779C698.535 768.759 636.611 641.021 558.198 547.084C437.291 402.271 262.779 305.397 44.029 261.789L0.289062 253.028L31.4252 237.197C71.379 216.837 134.996 201.654 180.43 201.604C280.115 201.504 393.102 247.203 470.768 319.087C486.76 333.822 500.709 345.919 501.755 345.919C502.851 345.919 504.295 331.931 504.893 314.806C506.388 274.732 521.781 218.828 544.249 171.685C579.57 97.661 661.52 32.8959 750.046 9.0508C789.95 -1.75169 875.587 -2.74731 914.445 7.05955C1003.72 29.5606 1074.06 81.9302 1122.28 161.729C1162.69 228.585 1191.03 249.941 1258.44 264.428C1293.11 271.895 1304.47 272.293 1337.1 267.315C1358.07 264.129 1380.29 260.097 1386.42 258.354C1408.69 252.032 1405.35 285.286 1380.94 312.864C1350.7 347.014 1266.36 374.941 1220.08 366.13C1190.29 360.505 1170.51 353.187 1166.22 346.218C1159.85 335.913 1153.87 341.19 1148.39 362.098C1138.62 399.135 1109.83 453.147 1085.27 480.477C1039.14 531.752 985.535 556.493 919.477 557.09C845.298 557.787 792.989 533.992 750.594 480.427C721.003 442.992 708.598 406.602 708.1 355.875C707.452 282.398 732.112 238.84 789.253 212.556C839.718 189.407 901.841 207.13 924.309 251.136C938.557 279.013 937.76 316.847 922.416 343.032C909.563 364.935 878.477 385.744 858.649 385.744C852.023 385.744 842.259 388.93 836.929 392.813C827.364 399.832 827.413 400.081 837.526 413.97C850.529 431.841 886.647 450.459 908.317 450.459C958.035 450.459 995.249 427.261 1017.12 382.608C1028.48 359.41 1031.07 346.516 1032.86 304.302C1034.71 261.291 1033.41 249.643 1024.29 225.449C1008.8 184.429 976.418 150.877 930.536 128.227C896.411 111.351 887.942 109.31 846.444 107.717C768.927 104.879 711.039 130.666 664.21 188.91C630.583 230.776 619.374 262.635 616.684 324.513C612.25 424.175 640.746 501.236 725.636 619.715C851.475 795.243 910.908 914.916 931.682 1034.79C957.388 1183.09 914.694 1324.46 807.436 1446.08C775.155 1482.67 731.116 1525.08 728.326 1522.24Z" fill="#5DBF18"/>
<path d="M1072.58 1488.29C1055.19 1491.13 1053.89 1492.52 1053.89 1508.55V1525.72H1185.91H1317.93V1508.55C1317.93 1492.47 1316.68 1491.13 1299.25 1488.44C1239.57 1479.23 1221.13 1465.84 1212.51 1425.46C1208.03 1404.36 1200.21 980.223 1203.95 961.057C1205.39 953.739 1214.71 962.451 1243.8 998.393C1264.62 1024.23 1335.96 1111.45 1402.27 1192.19C1603.88 1437.76 1619.87 1457.32 1647.47 1491.92C1672.53 1523.33 1675.37 1525.27 1694.8 1525.52L1715.52 1525.72L1717.77 1218.33C1720.26 883.299 1721.2 871.55 1747.46 852.036C1754.93 846.511 1774.01 839.392 1789.8 836.206C1817 830.78 1818.6 829.635 1818.55 815.945V801.409H1686.53H1554.56L1553.07 816.841L1551.57 832.273L1581.81 835.459C1632.73 840.786 1653.4 856.517 1661.87 896.391C1664.81 910.031 1668.35 1018.01 1669.89 1139.92C1672.38 1337.1 1671.93 1358.21 1665.01 1351.49C1657.74 1344.42 1491.94 1147.29 1291.33 907.194L1200.86 798.92H1127.08H1053.3L1054.84 817.389C1056.29 834.464 1057.83 836.156 1075.86 839.89C1103.21 845.515 1124.84 860.151 1141.62 884.344L1156.02 905.103V1134.54C1156.02 1260.69 1154.18 1381.26 1151.89 1402.42C1145.51 1461.36 1129.12 1479.13 1072.58 1488.29Z" fill="#98643A"/>
<path d="M1907.42 1483.71C1849.78 1490.23 1850.98 1489.68 1850.98 1508.55V1525.72H2027.28H2203.59L2205.63 1508.45C2207.62 1491.32 2207.47 1491.18 2185.01 1488.44C2139.32 1482.81 2110.98 1475.25 2103.11 1466.58C2086.82 1448.61 2084.62 1406.15 2086.12 1140.97C2087.46 902.365 2088.36 879.466 2096.38 867.269C2108.89 848.203 2127.72 840.039 2168.77 836.007L2204.68 832.472V815.696V798.92H2027.83H1850.98V815.696V832.472L1887 836.007C1906.82 837.998 1930.44 842.678 1939.51 846.461C1970.64 859.454 1970.54 858.259 1970.49 1158.44C1970.49 1319.43 1968.5 1435.72 1965.61 1446.22C1959.63 1467.68 1940.55 1479.97 1907.42 1483.71Z" fill="#98643A"/>
<path d="M2261.38 1484.06C2269.8 1492.57 2314.03 1505.71 2368.09 1515.77C2538.91 1547.63 2709.84 1491.72 2761.2 1387.28C2772.71 1363.84 2775.1 1352.53 2775 1321.62C2774.75 1231.72 2719.05 1180.89 2545.64 1112.24C2431.6 1067.09 2388.01 1038.42 2368.44 995.555C2343.88 941.891 2369.08 881.507 2428.07 852.783C2463.39 835.559 2544.64 833.617 2585.64 849C2625.65 864.034 2661.07 899.727 2680.54 944.53L2695.14 978.181L2712.68 974.995C2722.34 973.253 2731.56 971.113 2733.15 970.217C2736.99 968.126 2714.02 827.893 2709.14 823.512C2707.05 821.67 2684.08 815.945 2658.03 810.768C2593.46 797.974 2470.26 797.974 2423.88 810.718C2345.27 832.373 2290.82 871.6 2264.07 925.911C2249.92 954.585 2248.57 961.256 2250.37 994.062C2252.81 1040.21 2267.46 1070.33 2303.32 1103.08C2337.65 1134.39 2376.31 1155.75 2474.05 1197.32C2563.32 1235.25 2590.62 1250.04 2619.57 1276.17C2682.79 1333.07 2665.45 1431.29 2585.99 1466.38C2574.33 1471.56 2548.78 1478.03 2529.2 1480.82C2423.34 1495.8 2329.28 1445.77 2281.4 1348.95C2265.41 1316.64 2261.08 1311.42 2252.31 1313.76C2246.68 1315.25 2238.11 1316.54 2233.33 1316.59C2223.27 1316.64 2222.02 1330.63 2229.3 1362.99C2249.27 1451.9 2256.5 1479.18 2261.38 1484.06Z" fill="#98643A"/>
</svg>
