<svg width="646" height="146" viewBox="0 0 646 146" fill="none" xmlns="http://www.w3.org/2000/svg">
<g clip-path="url(#clip0_3293_5556)">
<path d="M362.3 116.103C362.17 114.657 362.023 115.125 361.859 117.507C357.226 132.201 344.899 142.448 329.957 145.193C319.72 147.07 310.017 145.529 300.849 140.569C289.88 134.635 282.628 123.761 280.383 111.371C279.928 108.861 279.704 105.456 279.711 101.155C279.769 71.0783 279.774 40.5065 279.726 9.43926C279.726 9.2494 279.793 9.08716 279.926 8.95254L288.568 0.222649C288.701 0.0880239 288.864 0.0207115 289.055 0.0207115C298.715 0.0310672 308.191 0.0310672 317.482 0.0207115C319.224 0.0172595 320.543 0.881964 321.439 2.61482C321.524 2.78397 321.659 2.86509 321.844 2.85818C322.274 2.84783 322.541 2.63899 322.643 2.23166C322.987 0.880238 325.273 0.0155336 326.231 0.0207115C335.686 0.0414229 345.196 0.0345191 354.76 0C354.952 0 355.116 0.0673125 355.252 0.201937L364.038 9.08198C364.109 9.15447 364.145 9.24422 364.145 9.35123C364.183 41.2573 364.181 73.0546 364.14 104.743C364.137 105.61 364.077 106.502 363.961 107.42C363.879 108.069 363.79 108.908 363.694 109.937C363.561 111.4 363.096 113.456 362.3 116.103ZM354.658 9.23732L289.506 9.12341C289.427 9.12272 289.348 9.13789 289.275 9.16803C289.202 9.19816 289.135 9.24268 289.079 9.299C289.023 9.35532 288.978 9.42234 288.947 9.49618C288.917 9.57002 288.901 9.64922 288.901 9.72922L288.742 102.796C288.735 107.245 289.585 111.652 291.243 115.766C292.901 119.879 295.336 123.618 298.408 126.769C301.48 129.92 305.129 132.422 309.146 134.132C313.164 135.841 317.471 136.725 321.823 136.732H321.905C330.693 136.747 339.128 133.192 345.353 126.849C351.578 120.506 355.083 111.895 355.099 102.91L355.257 9.84313C355.257 9.68246 355.194 9.52837 355.082 9.41476C354.969 9.30115 354.817 9.23732 354.658 9.23732Z" fill="#4E5991"/>
<path d="M354.346 9.27168C354.505 9.27168 354.657 9.3358 354.77 9.44994C354.882 9.56407 354.945 9.71887 354.945 9.88028L354.786 103.375C354.771 112.401 351.27 121.052 345.054 127.424C338.837 133.796 330.414 137.367 321.638 137.352H321.556C317.21 137.345 312.908 136.457 308.896 134.74C304.884 133.023 301.24 130.509 298.172 127.344C295.104 124.178 292.673 120.422 291.017 116.29C289.361 112.157 288.512 107.73 288.52 103.261L288.678 9.76584C288.678 9.68548 288.694 9.60591 288.724 9.53174C288.755 9.45756 288.799 9.39023 288.855 9.33365C288.912 9.27707 288.978 9.23235 289.052 9.20207C289.125 9.1718 289.203 9.15656 289.282 9.15725L354.346 9.27168ZM307.638 13.6723L307.628 17.2198C307.624 17.4314 307.527 17.5822 307.336 17.6724L306.988 17.8336C306.807 17.9169 306.717 18.0608 306.717 18.2654C306.72 18.5705 306.868 18.7266 307.162 18.7335C308.001 18.7474 308.868 18.7457 309.762 18.7283C309.885 18.7248 309.998 18.6902 310.1 18.6243C310.247 18.5272 310.293 18.3746 310.238 18.1665C310.224 18.1093 310.198 18.056 310.162 18.0102C310.125 17.9645 310.08 17.9273 310.028 17.9012L309.563 17.6672C309.389 17.5805 309.303 17.4383 309.307 17.2406L309.332 12.1222C309.332 12.0733 309.321 12.025 309.3 11.9811C309.279 11.9372 309.248 11.8987 309.211 11.8687C309.173 11.8386 309.13 11.8177 309.083 11.8075C309.037 11.7974 308.989 11.7983 308.943 11.8101L307.126 12.247C306.662 12.3615 306.575 12.6094 306.865 12.9909C306.971 13.1296 307.097 13.2076 307.244 13.225C307.51 13.2527 307.641 13.4018 307.638 13.6723ZM317.271 16.2159C317.701 16.15 317.781 16.2905 317.512 16.6372C317.024 17.2718 316.302 17.7157 315.347 17.9689C315.28 17.9861 315.222 18.0272 315.184 18.0847C315.145 18.1421 315.128 18.2119 315.137 18.281L315.157 18.4266C315.167 18.4976 315.19 18.566 315.226 18.6276C315.262 18.6893 315.31 18.7428 315.367 18.7851C315.424 18.8274 315.488 18.8575 315.557 18.8737C315.626 18.8899 315.697 18.8917 315.766 18.8792C318.353 18.4006 319.655 16.9407 319.672 14.4994C319.677 13.0221 318.812 11.7113 317.251 11.7997C314.287 11.9713 314.098 16.6893 317.271 16.2159ZM325.901 13.6099C325.704 14.1994 325.303 14.567 324.699 14.7126C324.615 14.7295 324.537 14.771 324.473 14.8323C324.255 15.0438 324.204 15.2328 324.32 15.3992C324.415 15.5414 324.547 15.6125 324.714 15.6125C324.874 15.616 325.035 15.6056 325.195 15.5813C325.878 15.4911 326.207 15.7946 326.183 16.4916C326.145 17.7504 325.533 18.0105 324.345 17.2718C324.035 17.0811 323.75 17.1123 323.491 17.3655C323.323 17.5285 323.255 17.7435 323.286 18.0105C323.295 18.107 323.33 18.1994 323.387 18.278C323.444 18.3566 323.52 18.4187 323.608 18.4578C325.018 19.089 326.234 18.7751 327.258 17.5163C328.08 16.5003 327.976 15.5726 326.946 14.7334C326.802 14.6225 326.777 14.4872 326.869 14.3277L327.104 13.9064C327.194 13.7501 327.249 13.5764 327.268 13.3967C327.287 13.217 327.268 13.0354 327.213 12.8635C327.158 12.6917 327.068 12.5336 326.949 12.3996C326.829 12.2656 326.684 12.1587 326.521 12.0858C325.268 11.5205 324.272 11.8673 323.531 13.1261C323.503 13.1732 323.485 13.226 323.479 13.2809C323.473 13.3358 323.479 13.3915 323.496 13.4443C323.512 13.497 323.54 13.5456 323.578 13.5868C323.615 13.6279 323.66 13.6606 323.711 13.6827L323.88 13.7555C323.946 13.7862 324.022 13.7915 324.092 13.7705C324.163 13.7495 324.223 13.7036 324.263 13.6411C324.659 13.0342 325.129 12.8487 325.671 13.0845C325.91 13.1851 325.987 13.3602 325.901 13.6099ZM334.107 17.0378C334.202 17.2181 334.189 17.3863 334.066 17.5423C333.926 17.7261 333.736 17.8406 333.498 17.8856C333.337 17.9169 333.226 18.007 333.165 18.1561C333.138 18.2207 333.128 18.2911 333.135 18.3609C333.142 18.4306 333.166 18.4973 333.206 18.5549C333.245 18.6125 333.298 18.6591 333.36 18.6903C333.422 18.7215 333.49 18.7364 333.559 18.7335C334.31 18.7127 335.076 18.7023 335.857 18.7023C336.574 18.7023 336.704 18.4284 336.246 17.8804C336.175 17.7972 336.072 17.7539 335.939 17.7504C335.789 17.7469 335.682 17.6741 335.617 17.5319C335.583 17.4626 335.569 17.3863 335.576 17.3031C335.596 17.1054 335.704 16.9875 335.898 16.9493C336.025 16.9285 336.149 16.8973 336.272 16.8557C336.46 16.7968 336.579 16.6754 336.63 16.4916C336.671 16.3459 336.64 16.2194 336.538 16.1119C336.313 15.8674 336.067 15.9454 335.827 15.7946C335.755 15.753 335.696 15.6906 335.658 15.6149C335.62 15.5393 335.604 15.4536 335.612 15.368C335.704 14.3104 335.726 13.329 335.678 12.4239C335.658 11.9557 335.393 11.7702 334.885 11.8673C334.7 11.9055 334.552 12.0008 334.439 12.1534L331.552 16.1171C331.497 16.1921 331.464 16.2815 331.457 16.375C331.451 16.4684 331.47 16.5621 331.514 16.6449C331.558 16.7278 331.625 16.7965 331.706 16.843C331.787 16.8895 331.879 16.912 331.972 16.9077L333.728 16.8193C333.899 16.8124 334.025 16.8852 334.107 17.0378ZM338.514 59.036C338.48 59.0167 338.451 58.989 338.431 58.9554C338.41 58.9219 338.399 58.8836 338.396 58.8441C338.394 58.8046 338.402 58.7653 338.419 58.7297C338.436 58.6941 338.462 58.6635 338.493 58.6407C344.769 54.2349 347.149 45.5377 345.097 38.2658C342.256 28.1641 333.185 21.6933 323.015 21.1263C319.691 20.939 316.215 21.5389 312.588 22.9261C307.387 24.9166 303.415 28.4676 300.671 33.5791C297.17 40.0916 296.45 46.9144 298.511 54.0476C300.891 62.2871 307.075 69.0492 312.992 74.9063C317.735 79.6051 322.487 84.33 327.248 89.0808C330.693 92.5191 333.646 96.6181 334.501 101.435C335.499 107.021 333.59 112.634 329.398 116.28C325.42 119.745 319.698 121.009 314.717 119.552C307.96 117.581 303.22 110.652 304.787 103.427C305.394 100.625 307.244 98.5513 310.335 97.2058C311.262 96.8053 313.939 96.1447 314.912 96.8469C314.953 96.878 314.987 96.919 315.009 96.9662C315.032 97.0135 315.043 97.0655 315.041 97.1176C315.039 97.1696 315.024 97.2202 314.998 97.2647C314.972 97.3091 314.935 97.3461 314.891 97.3723C307.556 101.762 311.369 113.367 320.097 111.718C321.523 111.448 322.793 110.761 323.905 109.659C328.087 105.518 325.671 99.6298 322.221 96.1291C318.928 92.7827 315.572 89.4172 312.153 86.0327C307.295 81.2159 302.601 76.0195 299.095 70.282C299.056 70.2191 299.001 70.1684 298.935 70.1356C298.87 70.1027 298.796 70.0891 298.724 70.0961C298.651 70.1031 298.582 70.1305 298.523 70.1753C298.465 70.2201 298.42 70.2804 298.394 70.3496C295.706 77.3355 298.22 86.2875 304.608 90.1576C304.657 90.1879 304.698 90.23 304.728 90.2803C304.757 90.3305 304.775 90.3873 304.778 90.4458C304.781 90.5043 304.769 90.5626 304.745 90.6158C304.721 90.6689 304.684 90.7152 304.638 90.7506C303.579 91.5568 302.483 92.4671 301.659 93.5179C293.413 103.963 298.138 118.595 308.774 124.681C316.186 128.922 323.88 129.316 331.855 125.862C339.062 122.736 343.479 116.124 345.378 108.327C348.168 96.8417 341.386 85.5801 333.61 77.7724C327.881 72.0194 321.865 65.9872 315.562 59.6758C309.767 53.8708 306.092 45.4805 310.315 37.5375C314.016 30.5881 321.868 27.5399 329.259 29.9431C333.82 31.4204 337.296 35.2436 338.437 40.0135C339.405 44.0344 338.703 48.2634 335.243 50.8018C333.175 52.3207 331.029 52.931 328.804 52.6328C328.619 52.6085 328.449 52.5443 328.292 52.4403C328.25 52.4122 328.217 52.3735 328.194 52.328C328.172 52.2825 328.161 52.2318 328.164 52.1806C328.166 52.1294 328.182 52.0796 328.209 52.0358C328.236 51.992 328.273 51.9558 328.317 51.9305C332.597 49.5846 333.544 43.7483 330.478 40.0239C328.548 37.6832 325.164 36.8509 322.298 37.7924C317.502 39.3685 315.997 44.7835 318.213 49.1008C319.053 50.7376 319.948 52.0328 320.9 52.9865C325.371 57.453 329.59 61.7114 333.559 65.7618C336.896 69.1671 339.635 72.3297 341.775 75.2496C342.689 76.5015 343.493 77.7464 344.185 78.9844C344.225 79.0561 344.284 79.1148 344.355 79.1532C344.427 79.1917 344.508 79.2084 344.588 79.2012C344.669 79.1941 344.746 79.1634 344.81 79.113C344.873 79.0625 344.922 78.9944 344.948 78.9168C347.009 72.8412 346.071 67.246 342.133 62.131C341.212 60.9312 340.005 59.8995 338.514 59.036Z" fill="white"/>
<path d="M307.318 13.1615C307.171 13.1437 307.046 13.0637 306.94 12.9214C306.651 12.53 306.738 12.2757 307.2 12.1583L309.011 11.71C309.056 11.6979 309.104 11.697 309.15 11.7074C309.197 11.7178 309.24 11.7392 309.277 11.7701C309.315 11.8009 309.345 11.8404 309.366 11.8855C309.387 11.9305 309.398 11.98 309.398 12.0302L309.373 17.2811C309.369 17.4839 309.454 17.6298 309.628 17.7187L310.092 17.9588C310.143 17.9856 310.188 18.0237 310.224 18.0707C310.26 18.1176 310.286 18.1723 310.301 18.231C310.355 18.4445 310.309 18.601 310.163 18.7006C310.061 18.7682 309.949 18.8038 309.826 18.8073C308.936 18.8251 308.072 18.8269 307.236 18.8127C306.944 18.8055 306.796 18.6455 306.792 18.3324C306.792 18.1225 306.882 17.9749 307.063 17.8895L307.409 17.7241C307.6 17.6316 307.697 17.4768 307.7 17.2598L307.71 13.6204C307.714 13.3429 307.583 13.19 307.318 13.1615Z" fill="#4E5991"/>
<path d="M317.374 16.1394C313.96 16.6147 314.164 11.8768 317.352 11.7044C319.032 11.6156 319.963 12.932 319.957 14.4155C319.939 16.8672 318.538 18.3333 315.755 18.8139C315.681 18.8265 315.604 18.8246 315.53 18.8084C315.456 18.7922 315.386 18.7619 315.325 18.7195C315.264 18.677 315.212 18.6232 315.174 18.5613C315.135 18.4994 315.11 18.4308 315.1 18.3594L315.078 18.2132C315.069 18.1438 315.087 18.0737 315.128 18.016C315.17 17.9584 315.232 17.917 315.304 17.8997C316.332 17.6455 317.108 17.1998 317.633 16.5625C317.923 16.2142 317.837 16.0732 317.374 16.1394ZM317.744 15.1044C317.955 15.0544 318.124 14.8784 318.213 14.6149C318.302 14.3515 318.305 14.0223 318.22 13.6996C318.135 13.377 317.97 13.0875 317.761 12.8947C317.552 12.7018 317.315 12.6216 317.104 12.6715C316.893 12.7214 316.724 12.8975 316.635 13.161C316.546 13.4244 316.543 13.7536 316.628 14.0763C316.713 14.3989 316.878 14.6884 317.087 14.8812C317.296 15.074 317.533 15.1543 317.744 15.1044Z" fill="#4E5991"/>
<path d="M325.92 12.9927C325.373 12.7511 324.9 12.9412 324.501 13.563C324.46 13.627 324.399 13.6741 324.328 13.6956C324.257 13.7171 324.181 13.7117 324.114 13.6802L323.943 13.6056C323.892 13.583 323.847 13.5495 323.809 13.5073C323.772 13.4652 323.744 13.4154 323.726 13.3613C323.709 13.3072 323.704 13.2501 323.71 13.1939C323.716 13.1376 323.734 13.0836 323.763 13.0353C324.509 11.7456 325.514 11.3902 326.776 11.9694C326.94 12.0441 327.087 12.1537 327.208 12.291C327.328 12.4283 327.419 12.5903 327.474 12.7663C327.53 12.9423 327.549 13.1285 327.53 13.3126C327.511 13.4967 327.455 13.6747 327.365 13.8348L327.127 14.2665C327.034 14.4299 327.06 14.5685 327.205 14.6822C328.244 15.542 328.349 16.4925 327.519 17.5336C326.487 18.8233 325.261 19.1449 323.84 18.4982C323.751 18.4581 323.674 18.3945 323.617 18.314C323.56 18.2334 323.525 18.1388 323.515 18.0399C323.484 17.7663 323.553 17.546 323.721 17.379C323.983 17.1196 324.27 17.0876 324.583 17.2831C325.78 18.0399 326.398 17.7734 326.436 16.4836C326.46 15.7694 326.128 15.4585 325.44 15.5509C325.278 15.5758 325.116 15.5865 324.955 15.5829C324.786 15.5829 324.654 15.5101 324.557 15.3644C324.44 15.1938 324.492 15.0002 324.712 14.7835C324.776 14.7207 324.855 14.6782 324.939 14.6609C325.548 14.5116 325.952 14.135 326.152 13.531C326.238 13.2752 326.161 13.0957 325.92 12.9927Z" fill="#4E5991"/>
<path d="M333.84 16.8436L332.125 16.935C332.034 16.9394 331.944 16.9162 331.865 16.8681C331.786 16.82 331.721 16.749 331.678 16.6634C331.635 16.5777 331.616 16.481 331.622 16.3844C331.629 16.2878 331.661 16.1954 331.715 16.1179L334.535 12.0217C334.645 11.864 334.79 11.7655 334.97 11.7261C335.466 11.6257 335.725 11.8174 335.745 12.3012C335.791 13.2366 335.77 14.2508 335.68 15.3438C335.672 15.4322 335.688 15.5208 335.725 15.599C335.762 15.6771 335.819 15.7416 335.89 15.7846C336.125 15.9405 336.365 15.8599 336.585 16.1125C336.685 16.2236 336.715 16.3544 336.675 16.5049C336.625 16.6949 336.508 16.8203 336.325 16.8812C336.205 16.9242 336.083 16.9565 335.96 16.978C335.77 17.0174 335.665 17.1392 335.645 17.3435C335.638 17.4295 335.651 17.5084 335.685 17.58C335.748 17.727 335.853 17.8022 336 17.8058C336.13 17.8094 336.23 17.8542 336.3 17.9402C336.746 18.5064 336.62 18.7895 335.92 18.7895C335.156 18.7895 334.408 18.8003 333.675 18.8218C333.608 18.8248 333.541 18.8094 333.48 18.7771C333.42 18.7449 333.368 18.6967 333.33 18.6372C333.292 18.5777 333.268 18.5087 333.261 18.4367C333.254 18.3646 333.264 18.2918 333.29 18.2251C333.35 18.071 333.458 17.9778 333.615 17.9456C333.848 17.899 334.033 17.7807 334.17 17.5908C334.29 17.4295 334.303 17.2557 334.21 17.0694C334.13 16.9117 334.007 16.8364 333.84 16.8436ZM334.33 15.075C334.44 14.9173 334.485 14.7346 334.465 14.5267C334.442 14.2974 334.342 14.2472 334.165 14.3762C333.728 14.6808 333.413 15.0965 333.22 15.6233C333.205 15.6646 333.199 15.7089 333.203 15.7529C333.207 15.797 333.22 15.8395 333.241 15.8774C333.262 15.9152 333.291 15.9474 333.326 15.9713C333.36 15.9953 333.399 16.0105 333.44 16.0157C333.995 16.091 334.33 15.661 334.33 15.075Z" fill="#4E5991"/>
<path d="M338.581 59.2168C340.075 60.0764 341.283 61.1033 342.205 62.2977C346.148 67.3892 347.088 72.9589 345.024 79.0067C344.998 79.0839 344.949 79.1517 344.885 79.2019C344.822 79.2522 344.745 79.2827 344.664 79.2898C344.583 79.2969 344.502 79.2803 344.431 79.242C344.359 79.2037 344.3 79.1454 344.26 79.074C343.567 77.8416 342.762 76.6024 341.846 75.3563C339.704 72.4498 336.962 69.3016 333.62 65.9118C329.646 61.88 325.42 57.641 320.944 53.195C319.991 52.2457 319.094 50.9564 318.253 49.3271C316.034 45.0295 317.541 39.6393 322.343 38.0704C325.214 37.1332 328.602 37.9617 330.534 40.2917C333.604 43.9991 332.656 49.8087 328.371 52.1439C328.327 52.169 328.289 52.205 328.262 52.2486C328.235 52.2922 328.22 52.3419 328.217 52.3928C328.215 52.4437 328.225 52.4943 328.248 52.5395C328.27 52.5848 328.304 52.6233 328.345 52.6513C328.503 52.7549 328.674 52.8187 328.858 52.8429C331.086 53.1397 333.235 52.5322 335.306 51.0203C338.771 48.4935 339.473 44.2839 338.504 40.2814C337.361 35.5333 333.881 31.7275 329.314 30.257C321.913 27.8648 314.05 30.8991 310.344 37.8167C306.116 45.7233 309.796 54.0752 315.598 59.8537C321.909 66.1362 327.934 72.1408 333.671 77.8675C341.457 85.6395 348.248 96.8496 345.455 108.282C343.553 116.044 339.13 122.625 331.913 125.737C323.927 129.175 316.223 128.783 308.802 124.562C298.151 118.503 293.42 103.938 301.677 93.5409C302.502 92.495 303.599 91.5889 304.66 90.7863C304.706 90.7511 304.743 90.705 304.767 90.6521C304.791 90.5992 304.802 90.5412 304.799 90.4829C304.796 90.4247 304.779 90.3682 304.75 90.3181C304.72 90.2681 304.679 90.2262 304.629 90.196C298.233 86.3437 295.716 77.4326 298.407 70.4787C298.433 70.4098 298.478 70.3497 298.537 70.3052C298.595 70.2606 298.665 70.2333 298.737 70.2263C298.81 70.2193 298.884 70.2329 298.949 70.2656C299.015 70.2983 299.07 70.3488 299.109 70.4114C302.62 76.1226 307.32 81.2953 312.184 86.09C315.608 89.4591 318.969 92.8091 322.267 96.1402C325.721 99.6249 328.14 105.486 323.953 109.608C322.839 110.706 321.568 111.389 320.139 111.658C311.4 113.3 307.582 101.748 314.927 97.3777C314.971 97.3517 315.007 97.3149 315.033 97.2706C315.06 97.2263 315.074 97.176 315.076 97.1242C315.078 97.0723 315.068 97.0206 315.045 96.9735C315.023 96.9265 314.989 96.8857 314.947 96.8548C313.973 96.1558 311.293 96.8134 310.365 97.2121C307.269 98.5514 305.417 100.616 304.809 103.405C303.24 110.597 307.987 117.494 314.752 119.456C319.74 120.906 325.47 119.648 329.453 116.199C333.651 112.57 335.562 106.983 334.563 101.422C333.707 96.627 330.749 92.5468 327.3 89.1242C322.533 84.3951 317.775 79.6919 313.025 75.0145C307.1 69.1842 300.908 62.453 298.525 54.2513C296.461 47.1507 297.182 40.359 300.688 33.8763C303.435 28.7882 307.413 25.2535 312.62 23.2721C316.252 21.8913 319.733 21.2941 323.061 21.4805C333.246 22.0449 342.328 28.4862 345.173 38.5416C347.228 45.7803 344.845 54.4377 338.561 58.8233C338.529 58.846 338.503 58.8765 338.486 58.9119C338.469 58.9473 338.462 58.9865 338.464 59.0258C338.466 59.0651 338.478 59.1032 338.498 59.1366C338.519 59.17 338.547 59.1976 338.581 59.2168Z" fill="#4E5991"/>
<path d="M94.0439 38.5932C93.9995 48.1067 94.0166 58.5746 94.0952 69.997C94.1088 71.6781 94.7735 72.7637 96.089 73.2539C97.0936 73.6302 98.3255 73.8252 99.7846 73.839C100.037 73.8425 100.174 73.9719 100.195 74.2273L100.266 75.1387C100.283 75.3803 100.172 75.5011 99.9332 75.5011L83.357 75.5063C83.1998 75.5063 83.1212 75.4286 83.1212 75.2733L83.1315 74.2377C83.1315 73.9961 83.2511 73.8718 83.4903 73.8649C84.6247 73.8338 85.7592 73.6612 86.8937 73.3471C88.3852 72.9381 88.9234 71.6902 88.9747 70.1886C88.9986 69.4499 89.0174 68.7336 89.0311 68.0398C89.1746 59.5412 89.2019 49.7377 89.1131 38.6295C89.1097 38.45 89.0191 38.3585 88.8414 38.3551C86.4358 38.3274 84.1429 38.3637 81.9629 38.4638C79.8101 38.5639 78.3852 39.5719 77.6881 41.4877C77.2063 42.8063 76.8321 44.0628 76.5656 45.2572C76.5407 45.3696 76.4775 45.4698 76.3868 45.5406C76.2961 45.6115 76.1836 45.6485 76.0684 45.6455L75.0894 45.6144C74.8946 45.6075 74.8041 45.5057 74.8178 45.3089L75.5353 34.9843C75.54 34.9309 75.563 34.8809 75.6005 34.843C75.638 34.8051 75.6875 34.7818 75.7404 34.7772L76.1812 34.7513C76.4101 34.7375 76.5998 34.822 76.7501 35.005C77.4609 35.8818 78.1306 36.3202 78.7593 36.3202C87.1346 36.3271 95.5081 36.334 103.88 36.3409C104.826 36.3409 105.6 35.975 106.202 35.2432C106.547 34.8255 106.981 34.665 107.504 34.7616C107.702 34.7961 107.803 34.9135 107.806 35.1137C107.916 38.5518 108.122 41.8985 108.426 45.1536C108.434 45.2246 108.413 45.2958 108.369 45.3526C108.326 45.4094 108.262 45.4475 108.191 45.4591L106.976 45.6559C106.849 45.6731 106.771 45.6196 106.74 45.4953C106.028 42.2902 105.233 38.5725 101.194 38.4586C98.6757 38.3861 96.3812 38.3413 94.3104 38.324C94.1328 38.324 94.0439 38.4137 94.0439 38.5932Z" fill="black"/>
<path d="M66.555 59.1394C66.9513 57.0165 67.0539 54.6864 66.8625 52.1493C66.3397 45.3404 62.0085 40.0848 55.2889 39.0855C50.1325 38.3192 44.9505 41.2291 41.3934 44.9727C41.3455 45.0211 41.2994 45.0193 41.255 44.9676C40.9303 44.5948 40.6467 44.2202 40.4041 43.844C40.3699 43.7853 40.3734 43.7301 40.4144 43.6783C42.8678 40.6406 45.6869 38.3278 48.8716 36.7399C58.5795 31.909 69.5329 37.6357 71.8036 48.3746C72.8424 53.297 72.7057 58.0986 71.3935 62.7794C68.9896 71.3385 59.169 78.9706 50.0249 76.2678C44.1868 74.5384 39.297 68.5372 39.9633 62.1892C40.1034 60.8567 40.8962 60.1629 42.3416 60.1077C49.678 59.8246 57.633 59.602 66.2064 59.4397C66.4046 59.4363 66.5208 59.3362 66.555 59.1394ZM60.4094 72.3326C63.6795 69.9353 65.1813 66.4764 65.7451 62.5154C65.7725 62.329 65.6922 62.234 65.5042 62.2306C59.3603 62.1305 53.4437 62.1236 47.7542 62.2099C47.3461 62.2157 46.9527 62.3654 46.6421 62.6329C46.3314 62.9004 46.1229 63.269 46.0525 63.6752C45.9808 64.1067 45.991 64.6573 46.0833 65.3269C46.6984 69.7333 50.1991 74.0517 54.8071 74.1811C56.7958 74.2329 58.6632 73.6167 60.4094 72.3326Z" fill="black"/>
<path d="M462.037 38.2824C459.551 38.3601 456.163 37.9614 453.949 38.9348C452.253 39.6804 451.52 42.7302 451.13 44.4544C451.069 44.741 450.893 44.8825 450.602 44.879L449.879 44.8687C449.647 44.8687 449.539 44.7496 449.556 44.5114L450.202 35.4657C450.216 35.2862 450.308 35.174 450.479 35.1291C450.817 35.0411 451.166 35.1653 451.386 35.4398C451.913 36.1129 452.545 36.4495 453.283 36.4495C460.544 36.4495 468.034 36.4512 475.753 36.4546C476.768 36.4546 477.368 36.0508 478.039 35.3466C478.371 35.0014 478.719 34.9496 479.085 35.1912C479.148 35.2326 479.199 35.289 479.234 35.3552C479.269 35.4213 479.287 35.495 479.285 35.5692C479.251 38.5068 479.413 41.3943 479.772 44.2318C479.813 44.5666 479.666 44.753 479.331 44.791L478.583 44.8739C478.337 44.9015 478.193 44.7927 478.152 44.5476C477.722 41.938 476.717 38.7795 473.985 38.4947C471.952 38.2807 469.628 38.2306 467.014 38.3446C466.976 38.3459 466.939 38.3623 466.912 38.3903C466.886 38.4183 466.871 38.4558 466.871 38.4947C466.864 48.0151 466.872 57.5217 466.896 67.0144C466.902 69.8623 469.797 70.2351 472.078 70.2247C472.13 70.224 472.181 70.2338 472.229 70.2536C472.277 70.2733 472.32 70.3025 472.357 70.3396C472.394 70.3767 472.423 70.4209 472.443 70.4696C472.463 70.5183 472.473 70.5706 472.473 70.6234V71.3742C472.473 71.6469 472.338 71.7832 472.068 71.7832H457.378C457.105 71.7832 456.973 71.6452 456.983 71.369L457.009 70.5509C457.016 70.3541 457.117 70.254 457.311 70.2506C459.746 70.1833 462.37 69.8881 462.376 66.6675C462.386 57.1609 462.388 47.8097 462.381 38.6138C462.381 38.386 462.266 38.2755 462.037 38.2824Z" fill="black"/>
<path d="M0.412544 52.4285C2.08349 43.1135 9.20296 37.2522 18.2702 35.8127C23.447 34.9894 28.2753 35.6574 33.2472 36.9933C33.3578 37.0224 33.4571 37.084 33.5321 37.1699C33.607 37.2558 33.6542 37.362 33.6675 37.4748L34.7849 45.9147C34.802 46.0252 34.7575 46.096 34.6516 46.127L33.16 46.562C33.0849 46.5827 33.0387 46.5551 33.0217 46.4791C31.7437 40.7938 28.2941 37.82 22.6731 37.5576C16.0576 37.247 11.2498 39.9705 8.2496 45.7283C4.9077 52.1334 5.43051 61.4949 9.44386 67.553C12.9959 72.9225 19.5208 75.6564 25.6715 73.7406C29.6388 72.5031 32.2323 68.8838 34.0622 65.078C34.1134 64.9676 34.1954 64.9348 34.3082 64.9796L35.5742 65.5026C35.7211 65.5613 35.7724 65.6666 35.728 65.8185C34.8976 68.6283 33.8964 71.4261 32.7244 74.2118C32.6513 74.3853 32.5395 74.5389 32.398 74.6603C32.2564 74.7817 32.0891 74.8675 31.9094 74.9108C26.5173 76.2467 21.1866 76.9975 15.8406 75.8532C8.69211 74.3205 3.87233 70.3042 1.38128 63.8043C0.0144555 60.2419 -0.308458 56.45 0.412544 52.4285Z" fill="black"/>
<path d="M169.23 61.1741L156.918 61.1793C156.744 61.1793 156.628 61.2622 156.57 61.4279C155.582 64.179 154.597 67.1011 153.612 70.194C153.249 71.3331 153.059 72.757 154.474 73.2645C155.403 73.5959 156.403 73.7961 157.472 73.8651C157.639 73.8755 157.725 73.9669 157.728 74.1395L157.749 75.2424C157.752 75.415 157.667 75.503 157.493 75.5065L145.119 75.5117C145.072 75.5117 145.026 75.5021 144.983 75.4836C144.94 75.4651 144.9 75.4379 144.867 75.4037C144.835 75.3695 144.809 75.3289 144.791 75.2844C144.774 75.2398 144.765 75.1921 144.766 75.144L144.781 74.2431C144.782 74.1247 144.828 74.0113 144.909 73.9257C144.99 73.8401 145.1 73.7888 145.217 73.7823C148.559 73.5907 149.948 71.6697 151.06 68.8167C155.222 58.1227 159.447 47.3044 163.736 36.3618C163.976 35.7508 164.715 35.6731 165.278 35.5178C165.559 35.4384 165.746 35.5368 165.842 35.8129C170.759 49.807 174.677 60.8082 177.595 68.8167C178.733 71.9493 179.943 73.6373 183.474 73.8703C183.72 73.8875 183.845 74.0204 183.848 74.269L183.864 75.1233C183.864 75.1734 183.855 75.2231 183.837 75.2696C183.819 75.316 183.792 75.3583 183.758 75.394C183.723 75.4296 183.682 75.4579 183.637 75.4772C183.592 75.4966 183.544 75.5065 183.495 75.5065L169.502 75.5013C169.29 75.5013 169.187 75.3943 169.194 75.1803L169.22 74.1343C169.227 73.9548 169.319 73.8547 169.497 73.834C171.04 73.6632 173.766 73.4095 172.926 71.0276C172.071 68.6147 170.956 65.4148 169.579 61.4279C169.521 61.2587 169.404 61.1741 169.23 61.1741ZM157.687 58.2383C157.669 58.2883 157.663 58.342 157.67 58.3949C157.677 58.4477 157.696 58.4981 157.726 58.5418C157.757 58.5855 157.797 58.6212 157.843 58.6459C157.89 58.6706 157.942 58.6835 157.995 58.6836L168.164 58.6784C168.217 58.6789 168.269 58.6665 168.315 58.6425C168.362 58.6185 168.403 58.5834 168.433 58.5403C168.464 58.4971 168.484 58.4472 168.491 58.3946C168.499 58.3421 168.494 58.2885 168.477 58.2383L163.561 43.849C163.54 43.7836 163.498 43.7267 163.443 43.6862C163.388 43.6457 163.321 43.6237 163.253 43.6231C163.185 43.6225 163.118 43.6435 163.062 43.683C163.006 43.7226 162.964 43.7788 162.941 43.8438L157.687 58.2383Z" fill="black"/>
<path d="M412.381 62.6447C412.084 68.9876 406.738 72.4516 400.782 72.5241C399.208 72.5448 392.76 71.9079 392.396 69.8886C391.952 67.4066 391.552 64.9679 391.197 62.5722C391.166 62.3479 391.26 62.2029 391.479 62.1373L392.314 61.8991C392.361 61.885 392.41 61.8805 392.459 61.886C392.507 61.8914 392.554 61.9067 392.597 61.9308C392.639 61.955 392.677 61.9876 392.707 62.0266C392.737 62.0656 392.758 62.1103 392.771 62.158C393.919 66.5747 397.035 70.9345 401.981 70.6238C405.152 70.4202 407.104 68.8409 407.835 65.8861C408.839 61.8266 406.313 58.9322 403.022 57.1458C401.214 56.162 399.46 55.1627 397.758 54.1478C392.914 51.2638 390.505 46.0704 393.35 40.763C394.498 38.6194 396.381 37.1385 398.998 36.3204C402.203 35.3194 405.761 35.5058 409.67 36.8796C409.837 36.9383 409.931 37.0557 409.952 37.2317L410.818 44.1235C410.838 44.2754 410.777 44.3703 410.633 44.4083L409.66 44.6775C409.427 44.7431 409.284 44.6585 409.229 44.4238C408.224 40.102 406.155 37.803 403.022 37.5269C400.005 37.2611 397.912 38.414 396.743 40.9857C395.959 42.7099 396.133 45.3351 397.158 46.9558C397.954 48.2123 399.208 49.3169 400.92 50.2696C405.918 53.0501 412.709 55.6598 412.381 62.6447Z" fill="black"/>
<path d="M425.987 59.2325C424.986 62.0113 424.048 64.847 423.173 67.7397C422.543 69.8264 425.495 70.163 426.735 70.2199C426.981 70.2303 427.106 70.3597 427.11 70.6083L427.12 71.4316C427.121 71.4775 427.112 71.5232 427.095 71.5659C427.078 71.6086 427.052 71.6474 427.02 71.6802C426.987 71.713 426.948 71.739 426.906 71.7567C426.863 71.7745 426.818 71.7836 426.771 71.7837H415.915C415.594 71.7837 415.44 71.6214 415.454 71.2969L415.485 70.6704C415.498 70.3494 415.664 70.182 415.982 70.1682C418.237 70.0612 419.828 68.8374 420.754 66.497C424.724 56.4382 428.637 46.4363 432.491 36.4913C432.556 36.3256 432.669 36.21 432.83 36.1444L433.87 35.725C433.916 35.7063 433.965 35.6972 434.014 35.6983C434.063 35.6995 434.112 35.7108 434.157 35.7316C434.202 35.7524 434.242 35.7823 434.276 35.8194C434.309 35.8565 434.335 35.9002 434.352 35.9476C437.779 45.7683 441.412 55.9549 445.249 66.5074C446.155 68.9928 447.805 70.2303 450.2 70.2199C450.446 70.2165 450.571 70.339 450.575 70.5876L450.585 71.416C450.586 71.4641 450.577 71.5117 450.559 71.5563C450.541 71.6009 450.515 71.6415 450.482 71.6757C450.448 71.7099 450.408 71.737 450.365 71.7556C450.321 71.7741 450.274 71.7837 450.226 71.7837H437.704C437.656 71.7837 437.609 71.774 437.564 71.7551C437.52 71.7363 437.48 71.7086 437.447 71.6739C437.413 71.6391 437.387 71.5979 437.37 71.5527C437.352 71.5076 437.344 71.4593 437.345 71.4108L437.371 70.5358C437.373 70.4518 437.407 70.3718 437.465 70.3114C437.523 70.251 437.601 70.2147 437.684 70.2096C438.991 70.1267 441.487 69.8161 440.79 67.8019C439.713 64.6917 438.685 61.7783 437.704 59.0616C437.683 59.004 437.646 58.9543 437.597 58.9191C437.549 58.8839 437.491 58.865 437.433 58.8649L426.5 58.87C426.247 58.87 426.076 58.9909 425.987 59.2325ZM427.012 56.2656C427.001 56.2967 426.997 56.3302 427.001 56.3632C427.005 56.3962 427.017 56.4277 427.035 56.4552C427.054 56.4826 427.079 56.5051 427.108 56.5207C427.137 56.5364 427.169 56.5448 427.202 56.5452L436.612 56.628C436.645 56.6282 436.677 56.6204 436.707 56.6054C436.736 56.5903 436.761 56.5685 436.78 56.5416C436.799 56.5147 436.811 56.4837 436.816 56.4509C436.821 56.4182 436.818 56.3849 436.807 56.3536L432.22 42.974C432.207 42.9324 432.181 42.8959 432.147 42.8699C432.112 42.8438 432.07 42.8295 432.027 42.8289C431.984 42.8283 431.941 42.8416 431.906 42.8667C431.871 42.8918 431.844 42.9275 431.83 42.9688L427.012 56.2656Z" fill="black"/>
<path d="M523.021 59.181C522.156 61.8182 521.281 64.5194 520.396 67.2843C519.566 69.8836 522.175 70.1063 523.882 70.2564C524.056 70.2737 524.145 70.3703 524.148 70.5464L524.164 71.4059C524.167 71.6579 524.046 71.7839 523.8 71.7839L512.77 71.7891C512.602 71.7891 512.52 71.7045 512.524 71.5354V70.536C512.524 70.3496 512.616 70.2461 512.8 70.2254C514.369 70.0545 515.84 69.6765 516.788 68.2888C517.396 67.3983 517.916 66.3989 518.346 65.2909C521.961 55.9949 525.686 46.4589 529.52 36.6831C529.812 35.9427 530.279 36.0152 530.883 35.7511C530.937 35.727 530.995 35.7143 531.054 35.7139C531.112 35.7134 531.17 35.7253 531.224 35.7486C531.278 35.772 531.327 35.8063 531.367 35.8495C531.407 35.8927 531.438 35.9438 531.458 35.9996C534.946 45.9964 538.454 55.8447 541.98 65.5446C542.918 68.1387 544.025 70.1995 547.214 70.1891C547.378 70.1891 547.484 70.2685 547.531 70.4273C547.631 70.7483 547.663 71.0832 547.629 71.4318C547.608 71.6665 547.482 71.7839 547.25 71.7839H534.815C534.767 71.7839 534.719 71.7742 534.675 71.7554C534.631 71.7365 534.591 71.7089 534.557 71.6741C534.524 71.6393 534.498 71.5982 534.48 71.553C534.463 71.5078 534.455 71.4596 534.456 71.4111L534.466 70.6396C534.473 70.3842 534.603 70.2444 534.856 70.2202C536.096 70.1115 538.495 69.7801 537.88 67.9264C536.93 65.0544 535.922 62.16 534.856 59.2431C534.815 59.1321 534.742 59.0365 534.645 58.9689C534.549 58.9013 534.435 58.8651 534.318 58.8651L523.441 58.8703C523.226 58.8703 523.086 58.9739 523.021 59.181ZM524.107 56.2296C524.094 56.2651 524.09 56.3033 524.094 56.341C524.099 56.3787 524.112 56.4147 524.133 56.4461C524.154 56.4775 524.182 56.5034 524.215 56.5215C524.248 56.5397 524.285 56.5497 524.323 56.5506L533.651 56.6335C533.689 56.6339 533.726 56.6251 533.76 56.6079C533.794 56.5907 533.823 56.5656 533.845 56.5346C533.867 56.5037 533.882 56.4678 533.887 56.43C533.893 56.3923 533.889 56.3537 533.877 56.3176L529.325 43.0623C529.309 43.0169 529.279 42.9777 529.24 42.9498C529.201 42.9219 529.154 42.9066 529.107 42.9061C529.059 42.9055 529.012 42.9196 528.972 42.9466C528.933 42.9736 528.902 43.0121 528.885 43.0571L524.107 56.2296Z" fill="black"/>
<path d="M122.496 52.6096C122.496 52.6441 122.503 52.6782 122.517 52.7097C122.531 52.7413 122.551 52.7697 122.577 52.7931C122.602 52.8164 122.632 52.8343 122.665 52.8455C122.698 52.8567 122.733 52.861 122.768 52.8581C125.02 52.6855 127.263 52.6234 129.498 52.6717C137.263 52.8322 143.347 56.6483 142.127 65.4041C141.046 73.1605 133.024 75.4026 126.484 75.4647C121.474 75.5096 116.882 75.5251 112.706 75.5113C112.453 75.5113 112.329 75.3836 112.332 75.1281L112.342 74.2842C112.346 74.0115 112.482 73.8786 112.752 73.8855C114.403 73.9269 116.474 73.668 117.258 71.9282C117.463 71.4726 117.565 70.3507 117.565 68.5626C117.569 60.064 117.569 51.5637 117.565 43.0616C117.56 41.0163 117.668 38.4429 114.905 38.1426C114.218 38.0667 113.562 37.9787 112.937 37.8786C112.793 37.8544 112.722 37.7681 112.722 37.6197L112.717 36.5893C112.717 36.4132 112.804 36.3252 112.978 36.3252H137.719C137.907 36.3252 138.01 36.4201 138.027 36.61L138.657 44.6357C138.664 44.7323 138.621 44.791 138.529 44.8117L137.14 45.1535C137.01 45.1845 136.933 45.1327 136.909 44.9981C136.315 41.5756 135.336 38.5827 131.225 38.4326C128.727 38.3394 126.238 38.3256 123.757 38.3912C122.923 38.4119 122.505 38.8434 122.501 39.6856L122.496 52.6096ZM125.946 73.3987C130.805 73.8647 135.11 71.9593 136.279 66.8798C136.58 65.575 136.658 64.1096 136.515 62.4838C136.211 59.0975 134.526 56.7916 131.461 55.5662C131.208 55.4661 130.948 55.3901 130.682 55.3383C130.015 55.2192 129.482 54.9448 128.801 54.9034C126.829 54.786 124.792 54.7601 122.691 54.8257C122.637 54.8284 122.586 54.8514 122.549 54.8899C122.512 54.9285 122.491 54.9797 122.491 55.0328C122.471 59.0198 122.467 63.0792 122.481 67.2112C122.496 70.3749 122.435 73.0622 125.946 73.3987Z" fill="black"/>
<path d="M198.753 56.6069C198.818 60.7768 198.831 64.9329 198.794 69.0752C198.766 71.8851 200.102 73.3452 202.802 73.4557C205.358 73.5627 207.707 73.5437 209.85 73.3987C213.899 73.1243 215.739 69.4273 216.861 66.0617C216.94 65.8235 217.099 65.7303 217.338 65.7821L218.358 65.9892C218.594 66.0375 218.686 66.1808 218.635 66.419L216.733 75.1644C216.682 75.3991 216.537 75.5165 216.298 75.5165L188.02 75.4958C187.852 75.4958 187.77 75.4112 187.774 75.2421L187.794 74.1288C187.797 73.9666 187.879 73.8803 188.04 73.8699C189.079 73.8181 190.154 73.6732 191.264 73.435C193.935 72.8602 193.735 70.3231 193.735 68.1432C193.735 59.6826 193.748 51.2668 193.776 42.8959C193.779 41.4875 193.651 40.4882 193.391 39.8979C192.535 37.9459 190.608 38.3239 188.835 37.951C188.764 37.9367 188.7 37.8978 188.654 37.8412C188.608 37.7845 188.583 37.7135 188.583 37.6404V36.5893C188.583 36.4132 188.669 36.3252 188.84 36.3252H214.944C215.004 36.3252 215.062 36.3487 215.106 36.391C215.15 36.4333 215.176 36.4913 215.18 36.553L215.657 44.7496C215.664 44.8773 215.606 44.9533 215.483 44.9774L214.232 45.2467C214.202 45.2534 214.17 45.2539 214.14 45.2482C214.109 45.2424 214.08 45.2304 214.054 45.213C214.028 45.1956 214.006 45.1731 213.989 45.1469C213.972 45.1206 213.961 45.0912 213.955 45.0603C213.695 43.5828 213.198 42.133 212.464 40.7109C211.469 38.7743 209.414 38.4067 207.476 38.386C204.835 38.3618 202.299 38.3566 199.87 38.3705C199.163 38.3739 198.809 38.7329 198.809 39.4474L198.799 53.7591C198.797 53.8305 198.825 53.8995 198.875 53.951C198.925 54.0024 198.993 54.0321 199.065 54.0335C201.303 54.0818 203.566 54.0784 205.852 54.0232C207.399 53.9869 208.85 54.0387 209.824 52.8322C210.384 52.135 210.704 51.1615 210.782 49.9119C210.789 49.8112 210.834 49.7169 210.907 49.6485C210.98 49.58 211.077 49.5427 211.177 49.5443L212.279 49.565C212.369 49.5664 212.455 49.6035 212.519 49.6684C212.582 49.7333 212.617 49.8208 212.617 49.9119L212.622 60.6923C212.622 60.9373 212.503 61.0599 212.264 61.0599L211.233 61.0651C210.998 61.0651 210.861 60.9477 210.823 60.713C210.413 58.1758 209.783 56.3843 206.907 56.3894C204.153 56.3929 201.505 56.3929 198.963 56.3894C198.935 56.3894 198.907 56.3951 198.881 56.4061C198.855 56.4171 198.832 56.4332 198.812 56.4534C198.793 56.4737 198.777 56.4977 198.767 56.5241C198.757 56.5504 198.752 56.5786 198.753 56.6069Z" fill="black"/>
<path d="M243.034 54.6499C247.381 55.2039 251.86 57.5029 252.645 62.1371C254.244 71.5556 244.756 75.3665 237.273 75.4338C232.492 75.4752 227.527 75.5011 222.378 75.5115C222.228 75.5115 222.152 75.4355 222.152 75.2837L222.157 74.1394C222.157 73.9771 222.238 73.8925 222.398 73.8856C225.53 73.7251 227.744 73.5335 227.734 69.6243C227.717 61.1602 227.714 52.1369 227.724 42.5543C227.727 41.9434 227.697 41.3289 227.632 40.711C227.345 37.9719 224.848 38.2619 222.916 37.9409C222.745 37.9133 222.661 37.8131 222.665 37.6406V36.5946C222.665 36.5246 222.693 36.4574 222.743 36.4079C222.793 36.3584 222.861 36.3306 222.931 36.3306C228.17 36.3167 233.617 36.3202 239.272 36.3409C241.322 36.3513 243.237 36.6861 245.018 37.3454C247.977 38.4397 249.701 40.6057 250.189 43.8436C250.948 48.8455 247.791 52.6253 243.162 53.8576C243.046 53.8887 242.954 53.9508 242.885 54.044C242.827 54.1269 242.791 54.2201 242.778 54.3236C242.769 54.4012 242.791 54.4791 242.839 54.5402C242.887 54.6013 242.957 54.6408 243.034 54.6499ZM244.172 42.3679C242.588 38.5363 237.944 37.5577 234.259 38.4897C233.183 38.7624 232.655 39.5236 232.675 40.7732C232.747 44.9828 232.66 49.2079 232.665 53.4072C232.665 53.597 232.757 53.6989 232.942 53.7127C236.929 53.9612 242.24 53.7593 244.075 49.8396C245.202 47.4302 245.235 44.9396 244.172 42.3679ZM246.714 62.049C245.73 57.8032 241.635 55.9754 237.729 55.7476C236.147 55.6544 234.561 55.6181 232.972 55.6388C232.895 55.6402 232.822 55.6717 232.767 55.7267C232.713 55.7818 232.682 55.8561 232.68 55.934C232.639 60.6596 232.651 65.1609 232.716 69.4379C232.798 74.6002 238.559 73.9478 241.865 72.7413C246.284 71.131 247.704 66.2742 246.714 62.049Z" fill="black"/>
<path d="M502.035 53.0498C507.012 53.5728 510.958 56.7054 510.584 62.1214C510.092 69.2824 502.199 71.5659 496.376 71.7057C492.012 71.8092 487.681 71.8299 483.383 71.7678C483.15 71.7644 483.036 71.647 483.039 71.4157L483.049 70.6339C483.049 70.3612 483.186 70.2265 483.459 70.23C485.53 70.2662 488.011 69.8365 488.021 67.2527C488.062 59.4652 488.066 50.6611 488.031 40.8404C488.026 38.4845 485.92 37.9926 483.926 38.0547C483.87 38.0568 483.814 38.0474 483.761 38.0269C483.709 38.0064 483.661 37.9754 483.62 37.9357C483.58 37.896 483.548 37.8484 483.527 37.7959C483.505 37.7434 483.495 37.687 483.495 37.6301L483.5 36.8275C483.504 36.6101 483.613 36.4979 483.829 36.491C490.488 36.346 495.995 36.3961 500.348 36.6411C501.435 36.6998 502.631 37.0036 503.936 37.5525C507.329 38.9764 508.877 42.5025 508.221 46.0234C507.606 49.2959 505.023 51.4343 501.937 52.2421C501.678 52.3111 501.585 52.4768 501.66 52.7391C501.685 52.8218 501.733 52.8954 501.8 52.9507C501.866 53.006 501.948 53.0405 502.035 53.0498ZM492.721 52.1696C496.607 52.4129 502.311 52.1385 503.301 47.1626C504.218 42.5594 502.137 38.7071 497.17 38.1945C495.694 38.0443 492.552 38.0133 492.542 40.1673C492.518 44.0852 492.511 48.0135 492.522 51.9521C492.522 52.0902 492.588 52.1627 492.721 52.1696ZM494.869 69.7433C497.591 70.4216 501.199 69.7122 503.311 67.5893C505.192 65.7045 505.699 62.8463 505.279 60.2729C504.295 54.2148 497.678 53.5158 492.803 53.8472C492.615 53.861 492.522 53.9628 492.522 54.1527C492.494 58.2467 492.506 62.2871 492.557 66.2741C492.581 68.2037 493.352 69.3601 494.869 69.7433Z" fill="black"/>
<path d="M554.858 38.9045C554.717 39.0351 554.624 39.2102 554.594 39.4011C554.564 39.592 554.599 39.7875 554.694 39.9556L562.228 53.4129C562.255 53.4619 562.294 53.5027 562.342 53.531C562.39 53.5594 562.444 53.5743 562.5 53.5743C562.556 53.5743 562.611 53.5594 562.659 53.531C562.708 53.5027 562.749 53.4619 562.777 53.4129C565.08 49.3189 567.253 45.1645 569.297 40.9498C570.614 38.2262 567.872 38.1796 566.206 38.0087C566.09 37.9982 565.982 37.9427 565.906 37.8539C565.83 37.7651 565.79 37.6499 565.796 37.5324L565.832 36.8334C565.842 36.5779 565.974 36.4502 566.226 36.4502H577.211C577.277 36.4502 577.343 36.4634 577.404 36.4889C577.465 36.5145 577.521 36.552 577.568 36.5991C577.614 36.6463 577.651 36.7023 577.676 36.7638C577.701 36.8254 577.714 36.8912 577.713 36.9576L577.708 37.5324C577.706 37.6798 577.647 37.8207 577.544 37.9244C577.44 38.0282 577.3 38.0864 577.154 38.0864C575.012 38.0968 573.315 39.0788 572.064 41.0326C569.293 45.3786 566.633 49.9921 564.084 54.8731C563.746 55.5203 563.53 56.5248 563.525 57.2549C563.498 60.1821 563.505 63.1853 563.546 66.2644C563.566 67.7556 563.838 69.3556 565.519 69.806C566.616 70.1029 567.655 70.241 568.635 70.2203C568.676 70.2196 568.717 70.2272 568.755 70.2427C568.794 70.2582 568.828 70.2813 568.858 70.3107C568.887 70.34 568.911 70.375 568.927 70.4137C568.944 70.4524 568.953 70.494 568.953 70.5361L568.963 71.3698C568.967 71.6459 568.832 71.784 568.559 71.784H554.13C553.863 71.784 553.732 71.6476 553.735 71.3749L553.756 70.5361C553.757 70.4574 553.789 70.3823 553.845 70.3271C553.9 70.2719 553.975 70.241 554.053 70.241C556.129 70.2617 558.922 69.9873 558.979 67.1964C559.044 63.993 559.052 60.7258 559.004 57.3947C558.984 56.0484 558.118 54.9041 557.472 53.7339C555.24 49.671 552.893 45.5443 550.429 41.3536C549.23 39.3136 547.974 38.1434 545.688 38.0398C545.34 38.026 545.164 37.843 545.16 37.4909V36.9939C545.16 36.6314 545.34 36.4502 545.698 36.4502H557.508C557.863 36.4502 558.037 36.6297 558.031 36.9887L558.02 37.5997C558.018 37.71 557.975 37.8156 557.899 37.8959C557.823 37.9763 557.72 38.0257 557.61 38.0346C556.295 38.1347 555.377 38.4247 554.858 38.9045Z" fill="black"/>
<path d="M589.908 54.8006C589.857 60.6654 589.877 64.6627 589.969 66.7925C590.051 68.6738 591.152 69.6887 593.27 69.8371C595.813 70.0132 598.169 69.9855 600.338 69.7543C603.588 69.4125 605.3 65.9123 606.161 63.0541C606.175 63.0092 606.204 62.9902 606.248 62.9971L607.617 63.1887C607.736 63.206 607.784 63.2733 607.76 63.3906L605.977 71.5458C605.962 71.6134 605.926 71.674 605.872 71.7174C605.819 71.7608 605.753 71.7843 605.684 71.784H580.4C580.347 71.784 580.294 71.7734 580.246 71.7528C580.197 71.7321 580.152 71.7019 580.115 71.6639C580.078 71.6258 580.049 71.5807 580.029 71.5311C580.009 71.4815 579.999 71.4284 580 71.3749L580.015 70.6241C580.017 70.5269 580.054 70.4337 580.121 70.3636C580.188 70.2934 580.278 70.2514 580.374 70.2462C583.47 70.0753 585.387 69.7439 585.387 66.0003C585.387 58.1886 585.387 50.465 585.387 42.8293C585.387 42.0216 585.327 41.219 585.208 40.4216C584.88 38.221 582.927 38.1382 581.189 38.0346C580.868 38.0174 580.707 37.8448 580.707 37.5168V36.968C580.707 36.6228 580.877 36.4502 581.215 36.4502H604.249C604.35 36.4501 604.448 36.4892 604.521 36.5596C604.595 36.6299 604.639 36.7261 604.644 36.8282L605.044 44.0927C605.051 44.2135 604.996 44.2895 604.88 44.3206C604.394 44.4517 603.986 44.5001 603.655 44.4655C603.569 44.4552 603.518 44.4086 603.501 44.3257C603.197 42.7033 602.703 41.3157 602.02 40.1627C601.408 39.1375 600.362 38.5697 598.883 38.4592C596.426 38.2832 593.742 38.2452 590.83 38.3453C590.212 38.366 589.901 38.6905 589.898 39.3187L589.882 52.1391C589.882 52.2124 589.911 52.2828 589.961 52.335C590.012 52.3873 590.081 52.4174 590.154 52.4187C592.542 52.4602 594.984 52.4498 597.478 52.3877C599.626 52.3359 600.461 50.855 600.672 48.7891C600.699 48.5302 600.841 48.3955 601.097 48.3852L601.845 48.3593C601.899 48.3579 601.953 48.3675 602.003 48.3874C602.054 48.4073 602.1 48.4373 602.138 48.4754C602.177 48.5135 602.208 48.5591 602.229 48.6094C602.25 48.6597 602.261 48.7137 602.261 48.7683V58.4251C602.261 58.6943 602.127 58.8289 601.861 58.8289C601.41 58.8289 601.182 58.8289 601.179 58.8289C600.899 58.8289 600.742 58.6926 600.708 58.4199C600.559 57.2756 600.154 55.3546 598.949 54.9611C596.335 54.1119 593.091 54.5158 590.282 54.4329C590.036 54.426 589.911 54.5486 589.908 54.8006Z" fill="black"/>
<path d="M627.702 63.82C628.051 64.752 628.408 64.7572 628.774 63.8356C631.812 56.2206 634.388 49.3306 636.503 43.1655C636.824 42.2231 637.086 41.3291 637.287 40.4834C637.785 38.3812 634.971 38.1326 633.602 38.0549C633.325 38.0377 633.189 37.8893 633.192 37.6097V36.7398C633.192 36.6629 633.223 36.5891 633.278 36.5347C633.332 36.4804 633.407 36.4498 633.484 36.4498C636.973 36.4533 640.684 36.4498 644.617 36.4395C645.119 36.4395 645.321 36.6863 645.222 37.1799C645.215 37.2144 645.215 37.2507 645.222 37.2886C645.297 37.8237 645.061 38.0929 644.515 38.0964C642.338 38.1136 640.734 39.3442 639.702 41.7882C635.324 52.137 631.347 62.1804 627.769 71.9182C627.68 72.1667 627.504 72.2927 627.241 72.2962L626.477 72.3014C626.187 72.3048 625.992 72.1685 625.893 71.8923C622.124 61.4537 618.263 51.2654 614.309 41.3274C613.448 39.1561 611.965 38.0877 609.86 38.1223C609.443 38.1292 609.249 37.9203 609.276 37.4957L609.317 36.9314C609.337 36.6103 609.507 36.4498 609.824 36.4498L622.059 36.4446C622.163 36.4446 622.262 36.485 622.337 36.5574C622.411 36.6298 622.455 36.7286 622.459 36.833L622.485 37.5009C622.487 37.5734 622.476 37.6457 622.45 37.7137C622.425 37.7817 622.386 37.8439 622.337 37.8969C622.287 37.9499 622.228 37.9925 622.161 38.0223C622.095 38.0521 622.024 38.0685 621.952 38.0705C620.708 38.0981 619.773 38.3397 619.148 38.7954C618.724 39.1026 618.74 39.862 619.194 41.0736C621.993 48.5505 624.829 56.1326 627.702 63.82Z" fill="black"/>
<path d="M601.648 85.9554C599.854 85.945 598.171 85.9847 596.599 86.0745C593.847 86.2298 593.216 88.8343 592.719 91.0608C592.658 91.33 592.49 91.4664 592.217 91.4698L591.75 91.475C591.518 91.4784 591.41 91.3628 591.428 91.1281L591.915 84.0862C591.983 83.1265 592.338 83.0023 592.981 83.7134C593.539 84.3295 594.088 84.49 594.882 84.49C600.965 84.4797 607.071 84.4797 613.201 84.49C613.796 84.49 614.313 84.2156 614.729 83.791C615.62 82.8728 616.068 83.0558 616.071 84.3399C616.078 86.4801 616.196 88.6462 616.425 90.8381C616.456 91.1143 616.336 91.28 616.066 91.3352L615.569 91.4387C615.388 91.4767 615.272 91.4077 615.221 91.2316C614.416 88.622 614.165 86.0952 610.751 86.0123C609.142 85.9744 607.573 85.9588 606.046 85.9657C605.98 85.9671 605.918 85.9944 605.872 86.0419C605.826 86.0893 605.8 86.1531 605.8 86.2195C605.803 94.038 605.812 101.874 605.825 109.727C605.831 112.166 607.927 112.368 609.926 112.445C610.261 112.459 610.425 112.635 610.418 112.974L610.413 113.217C610.41 113.348 610.356 113.473 610.262 113.565C610.168 113.657 610.042 113.709 609.911 113.709L597.973 113.714C597.727 113.714 597.6 113.588 597.594 113.336L597.578 112.839C597.576 112.786 597.585 112.733 597.603 112.684C597.622 112.634 597.65 112.589 597.687 112.551C597.723 112.512 597.767 112.482 597.815 112.461C597.863 112.44 597.915 112.43 597.968 112.43C598.767 112.433 599.521 112.338 600.228 112.145C602.222 111.596 602.002 109.825 601.997 108.205C601.983 100.617 601.995 93.3338 602.032 86.3541C602.032 86.0917 601.904 85.9588 601.648 85.9554Z" fill="black"/>
<path d="M567.096 85.5307C560.915 83.9515 557.911 91.2937 562.719 94.825C564.083 95.8261 565.707 96.7961 567.594 97.735C569.418 98.6411 571.679 100.106 572.658 101.867C574.325 104.874 574.211 107.749 572.314 110.493C569.162 115.05 562.488 115.174 557.793 112.953C557.469 112.797 557.277 112.544 557.219 112.192L556.23 106.237C556.179 105.937 556.3 105.752 556.594 105.683L557.112 105.554C557.206 105.531 557.306 105.547 557.388 105.598C557.471 105.648 557.53 105.729 557.553 105.823C558.578 109.83 561.633 113.579 566.123 112.689C568.506 112.212 570.074 110.255 570.187 107.79C570.566 99.4437 556.123 101.204 557.101 90.9675C557.293 88.9309 558.159 87.2636 559.7 85.9657C562.883 83.2835 567.45 83.4078 571.335 84.723C571.464 84.766 571.578 84.8453 571.664 84.9516C571.75 85.0579 571.805 85.1869 571.822 85.3236L572.473 90.8691C572.477 90.9209 572.458 90.9606 572.417 90.9882C572.123 91.1677 571.771 91.254 571.361 91.2471C571.317 91.2471 571.289 91.2264 571.279 91.185C570.356 87.8918 568.962 86.0071 567.096 85.5307Z" fill="black"/>
<path d="M414.647 88.5441C414.524 86.3487 412.54 85.7584 410.716 85.7843C410.586 85.7873 410.459 85.7428 410.36 85.6591C410.26 85.5754 410.193 85.458 410.172 85.3287L410.147 85.1733C410.072 84.7108 410.268 84.4795 410.736 84.4795L420.413 84.4847C420.69 84.4847 420.823 84.6227 420.813 84.8989L420.798 85.3442C420.787 85.6203 420.646 85.7601 420.372 85.7636C418.466 85.7791 416.82 86.6128 416.769 88.7875C416.68 92.5915 416.634 96.5232 416.631 100.583C416.627 101.877 416.484 103.32 416.2 104.911C415.277 110.074 412.356 113.589 406.887 114.257C404.778 114.513 402.749 114.306 400.798 113.636C395.713 111.891 394.314 106.863 394.268 102.012C394.23 97.9523 394.245 93.6788 394.314 89.1913C394.355 86.5247 393.294 85.8465 390.813 85.7584C390.688 85.7544 390.57 85.7011 390.484 85.6102C390.398 85.5192 390.35 85.3977 390.352 85.2717V84.8989C390.352 84.6227 390.488 84.4847 390.762 84.4847L401.556 84.4795C401.816 84.4795 401.944 84.6124 401.941 84.8782L401.935 85.251C401.934 85.33 401.917 85.4078 401.885 85.4797C401.852 85.5516 401.805 85.6158 401.747 85.6684C401.689 85.721 401.62 85.7608 401.546 85.7852C401.472 85.8096 401.393 85.8181 401.315 85.8102C399.362 85.6238 398.009 86.4367 397.989 88.57C397.948 92.7399 397.948 96.9633 397.989 101.24C398.04 107.081 400.731 112.647 407.507 111.891C412.997 111.28 414.678 105.947 414.811 101.054C414.931 96.7666 414.876 92.5967 414.647 88.5441Z" fill="black"/>
<path d="M429.17 91.4541C429.228 95.9865 429.24 100.458 429.206 104.87C429.195 106.439 429.426 107.904 429.483 109.452C429.565 111.813 431.476 112.43 433.434 112.435C433.704 112.438 433.831 112.575 433.814 112.844L433.783 113.367C433.778 113.459 433.738 113.546 433.671 113.61C433.604 113.673 433.516 113.709 433.424 113.709L423.685 113.714C423.402 113.714 423.255 113.57 423.245 113.284L423.229 112.865C423.219 112.582 423.356 112.44 423.639 112.44C425.146 112.445 426.771 111.891 427.068 110.224C427.299 108.935 427.443 107.557 427.448 106.232C427.454 101.154 427.463 95.7241 427.473 89.9421C427.478 87.4878 425.444 85.805 423.111 85.7843C422.756 85.7809 422.575 85.5996 422.568 85.2406L422.563 85.0076C422.553 84.6555 422.722 84.4795 423.07 84.4795H428.893C429.078 84.4795 429.23 84.552 429.349 84.697L447.284 106.506C447.755 107.083 447.988 106.996 447.981 106.247C447.943 102.029 447.933 97.7607 447.95 93.4424C447.955 91.8165 447.776 90.2218 447.607 88.5648C447.376 86.2659 445.772 85.8102 443.773 85.774C443.445 85.7671 443.264 85.5962 443.229 85.2614L443.204 85.0232C443.197 84.9544 443.204 84.8848 443.225 84.819C443.246 84.7532 443.281 84.6927 443.327 84.6414C443.373 84.5901 443.429 84.5491 443.492 84.5212C443.554 84.4933 443.622 84.4791 443.691 84.4795H453.296C453.36 84.4793 453.423 84.4924 453.481 84.5181C453.54 84.5437 453.592 84.5814 453.636 84.6285C453.679 84.6757 453.712 84.7315 453.733 84.7923C453.754 84.8531 453.762 84.9176 453.757 84.9818L453.732 85.3028C453.711 85.5582 453.575 85.698 453.322 85.7222C451.615 85.8982 449.949 86.385 449.959 88.4768C449.959 89.1189 449.744 89.6988 449.734 90.3408C449.628 98.2285 449.611 106.006 449.683 113.672C449.683 113.838 449.609 113.959 449.462 114.035C448.929 114.32 448.355 114.087 447.986 113.626C441.917 106.101 435.893 98.6185 429.913 91.1797C429.407 90.548 429.16 90.6394 429.17 91.4541Z" fill="black"/>
<path d="M460.49 88.1092C460.475 86.2193 458.737 85.7222 457.169 85.805C456.786 85.8257 456.555 85.6462 456.477 85.2665L456.425 85.0283C456.35 84.6659 456.496 84.4847 456.861 84.4847L467.932 84.4795C468.192 84.4795 468.317 84.6124 468.307 84.8782L468.281 85.3494C468.267 85.5979 468.137 85.7291 467.891 85.7429C466.108 85.8361 464.35 86.0173 464.319 88.1661C464.213 95.315 464.21 102.593 464.309 110.001C464.339 112.124 466.251 112.471 467.902 112.424C468.175 112.418 468.307 112.554 468.296 112.834L468.281 113.362C468.271 113.593 468.149 113.709 467.917 113.709L456.877 113.714C456.62 113.714 456.487 113.584 456.477 113.325L456.461 112.87C456.448 112.59 456.579 112.449 456.856 112.445C458.532 112.409 460.454 112.16 460.48 109.986C460.558 102.927 460.562 95.6343 460.49 88.1092Z" fill="black"/>
<path d="M486.255 107.495C486.439 107.975 486.627 107.977 486.819 107.5C489.259 101.418 491.599 95.139 493.841 88.6632C493.984 88.249 494.068 87.8278 494.092 87.3998C494.169 86.1002 492.037 85.8257 491.114 85.7843C490.806 85.7705 490.631 85.61 490.586 85.3028L490.54 85.0025C490.489 84.6538 490.639 84.4795 490.991 84.4795L500.243 84.4847C500.516 84.4847 500.648 84.6227 500.637 84.8989L500.622 85.3649C500.618 85.4812 500.569 85.5913 500.484 85.6717C500.4 85.752 500.288 85.7961 500.171 85.7947C497.229 85.7584 496.306 88.1195 495.322 90.4599C492.083 98.2198 489.028 105.98 486.158 113.74C486.099 113.895 485.997 114.012 485.85 114.092C485.515 114.268 485.173 114.268 484.825 114.092C484.763 114.062 484.708 114.021 484.662 113.969C484.617 113.918 484.581 113.857 484.558 113.791C480.919 103.753 477.699 95.2667 474.897 88.3318C474.21 86.6335 473.016 85.7929 471.314 85.8102C470.941 85.8137 470.753 85.6272 470.75 85.251V84.9973C470.75 84.8613 470.804 84.7309 470.9 84.6348C470.996 84.5387 471.127 84.4847 471.263 84.4847H481.386C481.645 84.4847 481.772 84.6158 481.765 84.8782L481.76 85.3804C481.757 85.4849 481.715 85.5842 481.641 85.6576C481.567 85.7309 481.469 85.7727 481.365 85.774C480.345 85.7843 478.167 85.9862 478.766 87.6069C481.326 94.5591 483.822 101.188 486.255 107.495Z" fill="black"/>
<path d="M510.73 99.6765C510.723 102.807 510.73 105.824 510.75 108.727C510.771 111.197 512.016 112.176 514.307 112.223C515.76 112.254 517.183 112.242 518.577 112.186C521.745 112.067 523.257 109.758 524.174 106.894C524.277 106.577 524.492 106.437 524.82 106.475L525.281 106.532C525.333 106.538 525.382 106.555 525.427 106.581C525.471 106.608 525.509 106.644 525.539 106.686C525.569 106.728 525.59 106.777 525.6 106.828C525.611 106.879 525.61 106.932 525.599 106.983L524.215 113.253C524.186 113.384 524.113 113.501 524.009 113.584C523.905 113.668 523.775 113.714 523.641 113.714L503.011 113.709C502.758 113.709 502.63 113.581 502.626 113.325L502.621 112.865C502.621 112.63 502.736 112.497 502.965 112.466C505.081 112.202 507.126 112.254 507.065 109.292C507.058 108.978 507.056 108.665 507.06 108.355C507.135 101.375 507.13 94.6695 507.044 88.2386C507.019 86.2503 505.368 85.7015 503.728 85.7998C503.597 85.8085 503.467 85.7651 503.367 85.6788C503.267 85.5926 503.206 85.4705 503.195 85.339L503.159 84.8937C503.135 84.621 503.258 84.4847 503.528 84.4847L522.744 84.4795C522.905 84.4795 522.992 84.5606 523.006 84.7229L523.405 90.4858C523.414 90.6196 523.373 90.7517 523.29 90.8568C523.208 90.962 523.09 91.0327 522.959 91.0554L522.539 91.1331C522.444 91.1497 522.347 91.1284 522.267 91.0734C522.186 91.0185 522.13 90.9341 522.109 90.8379C521.622 88.627 520.858 86.2348 518.244 86.0846C516.201 85.9707 513.998 85.9414 511.637 85.9966C511.396 86.002 511.166 86.1026 510.998 86.2768C510.829 86.451 510.735 86.685 510.735 86.9286L510.73 97.4345C510.73 97.6485 510.837 97.7573 511.053 97.7607C513.076 97.7642 515.04 97.7366 516.947 97.6779C518.663 97.6226 519.59 96.6596 519.73 94.7886C519.74 94.664 519.793 94.5469 519.88 94.4579C519.966 94.369 520.08 94.3137 520.202 94.3019L520.474 94.2708C520.897 94.226 521.109 94.4193 521.109 94.8508V102.473C521.109 102.821 520.938 102.996 520.597 102.996H520.299C519.985 102.992 519.809 102.833 519.771 102.519C519.561 100.764 518.9 99.4539 516.891 99.428C514.899 99.4004 512.941 99.3866 511.017 99.3866C510.825 99.3866 510.73 99.4832 510.73 99.6765Z" fill="black"/>
<path d="M535.888 101.214C536.048 104.532 536.098 107.347 536.036 109.659C535.97 112.088 537.81 112.383 539.655 112.44C539.904 112.447 540.022 112.576 540.009 112.828L539.978 113.331C539.964 113.583 539.831 113.709 539.578 113.709L528.789 113.714C528.457 113.714 528.286 113.548 528.276 113.217L528.266 112.937C528.259 112.647 528.397 112.487 528.681 112.456C529.197 112.4 529.713 112.34 530.229 112.274C532.561 111.964 532.336 110.032 532.346 107.982C532.377 101.627 532.377 95.4773 532.346 89.5331C532.331 86.7319 531.972 85.8257 528.983 85.7636C528.679 85.7567 528.51 85.6014 528.476 85.2976L528.45 85.0076C528.413 84.659 528.567 84.4847 528.912 84.4847C533.333 84.4743 537.446 84.4795 541.249 84.5002C542.049 84.5054 542.982 84.728 543.786 84.8678C547.856 85.5876 549.978 88.8548 549.547 92.8987C549.214 96.0417 546.908 98.4338 544.037 99.4487C544.018 99.4558 544.001 99.4669 543.987 99.4815C543.973 99.496 543.962 99.5135 543.955 99.5327C543.948 99.552 543.945 99.5725 543.947 99.5929C543.949 99.6133 543.955 99.633 543.966 99.6506C545.889 103.12 547.981 106.332 550.239 109.287C551.654 111.137 553.06 112.328 554.458 112.859C554.646 112.932 554.745 113.07 554.755 113.274C554.758 113.398 554.743 113.519 554.709 113.636C554.644 113.833 554.511 113.94 554.309 113.957C551.036 114.268 548.466 113.253 546.6 110.913C545.373 109.376 543.59 106.596 541.249 102.571C540.198 100.759 538.025 100.754 536.129 100.935C535.961 100.952 535.881 101.045 535.888 101.214ZM545.134 89.9887C544.078 86.4937 540.014 85.2821 536.887 86.2037C536.732 86.2499 536.591 86.335 536.478 86.451C536.365 86.5671 536.283 86.7101 536.241 86.8665C536.06 87.5258 535.975 88.2507 535.985 89.0412C536.033 92.5449 536.024 95.9053 535.959 99.1225C535.958 99.2114 535.991 99.2974 536.051 99.3621C536.111 99.4269 536.194 99.4654 536.282 99.4694C537.618 99.5316 538.924 99.485 540.198 99.3296C544.837 98.7704 546.323 93.9084 545.134 89.9887Z" fill="black"/>
<path d="M587.947 85.8154C584.354 85.4944 584.364 87.581 584.359 90.3098C584.349 96.2194 584.347 102.045 584.354 107.785C584.354 110.913 584.456 112.554 587.942 112.409C588.002 112.406 588.062 112.416 588.118 112.438C588.174 112.459 588.225 112.492 588.268 112.535C588.312 112.578 588.346 112.629 588.369 112.686C588.392 112.742 588.404 112.803 588.403 112.865L588.398 113.331C588.394 113.586 588.266 113.714 588.013 113.714L576.963 113.709C576.717 113.709 576.594 113.586 576.594 113.341L576.588 112.797C576.589 112.721 576.616 112.646 576.665 112.588C576.713 112.531 576.781 112.493 576.855 112.481C578.203 112.274 579.648 112.466 580.356 111.042C580.557 110.638 580.66 109.903 580.663 108.836C580.701 101.988 580.701 95.3668 580.663 88.9739C580.648 86.4523 579.479 85.6911 577.111 85.7791C576.766 85.7929 576.59 85.6255 576.583 85.2769L576.578 84.8782C576.575 84.6158 576.705 84.4847 576.968 84.4847L587.86 84.4795C588.27 84.4795 588.451 84.6866 588.403 85.1008C588.396 85.1595 588.4 85.2199 588.413 85.2821C588.427 85.3502 588.425 85.4207 588.407 85.4879C588.39 85.5551 588.357 85.6172 588.312 85.669C588.266 85.7209 588.21 85.7611 588.146 85.7865C588.083 85.812 588.015 85.8218 587.947 85.8154Z" fill="black"/>
<path d="M626.152 86.3804C625.996 86.4795 625.884 86.6358 625.839 86.817C625.794 86.9982 625.82 87.1904 625.911 87.3538L632.011 98.2739C632.25 98.7054 632.491 98.7054 632.733 98.2739C634.688 94.8427 636.535 91.2683 638.274 87.5506C638.329 87.4325 638.36 87.3048 638.366 87.1747C638.372 87.0446 638.352 86.9147 638.308 86.7925C638.265 86.6703 638.197 86.5581 638.111 86.4625C638.024 86.3669 637.919 86.2897 637.803 86.2354C637.164 85.9351 636.446 85.7849 635.65 85.7849C635.311 85.7884 635.139 85.6192 635.132 85.2775L635.127 84.8788C635.12 84.6061 635.253 84.4697 635.527 84.4697C638.506 84.4939 641.512 84.4956 644.543 84.4749C644.96 84.4714 645.112 84.6734 644.999 85.0807C644.992 85.1118 644.989 85.1429 644.989 85.1739C645.006 85.5778 644.794 85.7901 644.353 85.8108C641.329 85.961 640.237 88.1719 638.874 90.4812C637.015 93.6363 635.354 96.579 633.892 99.3095C633.507 100.019 633.23 100.863 633.22 101.686C633.193 104.537 633.207 107.211 633.261 109.707C633.312 112.171 635.496 112.498 637.418 112.415C637.461 112.413 637.505 112.419 637.545 112.435C637.585 112.451 637.622 112.474 637.653 112.505C637.684 112.536 637.708 112.573 637.724 112.613C637.74 112.654 637.748 112.697 637.746 112.741L637.731 113.461C637.727 113.626 637.642 113.709 637.475 113.709H625.522C625.276 113.709 625.151 113.585 625.147 113.336L625.132 112.865C625.125 112.599 625.255 112.461 625.522 112.451C627.521 112.368 629.489 112.151 629.509 109.81C629.533 107.239 629.547 104.715 629.55 102.24C629.554 101.526 629.374 100.84 629.012 100.185C626.357 95.345 623.97 91.1751 621.852 87.6748C621.134 86.4943 620.018 85.866 618.505 85.7901C618.183 85.7728 618.014 85.6037 617.997 85.2826L617.982 84.9461C617.965 84.6389 618.11 84.4853 618.417 84.4853L628.274 84.4801C628.33 84.4799 628.385 84.4915 628.436 84.5142C628.488 84.5369 628.534 84.5702 628.572 84.612C628.61 84.6538 628.639 84.7033 628.657 84.7572C628.676 84.8111 628.683 84.8684 628.679 84.9254L628.638 85.3707C628.614 85.6503 628.462 85.7918 628.182 85.7953C627.413 85.8091 626.736 86.0041 626.152 86.3804Z" fill="black"/>
<path d="M191.947 92.9195C192.09 98.7635 192.093 104.432 191.957 109.924C191.895 112.331 192.987 112.689 195.119 112.761C195.234 112.764 195.344 112.812 195.424 112.897C195.505 112.981 195.55 113.094 195.55 113.212V113.413C195.546 113.631 195.435 113.741 195.217 113.745H186.155C185.871 113.745 185.729 113.603 185.729 113.32V113.17C185.729 112.908 185.859 112.775 186.119 112.771C187.687 112.74 189.174 112.409 189.179 110.426C189.192 104.499 189.196 98.622 189.189 92.7952C189.189 92.6157 189.1 92.5259 188.922 92.5259C187.593 92.5052 186.221 92.5466 184.807 92.6502C182.91 92.7848 182.367 94.7731 182.044 96.342C181.982 96.6423 181.8 96.7873 181.495 96.777L181.316 96.7718C181.097 96.7683 180.996 96.6562 181.014 96.4352L181.439 91.071C181.487 90.4462 181.738 90.3495 182.192 90.781C182.603 91.1642 182.977 91.48 183.571 91.48C188.16 91.4731 192.828 91.4731 197.574 91.48C198.154 91.48 198.482 91.1693 198.897 90.8121C199.467 90.3184 199.773 90.4513 199.814 91.2108L200.091 96.2385C200.095 96.3027 200.085 96.367 200.063 96.4275C200.041 96.488 200.008 96.5434 199.964 96.5903C199.921 96.6372 199.868 96.6748 199.81 96.7006C199.751 96.7265 199.688 96.7401 199.625 96.7407H199.481C199.419 96.7424 199.357 96.7221 199.308 96.6834C199.258 96.6448 199.224 96.59 199.209 96.5284C198.887 95.2081 198.43 93.2094 197.016 92.8055C195.627 92.4172 193.833 92.5259 192.31 92.5415C192.061 92.5449 191.94 92.6709 191.947 92.9195Z" fill="black"/>
<path d="M229.11 92.5006C227.665 92.5731 225.994 92.4489 224.63 92.7803C223.129 93.1479 222.729 95.0119 222.38 96.3478C222.305 96.6412 222.116 96.7862 221.811 96.7827H221.632C221.599 96.7821 221.566 96.7747 221.536 96.7609C221.505 96.7472 221.478 96.7274 221.456 96.7027C221.433 96.678 221.416 96.649 221.405 96.6174C221.394 96.5857 221.389 96.5522 221.391 96.5187L221.735 91.2787C221.793 90.3984 222.124 90.2759 222.729 90.911C223.067 91.2631 223.416 91.4806 223.913 91.4806C228.608 91.4737 233.182 91.4737 237.634 91.4806C238.224 91.4806 238.664 91.3874 239.1 90.968C239.763 90.3328 240.124 90.4744 240.182 91.3926L240.484 96.2701C240.501 96.5221 240.385 96.6585 240.135 96.6792L239.925 96.6999C239.662 96.7241 239.51 96.6032 239.469 96.3374C239.233 94.7634 238.485 92.7181 236.64 92.6197C235.252 92.5507 233.932 92.5162 232.678 92.5162C232.421 92.5162 232.293 92.6474 232.293 92.9097C232.283 98.9713 232.286 104.793 232.304 110.375C232.314 112.425 233.78 112.731 235.476 112.756C235.75 112.763 235.893 112.905 235.907 113.181L235.912 113.311C235.922 113.6 235.786 113.745 235.502 113.745L226.44 113.751C226.129 113.751 225.992 113.594 226.03 113.279L226.05 113.083C226.067 112.941 226.146 112.858 226.286 112.834C227.926 112.539 229.505 112.72 229.531 110.426C229.596 104.9 229.602 99.0645 229.551 92.92C229.551 92.6232 229.404 92.4834 229.11 92.5006Z" fill="black"/>
<path d="M137.308 93.8987C141.614 90.357 146.96 90.5175 152.06 91.7499C152.272 91.8016 152.393 91.9363 152.424 92.1537L153.018 96.529C153.037 96.6683 153.003 96.8096 152.923 96.9247C152.844 97.0398 152.724 97.1204 152.588 97.1504L152.414 97.1866C152.181 97.2349 152.039 97.14 151.988 96.9018C151.445 94.3543 149.605 92.5162 147.001 92.1796C132.829 90.3674 133.669 114.859 147.052 112.912C149.61 112.539 151.532 110.256 152.547 107.967C152.639 107.753 152.791 107.693 153.003 107.786L153.254 107.889C153.548 108.017 153.64 108.233 153.531 108.537L152.019 112.762C151.962 112.921 151.867 113.064 151.742 113.178C151.617 113.292 151.465 113.373 151.301 113.414C146.709 114.553 141.148 114.91 137.247 111.597C132.08 107.206 131.85 98.3827 137.308 93.8987Z" fill="black"/>
<path d="M5.67362 92.6502C5.58557 92.6676 5.50259 92.7051 5.4311 92.7597C5.35962 92.8143 5.30155 92.8847 5.2614 92.9653C5.22125 93.0459 5.2001 93.1346 5.19959 93.2246C5.19908 93.3145 5.21922 93.4032 5.25844 93.4839L10.7685 104.932C10.7898 104.977 10.8235 105.015 10.8654 105.04C10.9074 105.066 10.9558 105.08 11.005 105.079C11.0542 105.077 11.102 105.062 11.1428 105.034C11.1835 105.007 11.2155 104.967 11.2349 104.922C12.7042 101.629 14.0625 98.2268 15.3098 94.7162C15.6532 93.7427 15.4994 92.6347 14.341 92.5674C13.9822 92.5467 13.6337 92.4966 13.2954 92.4172C13.1949 92.394 13.1031 92.3415 13.0312 92.2661C12.9594 92.1908 12.9105 92.0958 12.8905 91.9926C12.8597 91.8166 12.9041 91.6664 13.0237 91.5422C13.1058 91.4593 13.2048 91.4196 13.321 91.4231C15.6515 91.5059 17.8709 91.5059 19.9792 91.4231C20.0216 91.4217 20.0639 91.4288 20.1036 91.4439C20.1433 91.459 20.1796 91.4819 20.2106 91.5112C20.2415 91.5406 20.2664 91.5758 20.2839 91.6148C20.3014 91.6539 20.311 91.6961 20.3124 91.7389L20.3226 91.9512C20.3329 92.2308 20.1996 92.3827 19.9228 92.4069C18.5526 92.5104 17.5343 93.3354 16.8679 94.8819C14.3427 100.774 12.0653 105.971 10.0355 110.472C9.04114 112.678 7.19592 114.843 4.67925 114.718C3.20307 114.651 1.36298 113.191 3.02368 111.767C3.8284 111.073 4.21282 111.938 4.83814 112.207C7.17542 113.217 8.53883 111.203 9.11803 109.313C9.42044 108.339 8.91813 107.552 8.48758 106.646C6.27331 102.007 4.20428 97.7832 2.28047 93.9758C1.79524 93.0127 0.905094 92.5156 -0.389976 92.4845C-0.497342 92.4835 -0.600495 92.4415 -0.6792 92.3668C-0.757904 92.2921 -0.806481 92.19 -0.815401 92.0807L-0.830779 91.8891C-0.835043 91.8355 -0.828393 91.7816 -0.81125 91.7308C-0.794108 91.68 -0.766845 91.6334 -0.73119 91.594C-0.695535 91.5546 -0.652264 91.5232 -0.604117 91.5018C-0.555969 91.4804 -0.503994 91.4694 -0.451483 91.4697L6.91914 91.4593C7.131 91.4593 7.23864 91.5646 7.24205 91.7752V91.9512C7.24501 92.0639 7.20785 92.174 7.13731 92.2614C7.06677 92.3488 6.96754 92.4078 6.85763 92.4276L5.67362 92.6502Z" fill="black"/>
<path d="M39.3207 102.602L28.3775 102.597C28.3304 102.597 28.2838 102.606 28.2402 102.624C28.1967 102.643 28.1571 102.669 28.1238 102.703C28.0905 102.737 28.0641 102.777 28.046 102.821C28.028 102.865 28.0187 102.912 28.0187 102.959C28.0324 105.445 28.0358 108.047 28.029 110.768C28.029 112.368 29.3155 112.839 30.643 112.74C30.7472 112.733 30.8502 112.765 30.9325 112.829C31.0147 112.893 31.0704 112.985 31.089 113.087L31.1249 113.3C31.1795 113.596 31.0582 113.745 30.7609 113.745H22.3601C22.3233 113.745 22.2869 113.737 22.2529 113.723C22.219 113.709 22.1883 113.688 22.1625 113.661C22.1367 113.635 22.1165 113.603 22.1029 113.569C22.0893 113.534 22.0826 113.497 22.0833 113.46V113.243C22.0867 112.96 22.2268 112.804 22.5036 112.777C24.0976 112.626 25.215 112.43 25.2048 110.488C25.1809 105.331 25.1791 100.01 25.1996 94.5246C25.2099 92.8418 23.9439 92.3084 22.4574 92.4327C22.4074 92.4377 22.3568 92.4321 22.3089 92.4163C22.2609 92.4005 22.2166 92.3748 22.1787 92.3409C22.1408 92.3069 22.11 92.2654 22.0883 92.2189C22.0666 92.1723 22.0544 92.1218 22.0525 92.0703L22.0474 91.9046C22.0371 91.6112 22.1772 91.4645 22.4677 91.4645L30.684 91.4593C30.7436 91.4574 30.8019 91.4779 30.8481 91.5169C30.8943 91.556 30.9253 91.6109 30.9352 91.6716L30.9608 91.8166C31.0121 92.141 30.8771 92.324 30.5559 92.3654C29.3565 92.5207 28.029 92.5673 28.0444 94.2139C28.058 96.4749 28.0307 98.6859 27.9624 100.847C27.9609 100.906 27.9714 100.964 27.9932 101.019C28.015 101.073 28.0477 101.122 28.0892 101.163C28.1306 101.204 28.18 101.236 28.234 101.256C28.2881 101.277 28.3457 101.285 28.4032 101.282C31.8202 101.116 35.4611 101.116 39.3258 101.282C39.5479 101.289 39.6607 101.18 39.6641 100.955C39.7017 98.6979 39.6915 96.4093 39.6334 94.0896C39.5975 92.6554 38.2494 92.3965 37.1218 92.3861C37.026 92.3863 36.9338 92.3493 36.8642 92.2828C36.7946 92.2164 36.7529 92.1255 36.7476 92.0288L36.7374 91.8476C36.7203 91.5991 36.8348 91.4748 37.0808 91.4748L45.3484 91.4541C45.4286 91.4541 45.5055 91.4868 45.5623 91.5451C45.619 91.6034 45.6508 91.6824 45.6508 91.7648V91.946C45.6509 92.0113 45.6379 92.0758 45.6125 92.1358C45.5872 92.1957 45.55 92.2497 45.5034 92.2943C45.4568 92.339 45.4017 92.3734 45.3415 92.3954C45.2813 92.4174 45.2174 92.4266 45.1536 92.4224C44.0106 92.3602 42.5396 92.7641 42.5345 94.1259C42.5174 99.4763 42.5088 104.923 42.5088 110.467C42.5088 112.155 43.4092 112.901 45.21 112.704C45.2611 112.699 45.3127 112.705 45.3609 112.723C45.4091 112.741 45.4527 112.77 45.4882 112.807C45.5238 112.845 45.5504 112.89 45.5662 112.939C45.5819 112.989 45.5863 113.041 45.5791 113.092C45.5722 113.155 45.5722 113.217 45.5791 113.279C45.6269 113.586 45.4971 113.74 45.1895 113.74L36.6246 113.745C36.4128 113.748 36.3222 113.643 36.353 113.429L36.3889 113.237C36.4115 113.09 36.4875 112.957 36.6021 112.863C36.7168 112.769 36.8618 112.722 37.009 112.73C38.3366 112.813 39.6795 112.347 39.6744 110.752C39.6675 108.187 39.6744 105.597 39.6949 102.98C39.6949 102.728 39.5701 102.602 39.3207 102.602Z" fill="black"/>
<path d="M65.5745 95.4573C65.6941 94.0834 65.4002 93.9868 64.6929 95.1673C61.3783 100.715 58.0244 106.301 54.6313 111.928C54.3494 112.399 54.2161 112.855 54.3033 113.409C54.3099 113.45 54.3075 113.492 54.2961 113.533C54.2848 113.573 54.2648 113.611 54.2375 113.643C54.2102 113.674 54.1763 113.7 54.1381 113.718C54.0999 113.736 54.0584 113.745 54.0162 113.746L48.6241 113.751C48.4396 113.751 48.3165 113.664 48.255 113.492C48.2209 113.388 48.2174 113.28 48.2448 113.166C48.296 112.955 48.4276 112.827 48.6395 112.782C49.1776 112.669 49.6851 112.767 50.1874 112.482C50.8674 112.095 51.2091 111.393 51.2125 110.375C51.2262 104.959 51.2245 99.6824 51.2074 94.546C51.1971 92.6043 50.1054 92.5266 48.5728 92.3506C48.3644 92.3264 48.2619 92.2073 48.2653 91.9933L48.2704 91.7862C48.2738 91.5687 48.3832 91.46 48.5985 91.46H56.5995C56.7806 91.46 56.8712 91.5532 56.8712 91.7396L56.8763 92.0036C56.8763 92.2625 56.7482 92.392 56.4919 92.392C55.3181 92.3972 53.9547 92.7492 53.9496 94.2094C53.9393 98.6762 53.9257 103.512 53.9086 108.718C53.9086 108.987 53.8556 109.256 53.7497 109.526C53.7295 109.578 53.7227 109.634 53.7299 109.689C53.7371 109.745 53.758 109.797 53.7907 109.841C53.9 109.983 54.0282 110.036 54.1751 110.002C54.305 109.971 54.4024 109.898 54.4673 109.784C57.7648 104.292 61.163 98.6486 64.6621 92.8528C64.8466 92.5421 65.0107 92.1279 65.067 91.7499C65.0978 91.5601 65.2088 91.4651 65.4002 91.4651L70.7513 91.46C70.8397 91.46 70.9244 91.4954 70.9869 91.5585C71.0494 91.6217 71.0845 91.7073 71.0845 91.7965L71.0794 91.9933C71.0794 92.0452 71.0691 92.0965 71.0492 92.1443C71.0292 92.1921 71 92.2354 70.9632 92.2716C70.9264 92.3078 70.8828 92.3362 70.835 92.3551C70.7871 92.374 70.736 92.383 70.6847 92.3816C69.5058 92.3661 68.2039 92.8373 68.1834 94.2249C68.1151 99.0024 68.1099 104.579 68.168 110.955C68.1834 112.332 69.4648 112.834 70.7103 112.736C70.7577 112.732 70.8054 112.739 70.8501 112.755C70.8949 112.771 70.9358 112.797 70.9701 112.83C71.0045 112.863 71.0315 112.903 71.0494 112.948C71.0674 112.992 71.0758 113.04 71.0742 113.088C71.0742 113.147 71.0794 113.205 71.0896 113.264C71.1443 113.585 71.011 113.746 70.6898 113.746H62.7349C62.4683 113.746 62.3522 113.611 62.3863 113.342L62.412 113.114C62.4427 112.865 62.5811 112.746 62.8271 112.757C64.0727 112.813 65.3848 112.332 65.3643 110.841C65.2977 105.709 65.149 100.485 65.5745 95.4573Z" fill="black"/>
<path d="M86.7308 102.12C88.7708 102.638 90.3393 103.637 90.9441 105.698C91.7796 108.536 90.1496 111.29 87.5919 112.507C86.2217 113.163 84.7523 113.543 83.1839 113.646C81.4856 113.76 78.4103 113.786 73.9578 113.724C73.722 113.72 73.6161 113.601 73.64 113.366L73.6657 113.165C73.6786 113.04 73.7388 112.926 73.8334 112.846C73.9281 112.766 74.0499 112.726 74.1731 112.735C77.1972 112.947 76.8897 110.948 76.905 108.546C76.9358 103.817 76.9273 99.0893 76.8794 94.3637C76.864 92.5825 75.7108 92.4737 74.3166 92.3702C74.2237 92.3649 74.1363 92.3238 74.0724 92.2555C74.0086 92.1871 73.973 92.0966 73.9732 92.0026V91.7385C73.9732 91.5279 74.0791 91.4244 74.291 91.4278C77.093 91.483 79.9155 91.4969 82.7585 91.4692C86.0132 91.433 89.2988 92.1009 89.7088 96.0413C89.9343 98.2264 88.6273 100.189 86.6488 101.017C85.5724 101.469 85.5998 101.837 86.7308 102.12ZM79.6729 92.6084L79.6114 101.193C79.6114 101.228 79.6249 101.261 79.6489 101.285C79.6729 101.309 79.7055 101.323 79.7395 101.323L82.4304 101.343C82.9865 101.348 83.5379 101.244 84.0532 101.039C84.5684 100.835 85.0375 100.532 85.4335 100.149C85.8295 99.7667 86.1447 99.3112 86.3612 98.8088C86.5776 98.3065 86.691 97.7673 86.695 97.2219V96.6834C86.7029 95.5821 86.2646 94.5227 85.4764 93.7381C84.6882 92.9536 83.6147 92.5081 82.492 92.4996L79.801 92.4789C79.767 92.4789 79.7344 92.4926 79.7104 92.5168C79.6864 92.5411 79.6729 92.574 79.6729 92.6084ZM81.6565 112.59C84.6396 112.911 87.6073 111.425 87.838 108.147C88.1968 102.959 83.8554 102.105 79.883 102.379C79.6814 102.393 79.584 102.502 79.5909 102.705C79.6524 104.925 79.6558 107.288 79.6011 109.794C79.5704 111.212 80.0573 112.419 81.6565 112.59Z" fill="black"/>
<path d="M99.6687 103.177C99.6379 105.549 99.6499 107.917 99.7046 110.281C99.7319 111.451 100.224 112.142 101.181 112.352C102.828 112.718 104.557 112.76 106.368 112.477C108.403 112.156 109.346 110.38 109.961 108.609C110.07 108.295 110.287 108.155 110.612 108.189L110.796 108.21C110.837 108.214 110.877 108.227 110.913 108.248C110.949 108.269 110.98 108.297 111.004 108.331C111.028 108.364 111.045 108.403 111.053 108.444C111.062 108.485 111.062 108.527 111.053 108.567L109.987 113.388C109.935 113.626 109.788 113.745 109.546 113.745H93.7793C93.5299 113.745 93.4154 113.619 93.4359 113.367L93.4564 113.124C93.4735 112.889 93.5982 112.77 93.8306 112.767C95.1838 112.736 96.8906 112.487 96.8855 110.685C96.8786 105.38 96.8786 99.903 96.8855 94.2557C96.8855 92.5367 95.4247 92.5418 94.2099 92.3554C94.0015 92.3244 93.8989 92.2018 93.9024 91.9878V91.7807C93.9058 91.5701 94.0134 91.4648 94.2253 91.4648L108.854 91.4752C109.011 91.4752 109.093 91.5546 109.1 91.7134L109.346 95.8764C109.366 96.2147 109.211 96.408 108.879 96.4563L108.71 96.4822C108.628 96.4931 108.545 96.4724 108.479 96.4242C108.412 96.376 108.366 96.3041 108.351 96.2233C107.948 94.0279 107.111 92.856 105.84 92.7075C104.23 92.5177 102.389 92.4728 100.314 92.5729C99.8805 92.5936 99.6635 92.8214 99.6635 93.2564V101.189C99.6635 101.406 99.7695 101.519 99.9813 101.525C101.475 101.57 102.97 101.562 104.466 101.5C105.734 101.448 106.434 100.735 106.568 99.3611C106.581 99.2248 106.643 99.0982 106.742 99.0062C106.842 98.9142 106.972 98.8635 107.106 98.864H107.347C107.415 98.864 107.48 98.8908 107.528 98.9383C107.576 98.9859 107.603 99.0504 107.603 99.1177L107.608 105.212C107.608 105.488 107.472 105.614 107.198 105.59L107.009 105.569C106.887 105.559 106.774 105.505 106.69 105.416C106.606 105.327 106.557 105.211 106.552 105.088C106.501 103.603 105.79 102.86 104.42 102.856C102.951 102.853 101.481 102.848 100.012 102.841C99.7866 102.841 99.6721 102.953 99.6687 103.177Z" fill="black"/>
<path d="M119.007 104.347C119.011 106.605 119.016 108.724 119.023 110.706C119.033 112.419 120.586 112.849 121.985 112.746C122.289 112.725 122.447 112.868 122.457 113.175L122.462 113.341C122.472 113.61 122.344 113.745 122.078 113.745H113.487C113.221 113.745 113.106 113.612 113.144 113.346L113.174 113.144C113.187 113.051 113.231 112.965 113.298 112.899C113.364 112.834 113.451 112.792 113.543 112.782C115.102 112.596 116.245 112.419 116.27 110.442C116.339 105.267 116.339 99.9926 116.27 94.618C116.253 93.0439 115.474 92.3086 113.933 92.4122C113.619 92.4329 113.438 92.2862 113.39 91.9721C113.376 91.8858 113.376 91.7995 113.39 91.7132C113.427 91.513 113.545 91.4146 113.743 91.4181C116.689 91.4905 119.554 91.5026 122.339 91.4543C134.4 91.242 130.596 107.967 119.387 104.073C119.134 103.986 119.007 104.078 119.007 104.347ZM119.012 93.7843L118.972 102.079C118.97 102.434 119.108 102.775 119.355 103.027C119.602 103.28 119.938 103.423 120.289 103.426L121.662 103.436C122.306 103.44 122.943 103.312 123.539 103.06C124.135 102.808 124.677 102.436 125.134 101.967C125.592 101.497 125.956 100.938 126.205 100.322C126.455 99.7061 126.585 99.0452 126.588 98.3771V97.5694C126.595 96.2216 126.087 94.9263 125.175 93.968C124.263 93.0097 123.021 92.4669 121.724 92.4588L120.35 92.4485C120.176 92.4471 120.002 92.4806 119.84 92.5471C119.678 92.6135 119.531 92.7116 119.407 92.8357C119.282 92.9599 119.184 93.1075 119.116 93.2703C119.048 93.4331 119.013 93.6078 119.012 93.7843Z" fill="black"/>
<path d="M173.017 94.9498C173.14 94.7392 173.202 94.6253 173.202 94.608C173.178 94.0177 172.985 93.9556 172.623 94.4216C172.561 94.5045 172.483 94.6701 172.387 94.9187C168.994 100.59 165.592 106.258 162.182 111.923C161.92 112.363 161.741 112.844 161.849 113.357C161.859 113.404 161.858 113.453 161.847 113.499C161.836 113.546 161.814 113.59 161.784 113.627C161.754 113.664 161.716 113.694 161.673 113.715C161.63 113.735 161.583 113.746 161.536 113.745H156.128C155.886 113.745 155.766 113.625 155.77 113.383C155.77 113.276 155.79 113.174 155.831 113.077C155.927 112.846 156.098 112.731 156.344 112.731C157.909 112.741 158.693 112.087 158.696 110.768C158.7 104.914 158.695 99.3906 158.681 94.199C158.676 92.6042 157.353 92.3763 156.139 92.3867C156.091 92.3868 156.044 92.377 156 92.3579C155.956 92.3388 155.917 92.3108 155.884 92.2757C155.852 92.2406 155.827 92.1992 155.812 92.1541C155.797 92.109 155.791 92.0613 155.795 92.0139L155.811 91.8223C155.828 91.5772 155.958 91.4547 156.2 91.4547L164.201 91.4702C164.266 91.4702 164.329 91.497 164.375 91.5445C164.421 91.5921 164.447 91.6566 164.447 91.7239V91.8793C164.448 91.9481 164.435 92.0165 164.409 92.0802C164.383 92.144 164.345 92.2019 164.297 92.2506C164.249 92.2993 164.192 92.3378 164.128 92.3638C164.065 92.3899 163.998 92.4029 163.93 92.4022C162.787 92.3867 161.531 92.7906 161.515 94.1575C161.464 98.5587 161.454 102.981 161.485 107.423C161.488 107.869 161.464 108.328 161.413 108.801C161.242 110.42 161.574 110.532 162.407 109.137C165.448 104.049 168.647 98.7486 172.002 93.2359C172.293 92.7561 172.505 92.2486 172.638 91.7136C172.679 91.5583 172.778 91.4806 172.935 91.4806L178.384 91.4443C178.561 91.4443 178.65 91.5324 178.65 91.7084L178.655 91.8896C178.657 91.9562 178.645 92.0224 178.621 92.0842C178.596 92.1461 178.56 92.2024 178.513 92.2497C178.467 92.297 178.412 92.3345 178.351 92.3598C178.29 92.3851 178.224 92.3978 178.158 92.3971C177.128 92.3919 175.811 92.775 175.775 94.0126C175.679 97.2332 175.664 102.867 175.729 110.913C175.744 112.596 177.097 112.611 178.322 112.798C178.568 112.832 178.69 112.976 178.686 113.228V113.378C178.683 113.623 178.56 113.745 178.317 113.745H170.249C169.986 113.745 169.891 113.618 169.962 113.362C169.983 113.286 169.998 113.21 170.009 113.134C170.024 113.015 170.083 112.905 170.175 112.828C170.266 112.751 170.383 112.713 170.501 112.72C172.161 112.813 172.983 112.033 172.966 110.38C172.908 105.23 172.925 100.086 173.017 94.9498Z" fill="black"/>
<path d="M208.449 101.546C209.71 101.522 211.074 101.522 212.54 101.546C214.115 101.574 214.962 100.854 215.082 99.3873C215.106 99.0732 215.275 98.9057 215.589 98.885L215.753 98.8747C216.013 98.8574 216.143 98.98 216.143 99.2423V105.14C216.143 105.395 216.018 105.544 215.769 105.585C215.663 105.606 215.559 105.597 215.456 105.559C215.234 105.476 215.111 105.318 215.087 105.083C214.95 103.633 214.315 102.896 213.18 102.872C211.67 102.837 210.086 102.834 208.429 102.862C208.374 102.863 208.322 102.886 208.284 102.926C208.245 102.965 208.224 103.019 208.224 103.074C208.234 105.556 208.244 107.962 208.255 110.292C208.261 111.555 208.873 112.28 210.09 112.467C211.819 112.732 213.551 112.698 215.287 112.363C216.984 112.037 218.039 110.049 218.501 108.495C218.583 108.219 218.766 108.109 219.049 108.164L219.29 108.216C219.54 108.267 219.635 108.419 219.577 108.671L218.496 113.471C218.478 113.549 218.435 113.618 218.372 113.668C218.31 113.718 218.232 113.745 218.152 113.746H202.278C202.202 113.746 202.13 113.716 202.075 113.664C202.021 113.612 201.989 113.541 201.986 113.466L201.981 113.243C201.978 113.179 201.988 113.115 202.011 113.055C202.033 112.994 202.067 112.939 202.112 112.893C202.156 112.846 202.209 112.81 202.267 112.784C202.326 112.759 202.389 112.746 202.452 112.746C203.995 112.751 205.451 112.363 205.466 110.447C205.5 105.138 205.5 99.8498 205.466 94.5822C205.456 92.5836 204.246 92.5836 202.739 92.3454C202.65 92.3314 202.569 92.284 202.512 92.2122C202.456 92.1404 202.427 92.0495 202.432 91.957L202.447 91.7655C202.461 91.5618 202.569 91.46 202.77 91.46L217.419 91.4755C217.472 91.4767 217.523 91.4976 217.561 91.5341C217.599 91.5706 217.622 91.62 217.624 91.6723L217.906 96.0113C217.923 96.2806 217.8 96.4255 217.537 96.4463L217.322 96.4618C217.066 96.4825 216.915 96.3651 216.871 96.1097C216.645 94.8359 215.928 92.8787 214.441 92.713C212.603 92.5024 210.677 92.4645 208.665 92.5991C208.552 92.607 208.446 92.6573 208.369 92.74C208.292 92.8227 208.249 92.9315 208.25 93.0444L208.229 101.334C208.229 101.362 208.235 101.391 208.246 101.417C208.257 101.443 208.273 101.466 208.294 101.486C208.314 101.506 208.339 101.521 208.365 101.532C208.392 101.542 208.421 101.547 208.449 101.546Z" fill="black"/>
<path d="M243.075 112.756C244.238 112.828 245.74 112.378 245.745 111.016C245.772 106.004 245.774 100.465 245.75 94.4004C245.745 92.4639 244.438 92.5726 243.023 92.35C242.835 92.3223 242.716 92.2153 242.664 92.0289C242.61 91.8391 242.649 91.6768 242.782 91.5422C242.868 91.4594 242.97 91.4197 243.09 91.4231C245.906 91.5163 248.66 91.5111 251.352 91.4076C251.398 91.4055 251.443 91.4126 251.486 91.4284C251.529 91.4443 251.568 91.4686 251.602 91.4999C251.635 91.5313 251.662 91.569 251.681 91.6109C251.699 91.6528 251.71 91.6981 251.711 91.7441L251.721 91.9668C251.725 92.0612 251.693 92.1535 251.632 92.2254C251.571 92.2972 251.486 92.3435 251.393 92.3551L249.933 92.5467C249.616 92.5878 249.322 92.7358 249.097 92.9668C248.873 93.1978 248.733 93.4985 248.697 93.8205C248.636 94.3969 248.603 94.9976 248.6 95.6224C248.562 100.503 248.559 105.262 248.59 109.898C248.593 110.498 248.661 111.101 248.795 111.705C248.836 111.888 248.93 112.034 249.077 112.145C249.722 112.632 250.428 112.823 251.193 112.72C251.511 112.675 251.686 112.813 251.716 113.134L251.737 113.341C251.768 113.61 251.648 113.745 251.378 113.745H243.059C242.799 113.745 242.671 113.614 242.675 113.351V113.129C242.675 113.078 242.686 113.027 242.707 112.981C242.727 112.934 242.757 112.892 242.795 112.857C242.832 112.822 242.876 112.795 242.924 112.778C242.972 112.761 243.023 112.753 243.075 112.756Z" fill="black"/>
<path d="M173.021 94.9498L172.391 94.9187C172.486 94.6702 172.565 94.5045 172.626 94.4217C172.989 93.9557 173.182 94.0178 173.206 94.6081C173.206 94.6253 173.144 94.7392 173.021 94.9498Z" fill="#4E5991"/>
</g>
<defs>
<clipPath id="clip0_3293_5556">
<rect width="646" height="146" fill="white"/>
</clipPath>
</defs>
</svg>
