<?xml version="1.0" standalone="no"?>
<!DOCTYPE svg PUBLIC "-//W3C//DTD SVG 20010904//EN"
 "http://www.w3.org/TR/2001/REC-SVG-20010904/DTD/svg10.dtd">
<svg version="1.0" xmlns="http://www.w3.org/2000/svg"
 width="1499.000000pt" height="1498.000000pt" viewBox="0 0 1499.000000 1498.000000"
 preserveAspectRatio="xMidYMid meet">

<g transform="translate(0.000000,1498.000000) scale(0.100000,-0.100000)"
fill="#000000" stroke="none">
<path d="M3605 14973 c-329 -28 -676 -142 -945 -308 -172 -107 -292 -206 -520
-432 l-225 -222 2085 -2084 c1147 -1146 2121 -2112 2165 -2147 392 -311 844
-470 1335 -470 488 0 945 161 1335 470 44 35 1018 1001 2165 2147 l2085 2083
-170 171 c-216 217 -359 341 -510 441 -286 190 -630 312 -984 348 -520 52
-1069 -105 -1503 -431 -54 -40 -495 -473 -1250 -1228 l-1168 -1166 -1172 1171
c-1250 1247 -1243 1241 -1475 1374 -372 215 -833 319 -1248 283z"/>
<path d="M754 12848 c-334 -339 -476 -544 -599 -863 -211 -548 -187 -1172 65
-1694 73 -151 111 -215 208 -351 64 -90 245 -275 1246 -1278 l1171 -1172
-1171 -1173 c-871 -872 -1187 -1195 -1236 -1262 -213 -291 -335 -581 -400
-944 -29 -168 -32 -490 -5 -656 50 -300 149 -573 292 -805 107 -172 206 -292
432 -520 l222 -225 2006 2005 c1104 1103 2053 2055 2110 2117 305 331 481 681
557 1103 29 167 36 445 13 620 -49 393 -204 758 -455 1075 -57 72 -4216 4245
-4231 4245 -3 0 -105 -100 -225 -222z"/>
<path d="M11934 10988 c-1144 -1146 -2109 -2119 -2144 -2163 -254 -320 -405
-677 -455 -1075 -21 -162 -16 -462 10 -605 66 -371 213 -698 445 -990 35 -44
1001 -1018 2147 -2165 l2084 -2085 212 215 c297 299 418 459 537 705 355 731
275 1566 -213 2235 -54 74 -330 356 -1236 1263 l-1166 1167 1166 1168 c1252
1253 1250 1251 1385 1489 218 382 316 840 274 1264 -42 411 -189 782 -443
1119 -63 83 -500 540 -516 540 -4 0 -943 -937 -2087 -2082z"/>
<path d="M7405 8600 c-441 -38 -818 -334 -961 -754 -76 -222 -76 -491 0 -714
111 -326 373 -587 700 -698 221 -76 504 -74 719 3 380 135 658 457 732 846 19
100 19 312 1 409 -108 565 -622 956 -1191 908z"/>
<path d="M7290 5664 c-425 -50 -797 -204 -1125 -464 -44 -35 -1018 -1001
-2165 -2147 l-2085 -2084 225 -222 c336 -332 526 -466 844 -594 702 -282 1515
-163 2126 310 36 28 588 573 1227 1211 l1163 1161 1172 -1171 c1212 -1210
1232 -1229 1438 -1354 527 -320 1196 -396 1780 -201 375 126 602 275 970 638
l225 222 -1995 1996 c-1097 1098 -2049 2047 -2116 2109 -278 258 -553 418
-878 512 -205 59 -324 76 -561 79 -115 2 -226 1 -245 -1z"/>
</g>
</svg>
