<svg width="461" height="60" viewBox="0 0 461 60" fill="none" xmlns="http://www.w3.org/2000/svg">
<path d="M22.1635 59.027C16.6294 59.027 11.9548 57.7838 8.14003 55.2972C4.32523 52.8108 1.61189 49.3783 0 44.9999L9.51014 39.4053C11.7131 45.1892 16.0383 48.081 22.4858 48.081C25.4947 48.081 27.7514 47.5405 29.2558 46.4594C30.7601 45.3784 31.5124 43.919 31.5124 42.081C31.5124 40.0811 30.6259 38.5405 28.8528 37.4594C27.0797 36.3243 23.9096 35.108 19.3427 33.8107C14.3995 32.2973 10.5041 30.5406 7.65647 28.5405C4.11031 25.8919 2.33724 22 2.33724 16.8648C2.33724 11.6757 4.13719 7.59459 7.73706 4.62162C11.3369 1.54054 15.7159 0 20.8739 0C25.3872 0 29.39 1.10811 32.8825 3.32433C36.375 5.54055 39.0883 8.67568 41.0226 12.7297L31.6736 18.1621C29.417 13.2973 25.8171 10.8649 20.8739 10.8649C18.6173 10.8649 16.8173 11.4054 15.4741 12.4865C14.1309 13.5135 13.4593 14.8649 13.4593 16.5405C13.4593 18.3243 14.1846 19.7837 15.6353 20.9189C17.2472 22.054 20.0949 23.2433 24.1783 24.4864L28.0469 25.7837C28.7453 26 29.9542 26.4595 31.6736 27.1621C33.2855 27.7567 34.4675 28.3243 35.2198 28.8648C37.8525 30.4864 39.6255 32.1622 40.539 33.8918C41.936 36.1621 42.6344 38.8378 42.6344 41.9189C42.6344 47.1622 40.7271 51.3243 36.9122 54.4053C33.0974 57.4864 28.1811 59.027 22.1635 59.027Z" fill="black"/>
<path d="M74.55 59.0266C68.2636 59.0266 63.1056 57.2428 59.0758 53.6752C55.0461 50.1077 53.0312 45.3239 53.0312 39.3239V1.13477H64.0727V38.432C64.0727 41.4591 64.9323 43.8375 66.6517 45.5671C68.4248 47.2429 71.0575 48.0806 74.55 48.0806C78.0424 48.0806 80.6482 47.2429 82.3676 45.5671C84.1407 43.8375 85.0272 41.4591 85.0272 38.432V1.13477H96.1493V39.3239C96.1493 45.3239 94.1344 50.1077 90.1047 53.6752C86.075 57.2428 80.89 59.0266 74.55 59.0266Z" fill="black"/>
<path d="M142.438 35.7563V1.13477H153.56V57.8915H145.097L120.919 23.1888V57.8915H109.797V1.13477H118.259L142.438 35.7563Z" fill="black"/>
<path d="M211.413 1.13477H222.858V57.8915H211.816V21.0806L195.939 47.432H194.65L178.772 21.1617V57.8915H167.65V1.13477H179.095L195.294 27.9725L211.413 1.13477Z" fill="#E34833"/>
<path d="M285.354 57.8915H273.264L269.879 47.6752H247.394L244.009 57.8915H232L251.746 1.13477H265.527L285.354 57.8915ZM258.677 14.0267L250.94 37.2158H266.414L258.677 14.0267Z" fill="#E34833"/>
<path d="M337.416 57.8915H325.407L314.043 38.1888H305.581V57.8915H294.459V1.13477H317.025C322.237 1.13477 326.669 2.9726 330.323 6.64828C333.978 10.324 335.804 14.7564 335.804 19.9455C335.804 23.4591 334.809 26.7294 332.822 29.7563C330.834 32.7294 328.201 34.9726 324.924 36.4861L337.416 57.8915ZM317.025 11.5942H305.581V28.3779H317.025C319.121 28.3779 320.921 27.5671 322.425 25.9455C323.929 24.2699 324.682 22.2699 324.682 19.9455C324.682 17.6212 323.929 15.6483 322.425 14.0267C320.921 12.405 319.121 11.5942 317.025 11.5942Z" fill="#E34833"/>
<path d="M378.093 1.13477H390.666L371.323 35.7563V57.8915H360.282V35.7563L341.02 1.13477H353.592L365.843 24.8104L378.093 1.13477Z" fill="#E34833"/>
<path fill-rule="evenodd" clip-rule="evenodd" d="M405.47 59.9997C413.483 59.9997 419.977 53.4656 419.977 45.4051C419.977 37.3449 413.483 30.8105 405.47 30.8105C397.457 30.8105 390.963 37.3449 390.963 45.4051C390.963 53.4656 397.457 59.9997 405.47 59.9997ZM405.47 51.8916C409.031 51.8916 411.917 48.9876 411.917 45.4051C411.917 41.8228 409.031 38.9187 405.47 38.9187C401.909 38.9187 399.022 41.8228 399.022 45.4051C399.022 48.9876 401.909 51.8916 405.47 51.8916Z" fill="black"/>
<path fill-rule="evenodd" clip-rule="evenodd" d="M445.767 59.9997C453.779 59.9997 460.274 53.4656 460.274 45.4051C460.274 37.3449 453.779 30.8105 445.767 30.8105C437.754 30.8105 431.26 37.3449 431.26 45.4051C431.26 53.4656 437.754 59.9997 445.767 59.9997ZM445.767 51.8916C449.327 51.8916 452.214 48.9876 452.214 45.4051C452.214 41.8228 449.327 38.9187 445.767 38.9187C442.206 38.9187 439.319 41.8228 439.319 45.4051C439.319 48.9876 442.206 51.8916 445.767 51.8916Z" fill="black"/>
<path fill-rule="evenodd" clip-rule="evenodd" d="M422.652 17.7643C415.935 18.8894 410.298 22.7831 407.213 26.0103C406.288 26.9787 404.758 27.0089 403.794 26.0778C402.832 25.1466 402.803 23.6067 403.728 22.6385C407.36 18.8387 413.893 14.2998 421.857 12.9655C429.978 11.6051 439.357 13.6237 448.284 22.6044C449.227 23.5543 449.227 25.0944 448.284 26.0443C447.339 26.9943 445.808 26.9943 444.863 26.0443C437.026 18.1602 429.212 16.6652 422.652 17.7643Z" fill="black"/>
</svg>
