<svg width="509" height="332" viewBox="0 0 509 332" fill="none" xmlns="http://www.w3.org/2000/svg">
<path fill-rule="evenodd" clip-rule="evenodd" d="M167.861 331.845C75.15 331.845 -4.05253e-06 257.563 0 165.922C3.5264e-06 86.1794 56.9012 19.581 132.76 3.63304C148.872 0.245574 162.615 13.5518 162.615 29.8348V82.9612V135.989C162.615 142.416 154.754 145.634 150.156 141.09L115.927 107.256C113.878 105.232 110.558 105.232 108.509 107.256C106.461 109.281 106.461 112.563 108.509 114.588L142.739 148.422C147.337 152.967 144.08 160.737 137.578 160.737H89.1759C86.2792 160.737 83.9306 163.058 83.9306 165.922C83.9306 168.786 86.2792 171.107 89.1759 171.107H137.578C144.08 171.107 147.337 178.878 142.739 183.423L108.519 217.247C106.471 219.272 106.471 222.554 108.519 224.579C110.568 226.603 113.889 226.603 115.937 224.579L150.156 190.755C154.754 186.21 162.615 189.429 162.615 195.856V243.698C162.615 246.562 164.964 248.884 167.861 248.884C170.759 248.884 173.106 246.562 173.106 243.698V195.856C173.106 189.429 180.968 186.21 185.566 190.755L219.785 224.579C221.834 226.603 225.154 226.603 227.203 224.579C229.251 222.554 229.251 219.272 227.203 217.247L192.983 183.423C188.385 178.878 191.642 171.107 198.144 171.107H251.792H257.037H310.685C317.187 171.107 320.443 178.878 315.845 183.423L281.626 217.247C279.578 219.272 279.578 222.554 281.626 224.579C283.674 226.603 286.996 226.603 289.044 224.579L321.242 192.752C326.036 188.014 333.843 191.707 332.529 198.281C323.214 244.85 294.196 284.408 254.415 308.117C229.139 323.176 199.53 331.845 167.861 331.845ZM251.792 160.737H257.037H310.685C317.187 160.737 320.443 152.967 315.845 148.422L281.616 114.588C279.568 112.563 279.568 109.281 281.616 107.256C283.664 105.232 286.986 105.232 289.034 107.256L323.263 141.09C327.861 145.635 335.722 142.416 335.722 135.989V88.1459C335.722 85.2827 338.071 82.9612 340.968 82.9612C343.865 82.9612 346.214 85.2827 346.214 88.1459V135.989C346.214 142.416 354.075 145.634 358.673 141.09L392.902 107.256C394.95 105.232 398.272 105.232 400.32 107.256C402.368 109.281 402.368 112.563 400.32 114.588L366.091 148.422C361.493 152.967 364.749 160.737 371.251 160.737H419.653C422.55 160.737 424.898 163.058 424.898 165.922C424.898 168.786 422.55 171.107 419.653 171.107H371.251C364.749 171.107 361.493 178.878 366.091 183.423L400.309 217.247C402.358 219.272 402.358 222.554 400.309 224.579C398.261 226.603 394.94 226.603 392.892 224.579L358.673 190.755C354.075 186.21 346.214 189.429 346.214 195.856V248.884V302.01C346.214 318.293 359.956 331.6 376.07 328.212C451.928 312.264 508.829 245.665 508.829 165.922C508.829 74.282 433.679 4.00571e-06 340.968 0C309.3 -1.36828e-06 279.69 8.6688 254.415 23.7278C214.632 47.4374 185.605 86.9982 176.297 133.569C174.984 140.142 182.79 143.835 187.583 139.097L219.795 107.256C221.844 105.232 225.165 105.232 227.213 107.256C229.261 109.281 229.261 112.563 227.213 114.588L192.983 148.422C188.385 152.967 191.642 160.737 198.144 160.737H251.792Z" fill="black"/>
</svg>
