<svg width="298" height="96" viewBox="0 0 298 96" fill="none" xmlns="http://www.w3.org/2000/svg">
<path fill-rule="evenodd" clip-rule="evenodd" d="M97.6425 16.1711C96.2731 16.6589 94.9847 17.6495 94.1408 18.8638C93.6516 19.5674 93.4692 20.137 93.3482 21.3371C93.262 22.1947 93.1851 32.1314 93.1777 43.4189L93.1641 63.9416L93.7205 65.0364C95.0203 67.5939 96.889 68.7848 99.6292 68.8016C102.277 68.818 104.67 67.3015 105.677 64.969C106.16 63.8488 106.17 63.6367 106.339 50.1123L106.511 36.3922L107.425 34.6396C111.391 27.0398 121.982 27.2291 125.648 34.9655L126.347 36.4402L126.525 50.2576L126.703 64.0753L127.254 65.1502C128.464 67.5083 130.555 68.785 133.235 68.8023C135.913 68.8193 137.845 67.5836 139.148 65.0204L139.696 63.9416L139.71 53.2663C139.718 47.3949 139.799 41.1927 139.891 39.4837C140.051 36.5076 140.091 36.308 140.856 34.7654C142.83 30.7827 147.396 28.3865 151.582 29.1369C154.727 29.7008 157.79 31.96 159.13 34.7057C159.737 35.9482 159.775 36.2027 159.921 39.9577C160.006 42.1282 160.083 48.3628 160.092 53.8125L160.109 63.7208L160.748 64.9729C162.038 67.5 164.11 68.8132 166.803 68.8117C169.463 68.8099 171.583 67.4529 172.706 65.0325C173.159 64.0569 173.17 63.7457 173.231 49.8228L173.293 35.6093L172.616 33.301C170.281 25.3443 164.736 19.4256 157.365 17.0241C153.653 15.8146 150.442 15.5407 146.653 16.1101C142.063 16.8 138.059 18.6553 134.262 21.8518L133.108 22.8232L131.628 21.4677C129.017 19.0763 125.473 17.3195 121.382 16.388C119.896 16.0497 118.617 15.9332 116.32 15.9273C112.775 15.9182 110.688 16.3317 107.211 17.7331L105.126 18.5737L104.079 17.6036C102.797 16.4156 101.976 16.0578 100.162 15.8969C99.1136 15.8039 98.4797 15.8731 97.6425 16.1711ZM203.551 16.1092C192.276 18.2441 183.783 26.5409 181.594 37.558C181.196 39.5614 181.195 45.1794 181.593 47.1865C182.894 53.7521 186.456 59.4385 191.792 63.4674C196.731 67.1963 201.51 68.7633 207.931 68.7594C212.649 68.7563 215.376 68.1458 219.777 66.1069L221.801 65.1697L222.864 66.3594C223.449 67.0138 224.454 67.835 225.098 68.1845C226.673 69.0386 229.036 69.1043 230.612 68.3377C231.859 67.7317 233.711 65.7754 234.114 64.6399C234.35 63.977 234.406 59.6383 234.406 42.2628V20.7079L233.907 19.6969C233.256 18.3798 231.805 16.9388 230.565 16.3766C229.867 16.0604 229.094 15.9245 227.931 15.9133C225.452 15.8897 223.629 16.8937 222.2 19.068L221.847 19.6061L219.896 18.6835C215.783 16.7394 213.06 16.0829 208.397 15.9114C206.109 15.8271 204.746 15.8827 203.551 16.1092ZM266.891 16.1324C264.558 16.5707 261.082 17.7436 258.95 18.8126C254.469 21.0587 249.687 25.8362 247.414 30.3365C245.187 34.7484 244.146 41.0494 244.824 46.0267C246.13 55.6172 252.963 63.9996 262.172 67.3085C268.644 69.634 275.443 69.3782 282.036 66.5608L284.45 65.529L284.522 66.3146C284.652 67.7407 284.121 72.0057 283.661 73.2334C282.595 76.0732 280.423 78.7145 277.945 80.1824C275.589 81.5787 274.061 81.9267 270.677 81.8381C267.835 81.7636 267.729 81.7429 266.03 80.9343C264.195 80.0607 261.846 78.4335 260.745 77.2732C259.664 76.1338 258.544 75.6801 256.542 75.5705C254.976 75.4849 254.608 75.5403 253.579 76.016C250.145 77.6041 248.648 81.4875 250.182 84.8279C251.33 87.3274 255.376 90.6867 259.791 92.8061C262.781 94.2412 265.368 94.9539 268.626 95.2395C276.067 95.8921 282.225 94.0324 288.074 89.3667C292.11 86.1471 295.425 81.1093 296.965 75.8535C297.794 73.0244 297.928 68.4456 297.939 42.6394L297.949 21.0237L297.308 19.7584C296.069 17.3104 293.898 15.93 291.254 15.9092C288.948 15.8908 286.943 16.9467 285.527 18.9258L285.08 19.5508L283.558 18.7868C281.421 17.7145 278.451 16.7064 276.355 16.3422C273.509 15.8475 268.946 15.7464 266.891 16.1324ZM206.066 29.1246C200.838 29.9266 196.405 33.7914 194.873 38.8823C194.298 40.7949 194.335 44.1115 194.954 46.0924C196.164 49.9637 199.326 53.416 202.886 54.7528C204.895 55.5072 207.048 55.8833 208.524 55.7382C212.048 55.3916 214.882 54.1316 217.1 51.9253C218.839 50.1955 219.829 48.6429 220.631 46.3845C221.735 43.278 221.314 38.8068 219.645 35.9167C218.847 34.5352 216.431 32.0718 214.889 31.0683C212.546 29.5432 208.765 28.7104 206.066 29.1246ZM268.833 29.3581C263.832 30.2551 259.624 34.2394 258.334 39.2999C257.249 43.5555 258.61 48.3433 261.816 51.5527C264.423 54.1624 267.484 55.4535 271.056 55.4509C274.663 55.4481 277.749 54.2353 280.332 51.8054C283.141 49.1632 284.452 46.132 284.413 42.3722C284.35 36.3835 280.585 31.3657 274.902 29.6958C273.411 29.2575 270.344 29.0868 268.833 29.3581Z" fill="#2DBE60"/>
<path fill-rule="evenodd" clip-rule="evenodd" d="M35.383 0.113473C33.1811 0.289255 29.3179 1.11118 26.8149 1.93641C13.2187 6.41896 3.59089 17.207 0.503658 31.4183C0.04328 33.5378 0.00164659 34.2726 0.00011273 40.3284C-0.00164026 46.8125 0.00931593 46.9747 0.618479 49.5511C3.22429 60.5712 9.72831 69.5808 19.0586 75.0945C26.0444 79.2228 34.2846 80.9514 43.7678 80.2782C56.1557 79.3986 66.9572 72.9583 73.8493 62.342C78.6209 54.992 80.4812 47.0644 79.8666 36.6983C79.459 29.8204 77.275 23.1636 73.6231 17.6681C66.9215 7.58278 56.6367 1.43129 44.3986 0.188494C42.278 -0.0268884 37.6269 -0.0656088 35.383 0.113473ZM22.0465 16.0282C19.8752 16.472 17.661 18.3763 16.9874 20.3799C16.6081 21.5078 16.4628 33.118 16.7076 42.7484L16.9033 50.4485L17.592 52.5385C20.1643 60.3435 25.4958 65.5809 33.6301 68.2938C35.4144 68.8889 35.6723 68.9153 39.7655 68.9216C44.6809 68.9294 45.9349 68.6766 49.5866 66.9421C55.8463 63.9687 59.8411 59.3821 62.2276 52.4285C62.8263 50.6841 62.8335 50.5952 63.0379 42.4184C63.2737 32.9847 63.1407 21.3653 62.7831 20.161C62.6514 19.7168 62.0975 18.8557 61.5525 18.247C58.8082 15.1823 54.4227 15.1786 51.56 18.2379C50.7795 19.0722 50.476 19.6057 50.2847 20.4804C50.1263 21.2051 49.9631 26.3714 49.8419 34.4983C49.7255 42.2895 49.5566 47.7451 49.4133 48.323C49.0519 49.7819 48.3742 50.9582 47.1399 52.2686C45.1809 54.348 42.7478 55.4007 39.9103 55.3959C36.3202 55.39 33.3483 53.7661 31.4276 50.7609C30.084 48.6588 30.0978 48.8053 29.899 34.3566C29.7665 24.7053 29.6411 20.8654 29.4363 20.1665C29.0372 18.806 27.077 16.8631 25.6299 16.3941C24.1004 15.8984 23.1553 15.8018 22.0465 16.0282Z" fill="#FFAE1F"/>
</svg>
