<svg width="78" height="26" viewBox="0 0 78 26" fill="none" xmlns="http://www.w3.org/2000/svg">
<path d="M0.797445 14.6794L9.72024 4.32638H0.5625V0.980469H14.3533V4.18624L5.43043 14.5393H14.3533V17.8853H0.797445V14.6794Z" fill="black"/>
<path d="M33.7044 0.919714V17.9451H30.2818L30.2471 15.6727C28.944 17.3334 26.6854 18.3297 24.0792 18.3297C19.1102 18.3297 15.6875 14.6764 15.6875 9.43243C15.6875 4.18846 19.1102 0.535156 24.0792 0.535156C26.7201 0.535156 28.944 1.53151 30.2471 3.19211L30.2818 0.919714H33.7044ZM29.8648 9.41496C29.8648 6.25109 27.7452 4.04862 24.6874 4.04862C21.6469 4.04862 19.5098 6.25109 19.5098 9.41496C19.5098 12.5789 21.6295 14.7813 24.6874 14.7813C27.7452 14.7988 29.8648 12.5963 29.8648 9.41496Z" fill="black"/>
<path d="M54.6109 9.37147C54.6109 14.5897 51.2305 18.2252 46.3228 18.2252C43.9891 18.2252 41.93 17.4076 40.6087 15.9987V25.6699H36.8164V0.917831H40.1969L40.2312 3.1791C41.5182 1.52663 43.7489 0.535156 46.3228 0.535156C51.2305 0.535156 54.6109 4.17057 54.6109 9.37147ZM50.8186 9.37147C50.8186 6.2231 48.7251 4.03141 45.7051 4.03141C42.7365 4.03141 40.5915 6.2231 40.5915 9.37147C40.5915 12.5199 42.7193 14.7115 45.7051 14.7115C48.7251 14.729 50.8186 12.5372 50.8186 9.37147Z" fill="black"/>
<path d="M57.0664 18.1077V0.980469H60.8477V18.1077H57.0664Z" fill="black"/>
<path d="M70.5528 18.5533C69.5251 18.5533 68.6019 18.4152 67.7657 18.139C66.947 17.8629 66.2155 17.5177 65.6057 17.069C64.9961 16.6202 64.4735 16.1197 64.038 15.5502C63.62 14.9806 63.289 14.3937 63.0625 13.7897L66.4941 12.3572C66.8774 13.3409 67.4522 14.0486 68.1838 14.5146C68.9154 14.9806 69.6993 15.2049 70.5528 15.2049C71.5108 15.2049 72.2774 15.0151 72.8173 14.6181C73.3747 14.2384 73.636 13.807 73.636 13.3237C73.636 12.8404 73.427 12.4262 73.0264 12.081C72.6083 11.7358 71.8419 11.4252 70.6921 11.1489L68.2883 10.5622C67.7657 10.4413 67.2258 10.2687 66.6857 10.0271C66.1458 9.78548 65.658 9.47481 65.1877 9.11236C64.7348 8.73265 64.3516 8.2839 64.0728 7.74887C63.7942 7.21382 63.6374 6.59248 63.6374 5.86759C63.6374 5.05639 63.8115 4.33149 64.1774 3.6929C64.5257 3.0543 65.0135 2.51925 65.6406 2.08777C66.2503 1.65628 66.9819 1.32835 67.7832 1.10398C68.6019 0.879605 69.4554 0.758789 70.3787 0.758789C71.1277 0.758789 71.8593 0.845086 72.556 1.00042C73.2529 1.15576 73.8973 1.39739 74.4895 1.70806C75.0818 2.01873 75.6218 2.43295 76.0921 2.91622C76.5625 3.39949 76.9283 3.96905 77.207 4.64217L73.8451 6.04018C73.5315 5.31528 73.0264 4.78024 72.3296 4.45231C71.6503 4.12438 70.9361 3.95178 70.2393 3.95178C69.9257 3.95178 69.5948 3.98631 69.2638 4.07261C68.9329 4.1589 68.6367 4.26246 68.3754 4.41779C68.1142 4.57313 67.8877 4.74572 67.7309 4.98735C67.5567 5.21173 67.4696 5.47062 67.4696 5.72951C67.4696 6.17826 67.6612 6.54071 68.0619 6.7996C68.4625 7.05848 69.0722 7.30012 69.8909 7.48997L72.469 8.12858C74.2109 8.56006 75.4825 9.21592 76.3012 10.0789C77.1199 10.9591 77.5205 11.9775 77.5205 13.151C77.5205 13.876 77.3464 14.5491 77.0153 15.1877C76.6844 15.8263 76.2141 16.3958 75.587 16.8964C74.9773 17.3969 74.2283 17.7939 73.3747 18.07C72.5386 18.4152 71.5806 18.5533 70.5528 18.5533Z" fill="black"/>
</svg>
