<svg width="3315" height="768" viewBox="0 0 3315 768" fill="none" xmlns="http://www.w3.org/2000/svg">
<path d="M1411.35 452.4V361.2H1722.15V452.4H1411.35ZM1642.95 93L1850.55 543H1729.95L1551.75 140.4H1586.55L1408.95 543H1288.35L1495.95 93H1642.95ZM2145.37 93C2182.17 93 2213.77 99.4 2240.17 112.2C2266.97 124.6 2287.37 142.2 2301.37 165C2315.77 187.8 2322.97 214.4 2322.97 244.8C2322.97 275.2 2315.77 301.8 2301.37 324.6C2287.37 347.4 2266.97 365.2 2240.17 378C2213.77 390.4 2182.17 396.6 2145.37 396.6H1948.57V304.8H2139.37C2160.97 304.8 2177.97 299.6 2190.37 289.2C2202.77 278.4 2208.97 263.6 2208.97 244.8C2208.97 226 2202.77 211.4 2190.37 201C2177.97 190.2 2160.97 184.8 2139.37 184.8H1958.77L2009.77 132V543H1896.37V93H2145.37ZM2371.38 81H2482.38V543H2371.38V81ZM2610.78 191.4C2643.18 191.4 2670.78 198 2693.58 211.2C2716.78 224.4 2734.38 243 2746.38 267C2758.78 290.6 2764.98 319 2764.98 352.2V543H2653.38V369C2653.38 340.6 2646.38 319.2 2632.38 304.8C2618.78 290 2598.78 282.6 2572.38 282.6C2553.98 282.6 2537.98 286.6 2524.38 294.6C2511.18 302.2 2500.78 313.2 2493.18 327.6C2485.98 341.6 2482.38 358.4 2482.38 378L2446.98 359.4C2451.78 323 2461.78 292.4 2476.98 267.6C2492.18 242.8 2511.18 224 2533.98 211.2C2557.18 198 2582.78 191.4 2610.78 191.4ZM3130.87 322.2L3140.47 300C3175.67 300.8 3204.47 306.2 3226.87 316.2C3249.67 326.2 3266.47 340 3277.27 357.6C3288.47 374.8 3294.07 394.8 3294.07 417.6C3294.07 441.6 3288.47 463.2 3277.27 482.4C3266.07 501.2 3249.27 516 3226.87 526.8C3204.87 537.6 3177.27 543 3144.07 543H2820.07L2854.87 312L2820.07 93H3132.67C3174.27 93 3206.47 102.8 3229.27 122.4C3252.47 141.6 3264.07 168.2 3264.07 202.2C3264.07 221 3259.67 239 3250.87 256.2C3242.07 273.4 3228.07 288 3208.87 300C3189.67 311.6 3163.67 319 3130.87 322.2ZM2931.67 515.4L2888.47 462H3117.07C3136.67 462 3151.87 457.4 3162.67 448.2C3173.87 438.6 3179.47 425.2 3179.47 408C3179.47 390.8 3173.27 377.2 3160.87 367.2C3148.87 356.8 3130.87 351.6 3106.87 351.6H2919.67V272.4H3092.47C3108.87 272.4 3122.47 267.8 3133.27 258.6C3144.07 249 3149.47 236 3149.47 219.6C3149.47 206.4 3144.87 195.6 3135.67 187.2C3126.47 178.4 3113.07 174 3095.47 174H2889.07L2931.67 120.6L2963.47 312L2931.67 515.4ZM1293.75 646.4C1294.55 634.8 1298.35 624.8 1305.15 616.4C1311.95 607.867 1320.95 601.333 1332.15 596.8C1343.48 592.133 1356.28 589.8 1370.55 589.8C1384.15 589.8 1396.02 591.867 1406.15 596C1416.28 600.133 1424.22 605.933 1429.95 613.4C1435.68 620.867 1438.55 629.467 1438.55 639.2C1438.55 646.8 1436.55 653.867 1432.55 660.4C1428.55 666.8 1422.22 673.2 1413.55 679.6C1404.88 686 1393.48 692.8 1379.35 700L1335.95 722.8L1333.95 713H1442.75V743H1296.35V716.6L1360.75 679.6C1371.02 673.733 1379.02 668.733 1384.75 664.6C1390.62 660.333 1394.75 656.4 1397.15 652.8C1399.55 649.2 1400.75 645.333 1400.75 641.2C1400.75 636.933 1399.55 633.133 1397.15 629.8C1394.88 626.467 1391.42 623.867 1386.75 622C1382.08 620.133 1376.22 619.2 1369.15 619.2C1360.75 619.2 1353.82 620.467 1348.35 623C1342.88 625.4 1338.82 628.667 1336.15 632.8C1333.48 636.933 1331.88 641.467 1331.35 646.4H1293.75ZM1543 746.2C1526.07 746.2 1511.4 742.933 1499 736.4C1486.6 729.867 1477 720.8 1470.2 709.2C1463.4 697.467 1460 683.733 1460 668C1460 652.4 1463.4 638.733 1470.2 627C1477 615.267 1486.6 606.133 1499 599.6C1511.4 593.067 1526.07 589.8 1543 589.8C1559.8 589.8 1574.4 593.067 1586.8 599.6C1599.2 606.133 1608.8 615.267 1615.6 627C1622.4 638.6 1625.8 652.267 1625.8 668C1625.8 683.6 1622.4 697.267 1615.6 709C1608.8 720.733 1599.2 729.867 1586.8 736.4C1574.4 742.933 1559.8 746.2 1543 746.2ZM1543 715.4C1557.27 715.4 1568.33 711.267 1576.2 703C1584.2 694.733 1588.2 683.067 1588.2 668C1588.2 652.933 1584.2 641.267 1576.2 633C1568.33 624.733 1557.27 620.6 1543 620.6C1528.73 620.6 1517.6 624.733 1509.6 633C1501.6 641.267 1497.6 652.933 1497.6 668C1497.6 683.067 1501.6 694.733 1509.6 703C1517.6 711.267 1528.73 715.4 1543 715.4ZM1641.8 646.4C1642.6 634.8 1646.4 624.8 1653.2 616.4C1660 607.867 1669 601.333 1680.2 596.8C1691.53 592.133 1704.33 589.8 1718.6 589.8C1732.2 589.8 1744.06 591.867 1754.2 596C1764.33 600.133 1772.26 605.933 1778 613.4C1783.73 620.867 1786.6 629.467 1786.6 639.2C1786.6 646.8 1784.6 653.867 1780.6 660.4C1776.6 666.8 1770.26 673.2 1761.6 679.6C1752.93 686 1741.53 692.8 1727.4 700L1684 722.8L1682 713H1790.8V743H1644.4V716.6L1708.8 679.6C1719.06 673.733 1727.06 668.733 1732.8 664.6C1738.66 660.333 1742.8 656.4 1745.2 652.8C1747.6 649.2 1748.8 645.333 1748.8 641.2C1748.8 636.933 1747.6 633.133 1745.2 629.8C1742.93 626.467 1739.46 623.867 1734.8 622C1730.13 620.133 1724.26 619.2 1717.2 619.2C1708.8 619.2 1701.86 620.467 1696.4 623C1690.93 625.4 1686.86 628.667 1684.2 632.8C1681.53 636.933 1679.93 641.467 1679.4 646.4H1641.8ZM1888.25 589.8C1901.05 589.8 1912.31 591.733 1922.05 595.6C1931.91 599.467 1939.91 604.733 1946.05 611.4C1952.18 617.933 1955.91 625.4 1957.25 633.8H1922.05C1920.05 629.267 1916.51 625.533 1911.45 622.6C1906.38 619.533 1898.98 618 1889.25 618C1878.85 618 1870.25 619.933 1863.45 623.8C1856.78 627.667 1851.85 633.2 1848.65 640.4C1845.45 647.467 1843.85 656.2 1843.85 666.6C1843.85 677.667 1845.58 687.067 1849.05 694.8C1852.65 702.4 1857.91 708.133 1864.85 712C1871.78 715.867 1880.25 717.8 1890.25 717.8C1897.31 717.8 1903.25 716.867 1908.05 715C1912.98 713 1916.65 710.267 1919.05 706.8C1921.58 703.333 1922.85 699.467 1922.85 695.2C1922.85 690.933 1921.65 687.2 1919.25 684C1916.98 680.8 1913.58 678.333 1909.05 676.6C1904.51 674.733 1898.71 673.8 1891.65 673.8C1882.31 673.8 1873.51 675.933 1865.25 680.2C1856.98 684.333 1849.65 690.2 1843.25 697.8L1829.85 688.6C1834.11 680.333 1839.58 673 1846.25 666.6C1852.91 660.067 1860.78 654.933 1869.85 651.2C1878.91 647.333 1889.18 645.4 1900.65 645.4C1912.91 645.4 1923.51 647.467 1932.45 651.6C1941.51 655.6 1948.45 661.267 1953.25 668.6C1958.18 675.933 1960.65 684.4 1960.65 694C1960.65 704.133 1957.85 713.133 1952.25 721C1946.65 728.867 1938.58 735.067 1928.05 739.6C1917.51 744 1904.78 746.2 1889.85 746.2C1871.71 746.2 1856.58 742.867 1844.45 736.2C1832.45 729.533 1823.38 720.333 1817.25 708.6C1811.25 696.733 1808.25 683.2 1808.25 668C1808.25 652.8 1811.25 639.333 1817.25 627.6C1823.25 615.867 1832.18 606.667 1844.05 600C1856.05 593.2 1870.78 589.8 1888.25 589.8Z" fill="black"/>
<path d="M1007.03 206.667H1005.41V184.539C1005.41 85.4085 924.851 4.83649 825.888 4.83649C726.926 4.83649 646.368 85.47 646.368 184.539C646.368 207.565 665.031 226.234 688.062 226.234C711.092 226.234 729.718 207.565 729.718 184.539C729.718 131.46 772.913 88.2637 825.888 88.2637C878.912 88.2637 922.07 131.46 922.07 184.539V248.374C922.07 271.412 940.733 290.081 963.764 290.081H1007.11C1060.13 290.081 1103.29 333.29 1103.29 386.357C1103.29 439.399 1060.13 482.607 1007.11 482.607H963.764C940.733 482.607 922.07 501.277 922.07 524.315V588.15C922.07 641.229 878.912 684.437 825.888 684.437C772.913 684.437 729.718 641.229 729.718 588.15V479.149C729.718 402.319 667.332 339.874 590.563 339.874C559.831 339.874 534.808 314.806 534.808 284.014V179.678C534.808 80.572 454.238 0 355.275 0C256.325 0 175.755 80.6335 175.755 179.678V201.891C78.4539 203.922 0 283.756 0 381.582C0 479.371 78.4539 559.204 175.755 561.272V583.449C175.755 682.555 256.325 763.139 355.275 763.139C454.238 763.139 534.808 682.518 534.808 583.449C534.808 560.41 516.145 541.741 493.114 541.741C470.084 541.741 451.421 560.41 451.421 583.449C451.421 636.515 408.263 679.724 355.275 679.724C302.263 679.724 259.106 636.515 259.106 583.449V519.601C259.106 496.576 240.443 477.906 217.412 477.906H179.52C126.508 477.906 83.3504 434.685 83.3504 381.619C83.3504 328.589 126.508 285.368 179.52 285.368H217.412C240.443 285.368 259.106 266.699 259.106 243.673V179.826C259.106 126.759 302.263 83.5502 355.275 83.5502C408.263 83.5502 451.421 126.759 451.421 179.826V284.125C451.421 360.919 513.844 423.4 590.563 423.4C621.345 423.4 646.368 448.469 646.368 479.26V588.297C646.368 687.403 726.926 768 825.888 768C924.851 768 1005.41 687.33 1005.41 588.297V566.17H1007.03C1106.07 566.17 1186.55 485.5 1186.55 386.48C1186.55 287.398 1105.99 206.777 1007.03 206.777V206.667Z" fill="#8045FF"/>
</svg>
