<?xml version="1.0" standalone="no"?>
<!DOCTYPE svg PUBLIC "-//W3C//DTD SVG 20010904//EN"
 "http://www.w3.org/TR/2001/REC-SVG-20010904/DTD/svg10.dtd">
<svg version="1.0" xmlns="http://www.w3.org/2000/svg"
 width="1023.000000pt" height="800.000000pt" viewBox="0 0 1023.000000 800.000000"
 preserveAspectRatio="xMidYMid meet">

<g transform="translate(0.000000,800.000000) scale(0.100000,-0.100000)"
fill="#000000" stroke="none">
<path d="M1169 4999 c-73 -10 -174 -49 -245 -94 -173 -111 -274 -313 -274
-548 l0 -94 -30 5 c-16 2 -61 -3 -99 -13 -149 -36 -304 -161 -371 -299 -147
-299 -56 -675 205 -841 64 -41 185 -84 249 -87 l46 -3 0 -77 c0 -321 177 -568
453 -633 34 -8 84 -15 110 -15 71 0 195 28 241 55 23 13 57 32 76 42 19 9 69
51 110 93 125 125 180 263 180 455 0 124 -15 160 -80 193 -49 25 -97 24 -151
-3 -44 -23 -60 -65 -69 -184 -10 -137 -24 -183 -77 -241 -136 -151 -381 -113
-464 73 -21 47 -24 71 -29 247 -4 172 -7 199 -25 230 -32 55 -73 70 -192 70
-115 0 -185 20 -239 68 -135 120 -147 349 -26 476 64 66 119 86 247 86 140 1
182 17 214 82 19 40 21 61 21 219 1 196 6 233 47 292 55 83 120 122 218 132
113 12 217 -46 270 -151 l30 -59 6 -300 c4 -175 12 -319 19 -345 13 -53 61
-151 98 -200 66 -89 113 -115 290 -160 76 -19 76 -21 83 -374 7 -339 8 -348
75 -476 40 -76 183 -218 260 -258 156 -81 325 -82 491 -1 93 45 154 96 219
180 91 118 124 221 124 384 l0 93 58 7 c260 31 459 216 518 483 20 88 15 247
-10 325 -74 232 -270 397 -517 432 l-47 7 -4 116 c-5 131 -29 218 -90 319 -70
117 -214 231 -337 267 -31 9 -92 16 -142 16 -161 0 -307 -66 -423 -190 -112
-122 -165 -255 -173 -440 -5 -127 6 -164 59 -203 38 -28 114 -33 157 -10 61
32 72 58 81 184 5 63 16 134 24 158 42 116 145 191 263 191 74 0 120 -17 180
-66 90 -74 113 -150 113 -374 0 -244 22 -271 225 -281 103 -5 127 -9 172 -32
110 -57 173 -158 173 -281 0 -125 -54 -222 -158 -283 -42 -25 -58 -28 -176
-33 -112 -4 -136 -8 -167 -27 -57 -36 -62 -56 -69 -273 -5 -179 -7 -199 -29
-244 -31 -63 -83 -114 -146 -146 -150 -73 -342 22 -391 195 -4 17 -8 147 -9
290 -1 300 -10 356 -76 468 -72 121 -161 191 -274 216 -33 7 -71 19 -86 26
-50 26 -53 47 -59 380 -6 301 -7 312 -32 383 -95 264 -359 435 -619 401z"/>
<path d="M7177 4783 c-2 -5 -4 -395 -3 -868 l1 -860 165 0 165 0 5 395 c5 390
5 396 29 448 29 64 98 128 154 143 89 24 195 -5 241 -65 19 -25 52 -110 56
-141 0 -3 0 -180 0 -395 l0 -390 165 0 165 0 0 431 c0 517 -5 551 -97 691 -32
47 -122 115 -187 141 -60 24 -226 30 -291 10 -72 -22 -167 -87 -202 -138 l-33
-47 0 326 0 326 -164 0 c-91 0 -167 -3 -169 -7z"/>
<path d="M4363 4372 c-78 -207 -219 -582 -314 -832 -94 -250 -174 -463 -176
-472 -5 -17 8 -18 168 -18 96 0 179 4 185 8 5 4 37 84 70 177 l60 170 334 0
334 0 66 -175 67 -175 186 -3 c103 -1 187 0 187 3 0 2 -14 39 -31 82 -27 67
-110 280 -169 433 -9 25 -77 200 -150 390 -73 190 -141 365 -150 390 -10 25
-48 125 -86 222 l-69 178 -185 0 -185 0 -142 -378z m437 -357 c61 -170 110
-310 110 -312 0 -2 -102 -3 -226 -3 l-225 0 7 23 c13 43 135 383 165 462 17
44 36 94 42 112 7 17 13 31 14 29 2 -2 53 -142 113 -311z"/>
<path d="M5700 3901 l0 -851 180 0 181 0 -1 293 -1 292 258 6 c277 7 326 15
444 74 139 71 251 222 263 356 2 22 6 42 10 46 11 11 6 136 -9 205 -42 200
-172 335 -385 399 -72 22 -93 23 -507 27 l-433 3 0 -850z m806 534 c64 -19
127 -73 149 -127 10 -26 17 -71 18 -115 1 -131 -68 -222 -193 -253 -27 -6
-118 -10 -230 -8 l-185 3 -3 258 -2 257 198 0 c146 0 212 -4 248 -15z"/>
<path d="M8520 3900 l0 -850 443 0 c394 0 452 2 534 19 271 56 415 232 400
489 -5 107 -17 144 -73 228 -36 54 -159 154 -190 154 -31 0 -19 20 32 55 171
118 220 335 120 533 -32 63 -102 127 -182 164 -105 49 -202 58 -671 58 l-413
0 0 -850z m875 533 c57 -32 77 -64 82 -138 15 -175 -67 -218 -409 -213 l-193
3 -3 188 -2 188 242 -3 c229 -3 245 -4 283 -25z m10 -672 c81 -27 145 -125
132 -205 -9 -54 -37 -120 -63 -144 -55 -52 -113 -62 -364 -62 l-230 0 0 216 0
216 243 -5 c158 -2 256 -8 282 -16z"/>
<path d="M4090 2641 c-81 -26 -147 -80 -191 -157 -17 -31 -30 -57 -28 -58 2
-2 29 -19 60 -38 l55 -35 47 52 c25 29 61 60 80 69 51 23 117 21 158 -7 64
-43 75 -106 34 -195 -24 -51 -125 -162 -190 -210 -16 -12 -74 -54 -127 -94
-53 -40 -104 -77 -112 -83 -17 -12 -19 -20 -17 -97 l1 -58 325 0 325 0 0 80 0
80 -192 0 c-219 0 -212 -10 -76 93 101 77 189 172 223 242 37 74 45 180 21
253 -20 60 -96 135 -154 153 -47 14 -209 21 -242 10z"/>
<path d="M4950 2647 c-3 -3 -22 -8 -43 -11 -81 -13 -204 -121 -246 -217 -111
-251 -31 -550 176 -655 53 -27 67 -29 163 -29 95 0 111 3 167 29 223 103 306
429 176 689 -58 116 -170 187 -308 195 -44 2 -82 2 -85 -1z m133 -170 c46 -20
101 -86 126 -151 24 -65 29 -191 9 -247 -25 -71 -90 -157 -134 -175 -154 -64
-300 95 -290 316 3 76 42 173 85 214 51 49 142 68 204 43z"/>
<path d="M5695 2641 c-42 -11 -116 -55 -146 -88 -15 -15 -38 -49 -53 -75 l-27
-47 28 -17 c15 -9 44 -27 63 -39 l35 -22 40 49 c66 80 150 107 230 74 68 -29
88 -100 54 -190 -16 -45 -39 -76 -93 -131 -39 -40 -87 -83 -107 -96 -20 -13
-87 -61 -148 -107 l-111 -84 0 -69 0 -69 325 0 325 0 0 80 0 80 -185 2 -186 3
94 73 c127 98 197 173 238 257 30 62 34 78 34 150 0 88 -18 134 -73 190 -55
56 -116 79 -217 82 -49 1 -104 -1 -120 -6z"/>
<path d="M6305 2636 c-2 -6 -6 -47 -9 -91 -10 -149 -26 -330 -31 -353 -5 -20
2 -26 51 -48 l56 -25 66 27 c80 32 155 30 215 -6 128 -76 64 -250 -92 -250
-61 0 -106 17 -172 65 -27 19 -53 35 -58 35 -4 0 -31 -26 -59 -59 l-51 -58 32
-31 c120 -115 332 -146 483 -72 224 110 214 436 -15 519 -85 30 -148 35 -220
16 -35 -9 -64 -15 -65 -13 -2 2 1 46 7 98 l9 95 199 -3 199 -3 0 83 0 83 -271
1 c-194 1 -271 -2 -274 -10z"/>
</g>
</svg>
