<svg width="205" height="48" viewBox="0 0 205 48" fill="none" xmlns="http://www.w3.org/2000/svg">
<path d="M62.9538 12.9231H62.8539V11.5385C62.8539 5.34615 57.8154 0.307693 51.6308 0.307693C45.4462 0.307693 40.4077 5.34615 40.4077 11.5385C40.4077 12.9769 41.5769 14.1462 43.0154 14.1462C44.4538 14.1462 45.6231 12.9769 45.6231 11.5385C45.6231 8.22308 48.3231 5.52308 51.6385 5.52308C54.9538 5.52308 57.6538 8.22308 57.6538 11.5385V15.5308C57.6538 16.9692 58.8231 18.1385 60.2615 18.1385H62.9692C66.2846 18.1385 68.9846 20.8385 68.9846 24.1538C68.9846 27.4692 66.2846 30.1692 62.9692 30.1692H60.2615C58.8231 30.1692 57.6538 31.3385 57.6538 32.7769V36.7692C57.6538 40.0846 54.9538 42.7846 51.6385 42.7846C48.3231 42.7846 45.6231 40.0846 45.6231 36.7692V29.9538C45.6231 25.1538 41.7231 21.2462 36.9231 21.2462C35 21.2462 33.4385 19.6769 33.4385 17.7538V11.2308C33.4385 5.03846 28.4 0 22.2154 0C16.0308 0 10.9923 5.03846 10.9923 11.2308V12.6154C4.90769 12.7462 0 17.7308 0 23.8461C0 29.9615 4.90769 34.9462 10.9923 35.0769V36.4615C10.9923 42.6538 16.0308 47.6923 22.2154 47.6923C28.4 47.6923 33.4385 42.6538 33.4385 36.4615C33.4385 35.0231 32.2692 33.8538 30.8308 33.8538C29.3923 33.8538 28.2231 35.0231 28.2231 36.4615C28.2231 39.7769 25.5231 42.4769 22.2154 42.4769C18.9 42.4769 16.2 39.7769 16.2 36.4615V32.4692C16.2 31.0308 15.0308 29.8615 13.5923 29.8615H11.2231C7.90769 29.8615 5.20769 27.1615 5.20769 23.8461C5.20769 20.5308 7.90769 17.8308 11.2231 17.8308H13.5923C15.0308 17.8308 16.2 16.6615 16.2 15.2231V11.2308C16.2 7.91538 18.9 5.21538 22.2154 5.21538C25.5308 5.21538 28.2231 7.91538 28.2231 11.2308V17.7538C28.2231 22.5538 32.1231 26.4615 36.9231 26.4615C38.8462 26.4615 40.4154 28.0308 40.4154 29.9538V36.7692C40.4154 42.9615 45.4538 48 51.6385 48C57.8231 48 62.8615 42.9615 62.8615 36.7692V35.3846H62.9615C69.1539 35.3846 74.1846 30.3462 74.1846 24.1538C74.1769 17.9692 69.1385 12.9308 62.9538 12.9231Z" fill="white"/>
<path d="M89.9009 24.9461H105.501L108.178 30.5999H114.97L101.793 3.74609H93.6086L80.4316 30.5999H87.2239L89.9009 24.9461ZM97.7009 8.44609L103.17 20.0076H92.2393L97.7009 8.44609Z" fill="white"/>
<path d="M139.162 4.86148C137.539 4.12301 135.608 3.74609 133.377 3.74609H118.016V30.5999H124.4V21.4999H133.377C135.6 21.4999 137.531 21.123 139.162 20.3692C140.785 19.6153 142.031 18.5769 142.9 17.2538C143.762 15.9307 144.2 14.3846 144.2 12.6153C144.2 10.8461 143.769 9.29994 142.9 7.96147C142.031 6.6384 140.785 5.59994 139.162 4.86148ZM136.508 15.4615C135.669 16.1538 134.508 16.4999 133.039 16.4999H124.4V8.76917H133.039C134.516 8.76917 135.669 9.10763 136.508 9.78455C137.346 10.4692 137.769 11.4153 137.769 12.6307C137.769 13.8461 137.354 14.7692 136.508 15.4615Z" fill="white"/>
<path d="M166.985 10.8614C165.554 10.0845 163.831 9.69987 161.808 9.69987C160.054 9.69987 158.454 10.0922 157 10.8845C155.669 11.6076 154.554 12.6229 153.654 13.9229V3.03833H147.385V30.6076H153.654V20.7614C153.654 19.4922 153.9 18.4076 154.385 17.4999C154.877 16.5922 155.577 15.8845 156.485 15.3691C157.4 14.8537 158.469 14.5999 159.692 14.5999C161.446 14.5999 162.785 15.0691 163.716 16.0153C164.639 16.9537 165.108 18.346 165.108 20.1922V30.6076H171.377V19.2845C171.377 17.2999 171 15.5922 170.246 14.1614C169.492 12.7229 168.408 11.6229 166.977 10.846L166.985 10.8614Z" fill="white"/>
<path d="M203.186 19.5924C202.509 18.5539 201.462 17.7308 200.032 17.1231C199.416 16.8616 198.724 16.6539 197.97 16.5001C198.301 16.3616 198.609 16.2154 198.886 16.0539C200.101 15.3539 200.978 14.4847 201.516 13.4616C202.055 12.4308 202.324 11.3693 202.324 10.277C202.324 8.24622 201.601 6.65391 200.163 5.49237C198.724 4.33083 196.701 3.75391 194.101 3.75391H175.062L177.247 16.8231L175.062 30.6078H194.816C196.893 30.6078 198.624 30.2847 199.993 29.6385C201.37 28.9924 202.416 28.1077 203.132 26.9847C203.847 25.8616 204.201 24.5847 204.201 23.1539C204.193 21.8154 203.855 20.6231 203.186 19.5924ZM194.916 9.06929C195.547 9.63083 195.855 10.3308 195.855 11.1693C195.855 12.2693 195.486 13.1231 194.747 13.7308C194.009 14.3385 193.078 14.6462 191.947 14.6462H182.97L181.862 8.23852H192.209C193.393 8.23083 194.293 8.50775 194.916 9.06929ZM196.624 25.2155C195.886 25.8231 194.839 26.1308 193.486 26.1308H181.832L182.986 19.0078H192.693C194.347 19.0078 195.593 19.3385 196.447 19.9924C197.301 20.6539 197.724 21.5385 197.724 22.6616C197.739 23.7847 197.37 24.6154 196.624 25.2155Z" fill="white"/>
<path d="M80.432 39.204C80.48 38.508 80.708 37.908 81.116 37.404C81.524 36.892 82.064 36.5 82.736 36.228C83.416 35.948 84.184 35.808 85.04 35.808C85.856 35.808 86.568 35.932 87.176 36.18C87.792 36.428 88.268 36.776 88.604 37.224C88.948 37.672 89.12 38.188 89.12 38.772C89.12 39.228 89 39.652 88.76 40.044C88.52 40.428 88.14 40.812 87.62 41.196C87.1 41.58 86.416 41.988 85.568 42.42L82.976 43.788L82.844 43.188H89.372V45H80.588V43.416L84.452 41.196C85.068 40.844 85.548 40.544 85.892 40.296C86.244 40.04 86.492 39.804 86.636 39.588C86.78 39.372 86.852 39.14 86.852 38.892C86.852 38.636 86.78 38.408 86.636 38.208C86.5 38.008 86.292 37.852 86.012 37.74C85.732 37.628 85.38 37.572 84.956 37.572C84.452 37.572 84.036 37.648 83.708 37.8C83.38 37.944 83.136 38.14 82.976 38.388C82.816 38.636 82.72 38.908 82.688 39.204H80.432ZM95.3869 45.192C94.3709 45.192 93.4909 44.996 92.7469 44.604C92.0029 44.212 91.4269 43.668 91.0189 42.972C90.6109 42.268 90.4069 41.444 90.4069 40.5C90.4069 39.564 90.6109 38.744 91.0189 38.04C91.4269 37.336 92.0029 36.788 92.7469 36.396C93.4909 36.004 94.3709 35.808 95.3869 35.808C96.3949 35.808 97.2709 36.004 98.0149 36.396C98.7589 36.788 99.3349 37.336 99.7429 38.04C100.151 38.736 100.355 39.556 100.355 40.5C100.355 41.436 100.151 42.256 99.7429 42.96C99.3349 43.664 98.7589 44.212 98.0149 44.604C97.2709 44.996 96.3949 45.192 95.3869 45.192ZM95.3869 43.344C96.2429 43.344 96.9069 43.096 97.3789 42.6C97.8589 42.104 98.0989 41.404 98.0989 40.5C98.0989 39.596 97.8589 38.896 97.3789 38.4C96.9069 37.904 96.2429 37.656 95.3869 37.656C94.5309 37.656 93.8629 37.904 93.3829 38.4C92.9029 38.896 92.6629 39.596 92.6629 40.5C92.6629 41.404 92.9029 42.104 93.3829 42.6C93.8629 43.096 94.5309 43.344 95.3869 43.344ZM101.315 39.204C101.363 38.508 101.591 37.908 101.999 37.404C102.407 36.892 102.947 36.5 103.619 36.228C104.299 35.948 105.067 35.808 105.923 35.808C106.739 35.808 107.451 35.932 108.059 36.18C108.675 36.428 109.151 36.776 109.487 37.224C109.831 37.672 110.003 38.188 110.003 38.772C110.003 39.228 109.883 39.652 109.643 40.044C109.403 40.428 109.023 40.812 108.503 41.196C107.983 41.58 107.299 41.988 106.451 42.42L103.859 43.788L103.727 43.188H110.255V45H101.471V43.416L105.335 41.196C105.951 40.844 106.431 40.544 106.775 40.296C107.127 40.04 107.375 39.804 107.519 39.588C107.663 39.372 107.735 39.14 107.735 38.892C107.735 38.636 107.663 38.408 107.519 38.208C107.383 38.008 107.175 37.852 106.895 37.74C106.615 37.628 106.263 37.572 105.839 37.572C105.335 37.572 104.919 37.648 104.591 37.8C104.263 37.944 104.019 38.14 103.859 38.388C103.699 38.636 103.603 38.908 103.571 39.204H101.315ZM119.054 36V45H116.81V36.984H117.542L112.742 42.288L112.718 41.568H120.542V43.272H111.05V41.664L116.186 36H119.054Z" fill="white"/>
</svg>
