<?xml version="1.0" encoding="UTF-8"?>
<svg id="Layer_2" data-name="Layer 2" xmlns="http://www.w3.org/2000/svg" viewBox="0 0 481 396.07">
  <defs>
    <style>
      .cls-1 {
        fill: #fff;
        stroke-width: 0px;
      }
    </style>
  </defs>
  <g id="Layer_1-2" data-name="Layer 1">
    <g>
      <path class="cls-1" d="m51.22,234.29L0,338.42h26.37l10.41-22h60.63l10.41,22h26.37l-51.22-104.13h-31.74Zm-5.21,63.15l21.16-44.84,21.16,44.84h-42.32Z"/>
      <path class="cls-1" d="m228.07,238.65c-6.38-2.86-13.77-4.37-22.51-4.37h-59.62v104.13h24.86v-35.27h34.93c8.57,0,16.12-1.51,22.51-4.37,6.38-2.85,11.08-6.89,14.44-12.09,3.36-5.21,5.04-11.08,5.04-17.97s-1.68-12.93-5.04-17.97c-3.36-5.21-8.23-9.24-14.61-12.09Zm-10.25,41.15c-3.19,2.69-7.73,4.03-13.44,4.03h-33.59v-30.06h33.59c5.71,0,10.24,1.34,13.44,4.03,3.19,2.69,4.87,6.38,4.87,11.09s-1.51,8.23-4.87,10.92Z"/>
      <path class="cls-1" d="m336.23,261.83c-5.54-3.02-12.26-4.53-20.15-4.53-6.89,0-13.1,1.51-18.64,4.53-5.21,2.86-9.4,6.72-12.93,11.76v-42.15h-24.35v106.98h24.35v-38.12c0-4.87,1.01-9.07,2.85-12.6,1.85-3.53,4.54-6.21,8.23-8.23,3.53-2.01,7.73-3.02,12.43-3.02,6.72,0,11.92,1.85,15.62,5.54,3.53,3.69,5.37,9.07,5.37,16.12v40.48h24.35v-43.84c0-7.72-1.51-14.27-4.37-19.82-3.02-5.88-7.22-10.08-12.76-13.1Z"/>
      <path class="cls-1" d="m476.8,295.76c-2.69-4.03-6.72-7.22-12.26-9.57-2.35-1.01-5.04-1.85-8.06-2.35,1.34-.5,2.52-1.17,3.53-1.68,4.7-2.69,8.06-6.05,10.24-10.08,2.01-4.03,3.19-8.06,3.19-12.43,0-7.89-2.85-14.11-8.4-18.47-5.54-4.54-13.44-6.72-23.51-6.72h-73.9l8.4,50.72-8.4,53.41h76.75c8.06,0,14.78-1.17,20.15-3.7,5.37-2.52,9.41-5.88,12.26-10.24,2.69-4.37,4.2-9.24,4.2-14.78-.34-5.54-1.68-10.08-4.2-14.11Zm-42.66-44.17c4.54,0,8.06,1.01,10.41,3.19,2.52,2.18,3.7,4.87,3.7,8.06,0,4.2-1.51,7.56-4.37,9.91-2.85,2.35-6.55,3.53-10.92,3.53h-34.93l-4.37-24.86,40.48.17Zm17.13,66c-2.86,2.35-6.89,3.53-12.26,3.53h-45.18l4.53-27.71h37.62c6.38,0,11.25,1.34,14.61,3.86,3.36,2.52,5.04,6.05,5.04,10.41s-1.51,7.56-4.37,9.91Z"/>
      <path class="cls-1" d="m340.76,50.05h-.34v-5.37c0-24.02-19.48-43.5-43.67-43.5s-43.67,19.48-43.67,43.5c0,5.54,4.53,10.08,10.08,10.08s10.08-4.53,10.08-10.08c0-12.93,10.41-23.34,23.35-23.34s23.68,10.58,23.68,23.34v15.45c0,5.54,4.53,10.08,10.08,10.08h10.58c12.93,0,23.35,10.41,23.35,23.34s-10.41,23.35-23.35,23.35h-10.58c-5.54,0-10.08,4.53-10.08,10.08v15.45c0,12.93-10.41,23.35-23.35,23.35s-23.35-10.41-23.35-23.35v-26.37c0-18.64-15.11-33.76-33.76-33.76-7.39,0-13.6-6.05-13.6-13.6v-25.19c0-24.02-19.48-43.5-43.67-43.5s-43.67,19.48-43.67,43.5v5.37c-23.68.5-42.66,19.82-42.66,43.5s18.98,42.99,42.66,43.5v5.37c0,24.02,19.48,43.5,43.67,43.5s43.67-19.48,43.67-43.5c0-5.54-4.54-10.08-10.08-10.08s-10.08,4.53-10.08,10.08c0,12.93-10.41,23.35-23.34,23.35s-23.35-10.41-23.35-23.35v-15.45c0-5.54-4.54-10.08-10.08-10.08h-9.24c-12.93,0-23.35-10.41-23.35-23.34s10.41-23.34,23.35-23.34h9.24c5.54,0,10.08-4.53,10.08-10.08v-15.45c0-12.93,10.41-23.34,23.35-23.34s23.34,10.41,23.34,23.34v25.36c0,18.64,15.12,33.76,33.76,33.76,7.39,0,13.6,6.05,13.6,13.6v26.37c0,24.02,19.48,43.5,43.67,43.5s43.67-19.48,43.67-43.5v-5.38h.34c24.02,0,43.67-19.48,43.67-43.5s-19.82-43.67-44-43.67Z"/>
      <path class="cls-1" d="m179.53,373.18c.17-2.69,1.01-4.87,2.52-6.89,1.51-1.85,3.53-3.36,6.21-4.37,2.52-1.01,5.38-1.51,8.73-1.51,3.02,0,5.71.5,8.06,1.34,2.35.84,4.03,2.18,5.38,3.86,1.34,1.68,1.85,3.69,1.85,5.88,0,1.68-.5,3.36-1.34,4.7-.84,1.34-2.35,2.86-4.37,4.37-2.02,1.51-4.54,3.02-7.73,4.7l-9.74,5.21-.5-2.35h24.69v6.89h-33.25v-6.05l14.61-8.4c2.35-1.34,4.2-2.52,5.54-3.36,1.34-1.01,2.18-1.85,2.86-2.69.5-.84.84-1.68.84-2.69s-.34-1.85-.84-2.52c-.5-.67-1.34-1.34-2.35-1.85-1.01-.5-2.35-.67-4.03-.67-1.85,0-3.53.33-4.7.84-1.18.5-2.18,1.34-2.69,2.18-.67,1.01-1.01,2.01-1.01,3.02h-8.73v.34Z"/>
      <path class="cls-1" d="m235.96,395.68c-3.86,0-7.22-.67-9.91-2.18-2.69-1.51-5.04-3.53-6.55-6.21-1.51-2.69-2.35-5.71-2.35-9.24s.84-6.72,2.35-9.24c1.51-2.52,3.69-4.7,6.55-6.21,2.85-1.51,6.21-2.18,9.91-2.18s7.05.67,9.91,2.18c2.86,1.51,5.04,3.53,6.55,6.21,1.51,2.69,2.35,5.71,2.35,9.24s-.84,6.72-2.35,9.24c-1.51,2.52-3.69,4.7-6.55,6.21-2.69,1.51-6.05,2.18-9.91,2.18Zm0-6.89c3.19,0,5.71-1.01,7.56-2.86,1.85-1.85,2.69-4.54,2.69-7.89s-.84-6.05-2.69-7.89c-1.85-1.85-4.37-2.86-7.56-2.86s-5.71,1.01-7.56,2.86c-1.85,1.85-2.69,4.53-2.69,7.89s.84,6.05,2.69,7.89c1.85,1.85,4.37,2.86,7.56,2.86Z"/>
      <path class="cls-1" d="m258.47,373.18c.17-2.69,1.01-4.87,2.52-6.89,1.51-1.85,3.53-3.36,6.21-4.37,2.52-1.01,5.37-1.51,8.73-1.51,3.02,0,5.71.5,8.06,1.34,2.35.84,4.03,2.18,5.37,3.86,1.34,1.68,1.85,3.69,1.85,5.88,0,1.68-.5,3.36-1.34,4.7-.84,1.34-2.35,2.86-4.37,4.37-2.01,1.51-4.53,3.02-7.73,4.7l-9.74,5.21-.5-2.35h24.69v6.89h-33.25v-6.05l14.61-8.4c2.35-1.34,4.2-2.52,5.54-3.36,1.34-1.01,2.18-1.85,2.85-2.69.5-.84.84-1.68.84-2.69s-.34-1.85-.84-2.52c-.5-.67-1.34-1.34-2.35-1.85-1.01-.5-2.35-.67-4.03-.67-1.85,0-3.53.33-4.7.84s-2.18,1.34-2.69,2.18c-.67,1.01-1.01,2.01-1.01,3.02h-8.73v.34Z"/>
      <path class="cls-1" d="m321.73,374.8c2.05.92,3.64,2.2,4.75,3.84s1.67,3.51,1.67,5.62c0,2.31-.64,4.36-1.92,6.14-1.28,1.79-3.13,3.18-5.54,4.17-2.41.99-5.27,1.49-8.56,1.49s-5.96-.47-8.39-1.42-4.35-2.23-5.75-3.86c-1.4-1.63-2.18-3.46-2.36-5.5h9.06c.26,1.16,1.05,2.07,2.36,2.75,1.31.68,3,1.02,5.08,1.02,1.43,0,2.67-.19,3.72-.58s1.84-.94,2.39-1.67.82-1.58.82-2.58-.26-1.79-.77-2.51c-.51-.72-1.27-1.29-2.28-1.69-1.01-.4-2.22-.6-3.64-.6-1.68,0-3.16.26-4.43.79-1.27.53-2.33,1.18-3.16,1.98h-7.86l2.85-19.77h25.79v6.76h-19.69l-1.1,7.18c1.17-.92,2.57-1.64,4.19-2.16,1.62-.52,3.47-.78,5.53-.78,2.76,0,5.17.46,7.23,1.38Z"/>
    </g>
  </g>
</svg>