<?xml version="1.0" encoding="UTF-8"?>
<svg id="Layer_2" data-name="Layer 2" xmlns="http://www.w3.org/2000/svg" viewBox="0 0 127.5 29.97">
  <defs>
    <style>
      .cls-1 {
        stroke-width: 0px;
      }
    </style>
  </defs>
  <g id="Layer_1-2" data-name="Layer 1">
    <g>
      <path class="cls-1" d="m39.31,8.07h-.06v-.86c0-3.87-3.15-7.01-7.01-7.01s-7.01,3.15-7.01,7.01c0,.9.73,1.63,1.63,1.63s1.63-.73,1.63-1.63c0-2.07,1.69-3.76,3.76-3.76s3.76,1.69,3.76,3.76v2.49c0,.9.73,1.63,1.63,1.63h1.69c2.07,0,3.76,1.69,3.76,3.76s-1.69,3.76-3.76,3.76h-1.69c-.9,0-1.63.73-1.63,1.63v2.49c0,2.07-1.69,3.76-3.76,3.76s-3.76-1.69-3.76-3.76v-4.26c0-3-2.44-5.44-5.43-5.44-1.2,0-2.18-.98-2.18-2.18v-4.07c0-3.87-3.15-7.01-7.01-7.01s-7.01,3.15-7.01,7.01v.86c-3.8.08-6.86,3.19-6.86,7.01s3.06,6.93,6.86,7.01v.86c0,3.87,3.15,7.01,7.01,7.01s7.01-3.15,7.01-7.01c0-.9-.73-1.63-1.63-1.63s-1.63.73-1.63,1.63c0,2.07-1.69,3.76-3.75,3.76s-3.76-1.69-3.76-3.76v-2.49c0-.9-.73-1.63-1.63-1.63h-1.48c-2.07,0-3.76-1.69-3.76-3.76s1.69-3.76,3.76-3.76h1.48c.9,0,1.63-.73,1.63-1.63v-2.49c0-2.07,1.69-3.76,3.76-3.76s3.75,1.69,3.75,3.76v4.07c0,3,2.44,5.44,5.43,5.44,1.2,0,2.18.98,2.18,2.18v4.26c0,3.87,3.15,7.01,7.01,7.01s7.01-3.15,7.01-7.01v-.86h.06c3.87,0,7.01-3.15,7.01-7.01,0-3.86-3.15-7.01-7.01-7.01Z"/>
      <path class="cls-1" d="m56.13,15.58h9.74l1.67,3.53h4.24L63.56,2.34h-5.11l-8.23,16.77h4.24l1.67-3.53Zm4.87-10.3l3.41,7.22h-6.83l3.41-7.22Z"/>
      <path class="cls-1" d="m86.89,3.04c-1.01-.46-2.22-.7-3.61-.7h-9.59v16.77h3.99v-5.68h5.61c1.39,0,2.59-.24,3.61-.71,1.01-.47,1.79-1.12,2.33-1.95.54-.83.81-1.79.81-2.9s-.27-2.07-.81-2.91c-.54-.83-1.32-1.47-2.33-1.94Zm-1.66,6.62c-.52.43-1.25.65-2.17.65h-5.39v-4.83h5.39c.92,0,1.64.21,2.17.63.52.43.79,1.02.79,1.78s-.26,1.34-.79,1.77Z"/>
      <path class="cls-1" d="m104.26,6.78c-.89-.49-1.97-.73-3.23-.73-1.1,0-2.09.24-3,.74-.83.45-1.53,1.09-2.09,1.9V1.9h-3.91v17.21h3.91v-6.15c0-.79.15-1.47.46-2.04.31-.57.74-1.01,1.31-1.33.57-.32,1.24-.48,2-.48,1.1,0,1.93.29,2.51.88.58.59.87,1.46.87,2.61v6.5h3.91v-7.07c0-1.24-.24-2.31-.71-3.2-.47-.9-1.15-1.59-2.04-2.07h0Z"/>
      <path class="cls-1" d="m126.87,12.23c-.42-.65-1.08-1.16-1.97-1.54-.38-.16-.82-.29-1.29-.39.21-.09.4-.18.57-.28.76-.44,1.31-.98,1.64-1.62.34-.64.5-1.31.5-1.99,0-1.27-.45-2.26-1.35-2.99-.9-.73-2.16-1.09-3.79-1.09h-11.89l1.36,8.16-1.36,8.61h12.33c1.3,0,2.38-.2,3.23-.61.86-.4,1.51-.96,1.96-1.66.45-.7.67-1.5.67-2.39,0-.84-.22-1.58-.63-2.22Zm-5.16-6.57c.39.35.59.79.59,1.31,0,.69-.23,1.22-.69,1.6-.46.38-1.04.57-1.75.57h-5.61l-.69-4h6.46c.74,0,1.3.17,1.69.52Zm1.07,10.08c-.46.38-1.11.57-1.96.57h-7.28l.72-4.45h6.06c1.03,0,1.81.21,2.34.61.53.41.8.97.8,1.67,0,.7-.22,1.22-.69,1.59Z"/>
      <path class="cls-1" d="m50.22,24.48c.03-.43.17-.81.43-1.12.25-.32.59-.56,1.01-.73.42-.17.9-.26,1.44-.26s.95.08,1.33.23c.38.15.68.37.89.65.21.28.32.6.32.97,0,.28-.07.55-.22.79-.15.24-.39.48-.71.72-.32.24-.75.49-1.28.76l-1.62.85-.08-.37h4.08v1.13h-5.48v-.99l2.41-1.39c.38-.22.68-.41.9-.56.22-.16.37-.31.46-.44.09-.13.13-.28.13-.43s-.04-.3-.13-.43c-.08-.12-.21-.22-.39-.29-.17-.07-.39-.1-.66-.1-.31,0-.57.05-.78.14-.2.09-.36.21-.46.37-.1.15-.16.32-.18.51h-1.41Zm9.34,3.74c-.63,0-1.18-.12-1.65-.37-.46-.24-.82-.58-1.08-1.02-.25-.44-.38-.95-.38-1.54s.13-1.1.38-1.54c.25-.44.61-.78,1.08-1.03.46-.24,1.01-.37,1.65-.37s1.18.12,1.64.37.82.59,1.08,1.03c.25.43.38.95.38,1.54s-.13,1.1-.38,1.54c-.25.44-.61.78-1.08,1.03s-1.01.37-1.64.37Zm0-1.15c.53,0,.95-.15,1.24-.46.3-.31.45-.75.45-1.31s-.15-1-.45-1.31c-.29-.31-.71-.46-1.24-.46s-.95.15-1.25.46c-.3.31-.45.75-.45,1.31s.15,1,.45,1.31c.3.31.72.46,1.25.46Zm3.7-2.58c.03-.43.17-.81.43-1.12.25-.32.59-.56,1.01-.73.42-.17.9-.26,1.44-.26s.95.08,1.33.23c.38.15.68.37.89.65.21.28.32.6.32.97,0,.28-.07.55-.22.79-.15.24-.39.48-.71.72-.32.24-.75.49-1.28.76l-1.62.85-.08-.37h4.08v1.13h-5.48v-.99l2.41-1.39c.38-.22.68-.41.9-.56.22-.16.37-.31.46-.44.09-.13.13-.28.13-.43s-.04-.3-.13-.43c-.08-.12-.21-.22-.39-.29-.17-.07-.39-.1-.66-.1-.31,0-.57.05-.78.14-.2.09-.36.21-.46.37-.1.15-.16.32-.18.51h-1.41Z"/>
      <path class="cls-1" d="m74.01,24.7c.34.15.6.36.79.64s.28.58.28.93c0,.38-.11.72-.32,1.02-.21.3-.52.53-.92.69-.4.16-.87.25-1.42.25s-.99-.08-1.39-.23c-.4-.16-.72-.37-.95-.64-.23-.27-.36-.57-.39-.91h1.5c.04.19.17.34.39.46.22.11.5.17.84.17.24,0,.44-.03.62-.1s.31-.16.4-.28c.09-.12.14-.26.14-.43s-.04-.3-.13-.42c-.08-.12-.21-.21-.38-.28-.17-.07-.37-.1-.6-.1-.28,0-.52.04-.73.13s-.39.2-.52.33h-1.3l.47-3.27h4.27v1.12h-3.26l-.18,1.19c.19-.15.42-.27.69-.36.27-.09.57-.13.92-.13.46,0,.86.08,1.2.23Z"/>
    </g>
  </g>
</svg>