<?xml version="1.0" standalone="no"?>
<!DOCTYPE svg PUBLIC "-//W3C//DTD SVG 20010904//EN"
 "http://www.w3.org/TR/2001/REC-SVG-20010904/DTD/svg10.dtd">

<svg xmlns="http://www.w3.org/2000/svg"
     width="128px" height="30px"
     viewBox="0 0 533 130"
     preserveAspectRatio="xMidYMid meet">
<g transform="translate(0.000000,130.000000) scale(0.100000,-0.100000)"
fill="#000000" stroke="none">
<path d="M481 1278 c-99 -38 -171 -133 -171 -226 0 -29 -2 -30 -59 -40 -235
-42 -328 -251 -177 -398 54 -52 106 -76 194 -90 39 -6 42 -9 42 -37 0 -94 78
-195 180 -232 202 -73 448 50 452 226 2 63 -22 89 -82 89 -45 0 -66 -17 -74
-60 -3 -16 -8 -43 -12 -59 -15 -78 -143 -118 -232 -72 -51 27 -63 52 -70 144
-7 102 -19 117 -98 117 -86 0 -140 18 -174 57 -52 59 -34 140 38 177 15 7 64
16 110 19 108 7 122 18 122 101 0 130 36 177 142 184 68 5 109 -9 142 -48 20
-25 23 -41 29 -160 6 -124 8 -136 34 -173 35 -50 72 -73 143 -88 30 -7 61 -18
69 -25 10 -9 16 -51 20 -141 5 -90 12 -137 24 -160 21 -40 78 -87 147 -121 47
-23 67 -27 140 -26 175 1 305 91 319 222 l6 55 62 13 c168 34 263 135 251 265
-11 112 -116 195 -280 224 -37 6 -38 7 -38 49 0 87 -84 185 -189 221 -66 22
-188 20 -257 -6 -110 -41 -184 -138 -184 -239 0 -41 7 -53 37 -69 62 -32 117
3 126 80 10 81 68 129 157 129 48 0 114 -31 134 -63 7 -12 16 -56 19 -97 8
-119 8 -118 127 -127 124 -9 180 -50 180 -129 0 -79 -71 -124 -195 -124 -91 0
-102 -12 -110 -115 -6 -63 -13 -92 -28 -111 -56 -72 -190 -72 -256 0 -23 24
-25 36 -29 149 -3 105 -7 128 -27 163 -31 52 -86 90 -155 105 -30 7 -60 16
-66 21 -7 5 -14 63 -19 141 -6 114 -10 138 -31 174 -27 47 -92 96 -155 118
-64 23 -211 19 -278 -7z"/>
<path d="M3850 875 l0 -346 88 3 87 3 5 162 c5 153 6 163 29 187 54 57 160 59
206 5 25 -30 25 -33 25 -195 l0 -164 90 0 90 0 0 173 c-1 230 -14 266 -115
313 -38 18 -67 24 -121 24 -80 0 -125 -12 -171 -47 l-33 -24 0 125 0 126 -90
0 -90 0 0 -345z"/>
<path d="M2236 888 c-91 -178 -168 -331 -171 -340 -7 -16 2 -18 89 -18 l96 0
35 70 35 70 183 -2 182 -3 35 -65 35 -65 98 -3 c53 -1 97 0 97 4 0 4 -32 68
-71 143 -40 75 -101 192 -137 261 -35 69 -82 158 -104 198 l-39 72 -99 0 -99
0 -165 -322z m326 25 l55 -118 -115 -3 c-63 -1 -117 -1 -119 2 -6 6 109 236
117 236 4 0 32 -53 62 -117z"/>
<path d="M3050 871 l0 -341 95 0 95 0 0 114 0 113 77 7 c42 3 108 6 148 6 180
0 310 93 307 221 -2 86 -54 149 -159 190 -53 21 -78 23 -310 27 l-253 4 0
-341z m477 194 c64 -38 64 -112 0 -159 -24 -18 -46 -21 -151 -24 l-123 -4 -8
96 c-4 52 -4 100 0 107 5 7 45 10 129 7 98 -3 127 -7 153 -23z"/>
<path d="M4580 869 l0 -341 273 4 c317 5 354 12 424 83 42 41 43 45 43 105 0
62 -1 64 -45 107 -25 23 -56 45 -70 49 -34 8 -31 18 10 43 103 60 97 189 -11
248 -59 33 -151 43 -401 43 l-223 0 0 -341z m501 192 c26 -32 21 -69 -13 -94
-23 -17 -47 -21 -163 -25 l-135 -5 0 77 0 77 146 -3 c140 -3 147 -4 165 -27z
m-6 -255 c60 -26 70 -69 26 -118 l-29 -33 -151 -3 -151 -4 0 86 0 86 135 0
c94 0 146 -4 170 -14z"/>
<path d="M2135 353 c-35 -18 -75 -53 -75 -65 0 -5 11 -14 25 -20 21 -9 33 -7
79 16 62 31 106 29 130 -6 30 -42 -18 -93 -162 -173 -68 -37 -77 -45 -77 -71
l0 -29 173 -3 172 -2 0 34 0 35 -97 3 -98 3 55 31 c153 87 182 189 69 246 -44
23 -152 23 -194 1z"/>
<path d="M2575 351 c-125 -58 -154 -204 -59 -293 41 -38 75 -48 156 -48 91 0
148 26 186 83 35 53 37 134 3 189 -47 78 -191 113 -286 69z m151 -57 c42 -20
64 -59 64 -115 0 -33 -6 -47 -34 -75 -39 -39 -86 -45 -136 -19 -84 43 -76 188
12 214 47 13 56 13 94 -5z"/>
<path d="M3000 351 c-42 -23 -74 -56 -66 -70 3 -5 19 -12 36 -16 22 -5 37 -1
60 17 42 31 105 31 130 0 36 -44 -5 -92 -152 -173 -74 -41 -83 -49 -86 -78
l-3 -31 175 0 176 0 0 35 0 35 -97 1 c-80 0 -95 2 -79 12 10 7 45 29 77 49 63
40 99 87 99 129 0 34 -35 78 -76 95 -48 20 -151 17 -194 -5z"/>
<path d="M3377 363 c-2 -5 -8 -41 -11 -82 -4 -40 -10 -79 -12 -86 -9 -23 51
-36 106 -23 68 15 127 -2 136 -39 15 -59 -77 -82 -165 -43 l-44 20 -24 -22
c-12 -12 -23 -25 -23 -30 0 -5 21 -19 48 -30 103 -47 260 -19 297 52 20 39 19
62 -6 94 -34 44 -76 60 -156 60 l-73 0 0 33 c0 19 5 33 13 34 6 0 56 0 110 -1
l97 -1 0 35 0 36 -144 0 c-80 0 -147 -3 -149 -7z"/>
</g>
</svg>
