<svg width="38" height="24" viewBox="0 0 38 24" fill="none" xmlns="http://www.w3.org/2000/svg">
<path d="M31.4769 6.46154H31.4269V5.76923C31.4269 2.67308 28.9077 0.153847 25.8154 0.153847C22.7231 0.153847 20.2038 2.67308 20.2038 5.76923C20.2038 6.48846 20.7885 7.07308 21.5077 7.07308C22.2269 7.07308 22.8115 6.48846 22.8115 5.76923C22.8115 4.11154 24.1615 2.76154 25.8192 2.76154C27.4769 2.76154 28.8269 4.11154 28.8269 5.76923V7.76538C28.8269 8.48461 29.4115 9.06923 30.1308 9.06923H31.4846C33.1423 9.06923 34.4923 10.4192 34.4923 12.0769C34.4923 13.7346 33.1423 15.0846 31.4846 15.0846H30.1308C29.4115 15.0846 28.8269 15.6692 28.8269 16.3885V18.3846C28.8269 20.0423 27.4769 21.3923 25.8192 21.3923C24.1615 21.3923 22.8115 20.0423 22.8115 18.3846V14.9769C22.8115 12.5769 20.8615 10.6231 18.4615 10.6231C17.5 10.6231 16.7192 9.83846 16.7192 8.87692V5.61538C16.7192 2.51923 14.2 0 11.1077 0C8.01538 0 5.49615 2.51923 5.49615 5.61538V6.30769C2.45385 6.37308 0 8.86538 0 11.9231C0 14.9808 2.45385 17.4731 5.49615 17.5385V18.2308C5.49615 21.3269 8.01538 23.8461 11.1077 23.8461C14.2 23.8461 16.7192 21.3269 16.7192 18.2308C16.7192 17.5115 16.1346 16.9269 15.4154 16.9269C14.6962 16.9269 14.1115 17.5115 14.1115 18.2308C14.1115 19.8885 12.7615 21.2385 11.1077 21.2385C9.45 21.2385 8.1 19.8885 8.1 18.2308V16.2346C8.1 15.5154 7.51539 14.9308 6.79615 14.9308H5.61154C3.95385 14.9308 2.60385 13.5808 2.60385 11.9231C2.60385 10.2654 3.95385 8.91538 5.61154 8.91538H6.79615C7.51539 8.91538 8.1 8.33077 8.1 7.61154V5.61538C8.1 3.95769 9.45 2.60769 11.1077 2.60769C12.7654 2.60769 14.1115 3.95769 14.1115 5.61538V8.87692C14.1115 11.2769 16.0615 13.2308 18.4615 13.2308C19.4231 13.2308 20.2077 14.0154 20.2077 14.9769V18.3846C20.2077 21.4808 22.7269 24 25.8192 24C28.9115 24 31.4308 21.4808 31.4308 18.3846V17.6923H31.4808C34.5769 17.6923 37.0923 15.1731 37.0923 12.0769C37.0885 8.98462 34.5692 6.46538 31.4769 6.46154Z" fill="black"/>
</svg>
