<svg width="362" height="99" viewBox="0 0 362 99" fill="none" xmlns="http://www.w3.org/2000/svg">
<g clip-path="url(#clip0_1089_237)">
<path d="M191.815 37.8804C190.312 37.2022 188.538 36.8667 186.48 36.8667H172.312V61.4199H178.202V53.1012H186.48C188.538 53.1012 190.312 52.7588 191.815 52.0672C193.317 51.3824 194.468 50.4288 195.26 49.2205C196.052 48.0119 196.458 46.5953 196.458 44.9838C196.458 43.3726 196.059 41.9491 195.26 40.7271C194.461 39.5052 193.317 38.5586 191.815 37.8804ZM189.371 47.5688C188.599 48.1999 187.529 48.5154 186.169 48.5154H178.202V41.4455H186.169C187.529 41.4455 188.599 41.7544 189.371 42.3788C190.142 43.0033 190.528 43.8695 190.528 44.9838C190.528 46.0984 190.142 46.9377 189.371 47.5688Z" fill="white"/>
<path d="M226.553 61.4199V36.8667H220.664V46.5548H205.772V36.8667H199.883V61.4199H205.772V51.4362H220.664V61.4199H226.553Z" fill="white"/>
<path d="M247.72 61.4199V51.3957L259.877 36.8667H253.331L244.741 47.1191L236.151 36.8667H229.605L241.831 51.4697V61.4199H247.72Z" fill="white"/>
<path d="M284.836 50.3216C284.227 49.4285 283.205 48.7101 281.79 48.1797C280.368 47.6426 278.46 47.26 276.056 47.0182L270.621 46.3938C268.956 46.1992 267.798 45.8969 267.141 45.4944C266.485 45.0915 266.153 44.5206 266.153 43.7756C266.153 42.8154 266.708 42.0701 267.818 41.5463C268.929 41.0228 270.418 40.7608 272.286 40.7608C273.626 40.7608 274.791 40.9086 275.786 41.2039C276.781 41.4994 277.559 41.9156 278.128 42.446C278.69 42.9831 279.035 43.6075 279.15 44.3259H285.107C285.012 42.7347 284.416 41.3383 283.306 40.15C282.196 38.9616 280.707 38.0349 278.839 37.3637C276.97 36.6988 274.831 36.3633 272.428 36.3633C270.025 36.3633 267.812 36.6652 265.984 37.2627C264.156 37.8605 262.748 38.7331 261.74 39.868C260.731 41.0026 260.23 42.3789 260.23 43.9902C260.23 46.0447 260.988 47.6426 262.498 48.7842C264.007 49.9321 266.451 50.6774 269.822 51.0265L275.055 51.5838C276.903 51.7784 278.168 52.0942 278.845 52.5171C279.529 52.9402 279.867 53.551 279.867 54.3365C279.867 55.3436 279.272 56.1224 278.08 56.6797C276.889 57.2371 275.271 57.5124 273.213 57.5124C271.806 57.5124 270.56 57.3444 269.49 57.0019C268.414 56.6664 267.561 56.1829 266.925 55.5585C266.288 54.934 265.903 54.209 265.767 53.3833H259.811C259.905 55.0885 260.515 56.5724 261.645 57.8548C262.775 59.1306 264.326 60.124 266.288 60.8358C268.252 61.5475 270.526 61.8966 273.112 61.8966C275.698 61.8966 277.871 61.5608 279.766 60.8829C281.661 60.2047 283.13 59.2511 284.179 58.0159C285.229 56.7804 285.757 55.3505 285.757 53.7121C285.757 52.3357 285.452 51.2011 284.836 50.308V50.3216Z" fill="white"/>
<path d="M295.592 36.8667H289.703V61.4199H295.592V36.8667Z" fill="white"/>
<path d="M301.515 42.4459C300.269 44.3527 299.646 46.5886 299.646 49.1398C299.646 51.6912 300.269 53.9269 301.515 55.8337C302.76 57.7471 304.5 59.2311 306.727 60.3052C308.954 61.3727 311.547 61.9098 314.505 61.9098C317.185 61.9098 319.569 61.4733 321.661 60.6008C323.752 59.7279 325.438 58.4991 326.716 56.9147C327.997 55.3301 328.768 53.504 329.018 51.4292H323.096C322.866 52.6109 322.365 53.618 321.606 54.4573C320.848 55.2966 319.86 55.9413 318.66 56.391C317.463 56.8407 316.061 57.0622 314.472 57.0622C312.644 57.0622 311.072 56.7401 309.74 56.0957C308.413 55.451 307.392 54.538 306.673 53.3426C305.957 52.1543 305.597 50.7513 305.597 49.1331C305.597 47.515 305.957 46.1187 306.673 44.9233C307.392 43.7349 308.413 42.8152 309.74 42.1706C311.066 41.5262 312.644 41.2037 314.472 41.2037C316.061 41.2037 317.463 41.4322 318.66 41.8886C319.86 42.3453 320.842 42.9966 321.606 43.8359C322.371 44.6749 322.866 45.6753 323.096 46.8301H329.018C328.761 44.7353 327.997 42.9026 326.716 41.3313C325.438 39.7603 323.752 38.5383 321.661 37.6655C319.569 36.7926 317.185 36.3562 314.505 36.3562C311.547 36.3562 308.954 36.8936 306.727 37.9611C304.5 39.0286 302.76 40.5192 301.515 42.4326V42.4459Z" fill="white"/>
<path d="M344.776 61.9099C347.314 61.9099 349.535 61.5744 351.43 60.8962C353.325 60.218 354.793 59.2647 355.845 58.0292C356.893 56.794 357.422 55.3638 357.422 53.7257C357.422 52.3493 357.117 51.2144 356.5 50.3216C355.89 49.4285 354.869 48.7101 353.454 48.1797C352.031 47.6426 350.125 47.26 347.722 47.0182L342.286 46.3938C340.621 46.1992 339.461 45.8969 338.805 45.4944C338.15 45.0915 337.817 44.5206 337.817 43.7756C337.817 42.8154 338.373 42.0701 339.482 41.5463C340.594 41.0228 342.081 40.7608 343.951 40.7608C345.29 40.7608 346.456 40.9086 347.45 41.2039C348.444 41.4994 349.224 41.9156 349.792 42.446C350.354 42.9831 350.699 43.6075 350.814 44.3259H356.772C356.676 42.7347 356.08 41.3384 354.971 40.15C353.859 38.9616 352.373 38.0349 350.502 37.3637C348.635 36.6988 346.495 36.3633 344.093 36.3633C341.691 36.3633 339.476 36.6652 337.648 37.2627C335.82 37.8605 334.412 38.7331 333.405 39.868C332.396 41.0026 331.895 42.3789 331.895 43.9902C331.895 46.0447 332.653 47.6426 334.161 48.7842C335.672 49.9321 338.116 50.6774 341.486 51.0265L346.719 51.5838C348.568 51.7784 349.831 52.0943 350.508 52.5171C351.194 52.9402 351.533 53.551 351.533 54.3365C351.533 55.3436 350.937 56.1224 349.744 56.6797C348.553 57.2371 346.937 57.5124 344.879 57.5124C343.471 57.5124 342.223 57.3444 341.156 57.0019C340.077 56.6664 339.225 56.1829 338.588 55.5585C337.953 54.934 337.566 54.209 337.43 53.3833H331.475C331.568 55.0885 332.179 56.5724 333.309 57.8548C334.439 59.1306 335.989 60.124 337.953 60.8358C339.917 61.5475 342.19 61.8966 344.776 61.8966V61.9099Z" fill="white"/>
<path d="M194.515 84.6839C193.946 84.4424 193.297 84.2611 192.599 84.1133C192.904 83.9857 193.195 83.8516 193.459 83.6971C194.576 83.0524 195.388 82.2603 195.882 81.3203C196.376 80.3804 196.627 79.4135 196.627 78.4065C196.627 76.5535 195.964 75.0964 194.637 74.0356C193.31 72.9748 191.442 72.4443 189.045 72.4443H171.486L173.497 84.3953L171.486 96.9975H189.709C191.624 96.9975 193.222 96.7022 194.488 96.1114C195.761 95.5205 196.722 94.7147 197.378 93.6874C198.035 92.6602 198.367 91.492 198.367 90.1827C198.367 88.9608 198.055 87.8731 197.432 86.9265C196.81 85.9799 195.842 85.2213 194.522 84.664L194.515 84.6839ZM189.804 77.3188C190.379 77.8289 190.67 78.4736 190.67 79.2322C190.67 80.2392 190.332 81.0181 189.648 81.5754C188.964 82.1327 188.105 82.4081 187.069 82.4081H178.79L177.768 76.5466H187.312C188.396 76.5466 189.228 76.8019 189.804 77.3188ZM191.381 92.0829C190.697 92.6402 189.736 92.9155 188.49 92.9155H177.741L178.811 86.4027H187.759C189.282 86.4027 190.44 86.7049 191.225 87.3025C192.01 87.9 192.403 88.7193 192.403 89.7397C192.403 90.7603 192.065 91.5256 191.381 92.0829Z" fill="white"/>
<path d="M210.659 72.4509L198.502 97.0041H204.77L207.241 91.8277H221.632L224.103 97.0041H230.371L218.214 72.4509H210.659ZM209.393 87.316L214.437 76.7414L219.48 87.316H209.393Z" fill="white"/>
<path d="M226.729 77.3659H237.085V97.0111H242.941V77.3659H253.264V72.4509H226.729V77.3659Z" fill="white"/>
<path d="M254.477 77.3659H264.833V97.0111H270.689V77.3659H281.012V72.4509H254.477V77.3659Z" fill="white"/>
<path d="M290.19 72.4509H284.301V97.0111H307.026V92.0961H290.19V72.4509Z" fill="white"/>
<path d="M316.786 86.8593H331.792V82.6027H316.786L315.864 77.0703H332.692V72.4509H309.482L311.492 84.731L309.482 97.0111H332.861V92.3917H315.864L316.786 86.8593Z" fill="white"/>
<path d="M360.975 85.9127C360.365 85.0196 359.343 84.3012 357.929 83.7708C356.506 83.2337 354.599 82.8511 352.194 82.6093L346.758 81.9849C345.093 81.7902 343.936 81.488 343.28 81.0851C342.624 80.6826 342.292 80.1116 342.292 79.3663C342.292 78.4064 342.848 77.6611 343.957 77.1374C345.066 76.6136 346.555 76.3518 348.423 76.3518C349.764 76.3518 350.928 76.4996 351.925 76.7949C352.919 77.0905 353.699 77.5067 354.267 78.0371C354.829 78.5742 355.173 79.1986 355.288 79.917H361.244C361.15 78.3257 360.555 76.9294 359.443 75.741C358.334 74.5527 356.844 73.626 354.977 72.9544C353.109 72.2898 350.97 71.9543 348.568 71.9543C346.163 71.9543 343.951 72.2563 342.123 72.8538C340.294 73.4513 338.886 74.3242 337.877 75.4591C336.868 76.5936 336.369 77.97 336.369 79.5812C336.369 81.6358 337.128 83.2337 338.636 84.3752C340.146 85.5231 342.588 86.2684 345.96 86.6175L351.194 87.1748C353.04 87.3695 354.306 87.685 354.983 88.1081C355.666 88.531 356.004 89.1421 356.004 89.9276C356.004 90.9346 355.409 91.7135 354.218 92.2708C353.028 92.8281 351.408 93.1035 349.35 93.1035C347.942 93.1035 346.697 92.9354 345.628 92.593C344.552 92.2575 343.7 91.7739 343.062 91.1495C342.428 90.5251 342.041 89.8 341.905 88.9743H335.949C336.043 90.6795 336.653 92.1635 337.783 93.4459C338.913 94.7213 340.464 95.7151 342.428 96.4268C344.389 97.1386 346.664 97.4877 349.251 97.4877C351.837 97.4877 354.01 97.1519 355.905 96.4737C357.799 95.7958 359.268 94.8422 360.316 93.607C361.368 92.3715 361.894 90.9416 361.894 89.3032C361.894 87.9268 361.591 86.7922 360.975 85.8991V85.9127Z" fill="white"/>
<path d="M130.301 26.5069V23.6669C130.301 10.9506 119.87 0.610975 107.056 0.610975C94.2422 0.610975 83.8043 10.9573 83.8043 23.6669C83.8043 26.6211 86.2208 29.018 89.1993 29.018C92.1777 29.018 94.5942 26.6211 94.5942 23.6669C94.5942 16.8589 100.179 11.3131 107.049 11.3131C113.92 11.3131 119.505 16.8522 119.505 23.6669V31.8648C119.505 34.8189 121.921 37.2159 124.9 37.2159H130.511C137.375 37.2159 142.967 42.7549 142.967 49.5697C142.967 56.3844 137.382 61.9235 130.511 61.9235H124.9C121.921 61.9235 119.505 64.3202 119.505 67.2745V75.4723C119.505 82.2804 113.92 87.8261 107.049 87.8261C100.179 87.8261 94.5942 82.2871 94.5942 75.4723V61.4804C94.5942 51.624 86.5118 43.6075 76.5746 43.6075C72.5944 43.6075 69.3521 40.3914 69.3521 36.4437V23.0626C69.3588 10.3463 58.9275 0 46.1068 0C33.286 0 22.8547 10.3463 22.8547 23.0626V25.9094C10.264 26.1645 0.103516 36.4101 0.103516 48.9586C0.103516 61.507 10.264 71.7527 22.8614 72.0145V74.8612C22.8614 87.5777 33.2926 97.9241 46.1134 97.9241C58.9342 97.9241 69.3654 87.5777 69.3654 74.8612C69.3654 71.9072 66.9489 69.5102 63.9705 69.5102C60.992 69.5102 58.5755 71.9072 58.5755 74.8612C58.5755 81.6693 52.9911 87.215 46.1204 87.215C39.2496 87.215 33.6649 81.676 33.6649 74.8612V66.6634C33.6649 63.7094 31.2484 61.3124 28.27 61.3124H23.3623C16.4984 61.3124 10.9071 55.7733 10.9071 48.9586C10.9071 42.1438 16.4917 36.6047 23.3623 36.6047H28.27C31.2484 36.6047 33.6649 34.208 33.6649 31.2537V23.0559C33.6649 16.2479 39.2496 10.7022 46.1204 10.7022C52.9911 10.7022 58.5755 16.2412 58.5755 23.0559V36.437C58.5755 46.2932 66.658 54.3096 76.5951 54.3096C80.5753 54.3096 83.8176 57.5257 83.8176 61.4735V75.4657C83.8176 88.1819 94.2488 98.5282 107.07 98.5282C119.891 98.5282 130.315 88.1819 130.315 75.4657V72.6256H130.525C143.346 72.6256 153.77 62.2792 153.77 49.563C153.77 36.8465 143.339 26.5069 130.525 26.5069H130.301Z" fill="white"/>
<path d="M202.736 25.0799H196.698L194.33 19.7964H180.452L178.083 25.0799H172.045L183.738 0H191.044L202.736 25.0799ZM187.391 4.36389L182.537 15.1817H192.261L187.391 4.36389Z" fill="white"/>
<path d="M211.084 0V20.0639H227.331V25.0799H205.43V0H211.084Z" fill="white"/>
<path d="M248.063 19.6459L256.887 0H265.594V25.0799H260.206V5.08285L250.966 25.0799H245.111L235.87 5.16648V25.0799H230.482V0H239.189L248.063 19.6459Z" fill="white"/>
<path d="M298.973 25.0799H292.935L290.566 19.7964H276.688L274.32 25.0799H268.281L279.974 0H287.28L298.973 25.0799ZM283.627 4.36389L278.773 15.1817H288.498L283.627 4.36389Z" fill="white"/>
<path d="M295.479 0H321.032V5.01599H311.09V25.0799H305.419V5.01599H295.479V0Z" fill="white"/>
<path d="M344.828 0H351.149L339.422 14.8473V25.0799H333.753V14.9142L321.975 0H328.299L336.569 10.4667L344.828 0Z" fill="white"/>
</g>
<defs>
<clipPath id="clip0_1089_237">
<rect width="362" height="98.5282" fill="white"/>
</clipPath>
</defs>
</svg>
